%TF.GenerationSoftware,KiCad,Pcbnew,7.0.8*%
%TF.CreationDate,2023-11-09T12:14:12+01:00*%
%TF.ProjectId,travel_pressure_pcb,74726176-656c-45f7-9072-657373757265,rev?*%
%TF.SameCoordinates,Original*%
%TF.FileFunction,Copper,L2,Bot*%
%TF.FilePolarity,Positive*%
%FSLAX46Y46*%
G04 Gerber Fmt 4.6, Leading zero omitted, Abs format (unit mm)*
G04 Created by KiCad (PCBNEW 7.0.8) date 2023-11-09 12:14:12*
%MOMM*%
%LPD*%
G01*
G04 APERTURE LIST*
%ADD10C,0.300000*%
%TA.AperFunction,NonConductor*%
%ADD11C,0.300000*%
%TD*%
%TA.AperFunction,NonConductor*%
%ADD12C,0.200000*%
%TD*%
%TA.AperFunction,ComponentPad*%
%ADD13C,1.800000*%
%TD*%
%TA.AperFunction,ComponentPad*%
%ADD14C,4.500000*%
%TD*%
%TA.AperFunction,ComponentPad*%
%ADD15R,0.850000X0.850000*%
%TD*%
%TA.AperFunction,ComponentPad*%
%ADD16C,0.850000*%
%TD*%
%TA.AperFunction,ViaPad*%
%ADD17C,0.800000*%
%TD*%
%TA.AperFunction,Conductor*%
%ADD18C,0.500000*%
%TD*%
%TA.AperFunction,Conductor*%
%ADD19C,0.300000*%
%TD*%
G04 APERTURE END LIST*
D10*
D11*
X114057942Y-53257993D02*
X114986507Y-53254486D01*
X114986507Y-53254486D02*
X114488668Y-53827799D01*
X114488668Y-53827799D02*
X114702953Y-53826990D01*
X114702953Y-53826990D02*
X114846079Y-53897878D01*
X114846079Y-53897878D02*
X114917776Y-53969037D01*
X114917776Y-53969037D02*
X114989744Y-54111623D01*
X114989744Y-54111623D02*
X114991093Y-54468763D01*
X114991093Y-54468763D02*
X114920204Y-54611889D01*
X114920204Y-54611889D02*
X114849046Y-54683587D01*
X114849046Y-54683587D02*
X114706459Y-54755554D01*
X114706459Y-54755554D02*
X114277891Y-54757173D01*
X114277891Y-54757173D02*
X114134765Y-54686284D01*
X114134765Y-54686284D02*
X114063067Y-54615126D01*
X116420733Y-54749080D02*
X115563596Y-54752317D01*
X115992164Y-54750699D02*
X115986499Y-53250710D01*
X115986499Y-53250710D02*
X115844452Y-53465533D01*
X115844452Y-53465533D02*
X115702136Y-53608929D01*
X115702136Y-53608929D02*
X115559549Y-53680896D01*
X117134743Y-54674955D02*
X117135013Y-54746383D01*
X117135013Y-54746383D02*
X117064124Y-54889509D01*
X117064124Y-54889509D02*
X116992966Y-54961206D01*
X118486481Y-53241268D02*
X117772201Y-53243966D01*
X117772201Y-53243966D02*
X117703470Y-53958516D01*
X117703470Y-53958516D02*
X117774628Y-53886818D01*
X117774628Y-53886818D02*
X117917215Y-53814851D01*
X117917215Y-53814851D02*
X118274355Y-53813502D01*
X118274355Y-53813502D02*
X118417481Y-53884390D01*
X118417481Y-53884390D02*
X118489179Y-53955549D01*
X118489179Y-53955549D02*
X118561146Y-54098135D01*
X118561146Y-54098135D02*
X118562495Y-54455275D01*
X118562495Y-54455275D02*
X118491607Y-54598401D01*
X118491607Y-54598401D02*
X118420448Y-54670099D01*
X118420448Y-54670099D02*
X118277862Y-54742067D01*
X118277862Y-54742067D02*
X117920722Y-54743415D01*
X117920722Y-54743415D02*
X117777596Y-54672527D01*
X117777596Y-54672527D02*
X117705898Y-54601369D01*
X119057905Y-53239110D02*
X120057898Y-53235334D01*
X120057898Y-53235334D02*
X119420711Y-54737751D01*
X121272175Y-53230748D02*
X120986463Y-53231827D01*
X120986463Y-53231827D02*
X120843876Y-53303794D01*
X120843876Y-53303794D02*
X120772718Y-53375492D01*
X120772718Y-53375492D02*
X120630671Y-53590316D01*
X120630671Y-53590316D02*
X120560322Y-53876298D01*
X120560322Y-53876298D02*
X120562480Y-54447722D01*
X120562480Y-54447722D02*
X120634448Y-54590309D01*
X120634448Y-54590309D02*
X120706145Y-54661467D01*
X120706145Y-54661467D02*
X120849271Y-54732355D01*
X120849271Y-54732355D02*
X121134984Y-54731276D01*
X121134984Y-54731276D02*
X121277570Y-54659309D01*
X121277570Y-54659309D02*
X121348728Y-54587611D01*
X121348728Y-54587611D02*
X121419617Y-54444485D01*
X121419617Y-54444485D02*
X121418268Y-54087345D01*
X121418268Y-54087345D02*
X121346300Y-53944759D01*
X121346300Y-53944759D02*
X121274603Y-53873600D01*
X121274603Y-53873600D02*
X121131477Y-53802712D01*
X121131477Y-53802712D02*
X120845765Y-53803791D01*
X120845765Y-53803791D02*
X120703178Y-53875758D01*
X120703178Y-53875758D02*
X120632020Y-53947456D01*
X120632020Y-53947456D02*
X120561131Y-54090582D01*
X121986995Y-53370906D02*
X122058153Y-53299208D01*
X122058153Y-53299208D02*
X122200739Y-53227241D01*
X122200739Y-53227241D02*
X122557880Y-53225892D01*
X122557880Y-53225892D02*
X122701005Y-53296781D01*
X122701005Y-53296781D02*
X122772703Y-53367939D01*
X122772703Y-53367939D02*
X122844671Y-53510525D01*
X122844671Y-53510525D02*
X122845210Y-53653381D01*
X122845210Y-53653381D02*
X122774592Y-53867935D01*
X122774592Y-53867935D02*
X121920692Y-54728309D01*
X121920692Y-54728309D02*
X122849257Y-54724802D01*
X124634958Y-54718058D02*
X124631181Y-53718066D01*
X124631721Y-53860922D02*
X124702879Y-53789224D01*
X124702879Y-53789224D02*
X124845465Y-53717256D01*
X124845465Y-53717256D02*
X125059749Y-53716447D01*
X125059749Y-53716447D02*
X125202875Y-53787336D01*
X125202875Y-53787336D02*
X125274843Y-53929922D01*
X125274843Y-53929922D02*
X125277810Y-54715631D01*
X125274843Y-53929922D02*
X125345731Y-53786796D01*
X125345731Y-53786796D02*
X125488318Y-53714829D01*
X125488318Y-53714829D02*
X125702602Y-53714019D01*
X125702602Y-53714019D02*
X125845728Y-53784908D01*
X125845728Y-53784908D02*
X125917695Y-53927494D01*
X125917695Y-53927494D02*
X125920663Y-54713203D01*
X126634943Y-54710505D02*
X126631167Y-53710512D01*
X126631706Y-53853369D02*
X126702865Y-53781671D01*
X126702865Y-53781671D02*
X126845451Y-53709703D01*
X126845451Y-53709703D02*
X127059735Y-53708894D01*
X127059735Y-53708894D02*
X127202861Y-53779782D01*
X127202861Y-53779782D02*
X127274829Y-53922369D01*
X127274829Y-53922369D02*
X127277796Y-54708078D01*
X127274829Y-53922369D02*
X127345717Y-53779243D01*
X127345717Y-53779243D02*
X127488304Y-53707275D01*
X127488304Y-53707275D02*
X127702588Y-53706466D01*
X127702588Y-53706466D02*
X127845714Y-53777355D01*
X127845714Y-53777355D02*
X127917681Y-53919941D01*
X127917681Y-53919941D02*
X127920649Y-54705650D01*
D12*
X105328112Y-68707254D02*
X105277578Y-55326419D01*
X136904112Y-68588004D02*
X136853578Y-55207169D01*
X105279792Y-55912835D02*
X136855792Y-55793585D01*
X105279792Y-55912835D02*
X136855792Y-55793585D01*
X105279792Y-55912835D02*
X106404073Y-55322164D01*
X105279792Y-55912835D02*
X106408502Y-56494997D01*
X136855792Y-55793585D02*
X135731511Y-56384256D01*
X136855792Y-55793585D02*
X135727082Y-55211423D01*
D13*
%TO.P,J2,1,1*%
%TO.N,GND*%
X106254000Y-91040000D03*
%TO.P,J2,2,2*%
%TO.N,TRAVEL_FRONT_SENSOR*%
X108204000Y-90415000D03*
%TO.P,J2,3,3*%
%TO.N,+3.3VA*%
X106254000Y-87640000D03*
%TO.P,J2,4,4*%
%TO.N,TRAVEL_REAR_SENSOR*%
X108204000Y-88265000D03*
D14*
%TO.P,J2,MH1,MH1*%
%TO.N,GND*%
X106754000Y-95590000D03*
%TO.P,J2,MH2,MH2*%
X106754000Y-83090000D03*
%TD*%
D13*
%TO.P,J1,1,1*%
%TO.N,GND*%
X124831000Y-94979000D03*
%TO.P,J1,2,2*%
%TO.N,PRESSURE_FRONT_SENSOR*%
X124206000Y-93029000D03*
%TO.P,J1,3,3*%
%TO.N,+5VA*%
X121431000Y-94979000D03*
%TO.P,J1,4,4*%
%TO.N,PRESSURE_REAR_SENSOR*%
X122056000Y-93029000D03*
D14*
%TO.P,J1,MH1,MH1*%
%TO.N,GND*%
X129381000Y-94479000D03*
%TO.P,J1,MH2,MH2*%
X116881000Y-94479000D03*
%TD*%
D13*
%TO.P,J3,1,1*%
%TO.N,GND*%
X121431000Y-79067000D03*
%TO.P,J3,2,2*%
%TO.N,BRAKE_SENSOR_LEFT*%
X122056000Y-81017000D03*
%TO.P,J3,3,3*%
%TO.N,+3.3VA*%
X124831000Y-79067000D03*
%TO.P,J3,4,4*%
%TO.N,BRAKE_SENSOR_RIGHT*%
X124206000Y-81017000D03*
D14*
%TO.P,J3,MH1,MH1*%
%TO.N,GND*%
X116881000Y-79567000D03*
%TO.P,J3,MH2,MH2*%
X129381000Y-79567000D03*
%TD*%
D15*
%TO.P,J4,1,1*%
%TO.N,GND*%
X113186750Y-73729000D03*
D16*
%TO.P,J4,2,2*%
%TO.N,+5VA*%
X111936750Y-73729000D03*
%TO.P,J4,3,3*%
%TO.N,BRAKE_SENSOR_RIGHT*%
X110686750Y-73729000D03*
%TO.P,J4,4,4*%
%TO.N,BRAKE_SENSOR_LEFT*%
X109436750Y-73729000D03*
%TO.P,J4,5,5*%
%TO.N,TRAVEL_FRONT_SENSOR*%
X108186750Y-73729000D03*
%TO.P,J4,6,6*%
%TO.N,TRAVEL_REAR_SENSOR*%
X106936750Y-73729000D03*
%TO.P,J4,7,7*%
%TO.N,+3.3VA*%
X105686750Y-73729000D03*
%TO.P,J4,8,8*%
%TO.N,GND*%
X104436750Y-73729000D03*
%TO.P,J4,9,9*%
%TO.N,PRESSURE_REAR_SENSOR*%
X103186750Y-73729000D03*
%TO.P,J4,10,10*%
%TO.N,PRESSURE_FRONT_SENSOR*%
X101936750Y-73729000D03*
%TD*%
D17*
%TO.N,GND*%
X110490000Y-75565000D03*
X121920000Y-87122000D03*
X113411000Y-75565000D03*
X116840000Y-87122000D03*
%TD*%
D18*
%TO.N,GND*%
X110490000Y-75565000D02*
X113411000Y-75565000D01*
X116840000Y-87122000D02*
X121920000Y-87122000D01*
D19*
%TO.N,TRAVEL_REAR_SENSOR*%
X109474000Y-77251169D02*
X106936750Y-74713919D01*
X109474000Y-86995000D02*
X109474000Y-77251169D01*
X106936750Y-74713919D02*
X106936750Y-73729000D01*
X108204000Y-88265000D02*
X109474000Y-86995000D01*
D18*
%TO.N,+3.3VA*%
X105686750Y-73729000D02*
X105686750Y-73891250D01*
X105686750Y-73891250D02*
X102489000Y-77089000D01*
D19*
%TO.N,TRAVEL_FRONT_SENSOR*%
X108186750Y-75256813D02*
X108186750Y-73729000D01*
X110617000Y-88002000D02*
X110617000Y-77687063D01*
X108204000Y-90415000D02*
X110617000Y-88002000D01*
X110617000Y-77687063D02*
X108186750Y-75256813D01*
%TO.N,BRAKE_SENSOR_LEFT*%
X122056000Y-81017000D02*
X120906000Y-82167000D01*
X109436750Y-75799706D02*
X109436750Y-73729000D01*
X120906000Y-82167000D02*
X115804044Y-82167000D01*
X115804044Y-82167000D02*
X109436750Y-75799706D01*
%TO.N,BRAKE_SENSOR_RIGHT*%
X124206000Y-81017000D02*
X123572222Y-80383222D01*
X118745000Y-74549000D02*
X111506750Y-74549000D01*
X111506750Y-74549000D02*
X110686750Y-73729000D01*
X123572222Y-80383222D02*
X123572222Y-79376222D01*
X123572222Y-79376222D02*
X118745000Y-74549000D01*
%TD*%
%TA.AperFunction,Conductor*%
%TO.N,+3.3VA*%
G36*
X101475781Y-72711785D02*
G01*
X101521536Y-72764589D01*
X101531480Y-72833747D01*
X101502455Y-72897303D01*
X101476392Y-72918821D01*
X101476709Y-72919258D01*
X101471451Y-72923077D01*
X101471451Y-72923078D01*
X101397535Y-72976780D01*
X101314055Y-73037433D01*
X101314052Y-73037435D01*
X101183879Y-73182009D01*
X101086607Y-73350488D01*
X101086606Y-73350489D01*
X101026488Y-73535516D01*
X101006152Y-73729000D01*
X101026488Y-73922483D01*
X101086606Y-74107510D01*
X101086607Y-74107511D01*
X101110843Y-74149488D01*
X101183880Y-74275992D01*
X101229226Y-74326354D01*
X101314052Y-74420564D01*
X101314055Y-74420566D01*
X101314058Y-74420569D01*
X101384211Y-74471538D01*
X101471452Y-74534923D01*
X101512329Y-74553122D01*
X101649179Y-74614051D01*
X101839476Y-74654500D01*
X102034024Y-74654500D01*
X102224321Y-74614051D01*
X102402049Y-74534922D01*
X102488866Y-74471844D01*
X102554670Y-74448366D01*
X102622724Y-74464191D01*
X102634623Y-74471837D01*
X102703506Y-74521884D01*
X102721452Y-74534923D01*
X102762329Y-74553122D01*
X102899179Y-74614051D01*
X103089476Y-74654500D01*
X103284024Y-74654500D01*
X103474321Y-74614051D01*
X103652049Y-74534922D01*
X103738866Y-74471844D01*
X103804670Y-74448366D01*
X103872724Y-74464191D01*
X103884623Y-74471837D01*
X103953506Y-74521884D01*
X103971452Y-74534923D01*
X104012329Y-74553122D01*
X104149179Y-74614051D01*
X104339476Y-74654500D01*
X104534024Y-74654500D01*
X104724321Y-74614051D01*
X104902049Y-74534922D01*
X104989289Y-74471537D01*
X105055095Y-74448057D01*
X105123149Y-74463882D01*
X105135061Y-74471537D01*
X105221700Y-74534484D01*
X105399337Y-74613573D01*
X105399336Y-74613573D01*
X105589529Y-74654000D01*
X105783971Y-74654000D01*
X105974163Y-74613573D01*
X105974166Y-74613572D01*
X106109938Y-74553122D01*
X106179188Y-74543837D01*
X106242465Y-74573465D01*
X106279678Y-74632600D01*
X106284313Y-74662504D01*
X106286250Y-74724121D01*
X106286250Y-74754839D01*
X106286251Y-74754859D01*
X106287168Y-74762125D01*
X106287626Y-74767943D01*
X106289152Y-74816486D01*
X106289153Y-74816489D01*
X106295073Y-74836867D01*
X106299018Y-74855915D01*
X106301678Y-74876973D01*
X106301681Y-74876983D01*
X106319563Y-74922149D01*
X106321455Y-74927677D01*
X106335004Y-74974314D01*
X106335005Y-74974316D01*
X106345810Y-74992585D01*
X106354367Y-75010053D01*
X106359976Y-75024219D01*
X106362182Y-75029791D01*
X106390733Y-75069089D01*
X106393938Y-75073968D01*
X106418669Y-75115784D01*
X106418673Y-75115788D01*
X106433675Y-75130790D01*
X106446313Y-75145588D01*
X106458783Y-75162752D01*
X106458786Y-75162755D01*
X106458787Y-75162756D01*
X106496226Y-75193728D01*
X106500526Y-75197641D01*
X107652033Y-76349148D01*
X108787181Y-77484296D01*
X108820666Y-77545619D01*
X108823500Y-77571977D01*
X108823500Y-80970343D01*
X108803815Y-81037382D01*
X108751011Y-81083137D01*
X108681853Y-81093081D01*
X108618297Y-81064056D01*
X108611819Y-81058024D01*
X108581255Y-81027460D01*
X108319326Y-80822251D01*
X108319318Y-80822246D01*
X108034557Y-80650102D01*
X107731123Y-80513537D01*
X107731116Y-80513534D01*
X107731104Y-80513530D01*
X107413449Y-80414546D01*
X107413445Y-80414545D01*
X107413441Y-80414544D01*
X107086142Y-80354564D01*
X107086141Y-80354563D01*
X107086136Y-80354563D01*
X106754000Y-80334473D01*
X106421863Y-80354563D01*
X106421858Y-80354564D01*
X106094559Y-80414544D01*
X106094556Y-80414544D01*
X106094550Y-80414546D01*
X105776895Y-80513530D01*
X105776879Y-80513536D01*
X105776877Y-80513537D01*
X105672081Y-80560702D01*
X105473447Y-80650100D01*
X105473445Y-80650101D01*
X105188673Y-80822251D01*
X104926744Y-81027460D01*
X104691460Y-81262744D01*
X104486251Y-81524673D01*
X104486246Y-81524682D01*
X104314102Y-81809443D01*
X104225235Y-82006898D01*
X104177536Y-82112880D01*
X104177530Y-82112895D01*
X104078546Y-82430550D01*
X104078544Y-82430556D01*
X104078544Y-82430559D01*
X104046525Y-82605282D01*
X104018563Y-82757863D01*
X103998473Y-83090000D01*
X104018563Y-83422136D01*
X104018563Y-83422141D01*
X104018564Y-83422142D01*
X104078544Y-83749441D01*
X104078545Y-83749445D01*
X104078546Y-83749449D01*
X104177530Y-84067104D01*
X104177534Y-84067116D01*
X104177537Y-84067123D01*
X104314102Y-84370557D01*
X104486246Y-84655318D01*
X104486251Y-84655326D01*
X104691460Y-84917255D01*
X104926744Y-85152539D01*
X105188673Y-85357748D01*
X105188678Y-85357751D01*
X105188682Y-85357754D01*
X105473443Y-85529898D01*
X105776877Y-85666463D01*
X105776890Y-85666467D01*
X105776895Y-85666469D01*
X105988665Y-85732458D01*
X106094559Y-85765456D01*
X106421858Y-85825436D01*
X106754000Y-85845527D01*
X107086142Y-85825436D01*
X107413441Y-85765456D01*
X107731123Y-85666463D01*
X108034557Y-85529898D01*
X108319318Y-85357754D01*
X108581252Y-85152542D01*
X108581255Y-85152539D01*
X108611819Y-85121976D01*
X108673142Y-85088491D01*
X108742834Y-85093475D01*
X108798767Y-85135347D01*
X108823184Y-85200811D01*
X108823500Y-85209657D01*
X108823500Y-86674191D01*
X108803815Y-86741230D01*
X108787181Y-86761873D01*
X108676200Y-86872853D01*
X108614877Y-86906337D01*
X108554243Y-86902806D01*
X108553951Y-86903960D01*
X108548987Y-86902703D01*
X108547321Y-86902425D01*
X108320049Y-86864500D01*
X108087951Y-86864500D01*
X108042164Y-86872140D01*
X107859015Y-86902702D01*
X107639505Y-86978061D01*
X107639487Y-86978068D01*
X107632272Y-86981973D01*
X107563942Y-86996562D01*
X107498572Y-86971894D01*
X107469455Y-86940735D01*
X107405186Y-86842364D01*
X106856546Y-87391004D01*
X106846812Y-87361044D01*
X106758814Y-87222381D01*
X106639097Y-87109960D01*
X106504489Y-87035958D01*
X107052799Y-86487648D01*
X107052799Y-86487647D01*
X107022349Y-86463949D01*
X106818302Y-86353523D01*
X106818293Y-86353520D01*
X106598860Y-86278188D01*
X106370007Y-86240000D01*
X106137993Y-86240000D01*
X105909139Y-86278188D01*
X105689706Y-86353520D01*
X105689698Y-86353523D01*
X105485644Y-86463952D01*
X105455200Y-86487646D01*
X105455200Y-86487647D01*
X106006466Y-87038913D01*
X105938371Y-87065874D01*
X105805508Y-87162405D01*
X105700825Y-87288945D01*
X105652368Y-87391921D01*
X105102812Y-86842365D01*
X105018516Y-86971391D01*
X105018514Y-86971395D01*
X104925317Y-87183864D01*
X104868361Y-87408781D01*
X104849202Y-87639994D01*
X104849202Y-87640005D01*
X104868361Y-87871218D01*
X104925317Y-88096135D01*
X105018516Y-88308609D01*
X105102811Y-88437633D01*
X105651452Y-87888993D01*
X105661188Y-87918956D01*
X105749186Y-88057619D01*
X105868903Y-88170040D01*
X106003510Y-88244041D01*
X105455199Y-88792351D01*
X105485650Y-88816050D01*
X105689697Y-88926476D01*
X105689706Y-88926479D01*
X105909139Y-89001811D01*
X106137993Y-89040000D01*
X106370007Y-89040000D01*
X106598860Y-89001811D01*
X106818294Y-88926479D01*
X106824995Y-88922853D01*
X106893322Y-88908253D01*
X106958696Y-88932912D01*
X106987828Y-88964082D01*
X107095021Y-89128153D01*
X107169464Y-89209020D01*
X107212728Y-89256018D01*
X107243650Y-89318672D01*
X107235790Y-89388098D01*
X107212728Y-89423982D01*
X107095017Y-89551850D01*
X106988102Y-89715496D01*
X106934956Y-89760853D01*
X106865724Y-89770276D01*
X106825281Y-89756731D01*
X106818513Y-89753068D01*
X106818495Y-89753061D01*
X106598984Y-89677702D01*
X106427282Y-89649050D01*
X106370049Y-89639500D01*
X106137951Y-89639500D01*
X106092164Y-89647140D01*
X105909015Y-89677702D01*
X105689504Y-89753061D01*
X105689495Y-89753064D01*
X105485371Y-89863531D01*
X105485365Y-89863535D01*
X105302222Y-90006081D01*
X105302219Y-90006084D01*
X105145016Y-90176852D01*
X105018075Y-90371151D01*
X104924842Y-90583699D01*
X104867866Y-90808691D01*
X104867864Y-90808702D01*
X104848700Y-91039993D01*
X104848700Y-91040006D01*
X104867864Y-91271297D01*
X104867866Y-91271308D01*
X104924842Y-91496300D01*
X105018075Y-91708848D01*
X105145016Y-91903147D01*
X105145019Y-91903151D01*
X105145021Y-91903153D01*
X105302216Y-92073913D01*
X105302219Y-92073915D01*
X105302222Y-92073918D01*
X105485365Y-92216464D01*
X105485371Y-92216468D01*
X105485374Y-92216470D01*
X105689497Y-92326936D01*
X105786249Y-92360151D01*
X105909015Y-92402297D01*
X105909017Y-92402297D01*
X105909019Y-92402298D01*
X106137951Y-92440500D01*
X106137952Y-92440500D01*
X106370048Y-92440500D01*
X106370049Y-92440500D01*
X106598981Y-92402298D01*
X106818503Y-92326936D01*
X107022626Y-92216470D01*
X107029332Y-92211251D01*
X107135091Y-92128935D01*
X107205784Y-92073913D01*
X107362979Y-91903153D01*
X107363382Y-91902537D01*
X107407803Y-91834544D01*
X107469896Y-91739503D01*
X107523042Y-91694147D01*
X107592274Y-91684723D01*
X107632721Y-91698270D01*
X107639484Y-91701930D01*
X107639491Y-91701932D01*
X107639497Y-91701936D01*
X107748929Y-91739504D01*
X107859015Y-91777297D01*
X107859017Y-91777297D01*
X107859019Y-91777298D01*
X108087951Y-91815500D01*
X108087952Y-91815500D01*
X108320048Y-91815500D01*
X108320049Y-91815500D01*
X108548981Y-91777298D01*
X108768503Y-91701936D01*
X108972626Y-91591470D01*
X109155784Y-91448913D01*
X109312979Y-91278153D01*
X109439924Y-91083849D01*
X109533157Y-90871300D01*
X109590134Y-90646305D01*
X109590135Y-90646297D01*
X109609300Y-90415006D01*
X109609300Y-90414993D01*
X109590135Y-90183702D01*
X109590133Y-90183691D01*
X109559968Y-90064572D01*
X109562593Y-89994752D01*
X109592491Y-89946453D01*
X111016513Y-88522431D01*
X111029079Y-88512365D01*
X111028925Y-88512178D01*
X111034937Y-88507204D01*
X111034937Y-88507203D01*
X111034940Y-88507202D01*
X111084190Y-88454755D01*
X111105911Y-88433035D01*
X111110401Y-88427245D01*
X111114183Y-88422815D01*
X111147448Y-88387393D01*
X111157674Y-88368790D01*
X111168353Y-88352533D01*
X111181362Y-88335764D01*
X111200656Y-88291175D01*
X111203212Y-88285956D01*
X111226627Y-88243368D01*
X111231905Y-88222806D01*
X111238207Y-88204399D01*
X111246635Y-88184927D01*
X111254233Y-88136953D01*
X111255414Y-88131247D01*
X111267500Y-88084177D01*
X111267500Y-88062949D01*
X111269027Y-88043549D01*
X111272346Y-88022595D01*
X111267775Y-87974238D01*
X111267500Y-87968400D01*
X111267500Y-87122000D01*
X115934540Y-87122000D01*
X115954326Y-87310256D01*
X115954327Y-87310259D01*
X116012818Y-87490277D01*
X116012821Y-87490284D01*
X116107467Y-87654216D01*
X116131708Y-87681138D01*
X116234129Y-87794888D01*
X116387265Y-87906148D01*
X116387270Y-87906151D01*
X116560192Y-87983142D01*
X116560197Y-87983144D01*
X116745354Y-88022500D01*
X116745355Y-88022500D01*
X116934644Y-88022500D01*
X116934646Y-88022500D01*
X117119803Y-87983144D01*
X117292730Y-87906151D01*
X117294776Y-87904664D01*
X117306452Y-87896182D01*
X117372258Y-87872702D01*
X117379337Y-87872500D01*
X121380663Y-87872500D01*
X121447702Y-87892185D01*
X121453548Y-87896182D01*
X121467265Y-87906148D01*
X121467270Y-87906151D01*
X121640192Y-87983142D01*
X121640197Y-87983144D01*
X121825354Y-88022500D01*
X121825355Y-88022500D01*
X122014644Y-88022500D01*
X122014646Y-88022500D01*
X122199803Y-87983144D01*
X122372730Y-87906151D01*
X122525871Y-87794888D01*
X122652533Y-87654216D01*
X122747179Y-87490284D01*
X122805674Y-87310256D01*
X122825460Y-87122000D01*
X122805674Y-86933744D01*
X122747179Y-86753716D01*
X122652533Y-86589784D01*
X122525871Y-86449112D01*
X122525870Y-86449111D01*
X122372734Y-86337851D01*
X122372729Y-86337848D01*
X122199807Y-86260857D01*
X122199802Y-86260855D01*
X122054001Y-86229865D01*
X122014646Y-86221500D01*
X121825354Y-86221500D01*
X121792897Y-86228398D01*
X121640197Y-86260855D01*
X121640192Y-86260857D01*
X121467270Y-86337848D01*
X121467265Y-86337851D01*
X121453548Y-86347818D01*
X121387742Y-86371298D01*
X121380663Y-86371500D01*
X117379337Y-86371500D01*
X117312298Y-86351815D01*
X117306452Y-86347818D01*
X117292734Y-86337851D01*
X117292729Y-86337848D01*
X117119807Y-86260857D01*
X117119802Y-86260855D01*
X116974001Y-86229865D01*
X116934646Y-86221500D01*
X116745354Y-86221500D01*
X116712897Y-86228398D01*
X116560197Y-86260855D01*
X116560192Y-86260857D01*
X116387270Y-86337848D01*
X116387265Y-86337851D01*
X116234129Y-86449111D01*
X116107466Y-86589785D01*
X116012821Y-86753715D01*
X116012818Y-86753722D01*
X115964378Y-86902806D01*
X115954326Y-86933744D01*
X115934540Y-87122000D01*
X111267500Y-87122000D01*
X111267500Y-78849764D01*
X111287185Y-78782725D01*
X111339989Y-78736970D01*
X111409147Y-78727026D01*
X111472703Y-78756051D01*
X111479181Y-78762083D01*
X115283608Y-82566510D01*
X115293679Y-82579080D01*
X115293866Y-82578926D01*
X115298840Y-82584937D01*
X115298842Y-82584940D01*
X115318298Y-82603210D01*
X115351287Y-82634190D01*
X115373010Y-82655912D01*
X115378802Y-82660405D01*
X115383242Y-82664198D01*
X115399304Y-82679280D01*
X115418651Y-82697448D01*
X115437242Y-82707668D01*
X115453507Y-82718352D01*
X115470278Y-82731361D01*
X115470281Y-82731363D01*
X115514871Y-82750658D01*
X115520100Y-82753220D01*
X115562676Y-82776627D01*
X115583237Y-82781905D01*
X115601641Y-82788207D01*
X115621118Y-82796636D01*
X115655436Y-82802071D01*
X115669098Y-82804235D01*
X115674808Y-82805417D01*
X115721867Y-82817500D01*
X115743089Y-82817500D01*
X115762486Y-82819026D01*
X115783449Y-82822347D01*
X115831816Y-82817774D01*
X115837653Y-82817500D01*
X120820495Y-82817500D01*
X120836505Y-82819267D01*
X120836528Y-82819026D01*
X120844289Y-82819758D01*
X120844296Y-82819760D01*
X120916203Y-82817500D01*
X120946925Y-82817500D01*
X120954190Y-82816581D01*
X120960016Y-82816122D01*
X121008569Y-82814597D01*
X121028956Y-82808673D01*
X121047996Y-82804731D01*
X121069058Y-82802071D01*
X121114235Y-82784183D01*
X121119735Y-82782300D01*
X121166398Y-82768744D01*
X121184665Y-82757939D01*
X121202136Y-82749380D01*
X121221871Y-82741568D01*
X121261177Y-82713010D01*
X121266043Y-82709813D01*
X121307865Y-82685081D01*
X121322870Y-82670075D01*
X121337668Y-82657436D01*
X121339766Y-82655912D01*
X121354837Y-82644963D01*
X121385809Y-82607522D01*
X121389723Y-82603221D01*
X121583800Y-82409144D01*
X121645121Y-82375661D01*
X121705753Y-82379202D01*
X121706048Y-82378040D01*
X121711011Y-82379296D01*
X121711015Y-82379296D01*
X121711019Y-82379298D01*
X121939951Y-82417500D01*
X121939952Y-82417500D01*
X122172048Y-82417500D01*
X122172049Y-82417500D01*
X122400981Y-82379298D01*
X122620503Y-82303936D01*
X122824626Y-82193470D01*
X123007784Y-82050913D01*
X123039771Y-82016165D01*
X123099657Y-81980176D01*
X123169495Y-81982276D01*
X123222228Y-82016164D01*
X123254216Y-82050913D01*
X123254219Y-82050915D01*
X123254222Y-82050918D01*
X123437365Y-82193464D01*
X123437371Y-82193468D01*
X123437374Y-82193470D01*
X123641497Y-82303936D01*
X123695648Y-82322526D01*
X123861015Y-82379297D01*
X123861017Y-82379297D01*
X123861019Y-82379298D01*
X124089951Y-82417500D01*
X124089952Y-82417500D01*
X124322048Y-82417500D01*
X124322049Y-82417500D01*
X124550981Y-82379298D01*
X124770503Y-82303936D01*
X124974626Y-82193470D01*
X125157784Y-82050913D01*
X125314979Y-81880153D01*
X125441924Y-81685849D01*
X125535157Y-81473300D01*
X125592134Y-81248305D01*
X125607901Y-81058024D01*
X125611300Y-81017006D01*
X125611300Y-81016993D01*
X125592135Y-80785702D01*
X125592133Y-80785691D01*
X125557797Y-80650102D01*
X125535157Y-80560700D01*
X125480720Y-80436598D01*
X125471818Y-80367299D01*
X125501795Y-80304187D01*
X125535261Y-80277734D01*
X125599342Y-80243056D01*
X125599349Y-80243051D01*
X125629798Y-80219351D01*
X125078533Y-79668086D01*
X125146629Y-79641126D01*
X125279492Y-79544595D01*
X125384175Y-79418055D01*
X125432631Y-79315079D01*
X125982186Y-79864634D01*
X126066484Y-79735606D01*
X126159682Y-79523135D01*
X126216638Y-79298218D01*
X126235798Y-79067005D01*
X126235798Y-79066994D01*
X126216638Y-78835781D01*
X126159682Y-78610864D01*
X126066483Y-78398390D01*
X125982186Y-78269364D01*
X125433546Y-78818004D01*
X125423812Y-78788044D01*
X125335814Y-78649381D01*
X125216097Y-78536960D01*
X125081489Y-78462958D01*
X125629799Y-77914648D01*
X125629799Y-77914647D01*
X125599349Y-77890949D01*
X125395302Y-77780523D01*
X125395293Y-77780520D01*
X125175860Y-77705188D01*
X124947007Y-77667000D01*
X124714993Y-77667000D01*
X124486139Y-77705188D01*
X124266706Y-77780520D01*
X124266698Y-77780523D01*
X124062644Y-77890952D01*
X124032200Y-77914646D01*
X124032200Y-77914647D01*
X124583466Y-78465913D01*
X124515371Y-78492874D01*
X124382508Y-78589405D01*
X124277825Y-78715945D01*
X124229368Y-78818921D01*
X123679811Y-78269364D01*
X123646954Y-78319658D01*
X123593808Y-78365015D01*
X123524576Y-78374439D01*
X123461240Y-78344937D01*
X123455464Y-78339518D01*
X119265434Y-74149488D01*
X119255361Y-74136914D01*
X119255174Y-74137070D01*
X119250201Y-74131059D01*
X119197756Y-74081810D01*
X119176035Y-74060089D01*
X119170240Y-74055594D01*
X119165798Y-74051799D01*
X119130396Y-74018554D01*
X119130388Y-74018548D01*
X119111792Y-74008325D01*
X119095531Y-73997644D01*
X119078763Y-73984637D01*
X119055295Y-73974482D01*
X119034178Y-73965343D01*
X119028956Y-73962786D01*
X118986368Y-73939373D01*
X118986365Y-73939372D01*
X118965801Y-73934092D01*
X118947396Y-73927790D01*
X118927927Y-73919365D01*
X118927921Y-73919363D01*
X118879951Y-73911766D01*
X118874236Y-73910582D01*
X118857772Y-73906355D01*
X118827180Y-73898500D01*
X118827177Y-73898500D01*
X118805955Y-73898500D01*
X118786555Y-73896973D01*
X118765596Y-73893653D01*
X118765595Y-73893653D01*
X118741786Y-73895903D01*
X118717230Y-73898225D01*
X118711392Y-73898500D01*
X114236250Y-73898500D01*
X114169211Y-73878815D01*
X114123456Y-73826011D01*
X114112250Y-73774500D01*
X114112249Y-73256129D01*
X114112248Y-73256123D01*
X114105841Y-73196516D01*
X114055547Y-73061671D01*
X114055543Y-73061664D01*
X113969297Y-72946455D01*
X113927768Y-72915366D01*
X113885898Y-72859432D01*
X113880914Y-72789740D01*
X113914400Y-72728418D01*
X113975724Y-72694933D01*
X114002080Y-72692100D01*
X130781000Y-72692100D01*
X130848039Y-72711785D01*
X130893794Y-72764589D01*
X130905000Y-72816100D01*
X130905000Y-77054411D01*
X130885315Y-77121450D01*
X130832511Y-77167205D01*
X130763353Y-77177149D01*
X130716851Y-77160528D01*
X130661562Y-77127105D01*
X130661561Y-77127104D01*
X130661557Y-77127102D01*
X130358123Y-76990537D01*
X130358116Y-76990534D01*
X130358104Y-76990530D01*
X130040449Y-76891546D01*
X130040445Y-76891545D01*
X130040441Y-76891544D01*
X129713142Y-76831564D01*
X129713141Y-76831563D01*
X129713136Y-76831563D01*
X129381000Y-76811473D01*
X129048863Y-76831563D01*
X129048858Y-76831564D01*
X128721559Y-76891544D01*
X128721556Y-76891544D01*
X128721550Y-76891546D01*
X128403895Y-76990530D01*
X128403879Y-76990536D01*
X128403877Y-76990537D01*
X128261955Y-77054411D01*
X128100447Y-77127100D01*
X128100445Y-77127101D01*
X127815673Y-77299251D01*
X127553744Y-77504460D01*
X127318460Y-77739744D01*
X127113251Y-78001673D01*
X127094261Y-78033087D01*
X126941102Y-78286443D01*
X126804750Y-78589405D01*
X126804536Y-78589880D01*
X126804530Y-78589895D01*
X126705546Y-78907550D01*
X126705544Y-78907556D01*
X126705544Y-78907559D01*
X126676325Y-79067000D01*
X126645563Y-79234863D01*
X126625473Y-79567000D01*
X126645563Y-79899136D01*
X126645563Y-79899141D01*
X126645564Y-79899142D01*
X126705544Y-80226441D01*
X126705545Y-80226445D01*
X126705546Y-80226449D01*
X126804530Y-80544104D01*
X126804534Y-80544116D01*
X126804537Y-80544123D01*
X126941102Y-80847557D01*
X127113246Y-81132318D01*
X127113251Y-81132326D01*
X127318460Y-81394255D01*
X127553744Y-81629539D01*
X127815673Y-81834748D01*
X127815678Y-81834751D01*
X127815682Y-81834754D01*
X128100443Y-82006898D01*
X128403877Y-82143463D01*
X128403890Y-82143467D01*
X128403895Y-82143469D01*
X128564337Y-82193464D01*
X128721559Y-82242456D01*
X129048858Y-82302436D01*
X129381000Y-82322527D01*
X129713142Y-82302436D01*
X130040441Y-82242456D01*
X130358123Y-82143463D01*
X130661557Y-82006898D01*
X130716850Y-81973471D01*
X130784405Y-81955636D01*
X130850878Y-81977154D01*
X130895166Y-82031194D01*
X130905000Y-82079589D01*
X130905000Y-91966411D01*
X130885315Y-92033450D01*
X130832511Y-92079205D01*
X130763353Y-92089149D01*
X130716851Y-92072528D01*
X130661562Y-92039105D01*
X130661561Y-92039104D01*
X130661557Y-92039102D01*
X130358123Y-91902537D01*
X130358116Y-91902534D01*
X130358104Y-91902530D01*
X130040449Y-91803546D01*
X130040445Y-91803545D01*
X130040441Y-91803544D01*
X129713142Y-91743564D01*
X129713141Y-91743563D01*
X129713136Y-91743563D01*
X129381000Y-91723473D01*
X129048863Y-91743563D01*
X129048858Y-91743564D01*
X128721559Y-91803544D01*
X128721556Y-91803544D01*
X128721550Y-91803546D01*
X128403895Y-91902530D01*
X128403879Y-91902536D01*
X128403877Y-91902537D01*
X128261955Y-91966411D01*
X128121036Y-92029834D01*
X128100443Y-92039102D01*
X128045150Y-92072528D01*
X127815673Y-92211251D01*
X127553744Y-92416460D01*
X127318460Y-92651744D01*
X127113251Y-92913673D01*
X126941101Y-93198445D01*
X126941100Y-93198447D01*
X126804536Y-93501880D01*
X126804530Y-93501895D01*
X126705546Y-93819550D01*
X126705544Y-93819556D01*
X126705544Y-93819559D01*
X126682541Y-93945081D01*
X126645563Y-94146863D01*
X126625473Y-94479000D01*
X126645563Y-94811136D01*
X126645563Y-94811141D01*
X126645564Y-94811142D01*
X126705544Y-95138441D01*
X126705545Y-95138445D01*
X126705546Y-95138449D01*
X126804530Y-95456104D01*
X126804534Y-95456116D01*
X126804537Y-95456123D01*
X126941102Y-95759557D01*
X127039388Y-95922142D01*
X127113251Y-96044326D01*
X127318460Y-96306255D01*
X127553744Y-96541539D01*
X127815673Y-96746748D01*
X127815678Y-96746751D01*
X127815682Y-96746754D01*
X128100443Y-96918898D01*
X128403877Y-97055463D01*
X128403890Y-97055467D01*
X128403895Y-97055469D01*
X128615665Y-97121458D01*
X128721559Y-97154456D01*
X129048858Y-97214436D01*
X129381000Y-97234527D01*
X129713142Y-97214436D01*
X130040441Y-97154456D01*
X130358123Y-97055463D01*
X130661557Y-96918898D01*
X130716850Y-96885471D01*
X130784405Y-96867636D01*
X130850878Y-96889154D01*
X130895166Y-96943194D01*
X130905000Y-96991589D01*
X130905000Y-100767500D01*
X130885315Y-100834539D01*
X130832511Y-100880294D01*
X130781000Y-100891500D01*
X100622500Y-100891500D01*
X100555461Y-100871815D01*
X100509706Y-100819011D01*
X100498500Y-100767500D01*
X100498500Y-95590000D01*
X103998473Y-95590000D01*
X104018563Y-95922136D01*
X104018563Y-95922141D01*
X104018564Y-95922142D01*
X104078544Y-96249441D01*
X104078545Y-96249445D01*
X104078546Y-96249449D01*
X104177530Y-96567104D01*
X104177534Y-96567116D01*
X104177537Y-96567123D01*
X104314102Y-96870557D01*
X104485723Y-97154453D01*
X104486251Y-97155326D01*
X104691460Y-97417255D01*
X104926744Y-97652539D01*
X105188673Y-97857748D01*
X105188678Y-97857751D01*
X105188682Y-97857754D01*
X105473443Y-98029898D01*
X105776877Y-98166463D01*
X105776890Y-98166467D01*
X105776895Y-98166469D01*
X105988665Y-98232458D01*
X106094559Y-98265456D01*
X106421858Y-98325436D01*
X106754000Y-98345527D01*
X107086142Y-98325436D01*
X107413441Y-98265456D01*
X107731123Y-98166463D01*
X108034557Y-98029898D01*
X108319318Y-97857754D01*
X108581252Y-97652542D01*
X108816542Y-97417252D01*
X109021754Y-97155318D01*
X109193898Y-96870557D01*
X109330463Y-96567123D01*
X109429456Y-96249441D01*
X109489436Y-95922142D01*
X109509527Y-95590000D01*
X109489436Y-95257858D01*
X109429456Y-94930559D01*
X109372474Y-94747695D01*
X109330469Y-94612895D01*
X109330467Y-94612890D01*
X109330463Y-94612877D01*
X109270210Y-94479000D01*
X114125473Y-94479000D01*
X114145563Y-94811136D01*
X114145563Y-94811141D01*
X114145564Y-94811142D01*
X114205544Y-95138441D01*
X114205545Y-95138445D01*
X114205546Y-95138449D01*
X114304530Y-95456104D01*
X114304534Y-95456116D01*
X114304537Y-95456123D01*
X114441102Y-95759557D01*
X114539388Y-95922142D01*
X114613251Y-96044326D01*
X114818460Y-96306255D01*
X115053744Y-96541539D01*
X115315673Y-96746748D01*
X115315678Y-96746751D01*
X115315682Y-96746754D01*
X115600443Y-96918898D01*
X115903877Y-97055463D01*
X115903890Y-97055467D01*
X115903895Y-97055469D01*
X116115665Y-97121458D01*
X116221559Y-97154456D01*
X116548858Y-97214436D01*
X116881000Y-97234527D01*
X117213142Y-97214436D01*
X117540441Y-97154456D01*
X117858123Y-97055463D01*
X118161557Y-96918898D01*
X118446318Y-96746754D01*
X118708252Y-96541542D01*
X118943542Y-96306252D01*
X119148754Y-96044318D01*
X119320898Y-95759557D01*
X119457463Y-95456123D01*
X119556456Y-95138441D01*
X119585674Y-94979006D01*
X120025700Y-94979006D01*
X120044864Y-95210297D01*
X120044866Y-95210308D01*
X120101842Y-95435300D01*
X120195075Y-95647848D01*
X120322016Y-95842147D01*
X120322019Y-95842151D01*
X120322021Y-95842153D01*
X120479216Y-96012913D01*
X120479219Y-96012915D01*
X120479222Y-96012918D01*
X120662365Y-96155464D01*
X120662371Y-96155468D01*
X120662374Y-96155470D01*
X120866497Y-96265936D01*
X120980487Y-96305068D01*
X121086015Y-96341297D01*
X121086017Y-96341297D01*
X121086019Y-96341298D01*
X121314951Y-96379500D01*
X121314952Y-96379500D01*
X121547048Y-96379500D01*
X121547049Y-96379500D01*
X121775981Y-96341298D01*
X121995503Y-96265936D01*
X122199626Y-96155470D01*
X122382784Y-96012913D01*
X122539979Y-95842153D01*
X122666924Y-95647849D01*
X122760157Y-95435300D01*
X122817134Y-95210305D01*
X122836300Y-94979000D01*
X122836300Y-94978993D01*
X122817135Y-94747702D01*
X122817133Y-94747691D01*
X122815712Y-94742082D01*
X122760157Y-94522700D01*
X122705921Y-94399056D01*
X122697019Y-94329759D01*
X122726996Y-94266646D01*
X122760455Y-94240197D01*
X122824626Y-94205470D01*
X123007784Y-94062913D01*
X123039771Y-94028165D01*
X123099657Y-93992176D01*
X123169495Y-93994276D01*
X123222228Y-94028164D01*
X123254216Y-94062913D01*
X123254219Y-94062915D01*
X123254222Y-94062918D01*
X123437365Y-94205464D01*
X123437376Y-94205471D01*
X123501538Y-94240194D01*
X123551129Y-94289414D01*
X123566237Y-94357630D01*
X123556077Y-94399059D01*
X123501842Y-94522699D01*
X123444866Y-94747691D01*
X123444864Y-94747702D01*
X123425700Y-94978993D01*
X123425700Y-94979006D01*
X123444864Y-95210297D01*
X123444866Y-95210308D01*
X123501842Y-95435300D01*
X123595075Y-95647848D01*
X123722016Y-95842147D01*
X123722019Y-95842151D01*
X123722021Y-95842153D01*
X123879216Y-96012913D01*
X123879219Y-96012915D01*
X123879222Y-96012918D01*
X124062365Y-96155464D01*
X124062371Y-96155468D01*
X124062374Y-96155470D01*
X124266497Y-96265936D01*
X124380487Y-96305068D01*
X124486015Y-96341297D01*
X124486017Y-96341297D01*
X124486019Y-96341298D01*
X124714951Y-96379500D01*
X124714952Y-96379500D01*
X124947048Y-96379500D01*
X124947049Y-96379500D01*
X125175981Y-96341298D01*
X125395503Y-96265936D01*
X125599626Y-96155470D01*
X125782784Y-96012913D01*
X125939979Y-95842153D01*
X126066924Y-95647849D01*
X126160157Y-95435300D01*
X126217134Y-95210305D01*
X126236300Y-94979000D01*
X126236300Y-94978993D01*
X126217135Y-94747702D01*
X126217133Y-94747691D01*
X126160157Y-94522699D01*
X126066924Y-94310151D01*
X125939983Y-94115852D01*
X125939980Y-94115849D01*
X125939979Y-94115847D01*
X125782784Y-93945087D01*
X125782779Y-93945083D01*
X125782777Y-93945081D01*
X125599634Y-93802535D01*
X125599623Y-93802528D01*
X125535460Y-93767804D01*
X125485870Y-93718584D01*
X125470763Y-93650367D01*
X125480923Y-93608940D01*
X125535157Y-93485300D01*
X125592134Y-93260305D01*
X125597260Y-93198443D01*
X125611300Y-93029006D01*
X125611300Y-93028993D01*
X125592135Y-92797702D01*
X125592133Y-92797691D01*
X125535157Y-92572699D01*
X125441924Y-92360151D01*
X125314983Y-92165852D01*
X125314980Y-92165849D01*
X125314979Y-92165847D01*
X125157784Y-91995087D01*
X125157779Y-91995083D01*
X125157777Y-91995081D01*
X124974634Y-91852535D01*
X124974628Y-91852531D01*
X124770504Y-91742064D01*
X124770495Y-91742061D01*
X124550984Y-91666702D01*
X124379282Y-91638050D01*
X124322049Y-91628500D01*
X124089951Y-91628500D01*
X124044164Y-91636140D01*
X123861015Y-91666702D01*
X123641504Y-91742061D01*
X123641495Y-91742064D01*
X123437371Y-91852531D01*
X123308114Y-91953136D01*
X123254216Y-91995087D01*
X123254213Y-91995089D01*
X123254212Y-91995091D01*
X123222229Y-92029834D01*
X123162341Y-92065824D01*
X123092503Y-92063723D01*
X123039771Y-92029834D01*
X123036721Y-92026521D01*
X123007784Y-91995087D01*
X122878524Y-91894480D01*
X122824628Y-91852531D01*
X122620504Y-91742064D01*
X122620495Y-91742061D01*
X122400984Y-91666702D01*
X122229282Y-91638050D01*
X122172049Y-91628500D01*
X121939951Y-91628500D01*
X121894164Y-91636140D01*
X121711015Y-91666702D01*
X121491504Y-91742061D01*
X121491495Y-91742064D01*
X121287371Y-91852531D01*
X121287365Y-91852535D01*
X121104222Y-91995081D01*
X121104219Y-91995084D01*
X121104216Y-91995086D01*
X121104216Y-91995087D01*
X121063698Y-92039102D01*
X120947016Y-92165852D01*
X120820075Y-92360151D01*
X120726842Y-92572699D01*
X120669866Y-92797691D01*
X120669864Y-92797702D01*
X120650700Y-93028993D01*
X120650700Y-93029006D01*
X120669864Y-93260297D01*
X120669866Y-93260308D01*
X120726842Y-93485300D01*
X120781076Y-93608940D01*
X120789979Y-93678240D01*
X120760002Y-93741352D01*
X120726539Y-93767804D01*
X120662376Y-93802528D01*
X120662365Y-93802535D01*
X120479222Y-93945081D01*
X120479219Y-93945084D01*
X120322016Y-94115852D01*
X120195075Y-94310151D01*
X120101842Y-94522699D01*
X120044866Y-94747691D01*
X120044864Y-94747702D01*
X120025700Y-94978993D01*
X120025700Y-94979006D01*
X119585674Y-94979006D01*
X119616436Y-94811142D01*
X119636527Y-94479000D01*
X119616436Y-94146858D01*
X119556456Y-93819559D01*
X119465435Y-93527460D01*
X119457469Y-93501895D01*
X119457467Y-93501890D01*
X119457463Y-93501877D01*
X119320898Y-93198443D01*
X119148754Y-92913682D01*
X119148751Y-92913678D01*
X119148748Y-92913673D01*
X118943539Y-92651744D01*
X118708255Y-92416460D01*
X118446326Y-92211251D01*
X118371227Y-92165852D01*
X118161557Y-92039102D01*
X117858123Y-91902537D01*
X117858116Y-91902534D01*
X117858104Y-91902530D01*
X117540449Y-91803546D01*
X117540445Y-91803545D01*
X117540441Y-91803544D01*
X117213142Y-91743564D01*
X117213141Y-91743563D01*
X117213136Y-91743563D01*
X116881000Y-91723473D01*
X116548863Y-91743563D01*
X116548858Y-91743564D01*
X116221559Y-91803544D01*
X116221556Y-91803544D01*
X116221550Y-91803546D01*
X115903895Y-91902530D01*
X115903879Y-91902536D01*
X115903877Y-91902537D01*
X115761955Y-91966411D01*
X115621036Y-92029834D01*
X115600443Y-92039102D01*
X115545150Y-92072528D01*
X115315673Y-92211251D01*
X115053744Y-92416460D01*
X114818460Y-92651744D01*
X114613251Y-92913673D01*
X114441101Y-93198445D01*
X114441100Y-93198447D01*
X114304536Y-93501880D01*
X114304530Y-93501895D01*
X114205546Y-93819550D01*
X114205544Y-93819556D01*
X114205544Y-93819559D01*
X114182541Y-93945081D01*
X114145563Y-94146863D01*
X114125473Y-94479000D01*
X109270210Y-94479000D01*
X109193898Y-94309443D01*
X109021754Y-94024682D01*
X109021751Y-94024678D01*
X109021748Y-94024673D01*
X108816539Y-93762744D01*
X108581255Y-93527460D01*
X108319326Y-93322251D01*
X108319318Y-93322246D01*
X108034557Y-93150102D01*
X107731123Y-93013537D01*
X107731116Y-93013534D01*
X107731104Y-93013530D01*
X107413449Y-92914546D01*
X107413445Y-92914545D01*
X107413441Y-92914544D01*
X107086142Y-92854564D01*
X107086141Y-92854563D01*
X107086136Y-92854563D01*
X106754000Y-92834473D01*
X106421863Y-92854563D01*
X106421858Y-92854564D01*
X106094559Y-92914544D01*
X106094556Y-92914544D01*
X106094550Y-92914546D01*
X105776895Y-93013530D01*
X105776879Y-93013536D01*
X105776877Y-93013537D01*
X105583656Y-93100498D01*
X105473447Y-93150100D01*
X105473445Y-93150101D01*
X105188673Y-93322251D01*
X104926744Y-93527460D01*
X104691460Y-93762744D01*
X104486251Y-94024673D01*
X104431135Y-94115847D01*
X104355965Y-94240194D01*
X104314101Y-94309445D01*
X104314100Y-94309447D01*
X104177536Y-94612880D01*
X104177530Y-94612895D01*
X104078546Y-94930550D01*
X104018563Y-95257863D01*
X103998473Y-95590000D01*
X100498500Y-95590000D01*
X100498500Y-72816100D01*
X100518185Y-72749061D01*
X100570989Y-72703306D01*
X100622500Y-72692100D01*
X101408742Y-72692100D01*
X101475781Y-72711785D01*
G37*
%TD.AperFunction*%
%TD*%
M02*
