M48
INCH,TZ
T1C0.0157
T2C0.0197
T3C0.0512
T4C0.1181
%
G90
G05
T1
X43500Y-29750
X44650Y-29750
X46000Y-34300
X48000Y-34300
T2
X40133Y-29027
X40625Y-29027
X41117Y-29027
X41609Y-29027
X42101Y-29027
X42593Y-29027
X43085Y-29027
X43577Y-29027
X44070Y-29027
X44562Y-29027
T3
X41832Y-34504
X41832Y-35843
X42600Y-34750
X42600Y-35596
X47807Y-31129
X47807Y-37393
X48054Y-31896
X48054Y-36626
X48900Y-31896
X48900Y-36626
X49146Y-31129
X49146Y-37393
T4
X42029Y-32713
X42029Y-37634
X46016Y-31326
X46016Y-37196
X50937Y-31326
X50937Y-37196
T0
M30
