%TF.GenerationSoftware,KiCad,Pcbnew,7.0.8*%
%TF.CreationDate,2023-11-09T12:00:47+01:00*%
%TF.ProjectId,Suspension_telemetry,53757370-656e-4736-996f-6e5f74656c65,rev?*%
%TF.SameCoordinates,Original*%
%TF.FileFunction,Plated,1,2,PTH,Mixed*%
%TF.FilePolarity,Positive*%
%FSLAX46Y46*%
G04 Gerber Fmt 4.6, Leading zero omitted, Abs format (unit mm)*
G04 Created by KiCad (PCBNEW 7.0.8) date 2023-11-09 12:00:47*
%MOMM*%
%LPD*%
G01*
G04 APERTURE LIST*
%TA.AperFunction,ViaDrill*%
%ADD10C,0.300000*%
%TD*%
%TA.AperFunction,ViaDrill*%
%ADD11C,0.400000*%
%TD*%
%TA.AperFunction,ViaDrill*%
%ADD12C,0.500000*%
%TD*%
%TA.AperFunction,ComponentDrill*%
%ADD13C,0.500000*%
%TD*%
G04 aperture for slot hole*
%TA.AperFunction,ComponentDrill*%
%ADD14O,0.800000X0.700000*%
%TD*%
%TA.AperFunction,ComponentDrill*%
%ADD15C,0.700000*%
%TD*%
%TA.AperFunction,ComponentDrill*%
%ADD16C,0.800000*%
%TD*%
%TA.AperFunction,ComponentDrill*%
%ADD17C,1.000000*%
%TD*%
%TA.AperFunction,ComponentDrill*%
%ADD18C,1.090000*%
%TD*%
%TA.AperFunction,ComponentDrill*%
%ADD19C,1.500000*%
%TD*%
G04 aperture for slot hole*
%TA.AperFunction,ComponentDrill*%
%ADD20O,1.800000X1.800000*%
%TD*%
G04 APERTURE END LIST*
D10*
X73152000Y-88773000D03*
X82804000Y-83820000D03*
X132588000Y-94361000D03*
X138049520Y-82920689D03*
X138938000Y-82958500D03*
D11*
X78672900Y-98330400D03*
X98044000Y-107455600D03*
X102589900Y-112014800D03*
X103079800Y-107957300D03*
X103500700Y-110031100D03*
X104335400Y-115177900D03*
X104566700Y-109587400D03*
X104817200Y-75554600D03*
X104817200Y-90785000D03*
X105181400Y-92984400D03*
X105888800Y-108009300D03*
X106426000Y-96266000D03*
X106910200Y-100749300D03*
X107913400Y-112705900D03*
X108546200Y-91036200D03*
X110244200Y-93106300D03*
X110744200Y-100115400D03*
X112522000Y-109460800D03*
X112547900Y-114751800D03*
X114752000Y-81018200D03*
X114930000Y-76751600D03*
X115204800Y-73756000D03*
X115265700Y-79334300D03*
X115655000Y-91333600D03*
X118186400Y-76708000D03*
X120471200Y-93890200D03*
X123444000Y-80518000D03*
X125863700Y-106051700D03*
X142698700Y-81963900D03*
D12*
X76962000Y-90170000D03*
X76962000Y-91440000D03*
X76962000Y-98298000D03*
X76962000Y-102616000D03*
X78486000Y-96266000D03*
X79756000Y-102743000D03*
X86868000Y-94488000D03*
X89408000Y-94488000D03*
X92710000Y-92202000D03*
X95250000Y-89662000D03*
X95758000Y-101854000D03*
X97028000Y-114300000D03*
X98298000Y-106172000D03*
X100330000Y-100584000D03*
X100838000Y-106172000D03*
X107696000Y-115570000D03*
X107696000Y-117602000D03*
X115316000Y-111252000D03*
X115824000Y-106426000D03*
X118110000Y-116713000D03*
X118237000Y-106426000D03*
X118872000Y-101346000D03*
X121158000Y-102362000D03*
X124206000Y-112776000D03*
X125476000Y-101854000D03*
X125730000Y-109728000D03*
X129032000Y-101854000D03*
X133186548Y-103505000D03*
X135382000Y-85344000D03*
X137287000Y-98806000D03*
X141732000Y-100330000D03*
X141732000Y-105918000D03*
X144272000Y-99060000D03*
D13*
%TO.C,J4*%
X80612200Y-96442000D03*
X81862200Y-96442000D03*
X83112200Y-96442000D03*
X84362200Y-96442000D03*
X85612200Y-96442000D03*
X86862200Y-96442000D03*
X88112200Y-96442000D03*
X89362200Y-96442000D03*
X90612200Y-96442000D03*
X91862200Y-96442000D03*
%TO.C,J2*%
X97450400Y-95562000D03*
X98700400Y-95562000D03*
X99950400Y-95562000D03*
X101200400Y-95562000D03*
D14*
%TO.C,J1*%
X142494000Y-79358000D03*
X142494000Y-86758000D03*
D15*
X144994000Y-79358000D03*
X144994000Y-86758000D03*
D16*
%TO.C,S1*%
X129572000Y-74676000D03*
X131572000Y-74676000D03*
X133572000Y-74676000D03*
D17*
%TO.C,J7*%
X140468400Y-91455000D03*
X140468400Y-93995000D03*
X140468400Y-96535000D03*
X143008400Y-91455000D03*
X143008400Y-93995000D03*
X143008400Y-96535000D03*
D18*
%TO.C,J5*%
X126746000Y-92964000D03*
X126746000Y-95504000D03*
X129286000Y-92964000D03*
X129286000Y-95504000D03*
X131826000Y-92964000D03*
X131826000Y-95504000D03*
X134366000Y-92964000D03*
X134366000Y-95504000D03*
D19*
%TO.C,S1*%
X127472000Y-74676000D03*
X135672000Y-74676000D03*
D20*
%TO.C,BT2*%
X72060400Y-109855000D03*
X143460400Y-109855000D03*
M02*
