%TF.GenerationSoftware,KiCad,Pcbnew,7.0.8*%
%TF.CreationDate,2023-11-09T11:59:46+01:00*%
%TF.ProjectId,Suspension_telemetry,53757370-656e-4736-996f-6e5f74656c65,rev?*%
%TF.SameCoordinates,Original*%
%TF.FileFunction,Legend,Top*%
%TF.FilePolarity,Positive*%
%FSLAX46Y46*%
G04 Gerber Fmt 4.6, Leading zero omitted, Abs format (unit mm)*
G04 Created by KiCad (PCBNEW 7.0.8) date 2023-11-09 11:59:46*
%MOMM*%
%LPD*%
G01*
G04 APERTURE LIST*
%ADD10C,0.210000*%
%ADD11C,0.150000*%
%ADD12C,0.254000*%
%ADD13C,0.120000*%
%ADD14C,0.200000*%
%ADD15C,0.100000*%
%ADD16C,0.127000*%
G04 APERTURE END LIST*
D10*
X141806633Y-99006080D02*
X141949490Y-99053699D01*
X141949490Y-99053699D02*
X142187585Y-99053699D01*
X142187585Y-99053699D02*
X142282823Y-99006080D01*
X142282823Y-99006080D02*
X142330442Y-98958460D01*
X142330442Y-98958460D02*
X142378061Y-98863222D01*
X142378061Y-98863222D02*
X142378061Y-98767984D01*
X142378061Y-98767984D02*
X142330442Y-98672746D01*
X142330442Y-98672746D02*
X142282823Y-98625127D01*
X142282823Y-98625127D02*
X142187585Y-98577508D01*
X142187585Y-98577508D02*
X141997109Y-98529889D01*
X141997109Y-98529889D02*
X141901871Y-98482270D01*
X141901871Y-98482270D02*
X141854252Y-98434651D01*
X141854252Y-98434651D02*
X141806633Y-98339413D01*
X141806633Y-98339413D02*
X141806633Y-98244175D01*
X141806633Y-98244175D02*
X141854252Y-98148937D01*
X141854252Y-98148937D02*
X141901871Y-98101318D01*
X141901871Y-98101318D02*
X141997109Y-98053699D01*
X141997109Y-98053699D02*
X142235204Y-98053699D01*
X142235204Y-98053699D02*
X142378061Y-98101318D01*
X143378061Y-98958460D02*
X143330442Y-99006080D01*
X143330442Y-99006080D02*
X143187585Y-99053699D01*
X143187585Y-99053699D02*
X143092347Y-99053699D01*
X143092347Y-99053699D02*
X142949490Y-99006080D01*
X142949490Y-99006080D02*
X142854252Y-98910841D01*
X142854252Y-98910841D02*
X142806633Y-98815603D01*
X142806633Y-98815603D02*
X142759014Y-98625127D01*
X142759014Y-98625127D02*
X142759014Y-98482270D01*
X142759014Y-98482270D02*
X142806633Y-98291794D01*
X142806633Y-98291794D02*
X142854252Y-98196556D01*
X142854252Y-98196556D02*
X142949490Y-98101318D01*
X142949490Y-98101318D02*
X143092347Y-98053699D01*
X143092347Y-98053699D02*
X143187585Y-98053699D01*
X143187585Y-98053699D02*
X143330442Y-98101318D01*
X143330442Y-98101318D02*
X143378061Y-98148937D01*
X144282823Y-99053699D02*
X143806633Y-99053699D01*
X143806633Y-99053699D02*
X143806633Y-98053699D01*
X144616157Y-99053699D02*
X144616157Y-98053699D01*
X145187585Y-99053699D02*
X144759014Y-98482270D01*
X145187585Y-98053699D02*
X144616157Y-98625127D01*
X86877699Y-91079604D02*
X86877699Y-90508176D01*
X87877699Y-90793890D02*
X86877699Y-90793890D01*
X87877699Y-89603414D02*
X87401508Y-89936747D01*
X87877699Y-90174842D02*
X86877699Y-90174842D01*
X86877699Y-90174842D02*
X86877699Y-89793890D01*
X86877699Y-89793890D02*
X86925318Y-89698652D01*
X86925318Y-89698652D02*
X86972937Y-89651033D01*
X86972937Y-89651033D02*
X87068175Y-89603414D01*
X87068175Y-89603414D02*
X87211032Y-89603414D01*
X87211032Y-89603414D02*
X87306270Y-89651033D01*
X87306270Y-89651033D02*
X87353889Y-89698652D01*
X87353889Y-89698652D02*
X87401508Y-89793890D01*
X87401508Y-89793890D02*
X87401508Y-90174842D01*
X125598252Y-99053699D02*
X125598252Y-98053699D01*
X125598252Y-98053699D02*
X125979204Y-98053699D01*
X125979204Y-98053699D02*
X126074442Y-98101318D01*
X126074442Y-98101318D02*
X126122061Y-98148937D01*
X126122061Y-98148937D02*
X126169680Y-98244175D01*
X126169680Y-98244175D02*
X126169680Y-98387032D01*
X126169680Y-98387032D02*
X126122061Y-98482270D01*
X126122061Y-98482270D02*
X126074442Y-98529889D01*
X126074442Y-98529889D02*
X125979204Y-98577508D01*
X125979204Y-98577508D02*
X125598252Y-98577508D01*
X126788728Y-98053699D02*
X126979204Y-98053699D01*
X126979204Y-98053699D02*
X127074442Y-98101318D01*
X127074442Y-98101318D02*
X127169680Y-98196556D01*
X127169680Y-98196556D02*
X127217299Y-98387032D01*
X127217299Y-98387032D02*
X127217299Y-98720365D01*
X127217299Y-98720365D02*
X127169680Y-98910841D01*
X127169680Y-98910841D02*
X127074442Y-99006080D01*
X127074442Y-99006080D02*
X126979204Y-99053699D01*
X126979204Y-99053699D02*
X126788728Y-99053699D01*
X126788728Y-99053699D02*
X126693490Y-99006080D01*
X126693490Y-99006080D02*
X126598252Y-98910841D01*
X126598252Y-98910841D02*
X126550633Y-98720365D01*
X126550633Y-98720365D02*
X126550633Y-98387032D01*
X126550633Y-98387032D02*
X126598252Y-98196556D01*
X126598252Y-98196556D02*
X126693490Y-98101318D01*
X126693490Y-98101318D02*
X126788728Y-98053699D01*
X127645871Y-98053699D02*
X127645871Y-98863222D01*
X127645871Y-98863222D02*
X127693490Y-98958460D01*
X127693490Y-98958460D02*
X127741109Y-99006080D01*
X127741109Y-99006080D02*
X127836347Y-99053699D01*
X127836347Y-99053699D02*
X128026823Y-99053699D01*
X128026823Y-99053699D02*
X128122061Y-99006080D01*
X128122061Y-99006080D02*
X128169680Y-98958460D01*
X128169680Y-98958460D02*
X128217299Y-98863222D01*
X128217299Y-98863222D02*
X128217299Y-98053699D01*
X128550633Y-98053699D02*
X129122061Y-98053699D01*
X128836347Y-99053699D02*
X128836347Y-98053699D01*
X89592318Y-90412938D02*
X89544699Y-90508176D01*
X89544699Y-90508176D02*
X89544699Y-90651033D01*
X89544699Y-90651033D02*
X89592318Y-90793890D01*
X89592318Y-90793890D02*
X89687556Y-90889128D01*
X89687556Y-90889128D02*
X89782794Y-90936747D01*
X89782794Y-90936747D02*
X89973270Y-90984366D01*
X89973270Y-90984366D02*
X90116127Y-90984366D01*
X90116127Y-90984366D02*
X90306603Y-90936747D01*
X90306603Y-90936747D02*
X90401841Y-90889128D01*
X90401841Y-90889128D02*
X90497080Y-90793890D01*
X90497080Y-90793890D02*
X90544699Y-90651033D01*
X90544699Y-90651033D02*
X90544699Y-90555795D01*
X90544699Y-90555795D02*
X90497080Y-90412938D01*
X90497080Y-90412938D02*
X90449460Y-90365319D01*
X90449460Y-90365319D02*
X90116127Y-90365319D01*
X90116127Y-90365319D02*
X90116127Y-90555795D01*
X90544699Y-89936747D02*
X89544699Y-89936747D01*
X89544699Y-89936747D02*
X90544699Y-89365319D01*
X90544699Y-89365319D02*
X89544699Y-89365319D01*
X90544699Y-88889128D02*
X89544699Y-88889128D01*
X89544699Y-88889128D02*
X89544699Y-88651033D01*
X89544699Y-88651033D02*
X89592318Y-88508176D01*
X89592318Y-88508176D02*
X89687556Y-88412938D01*
X89687556Y-88412938D02*
X89782794Y-88365319D01*
X89782794Y-88365319D02*
X89973270Y-88317700D01*
X89973270Y-88317700D02*
X90116127Y-88317700D01*
X90116127Y-88317700D02*
X90306603Y-88365319D01*
X90306603Y-88365319D02*
X90401841Y-88412938D01*
X90401841Y-88412938D02*
X90497080Y-88508176D01*
X90497080Y-88508176D02*
X90544699Y-88651033D01*
X90544699Y-88651033D02*
X90544699Y-88889128D01*
X81035699Y-90460557D02*
X81035699Y-90936747D01*
X81035699Y-90936747D02*
X81511889Y-90984366D01*
X81511889Y-90984366D02*
X81464270Y-90936747D01*
X81464270Y-90936747D02*
X81416651Y-90841509D01*
X81416651Y-90841509D02*
X81416651Y-90603414D01*
X81416651Y-90603414D02*
X81464270Y-90508176D01*
X81464270Y-90508176D02*
X81511889Y-90460557D01*
X81511889Y-90460557D02*
X81607127Y-90412938D01*
X81607127Y-90412938D02*
X81845222Y-90412938D01*
X81845222Y-90412938D02*
X81940460Y-90460557D01*
X81940460Y-90460557D02*
X81988080Y-90508176D01*
X81988080Y-90508176D02*
X82035699Y-90603414D01*
X82035699Y-90603414D02*
X82035699Y-90841509D01*
X82035699Y-90841509D02*
X81988080Y-90936747D01*
X81988080Y-90936747D02*
X81940460Y-90984366D01*
X81035699Y-90127223D02*
X82035699Y-89793890D01*
X82035699Y-89793890D02*
X81035699Y-89460557D01*
X85480699Y-91079604D02*
X85480699Y-90508176D01*
X86480699Y-90793890D02*
X85480699Y-90793890D01*
X85956889Y-89841509D02*
X85956889Y-90174842D01*
X86480699Y-90174842D02*
X85480699Y-90174842D01*
X85480699Y-90174842D02*
X85480699Y-89698652D01*
X142019420Y-88782699D02*
X142638467Y-88782699D01*
X142638467Y-88782699D02*
X142305134Y-89163651D01*
X142305134Y-89163651D02*
X142447991Y-89163651D01*
X142447991Y-89163651D02*
X142543229Y-89211270D01*
X142543229Y-89211270D02*
X142590848Y-89258889D01*
X142590848Y-89258889D02*
X142638467Y-89354127D01*
X142638467Y-89354127D02*
X142638467Y-89592222D01*
X142638467Y-89592222D02*
X142590848Y-89687460D01*
X142590848Y-89687460D02*
X142543229Y-89735080D01*
X142543229Y-89735080D02*
X142447991Y-89782699D01*
X142447991Y-89782699D02*
X142162277Y-89782699D01*
X142162277Y-89782699D02*
X142067039Y-89735080D01*
X142067039Y-89735080D02*
X142019420Y-89687460D01*
X143067039Y-89687460D02*
X143114658Y-89735080D01*
X143114658Y-89735080D02*
X143067039Y-89782699D01*
X143067039Y-89782699D02*
X143019420Y-89735080D01*
X143019420Y-89735080D02*
X143067039Y-89687460D01*
X143067039Y-89687460D02*
X143067039Y-89782699D01*
X143447991Y-88782699D02*
X144067038Y-88782699D01*
X144067038Y-88782699D02*
X143733705Y-89163651D01*
X143733705Y-89163651D02*
X143876562Y-89163651D01*
X143876562Y-89163651D02*
X143971800Y-89211270D01*
X143971800Y-89211270D02*
X144019419Y-89258889D01*
X144019419Y-89258889D02*
X144067038Y-89354127D01*
X144067038Y-89354127D02*
X144067038Y-89592222D01*
X144067038Y-89592222D02*
X144019419Y-89687460D01*
X144019419Y-89687460D02*
X143971800Y-89735080D01*
X143971800Y-89735080D02*
X143876562Y-89782699D01*
X143876562Y-89782699D02*
X143590848Y-89782699D01*
X143590848Y-89782699D02*
X143495610Y-89735080D01*
X143495610Y-89735080D02*
X143447991Y-89687460D01*
X144352753Y-88782699D02*
X144686086Y-89782699D01*
X144686086Y-89782699D02*
X145019419Y-88782699D01*
X88274699Y-91031985D02*
X88274699Y-90412938D01*
X88274699Y-90412938D02*
X88655651Y-90746271D01*
X88655651Y-90746271D02*
X88655651Y-90603414D01*
X88655651Y-90603414D02*
X88703270Y-90508176D01*
X88703270Y-90508176D02*
X88750889Y-90460557D01*
X88750889Y-90460557D02*
X88846127Y-90412938D01*
X88846127Y-90412938D02*
X89084222Y-90412938D01*
X89084222Y-90412938D02*
X89179460Y-90460557D01*
X89179460Y-90460557D02*
X89227080Y-90508176D01*
X89227080Y-90508176D02*
X89274699Y-90603414D01*
X89274699Y-90603414D02*
X89274699Y-90889128D01*
X89274699Y-90889128D02*
X89227080Y-90984366D01*
X89227080Y-90984366D02*
X89179460Y-91031985D01*
X89179460Y-89984366D02*
X89227080Y-89936747D01*
X89227080Y-89936747D02*
X89274699Y-89984366D01*
X89274699Y-89984366D02*
X89227080Y-90031985D01*
X89227080Y-90031985D02*
X89179460Y-89984366D01*
X89179460Y-89984366D02*
X89274699Y-89984366D01*
X88274699Y-89603414D02*
X88274699Y-88984367D01*
X88274699Y-88984367D02*
X88655651Y-89317700D01*
X88655651Y-89317700D02*
X88655651Y-89174843D01*
X88655651Y-89174843D02*
X88703270Y-89079605D01*
X88703270Y-89079605D02*
X88750889Y-89031986D01*
X88750889Y-89031986D02*
X88846127Y-88984367D01*
X88846127Y-88984367D02*
X89084222Y-88984367D01*
X89084222Y-88984367D02*
X89179460Y-89031986D01*
X89179460Y-89031986D02*
X89227080Y-89079605D01*
X89227080Y-89079605D02*
X89274699Y-89174843D01*
X89274699Y-89174843D02*
X89274699Y-89460557D01*
X89274699Y-89460557D02*
X89227080Y-89555795D01*
X89227080Y-89555795D02*
X89179460Y-89603414D01*
X88274699Y-88698652D02*
X89274699Y-88365319D01*
X89274699Y-88365319D02*
X88274699Y-88031986D01*
X121804061Y-95307318D02*
X121708823Y-95259699D01*
X121708823Y-95259699D02*
X121565966Y-95259699D01*
X121565966Y-95259699D02*
X121423109Y-95307318D01*
X121423109Y-95307318D02*
X121327871Y-95402556D01*
X121327871Y-95402556D02*
X121280252Y-95497794D01*
X121280252Y-95497794D02*
X121232633Y-95688270D01*
X121232633Y-95688270D02*
X121232633Y-95831127D01*
X121232633Y-95831127D02*
X121280252Y-96021603D01*
X121280252Y-96021603D02*
X121327871Y-96116841D01*
X121327871Y-96116841D02*
X121423109Y-96212080D01*
X121423109Y-96212080D02*
X121565966Y-96259699D01*
X121565966Y-96259699D02*
X121661204Y-96259699D01*
X121661204Y-96259699D02*
X121804061Y-96212080D01*
X121804061Y-96212080D02*
X121851680Y-96164460D01*
X121851680Y-96164460D02*
X121851680Y-95831127D01*
X121851680Y-95831127D02*
X121661204Y-95831127D01*
X122280252Y-96259699D02*
X122280252Y-95259699D01*
X122280252Y-95259699D02*
X122851680Y-96259699D01*
X122851680Y-96259699D02*
X122851680Y-95259699D01*
X123327871Y-96259699D02*
X123327871Y-95259699D01*
X123327871Y-95259699D02*
X123565966Y-95259699D01*
X123565966Y-95259699D02*
X123708823Y-95307318D01*
X123708823Y-95307318D02*
X123804061Y-95402556D01*
X123804061Y-95402556D02*
X123851680Y-95497794D01*
X123851680Y-95497794D02*
X123899299Y-95688270D01*
X123899299Y-95688270D02*
X123899299Y-95831127D01*
X123899299Y-95831127D02*
X123851680Y-96021603D01*
X123851680Y-96021603D02*
X123804061Y-96116841D01*
X123804061Y-96116841D02*
X123708823Y-96212080D01*
X123708823Y-96212080D02*
X123565966Y-96259699D01*
X123565966Y-96259699D02*
X123327871Y-96259699D01*
X79432318Y-90412938D02*
X79384699Y-90508176D01*
X79384699Y-90508176D02*
X79384699Y-90651033D01*
X79384699Y-90651033D02*
X79432318Y-90793890D01*
X79432318Y-90793890D02*
X79527556Y-90889128D01*
X79527556Y-90889128D02*
X79622794Y-90936747D01*
X79622794Y-90936747D02*
X79813270Y-90984366D01*
X79813270Y-90984366D02*
X79956127Y-90984366D01*
X79956127Y-90984366D02*
X80146603Y-90936747D01*
X80146603Y-90936747D02*
X80241841Y-90889128D01*
X80241841Y-90889128D02*
X80337080Y-90793890D01*
X80337080Y-90793890D02*
X80384699Y-90651033D01*
X80384699Y-90651033D02*
X80384699Y-90555795D01*
X80384699Y-90555795D02*
X80337080Y-90412938D01*
X80337080Y-90412938D02*
X80289460Y-90365319D01*
X80289460Y-90365319D02*
X79956127Y-90365319D01*
X79956127Y-90365319D02*
X79956127Y-90555795D01*
X80384699Y-89936747D02*
X79384699Y-89936747D01*
X79384699Y-89936747D02*
X80384699Y-89365319D01*
X80384699Y-89365319D02*
X79384699Y-89365319D01*
X80384699Y-88889128D02*
X79384699Y-88889128D01*
X79384699Y-88889128D02*
X79384699Y-88651033D01*
X79384699Y-88651033D02*
X79432318Y-88508176D01*
X79432318Y-88508176D02*
X79527556Y-88412938D01*
X79527556Y-88412938D02*
X79622794Y-88365319D01*
X79622794Y-88365319D02*
X79813270Y-88317700D01*
X79813270Y-88317700D02*
X79956127Y-88317700D01*
X79956127Y-88317700D02*
X80146603Y-88365319D01*
X80146603Y-88365319D02*
X80241841Y-88412938D01*
X80241841Y-88412938D02*
X80337080Y-88508176D01*
X80337080Y-88508176D02*
X80384699Y-88651033D01*
X80384699Y-88651033D02*
X80384699Y-88889128D01*
X129916252Y-99053699D02*
X129916252Y-98053699D01*
X129916252Y-98053699D02*
X130297204Y-98053699D01*
X130297204Y-98053699D02*
X130392442Y-98101318D01*
X130392442Y-98101318D02*
X130440061Y-98148937D01*
X130440061Y-98148937D02*
X130487680Y-98244175D01*
X130487680Y-98244175D02*
X130487680Y-98387032D01*
X130487680Y-98387032D02*
X130440061Y-98482270D01*
X130440061Y-98482270D02*
X130392442Y-98529889D01*
X130392442Y-98529889D02*
X130297204Y-98577508D01*
X130297204Y-98577508D02*
X129916252Y-98577508D01*
X130821014Y-98053699D02*
X131059109Y-99053699D01*
X131059109Y-99053699D02*
X131249585Y-98339413D01*
X131249585Y-98339413D02*
X131440061Y-99053699D01*
X131440061Y-99053699D02*
X131678157Y-98053699D01*
X132059109Y-99053699D02*
X132059109Y-98053699D01*
X132535299Y-99053699D02*
X132535299Y-98053699D01*
X132535299Y-98053699D02*
X133106727Y-99053699D01*
X133106727Y-99053699D02*
X133106727Y-98053699D01*
X137852318Y-94394938D02*
X137804699Y-94490176D01*
X137804699Y-94490176D02*
X137804699Y-94633033D01*
X137804699Y-94633033D02*
X137852318Y-94775890D01*
X137852318Y-94775890D02*
X137947556Y-94871128D01*
X137947556Y-94871128D02*
X138042794Y-94918747D01*
X138042794Y-94918747D02*
X138233270Y-94966366D01*
X138233270Y-94966366D02*
X138376127Y-94966366D01*
X138376127Y-94966366D02*
X138566603Y-94918747D01*
X138566603Y-94918747D02*
X138661841Y-94871128D01*
X138661841Y-94871128D02*
X138757080Y-94775890D01*
X138757080Y-94775890D02*
X138804699Y-94633033D01*
X138804699Y-94633033D02*
X138804699Y-94537795D01*
X138804699Y-94537795D02*
X138757080Y-94394938D01*
X138757080Y-94394938D02*
X138709460Y-94347319D01*
X138709460Y-94347319D02*
X138376127Y-94347319D01*
X138376127Y-94347319D02*
X138376127Y-94537795D01*
X138804699Y-93918747D02*
X137804699Y-93918747D01*
X137804699Y-93918747D02*
X138804699Y-93347319D01*
X138804699Y-93347319D02*
X137804699Y-93347319D01*
X138804699Y-92871128D02*
X137804699Y-92871128D01*
X137804699Y-92871128D02*
X137804699Y-92633033D01*
X137804699Y-92633033D02*
X137852318Y-92490176D01*
X137852318Y-92490176D02*
X137947556Y-92394938D01*
X137947556Y-92394938D02*
X138042794Y-92347319D01*
X138042794Y-92347319D02*
X138233270Y-92299700D01*
X138233270Y-92299700D02*
X138376127Y-92299700D01*
X138376127Y-92299700D02*
X138566603Y-92347319D01*
X138566603Y-92347319D02*
X138661841Y-92394938D01*
X138661841Y-92394938D02*
X138757080Y-92490176D01*
X138757080Y-92490176D02*
X138804699Y-92633033D01*
X138804699Y-92633033D02*
X138804699Y-92871128D01*
X127247699Y-90174747D02*
X126247699Y-90174747D01*
X126247699Y-90174747D02*
X127247699Y-89603319D01*
X127247699Y-89603319D02*
X126247699Y-89603319D01*
X127247699Y-88555700D02*
X126771508Y-88889033D01*
X127247699Y-89127128D02*
X126247699Y-89127128D01*
X126247699Y-89127128D02*
X126247699Y-88746176D01*
X126247699Y-88746176D02*
X126295318Y-88650938D01*
X126295318Y-88650938D02*
X126342937Y-88603319D01*
X126342937Y-88603319D02*
X126438175Y-88555700D01*
X126438175Y-88555700D02*
X126581032Y-88555700D01*
X126581032Y-88555700D02*
X126676270Y-88603319D01*
X126676270Y-88603319D02*
X126723889Y-88650938D01*
X126723889Y-88650938D02*
X126771508Y-88746176D01*
X126771508Y-88746176D02*
X126771508Y-89127128D01*
X127200080Y-88174747D02*
X127247699Y-88031890D01*
X127247699Y-88031890D02*
X127247699Y-87793795D01*
X127247699Y-87793795D02*
X127200080Y-87698557D01*
X127200080Y-87698557D02*
X127152460Y-87650938D01*
X127152460Y-87650938D02*
X127057222Y-87603319D01*
X127057222Y-87603319D02*
X126961984Y-87603319D01*
X126961984Y-87603319D02*
X126866746Y-87650938D01*
X126866746Y-87650938D02*
X126819127Y-87698557D01*
X126819127Y-87698557D02*
X126771508Y-87793795D01*
X126771508Y-87793795D02*
X126723889Y-87984271D01*
X126723889Y-87984271D02*
X126676270Y-88079509D01*
X126676270Y-88079509D02*
X126628651Y-88127128D01*
X126628651Y-88127128D02*
X126533413Y-88174747D01*
X126533413Y-88174747D02*
X126438175Y-88174747D01*
X126438175Y-88174747D02*
X126342937Y-88127128D01*
X126342937Y-88127128D02*
X126295318Y-88079509D01*
X126295318Y-88079509D02*
X126247699Y-87984271D01*
X126247699Y-87984271D02*
X126247699Y-87746176D01*
X126247699Y-87746176D02*
X126295318Y-87603319D01*
X126247699Y-87317604D02*
X126247699Y-86746176D01*
X127247699Y-87031890D02*
X126247699Y-87031890D01*
X133672889Y-84126414D02*
X133720508Y-83983557D01*
X133720508Y-83983557D02*
X133768127Y-83935938D01*
X133768127Y-83935938D02*
X133863365Y-83888319D01*
X133863365Y-83888319D02*
X134006222Y-83888319D01*
X134006222Y-83888319D02*
X134101460Y-83935938D01*
X134101460Y-83935938D02*
X134149080Y-83983557D01*
X134149080Y-83983557D02*
X134196699Y-84078795D01*
X134196699Y-84078795D02*
X134196699Y-84459747D01*
X134196699Y-84459747D02*
X133196699Y-84459747D01*
X133196699Y-84459747D02*
X133196699Y-84126414D01*
X133196699Y-84126414D02*
X133244318Y-84031176D01*
X133244318Y-84031176D02*
X133291937Y-83983557D01*
X133291937Y-83983557D02*
X133387175Y-83935938D01*
X133387175Y-83935938D02*
X133482413Y-83935938D01*
X133482413Y-83935938D02*
X133577651Y-83983557D01*
X133577651Y-83983557D02*
X133625270Y-84031176D01*
X133625270Y-84031176D02*
X133672889Y-84126414D01*
X133672889Y-84126414D02*
X133672889Y-84459747D01*
X133196699Y-83269271D02*
X133196699Y-83078795D01*
X133196699Y-83078795D02*
X133244318Y-82983557D01*
X133244318Y-82983557D02*
X133339556Y-82888319D01*
X133339556Y-82888319D02*
X133530032Y-82840700D01*
X133530032Y-82840700D02*
X133863365Y-82840700D01*
X133863365Y-82840700D02*
X134053841Y-82888319D01*
X134053841Y-82888319D02*
X134149080Y-82983557D01*
X134149080Y-82983557D02*
X134196699Y-83078795D01*
X134196699Y-83078795D02*
X134196699Y-83269271D01*
X134196699Y-83269271D02*
X134149080Y-83364509D01*
X134149080Y-83364509D02*
X134053841Y-83459747D01*
X134053841Y-83459747D02*
X133863365Y-83507366D01*
X133863365Y-83507366D02*
X133530032Y-83507366D01*
X133530032Y-83507366D02*
X133339556Y-83459747D01*
X133339556Y-83459747D02*
X133244318Y-83364509D01*
X133244318Y-83364509D02*
X133196699Y-83269271D01*
X133196699Y-82221652D02*
X133196699Y-82031176D01*
X133196699Y-82031176D02*
X133244318Y-81935938D01*
X133244318Y-81935938D02*
X133339556Y-81840700D01*
X133339556Y-81840700D02*
X133530032Y-81793081D01*
X133530032Y-81793081D02*
X133863365Y-81793081D01*
X133863365Y-81793081D02*
X134053841Y-81840700D01*
X134053841Y-81840700D02*
X134149080Y-81935938D01*
X134149080Y-81935938D02*
X134196699Y-82031176D01*
X134196699Y-82031176D02*
X134196699Y-82221652D01*
X134196699Y-82221652D02*
X134149080Y-82316890D01*
X134149080Y-82316890D02*
X134053841Y-82412128D01*
X134053841Y-82412128D02*
X133863365Y-82459747D01*
X133863365Y-82459747D02*
X133530032Y-82459747D01*
X133530032Y-82459747D02*
X133339556Y-82412128D01*
X133339556Y-82412128D02*
X133244318Y-82316890D01*
X133244318Y-82316890D02*
X133196699Y-82221652D01*
X133196699Y-81507366D02*
X133196699Y-80935938D01*
X134196699Y-81221652D02*
X133196699Y-81221652D01*
X134291937Y-80840700D02*
X134291937Y-80078795D01*
X133196699Y-79650223D02*
X133196699Y-79459747D01*
X133196699Y-79459747D02*
X133244318Y-79364509D01*
X133244318Y-79364509D02*
X133339556Y-79269271D01*
X133339556Y-79269271D02*
X133530032Y-79221652D01*
X133530032Y-79221652D02*
X133863365Y-79221652D01*
X133863365Y-79221652D02*
X134053841Y-79269271D01*
X134053841Y-79269271D02*
X134149080Y-79364509D01*
X134149080Y-79364509D02*
X134196699Y-79459747D01*
X134196699Y-79459747D02*
X134196699Y-79650223D01*
X134196699Y-79650223D02*
X134149080Y-79745461D01*
X134149080Y-79745461D02*
X134053841Y-79840699D01*
X134053841Y-79840699D02*
X133863365Y-79888318D01*
X133863365Y-79888318D02*
X133530032Y-79888318D01*
X133530032Y-79888318D02*
X133339556Y-79840699D01*
X133339556Y-79840699D02*
X133244318Y-79745461D01*
X133244318Y-79745461D02*
X133196699Y-79650223D01*
X133672889Y-78459747D02*
X133672889Y-78793080D01*
X134196699Y-78793080D02*
X133196699Y-78793080D01*
X133196699Y-78793080D02*
X133196699Y-78316890D01*
X133672889Y-77602604D02*
X133672889Y-77935937D01*
X134196699Y-77935937D02*
X133196699Y-77935937D01*
X133196699Y-77935937D02*
X133196699Y-77459747D01*
X138804699Y-91078747D02*
X137804699Y-91078747D01*
X137804699Y-91078747D02*
X138804699Y-90507319D01*
X138804699Y-90507319D02*
X137804699Y-90507319D01*
X138804699Y-89459700D02*
X138328508Y-89793033D01*
X138804699Y-90031128D02*
X137804699Y-90031128D01*
X137804699Y-90031128D02*
X137804699Y-89650176D01*
X137804699Y-89650176D02*
X137852318Y-89554938D01*
X137852318Y-89554938D02*
X137899937Y-89507319D01*
X137899937Y-89507319D02*
X137995175Y-89459700D01*
X137995175Y-89459700D02*
X138138032Y-89459700D01*
X138138032Y-89459700D02*
X138233270Y-89507319D01*
X138233270Y-89507319D02*
X138280889Y-89554938D01*
X138280889Y-89554938D02*
X138328508Y-89650176D01*
X138328508Y-89650176D02*
X138328508Y-90031128D01*
X138757080Y-89078747D02*
X138804699Y-88935890D01*
X138804699Y-88935890D02*
X138804699Y-88697795D01*
X138804699Y-88697795D02*
X138757080Y-88602557D01*
X138757080Y-88602557D02*
X138709460Y-88554938D01*
X138709460Y-88554938D02*
X138614222Y-88507319D01*
X138614222Y-88507319D02*
X138518984Y-88507319D01*
X138518984Y-88507319D02*
X138423746Y-88554938D01*
X138423746Y-88554938D02*
X138376127Y-88602557D01*
X138376127Y-88602557D02*
X138328508Y-88697795D01*
X138328508Y-88697795D02*
X138280889Y-88888271D01*
X138280889Y-88888271D02*
X138233270Y-88983509D01*
X138233270Y-88983509D02*
X138185651Y-89031128D01*
X138185651Y-89031128D02*
X138090413Y-89078747D01*
X138090413Y-89078747D02*
X137995175Y-89078747D01*
X137995175Y-89078747D02*
X137899937Y-89031128D01*
X137899937Y-89031128D02*
X137852318Y-88983509D01*
X137852318Y-88983509D02*
X137804699Y-88888271D01*
X137804699Y-88888271D02*
X137804699Y-88650176D01*
X137804699Y-88650176D02*
X137852318Y-88507319D01*
X137804699Y-88221604D02*
X137804699Y-87650176D01*
X138804699Y-87935890D02*
X137804699Y-87935890D01*
X84559889Y-90603414D02*
X84607508Y-90460557D01*
X84607508Y-90460557D02*
X84655127Y-90412938D01*
X84655127Y-90412938D02*
X84750365Y-90365319D01*
X84750365Y-90365319D02*
X84893222Y-90365319D01*
X84893222Y-90365319D02*
X84988460Y-90412938D01*
X84988460Y-90412938D02*
X85036080Y-90460557D01*
X85036080Y-90460557D02*
X85083699Y-90555795D01*
X85083699Y-90555795D02*
X85083699Y-90936747D01*
X85083699Y-90936747D02*
X84083699Y-90936747D01*
X84083699Y-90936747D02*
X84083699Y-90603414D01*
X84083699Y-90603414D02*
X84131318Y-90508176D01*
X84131318Y-90508176D02*
X84178937Y-90460557D01*
X84178937Y-90460557D02*
X84274175Y-90412938D01*
X84274175Y-90412938D02*
X84369413Y-90412938D01*
X84369413Y-90412938D02*
X84464651Y-90460557D01*
X84464651Y-90460557D02*
X84512270Y-90508176D01*
X84512270Y-90508176D02*
X84559889Y-90603414D01*
X84559889Y-90603414D02*
X84559889Y-90936747D01*
X85083699Y-89460557D02*
X85083699Y-89936747D01*
X85083699Y-89936747D02*
X84083699Y-89936747D01*
X144452920Y-92911633D02*
X144405300Y-93054490D01*
X144405300Y-93054490D02*
X144405300Y-93292585D01*
X144405300Y-93292585D02*
X144452920Y-93387823D01*
X144452920Y-93387823D02*
X144500539Y-93435442D01*
X144500539Y-93435442D02*
X144595777Y-93483061D01*
X144595777Y-93483061D02*
X144691015Y-93483061D01*
X144691015Y-93483061D02*
X144786253Y-93435442D01*
X144786253Y-93435442D02*
X144833872Y-93387823D01*
X144833872Y-93387823D02*
X144881491Y-93292585D01*
X144881491Y-93292585D02*
X144929110Y-93102109D01*
X144929110Y-93102109D02*
X144976729Y-93006871D01*
X144976729Y-93006871D02*
X145024348Y-92959252D01*
X145024348Y-92959252D02*
X145119586Y-92911633D01*
X145119586Y-92911633D02*
X145214824Y-92911633D01*
X145214824Y-92911633D02*
X145310062Y-92959252D01*
X145310062Y-92959252D02*
X145357681Y-93006871D01*
X145357681Y-93006871D02*
X145405300Y-93102109D01*
X145405300Y-93102109D02*
X145405300Y-93340204D01*
X145405300Y-93340204D02*
X145357681Y-93483061D01*
X145405300Y-93816395D02*
X144405300Y-94054490D01*
X144405300Y-94054490D02*
X145119586Y-94244966D01*
X145119586Y-94244966D02*
X144405300Y-94435442D01*
X144405300Y-94435442D02*
X145405300Y-94673538D01*
X145405300Y-95244966D02*
X145405300Y-95435442D01*
X145405300Y-95435442D02*
X145357681Y-95530680D01*
X145357681Y-95530680D02*
X145262443Y-95625918D01*
X145262443Y-95625918D02*
X145071967Y-95673537D01*
X145071967Y-95673537D02*
X144738634Y-95673537D01*
X144738634Y-95673537D02*
X144548158Y-95625918D01*
X144548158Y-95625918D02*
X144452920Y-95530680D01*
X144452920Y-95530680D02*
X144405300Y-95435442D01*
X144405300Y-95435442D02*
X144405300Y-95244966D01*
X144405300Y-95244966D02*
X144452920Y-95149728D01*
X144452920Y-95149728D02*
X144548158Y-95054490D01*
X144548158Y-95054490D02*
X144738634Y-95006871D01*
X144738634Y-95006871D02*
X145071967Y-95006871D01*
X145071967Y-95006871D02*
X145262443Y-95054490D01*
X145262443Y-95054490D02*
X145357681Y-95149728D01*
X145357681Y-95149728D02*
X145405300Y-95244966D01*
X138804699Y-97966747D02*
X137804699Y-97966747D01*
X137804699Y-97966747D02*
X137804699Y-97728652D01*
X137804699Y-97728652D02*
X137852318Y-97585795D01*
X137852318Y-97585795D02*
X137947556Y-97490557D01*
X137947556Y-97490557D02*
X138042794Y-97442938D01*
X138042794Y-97442938D02*
X138233270Y-97395319D01*
X138233270Y-97395319D02*
X138376127Y-97395319D01*
X138376127Y-97395319D02*
X138566603Y-97442938D01*
X138566603Y-97442938D02*
X138661841Y-97490557D01*
X138661841Y-97490557D02*
X138757080Y-97585795D01*
X138757080Y-97585795D02*
X138804699Y-97728652D01*
X138804699Y-97728652D02*
X138804699Y-97966747D01*
X138804699Y-96966747D02*
X137804699Y-96966747D01*
X137804699Y-96300081D02*
X137804699Y-96109605D01*
X137804699Y-96109605D02*
X137852318Y-96014367D01*
X137852318Y-96014367D02*
X137947556Y-95919129D01*
X137947556Y-95919129D02*
X138138032Y-95871510D01*
X138138032Y-95871510D02*
X138471365Y-95871510D01*
X138471365Y-95871510D02*
X138661841Y-95919129D01*
X138661841Y-95919129D02*
X138757080Y-96014367D01*
X138757080Y-96014367D02*
X138804699Y-96109605D01*
X138804699Y-96109605D02*
X138804699Y-96300081D01*
X138804699Y-96300081D02*
X138757080Y-96395319D01*
X138757080Y-96395319D02*
X138661841Y-96490557D01*
X138661841Y-96490557D02*
X138471365Y-96538176D01*
X138471365Y-96538176D02*
X138138032Y-96538176D01*
X138138032Y-96538176D02*
X137947556Y-96490557D01*
X137947556Y-96490557D02*
X137852318Y-96395319D01*
X137852318Y-96395319D02*
X137804699Y-96300081D01*
X129787699Y-89603319D02*
X129311508Y-89936652D01*
X129787699Y-90174747D02*
X128787699Y-90174747D01*
X128787699Y-90174747D02*
X128787699Y-89793795D01*
X128787699Y-89793795D02*
X128835318Y-89698557D01*
X128835318Y-89698557D02*
X128882937Y-89650938D01*
X128882937Y-89650938D02*
X128978175Y-89603319D01*
X128978175Y-89603319D02*
X129121032Y-89603319D01*
X129121032Y-89603319D02*
X129216270Y-89650938D01*
X129216270Y-89650938D02*
X129263889Y-89698557D01*
X129263889Y-89698557D02*
X129311508Y-89793795D01*
X129311508Y-89793795D02*
X129311508Y-90174747D01*
X129263889Y-88841414D02*
X129311508Y-88698557D01*
X129311508Y-88698557D02*
X129359127Y-88650938D01*
X129359127Y-88650938D02*
X129454365Y-88603319D01*
X129454365Y-88603319D02*
X129597222Y-88603319D01*
X129597222Y-88603319D02*
X129692460Y-88650938D01*
X129692460Y-88650938D02*
X129740080Y-88698557D01*
X129740080Y-88698557D02*
X129787699Y-88793795D01*
X129787699Y-88793795D02*
X129787699Y-89174747D01*
X129787699Y-89174747D02*
X128787699Y-89174747D01*
X128787699Y-89174747D02*
X128787699Y-88841414D01*
X128787699Y-88841414D02*
X128835318Y-88746176D01*
X128835318Y-88746176D02*
X128882937Y-88698557D01*
X128882937Y-88698557D02*
X128978175Y-88650938D01*
X128978175Y-88650938D02*
X129073413Y-88650938D01*
X129073413Y-88650938D02*
X129168651Y-88698557D01*
X129168651Y-88698557D02*
X129216270Y-88746176D01*
X129216270Y-88746176D02*
X129263889Y-88841414D01*
X129263889Y-88841414D02*
X129263889Y-89174747D01*
X91941699Y-90936747D02*
X90941699Y-90936747D01*
X90941699Y-90936747D02*
X90941699Y-90555795D01*
X90941699Y-90555795D02*
X90989318Y-90460557D01*
X90989318Y-90460557D02*
X91036937Y-90412938D01*
X91036937Y-90412938D02*
X91132175Y-90365319D01*
X91132175Y-90365319D02*
X91275032Y-90365319D01*
X91275032Y-90365319D02*
X91370270Y-90412938D01*
X91370270Y-90412938D02*
X91417889Y-90460557D01*
X91417889Y-90460557D02*
X91465508Y-90555795D01*
X91465508Y-90555795D02*
X91465508Y-90936747D01*
X91941699Y-89365319D02*
X91465508Y-89698652D01*
X91941699Y-89936747D02*
X90941699Y-89936747D01*
X90941699Y-89936747D02*
X90941699Y-89555795D01*
X90941699Y-89555795D02*
X90989318Y-89460557D01*
X90989318Y-89460557D02*
X91036937Y-89412938D01*
X91036937Y-89412938D02*
X91132175Y-89365319D01*
X91132175Y-89365319D02*
X91275032Y-89365319D01*
X91275032Y-89365319D02*
X91370270Y-89412938D01*
X91370270Y-89412938D02*
X91417889Y-89460557D01*
X91417889Y-89460557D02*
X91465508Y-89555795D01*
X91465508Y-89555795D02*
X91465508Y-89936747D01*
X132200699Y-89698557D02*
X132200699Y-90174747D01*
X132200699Y-90174747D02*
X131200699Y-90174747D01*
X131676889Y-89031890D02*
X131724508Y-88889033D01*
X131724508Y-88889033D02*
X131772127Y-88841414D01*
X131772127Y-88841414D02*
X131867365Y-88793795D01*
X131867365Y-88793795D02*
X132010222Y-88793795D01*
X132010222Y-88793795D02*
X132105460Y-88841414D01*
X132105460Y-88841414D02*
X132153080Y-88889033D01*
X132153080Y-88889033D02*
X132200699Y-88984271D01*
X132200699Y-88984271D02*
X132200699Y-89365223D01*
X132200699Y-89365223D02*
X131200699Y-89365223D01*
X131200699Y-89365223D02*
X131200699Y-89031890D01*
X131200699Y-89031890D02*
X131248318Y-88936652D01*
X131248318Y-88936652D02*
X131295937Y-88889033D01*
X131295937Y-88889033D02*
X131391175Y-88841414D01*
X131391175Y-88841414D02*
X131486413Y-88841414D01*
X131486413Y-88841414D02*
X131581651Y-88889033D01*
X131581651Y-88889033D02*
X131629270Y-88936652D01*
X131629270Y-88936652D02*
X131676889Y-89031890D01*
X131676889Y-89031890D02*
X131676889Y-89365223D01*
X93338699Y-90936747D02*
X92338699Y-90936747D01*
X92338699Y-90936747D02*
X92338699Y-90555795D01*
X92338699Y-90555795D02*
X92386318Y-90460557D01*
X92386318Y-90460557D02*
X92433937Y-90412938D01*
X92433937Y-90412938D02*
X92529175Y-90365319D01*
X92529175Y-90365319D02*
X92672032Y-90365319D01*
X92672032Y-90365319D02*
X92767270Y-90412938D01*
X92767270Y-90412938D02*
X92814889Y-90460557D01*
X92814889Y-90460557D02*
X92862508Y-90555795D01*
X92862508Y-90555795D02*
X92862508Y-90936747D01*
X92814889Y-89603414D02*
X92814889Y-89936747D01*
X93338699Y-89936747D02*
X92338699Y-89936747D01*
X92338699Y-89936747D02*
X92338699Y-89460557D01*
X83035889Y-90603414D02*
X83083508Y-90460557D01*
X83083508Y-90460557D02*
X83131127Y-90412938D01*
X83131127Y-90412938D02*
X83226365Y-90365319D01*
X83226365Y-90365319D02*
X83369222Y-90365319D01*
X83369222Y-90365319D02*
X83464460Y-90412938D01*
X83464460Y-90412938D02*
X83512080Y-90460557D01*
X83512080Y-90460557D02*
X83559699Y-90555795D01*
X83559699Y-90555795D02*
X83559699Y-90936747D01*
X83559699Y-90936747D02*
X82559699Y-90936747D01*
X82559699Y-90936747D02*
X82559699Y-90603414D01*
X82559699Y-90603414D02*
X82607318Y-90508176D01*
X82607318Y-90508176D02*
X82654937Y-90460557D01*
X82654937Y-90460557D02*
X82750175Y-90412938D01*
X82750175Y-90412938D02*
X82845413Y-90412938D01*
X82845413Y-90412938D02*
X82940651Y-90460557D01*
X82940651Y-90460557D02*
X82988270Y-90508176D01*
X82988270Y-90508176D02*
X83035889Y-90603414D01*
X83035889Y-90603414D02*
X83035889Y-90936747D01*
X83559699Y-89365319D02*
X83083508Y-89698652D01*
X83559699Y-89936747D02*
X82559699Y-89936747D01*
X82559699Y-89936747D02*
X82559699Y-89555795D01*
X82559699Y-89555795D02*
X82607318Y-89460557D01*
X82607318Y-89460557D02*
X82654937Y-89412938D01*
X82654937Y-89412938D02*
X82750175Y-89365319D01*
X82750175Y-89365319D02*
X82893032Y-89365319D01*
X82893032Y-89365319D02*
X82988270Y-89412938D01*
X82988270Y-89412938D02*
X83035889Y-89460557D01*
X83035889Y-89460557D02*
X83083508Y-89555795D01*
X83083508Y-89555795D02*
X83083508Y-89936747D01*
X134012014Y-98053699D02*
X134631061Y-98053699D01*
X134631061Y-98053699D02*
X134297728Y-98434651D01*
X134297728Y-98434651D02*
X134440585Y-98434651D01*
X134440585Y-98434651D02*
X134535823Y-98482270D01*
X134535823Y-98482270D02*
X134583442Y-98529889D01*
X134583442Y-98529889D02*
X134631061Y-98625127D01*
X134631061Y-98625127D02*
X134631061Y-98863222D01*
X134631061Y-98863222D02*
X134583442Y-98958460D01*
X134583442Y-98958460D02*
X134535823Y-99006080D01*
X134535823Y-99006080D02*
X134440585Y-99053699D01*
X134440585Y-99053699D02*
X134154871Y-99053699D01*
X134154871Y-99053699D02*
X134059633Y-99006080D01*
X134059633Y-99006080D02*
X134012014Y-98958460D01*
X135059633Y-98958460D02*
X135107252Y-99006080D01*
X135107252Y-99006080D02*
X135059633Y-99053699D01*
X135059633Y-99053699D02*
X135012014Y-99006080D01*
X135012014Y-99006080D02*
X135059633Y-98958460D01*
X135059633Y-98958460D02*
X135059633Y-99053699D01*
X135440585Y-98053699D02*
X136059632Y-98053699D01*
X136059632Y-98053699D02*
X135726299Y-98434651D01*
X135726299Y-98434651D02*
X135869156Y-98434651D01*
X135869156Y-98434651D02*
X135964394Y-98482270D01*
X135964394Y-98482270D02*
X136012013Y-98529889D01*
X136012013Y-98529889D02*
X136059632Y-98625127D01*
X136059632Y-98625127D02*
X136059632Y-98863222D01*
X136059632Y-98863222D02*
X136012013Y-98958460D01*
X136012013Y-98958460D02*
X135964394Y-99006080D01*
X135964394Y-99006080D02*
X135869156Y-99053699D01*
X135869156Y-99053699D02*
X135583442Y-99053699D01*
X135583442Y-99053699D02*
X135488204Y-99006080D01*
X135488204Y-99006080D02*
X135440585Y-98958460D01*
X136345347Y-98053699D02*
X136678680Y-99053699D01*
X136678680Y-99053699D02*
X137012013Y-98053699D01*
X133915318Y-89015938D02*
X133867699Y-89111176D01*
X133867699Y-89111176D02*
X133867699Y-89254033D01*
X133867699Y-89254033D02*
X133915318Y-89396890D01*
X133915318Y-89396890D02*
X134010556Y-89492128D01*
X134010556Y-89492128D02*
X134105794Y-89539747D01*
X134105794Y-89539747D02*
X134296270Y-89587366D01*
X134296270Y-89587366D02*
X134439127Y-89587366D01*
X134439127Y-89587366D02*
X134629603Y-89539747D01*
X134629603Y-89539747D02*
X134724841Y-89492128D01*
X134724841Y-89492128D02*
X134820080Y-89396890D01*
X134820080Y-89396890D02*
X134867699Y-89254033D01*
X134867699Y-89254033D02*
X134867699Y-89158795D01*
X134867699Y-89158795D02*
X134820080Y-89015938D01*
X134820080Y-89015938D02*
X134772460Y-88968319D01*
X134772460Y-88968319D02*
X134439127Y-88968319D01*
X134439127Y-88968319D02*
X134439127Y-89158795D01*
X134867699Y-88539747D02*
X133867699Y-88539747D01*
X133867699Y-88539747D02*
X134867699Y-87968319D01*
X134867699Y-87968319D02*
X133867699Y-87968319D01*
X134867699Y-87492128D02*
X133867699Y-87492128D01*
X133867699Y-87492128D02*
X133867699Y-87254033D01*
X133867699Y-87254033D02*
X133915318Y-87111176D01*
X133915318Y-87111176D02*
X134010556Y-87015938D01*
X134010556Y-87015938D02*
X134105794Y-86968319D01*
X134105794Y-86968319D02*
X134296270Y-86920700D01*
X134296270Y-86920700D02*
X134439127Y-86920700D01*
X134439127Y-86920700D02*
X134629603Y-86968319D01*
X134629603Y-86968319D02*
X134724841Y-87015938D01*
X134724841Y-87015938D02*
X134820080Y-87111176D01*
X134820080Y-87111176D02*
X134867699Y-87254033D01*
X134867699Y-87254033D02*
X134867699Y-87492128D01*
X129354889Y-84253414D02*
X129402508Y-84110557D01*
X129402508Y-84110557D02*
X129450127Y-84062938D01*
X129450127Y-84062938D02*
X129545365Y-84015319D01*
X129545365Y-84015319D02*
X129688222Y-84015319D01*
X129688222Y-84015319D02*
X129783460Y-84062938D01*
X129783460Y-84062938D02*
X129831080Y-84110557D01*
X129831080Y-84110557D02*
X129878699Y-84205795D01*
X129878699Y-84205795D02*
X129878699Y-84586747D01*
X129878699Y-84586747D02*
X128878699Y-84586747D01*
X128878699Y-84586747D02*
X128878699Y-84253414D01*
X128878699Y-84253414D02*
X128926318Y-84158176D01*
X128926318Y-84158176D02*
X128973937Y-84110557D01*
X128973937Y-84110557D02*
X129069175Y-84062938D01*
X129069175Y-84062938D02*
X129164413Y-84062938D01*
X129164413Y-84062938D02*
X129259651Y-84110557D01*
X129259651Y-84110557D02*
X129307270Y-84158176D01*
X129307270Y-84158176D02*
X129354889Y-84253414D01*
X129354889Y-84253414D02*
X129354889Y-84586747D01*
X128878699Y-83396271D02*
X128878699Y-83205795D01*
X128878699Y-83205795D02*
X128926318Y-83110557D01*
X128926318Y-83110557D02*
X129021556Y-83015319D01*
X129021556Y-83015319D02*
X129212032Y-82967700D01*
X129212032Y-82967700D02*
X129545365Y-82967700D01*
X129545365Y-82967700D02*
X129735841Y-83015319D01*
X129735841Y-83015319D02*
X129831080Y-83110557D01*
X129831080Y-83110557D02*
X129878699Y-83205795D01*
X129878699Y-83205795D02*
X129878699Y-83396271D01*
X129878699Y-83396271D02*
X129831080Y-83491509D01*
X129831080Y-83491509D02*
X129735841Y-83586747D01*
X129735841Y-83586747D02*
X129545365Y-83634366D01*
X129545365Y-83634366D02*
X129212032Y-83634366D01*
X129212032Y-83634366D02*
X129021556Y-83586747D01*
X129021556Y-83586747D02*
X128926318Y-83491509D01*
X128926318Y-83491509D02*
X128878699Y-83396271D01*
X128878699Y-82348652D02*
X128878699Y-82158176D01*
X128878699Y-82158176D02*
X128926318Y-82062938D01*
X128926318Y-82062938D02*
X129021556Y-81967700D01*
X129021556Y-81967700D02*
X129212032Y-81920081D01*
X129212032Y-81920081D02*
X129545365Y-81920081D01*
X129545365Y-81920081D02*
X129735841Y-81967700D01*
X129735841Y-81967700D02*
X129831080Y-82062938D01*
X129831080Y-82062938D02*
X129878699Y-82158176D01*
X129878699Y-82158176D02*
X129878699Y-82348652D01*
X129878699Y-82348652D02*
X129831080Y-82443890D01*
X129831080Y-82443890D02*
X129735841Y-82539128D01*
X129735841Y-82539128D02*
X129545365Y-82586747D01*
X129545365Y-82586747D02*
X129212032Y-82586747D01*
X129212032Y-82586747D02*
X129021556Y-82539128D01*
X129021556Y-82539128D02*
X128926318Y-82443890D01*
X128926318Y-82443890D02*
X128878699Y-82348652D01*
X128878699Y-81634366D02*
X128878699Y-81062938D01*
X129878699Y-81348652D02*
X128878699Y-81348652D01*
X129973937Y-80967700D02*
X129973937Y-80205795D01*
X128878699Y-79777223D02*
X128878699Y-79586747D01*
X128878699Y-79586747D02*
X128926318Y-79491509D01*
X128926318Y-79491509D02*
X129021556Y-79396271D01*
X129021556Y-79396271D02*
X129212032Y-79348652D01*
X129212032Y-79348652D02*
X129545365Y-79348652D01*
X129545365Y-79348652D02*
X129735841Y-79396271D01*
X129735841Y-79396271D02*
X129831080Y-79491509D01*
X129831080Y-79491509D02*
X129878699Y-79586747D01*
X129878699Y-79586747D02*
X129878699Y-79777223D01*
X129878699Y-79777223D02*
X129831080Y-79872461D01*
X129831080Y-79872461D02*
X129735841Y-79967699D01*
X129735841Y-79967699D02*
X129545365Y-80015318D01*
X129545365Y-80015318D02*
X129212032Y-80015318D01*
X129212032Y-80015318D02*
X129021556Y-79967699D01*
X129021556Y-79967699D02*
X128926318Y-79872461D01*
X128926318Y-79872461D02*
X128878699Y-79777223D01*
X129878699Y-78920080D02*
X128878699Y-78920080D01*
X128878699Y-78920080D02*
X129878699Y-78348652D01*
X129878699Y-78348652D02*
X128878699Y-78348652D01*
D11*
X123789042Y-85288819D02*
X123455709Y-84812628D01*
X123217614Y-85288819D02*
X123217614Y-84288819D01*
X123217614Y-84288819D02*
X123598566Y-84288819D01*
X123598566Y-84288819D02*
X123693804Y-84336438D01*
X123693804Y-84336438D02*
X123741423Y-84384057D01*
X123741423Y-84384057D02*
X123789042Y-84479295D01*
X123789042Y-84479295D02*
X123789042Y-84622152D01*
X123789042Y-84622152D02*
X123741423Y-84717390D01*
X123741423Y-84717390D02*
X123693804Y-84765009D01*
X123693804Y-84765009D02*
X123598566Y-84812628D01*
X123598566Y-84812628D02*
X123217614Y-84812628D01*
X124741423Y-85288819D02*
X124169995Y-85288819D01*
X124455709Y-85288819D02*
X124455709Y-84288819D01*
X124455709Y-84288819D02*
X124360471Y-84431676D01*
X124360471Y-84431676D02*
X124265233Y-84526914D01*
X124265233Y-84526914D02*
X124169995Y-84574533D01*
X125646185Y-84288819D02*
X125169995Y-84288819D01*
X125169995Y-84288819D02*
X125122376Y-84765009D01*
X125122376Y-84765009D02*
X125169995Y-84717390D01*
X125169995Y-84717390D02*
X125265233Y-84669771D01*
X125265233Y-84669771D02*
X125503328Y-84669771D01*
X125503328Y-84669771D02*
X125598566Y-84717390D01*
X125598566Y-84717390D02*
X125646185Y-84765009D01*
X125646185Y-84765009D02*
X125693804Y-84860247D01*
X125693804Y-84860247D02*
X125693804Y-85098342D01*
X125693804Y-85098342D02*
X125646185Y-85193580D01*
X125646185Y-85193580D02*
X125598566Y-85241200D01*
X125598566Y-85241200D02*
X125503328Y-85288819D01*
X125503328Y-85288819D02*
X125265233Y-85288819D01*
X125265233Y-85288819D02*
X125169995Y-85241200D01*
X125169995Y-85241200D02*
X125122376Y-85193580D01*
D12*
X136664380Y-77475842D02*
X136845809Y-77536318D01*
X136845809Y-77536318D02*
X137148190Y-77536318D01*
X137148190Y-77536318D02*
X137269142Y-77475842D01*
X137269142Y-77475842D02*
X137329618Y-77415365D01*
X137329618Y-77415365D02*
X137390095Y-77294413D01*
X137390095Y-77294413D02*
X137390095Y-77173461D01*
X137390095Y-77173461D02*
X137329618Y-77052508D01*
X137329618Y-77052508D02*
X137269142Y-76992032D01*
X137269142Y-76992032D02*
X137148190Y-76931556D01*
X137148190Y-76931556D02*
X136906285Y-76871080D01*
X136906285Y-76871080D02*
X136785333Y-76810603D01*
X136785333Y-76810603D02*
X136724856Y-76750127D01*
X136724856Y-76750127D02*
X136664380Y-76629175D01*
X136664380Y-76629175D02*
X136664380Y-76508222D01*
X136664380Y-76508222D02*
X136724856Y-76387270D01*
X136724856Y-76387270D02*
X136785333Y-76326794D01*
X136785333Y-76326794D02*
X136906285Y-76266318D01*
X136906285Y-76266318D02*
X137208666Y-76266318D01*
X137208666Y-76266318D02*
X137390095Y-76326794D01*
X138599619Y-77536318D02*
X137873904Y-77536318D01*
X138236761Y-77536318D02*
X138236761Y-76266318D01*
X138236761Y-76266318D02*
X138115809Y-76447746D01*
X138115809Y-76447746D02*
X137994857Y-76568699D01*
X137994857Y-76568699D02*
X137873904Y-76629175D01*
D11*
X141271660Y-94704819D02*
X141271660Y-95419104D01*
X141271660Y-95419104D02*
X141224041Y-95561961D01*
X141224041Y-95561961D02*
X141128803Y-95657200D01*
X141128803Y-95657200D02*
X140985946Y-95704819D01*
X140985946Y-95704819D02*
X140890708Y-95704819D01*
X141652613Y-94704819D02*
X142319279Y-94704819D01*
X142319279Y-94704819D02*
X141890708Y-95704819D01*
X123789042Y-78940819D02*
X123455709Y-78464628D01*
X123217614Y-78940819D02*
X123217614Y-77940819D01*
X123217614Y-77940819D02*
X123598566Y-77940819D01*
X123598566Y-77940819D02*
X123693804Y-77988438D01*
X123693804Y-77988438D02*
X123741423Y-78036057D01*
X123741423Y-78036057D02*
X123789042Y-78131295D01*
X123789042Y-78131295D02*
X123789042Y-78274152D01*
X123789042Y-78274152D02*
X123741423Y-78369390D01*
X123741423Y-78369390D02*
X123693804Y-78417009D01*
X123693804Y-78417009D02*
X123598566Y-78464628D01*
X123598566Y-78464628D02*
X123217614Y-78464628D01*
X124741423Y-78940819D02*
X124169995Y-78940819D01*
X124455709Y-78940819D02*
X124455709Y-77940819D01*
X124455709Y-77940819D02*
X124360471Y-78083676D01*
X124360471Y-78083676D02*
X124265233Y-78178914D01*
X124265233Y-78178914D02*
X124169995Y-78226533D01*
X125598566Y-78274152D02*
X125598566Y-78940819D01*
X125360471Y-77893200D02*
X125122376Y-78607485D01*
X125122376Y-78607485D02*
X125741423Y-78607485D01*
X123765542Y-80875580D02*
X123717923Y-80923200D01*
X123717923Y-80923200D02*
X123575066Y-80970819D01*
X123575066Y-80970819D02*
X123479828Y-80970819D01*
X123479828Y-80970819D02*
X123336971Y-80923200D01*
X123336971Y-80923200D02*
X123241733Y-80827961D01*
X123241733Y-80827961D02*
X123194114Y-80732723D01*
X123194114Y-80732723D02*
X123146495Y-80542247D01*
X123146495Y-80542247D02*
X123146495Y-80399390D01*
X123146495Y-80399390D02*
X123194114Y-80208914D01*
X123194114Y-80208914D02*
X123241733Y-80113676D01*
X123241733Y-80113676D02*
X123336971Y-80018438D01*
X123336971Y-80018438D02*
X123479828Y-79970819D01*
X123479828Y-79970819D02*
X123575066Y-79970819D01*
X123575066Y-79970819D02*
X123717923Y-80018438D01*
X123717923Y-80018438D02*
X123765542Y-80066057D01*
X124146495Y-80066057D02*
X124194114Y-80018438D01*
X124194114Y-80018438D02*
X124289352Y-79970819D01*
X124289352Y-79970819D02*
X124527447Y-79970819D01*
X124527447Y-79970819D02*
X124622685Y-80018438D01*
X124622685Y-80018438D02*
X124670304Y-80066057D01*
X124670304Y-80066057D02*
X124717923Y-80161295D01*
X124717923Y-80161295D02*
X124717923Y-80256533D01*
X124717923Y-80256533D02*
X124670304Y-80399390D01*
X124670304Y-80399390D02*
X124098876Y-80970819D01*
X124098876Y-80970819D02*
X124717923Y-80970819D01*
X125622685Y-79970819D02*
X125146495Y-79970819D01*
X125146495Y-79970819D02*
X125098876Y-80447009D01*
X125098876Y-80447009D02*
X125146495Y-80399390D01*
X125146495Y-80399390D02*
X125241733Y-80351771D01*
X125241733Y-80351771D02*
X125479828Y-80351771D01*
X125479828Y-80351771D02*
X125575066Y-80399390D01*
X125575066Y-80399390D02*
X125622685Y-80447009D01*
X125622685Y-80447009D02*
X125670304Y-80542247D01*
X125670304Y-80542247D02*
X125670304Y-80780342D01*
X125670304Y-80780342D02*
X125622685Y-80875580D01*
X125622685Y-80875580D02*
X125575066Y-80923200D01*
X125575066Y-80923200D02*
X125479828Y-80970819D01*
X125479828Y-80970819D02*
X125241733Y-80970819D01*
X125241733Y-80970819D02*
X125146495Y-80923200D01*
X125146495Y-80923200D02*
X125098876Y-80875580D01*
X123817142Y-76654819D02*
X123483809Y-76178628D01*
X123245714Y-76654819D02*
X123245714Y-75654819D01*
X123245714Y-75654819D02*
X123626666Y-75654819D01*
X123626666Y-75654819D02*
X123721904Y-75702438D01*
X123721904Y-75702438D02*
X123769523Y-75750057D01*
X123769523Y-75750057D02*
X123817142Y-75845295D01*
X123817142Y-75845295D02*
X123817142Y-75988152D01*
X123817142Y-75988152D02*
X123769523Y-76083390D01*
X123769523Y-76083390D02*
X123721904Y-76131009D01*
X123721904Y-76131009D02*
X123626666Y-76178628D01*
X123626666Y-76178628D02*
X123245714Y-76178628D01*
X124769523Y-76654819D02*
X124198095Y-76654819D01*
X124483809Y-76654819D02*
X124483809Y-75654819D01*
X124483809Y-75654819D02*
X124388571Y-75797676D01*
X124388571Y-75797676D02*
X124293333Y-75892914D01*
X124293333Y-75892914D02*
X124198095Y-75940533D01*
X125102857Y-75654819D02*
X125769523Y-75654819D01*
X125769523Y-75654819D02*
X125340952Y-76654819D01*
X137313819Y-84716333D02*
X138028104Y-84716333D01*
X138028104Y-84716333D02*
X138170961Y-84763952D01*
X138170961Y-84763952D02*
X138266200Y-84859190D01*
X138266200Y-84859190D02*
X138313819Y-85002047D01*
X138313819Y-85002047D02*
X138313819Y-85097285D01*
X138313819Y-83716333D02*
X138313819Y-84287761D01*
X138313819Y-84002047D02*
X137313819Y-84002047D01*
X137313819Y-84002047D02*
X137456676Y-84097285D01*
X137456676Y-84097285D02*
X137551914Y-84192523D01*
X137551914Y-84192523D02*
X137599533Y-84287761D01*
D12*
X108483718Y-81701332D02*
X109390861Y-81701332D01*
X109390861Y-81701332D02*
X109572289Y-81761809D01*
X109572289Y-81761809D02*
X109693242Y-81882761D01*
X109693242Y-81882761D02*
X109753718Y-82064190D01*
X109753718Y-82064190D02*
X109753718Y-82185142D01*
X108483718Y-81217523D02*
X108483718Y-80431332D01*
X108483718Y-80431332D02*
X108967527Y-80854666D01*
X108967527Y-80854666D02*
X108967527Y-80673237D01*
X108967527Y-80673237D02*
X109028003Y-80552285D01*
X109028003Y-80552285D02*
X109088480Y-80491809D01*
X109088480Y-80491809D02*
X109209432Y-80431332D01*
X109209432Y-80431332D02*
X109511813Y-80431332D01*
X109511813Y-80431332D02*
X109632765Y-80491809D01*
X109632765Y-80491809D02*
X109693242Y-80552285D01*
X109693242Y-80552285D02*
X109753718Y-80673237D01*
X109753718Y-80673237D02*
X109753718Y-81036094D01*
X109753718Y-81036094D02*
X109693242Y-81157047D01*
X109693242Y-81157047D02*
X109632765Y-81217523D01*
D11*
X123789042Y-83002819D02*
X123455709Y-82526628D01*
X123217614Y-83002819D02*
X123217614Y-82002819D01*
X123217614Y-82002819D02*
X123598566Y-82002819D01*
X123598566Y-82002819D02*
X123693804Y-82050438D01*
X123693804Y-82050438D02*
X123741423Y-82098057D01*
X123741423Y-82098057D02*
X123789042Y-82193295D01*
X123789042Y-82193295D02*
X123789042Y-82336152D01*
X123789042Y-82336152D02*
X123741423Y-82431390D01*
X123741423Y-82431390D02*
X123693804Y-82479009D01*
X123693804Y-82479009D02*
X123598566Y-82526628D01*
X123598566Y-82526628D02*
X123217614Y-82526628D01*
X124741423Y-83002819D02*
X124169995Y-83002819D01*
X124455709Y-83002819D02*
X124455709Y-82002819D01*
X124455709Y-82002819D02*
X124360471Y-82145676D01*
X124360471Y-82145676D02*
X124265233Y-82240914D01*
X124265233Y-82240914D02*
X124169995Y-82288533D01*
X125074757Y-82002819D02*
X125693804Y-82002819D01*
X125693804Y-82002819D02*
X125360471Y-82383771D01*
X125360471Y-82383771D02*
X125503328Y-82383771D01*
X125503328Y-82383771D02*
X125598566Y-82431390D01*
X125598566Y-82431390D02*
X125646185Y-82479009D01*
X125646185Y-82479009D02*
X125693804Y-82574247D01*
X125693804Y-82574247D02*
X125693804Y-82812342D01*
X125693804Y-82812342D02*
X125646185Y-82907580D01*
X125646185Y-82907580D02*
X125598566Y-82955200D01*
X125598566Y-82955200D02*
X125503328Y-83002819D01*
X125503328Y-83002819D02*
X125217614Y-83002819D01*
X125217614Y-83002819D02*
X125122376Y-82955200D01*
X125122376Y-82955200D02*
X125074757Y-82907580D01*
X141426685Y-121216009D02*
X141569542Y-121263628D01*
X141569542Y-121263628D02*
X141617161Y-121311247D01*
X141617161Y-121311247D02*
X141664780Y-121406485D01*
X141664780Y-121406485D02*
X141664780Y-121549342D01*
X141664780Y-121549342D02*
X141617161Y-121644580D01*
X141617161Y-121644580D02*
X141569542Y-121692200D01*
X141569542Y-121692200D02*
X141474304Y-121739819D01*
X141474304Y-121739819D02*
X141093352Y-121739819D01*
X141093352Y-121739819D02*
X141093352Y-120739819D01*
X141093352Y-120739819D02*
X141426685Y-120739819D01*
X141426685Y-120739819D02*
X141521923Y-120787438D01*
X141521923Y-120787438D02*
X141569542Y-120835057D01*
X141569542Y-120835057D02*
X141617161Y-120930295D01*
X141617161Y-120930295D02*
X141617161Y-121025533D01*
X141617161Y-121025533D02*
X141569542Y-121120771D01*
X141569542Y-121120771D02*
X141521923Y-121168390D01*
X141521923Y-121168390D02*
X141426685Y-121216009D01*
X141426685Y-121216009D02*
X141093352Y-121216009D01*
X141950495Y-120739819D02*
X142521923Y-120739819D01*
X142236209Y-121739819D02*
X142236209Y-120739819D01*
X142807638Y-120835057D02*
X142855257Y-120787438D01*
X142855257Y-120787438D02*
X142950495Y-120739819D01*
X142950495Y-120739819D02*
X143188590Y-120739819D01*
X143188590Y-120739819D02*
X143283828Y-120787438D01*
X143283828Y-120787438D02*
X143331447Y-120835057D01*
X143331447Y-120835057D02*
X143379066Y-120930295D01*
X143379066Y-120930295D02*
X143379066Y-121025533D01*
X143379066Y-121025533D02*
X143331447Y-121168390D01*
X143331447Y-121168390D02*
X142760019Y-121739819D01*
X142760019Y-121739819D02*
X143379066Y-121739819D01*
X123789042Y-87320819D02*
X123455709Y-86844628D01*
X123217614Y-87320819D02*
X123217614Y-86320819D01*
X123217614Y-86320819D02*
X123598566Y-86320819D01*
X123598566Y-86320819D02*
X123693804Y-86368438D01*
X123693804Y-86368438D02*
X123741423Y-86416057D01*
X123741423Y-86416057D02*
X123789042Y-86511295D01*
X123789042Y-86511295D02*
X123789042Y-86654152D01*
X123789042Y-86654152D02*
X123741423Y-86749390D01*
X123741423Y-86749390D02*
X123693804Y-86797009D01*
X123693804Y-86797009D02*
X123598566Y-86844628D01*
X123598566Y-86844628D02*
X123217614Y-86844628D01*
X124741423Y-87320819D02*
X124169995Y-87320819D01*
X124455709Y-87320819D02*
X124455709Y-86320819D01*
X124455709Y-86320819D02*
X124360471Y-86463676D01*
X124360471Y-86463676D02*
X124265233Y-86558914D01*
X124265233Y-86558914D02*
X124169995Y-86606533D01*
X125598566Y-86320819D02*
X125408090Y-86320819D01*
X125408090Y-86320819D02*
X125312852Y-86368438D01*
X125312852Y-86368438D02*
X125265233Y-86416057D01*
X125265233Y-86416057D02*
X125169995Y-86558914D01*
X125169995Y-86558914D02*
X125122376Y-86749390D01*
X125122376Y-86749390D02*
X125122376Y-87130342D01*
X125122376Y-87130342D02*
X125169995Y-87225580D01*
X125169995Y-87225580D02*
X125217614Y-87273200D01*
X125217614Y-87273200D02*
X125312852Y-87320819D01*
X125312852Y-87320819D02*
X125503328Y-87320819D01*
X125503328Y-87320819D02*
X125598566Y-87273200D01*
X125598566Y-87273200D02*
X125646185Y-87225580D01*
X125646185Y-87225580D02*
X125693804Y-87130342D01*
X125693804Y-87130342D02*
X125693804Y-86892247D01*
X125693804Y-86892247D02*
X125646185Y-86797009D01*
X125646185Y-86797009D02*
X125598566Y-86749390D01*
X125598566Y-86749390D02*
X125503328Y-86701771D01*
X125503328Y-86701771D02*
X125312852Y-86701771D01*
X125312852Y-86701771D02*
X125217614Y-86749390D01*
X125217614Y-86749390D02*
X125169995Y-86797009D01*
X125169995Y-86797009D02*
X125122376Y-86892247D01*
D12*
X91016667Y-93030318D02*
X91016667Y-93937461D01*
X91016667Y-93937461D02*
X90956190Y-94118889D01*
X90956190Y-94118889D02*
X90835238Y-94239842D01*
X90835238Y-94239842D02*
X90653809Y-94300318D01*
X90653809Y-94300318D02*
X90532857Y-94300318D01*
X92165714Y-93453651D02*
X92165714Y-94300318D01*
X91863333Y-92969842D02*
X91560952Y-93876984D01*
X91560952Y-93876984D02*
X92347143Y-93876984D01*
D11*
X123817142Y-74368819D02*
X123483809Y-73892628D01*
X123245714Y-74368819D02*
X123245714Y-73368819D01*
X123245714Y-73368819D02*
X123626666Y-73368819D01*
X123626666Y-73368819D02*
X123721904Y-73416438D01*
X123721904Y-73416438D02*
X123769523Y-73464057D01*
X123769523Y-73464057D02*
X123817142Y-73559295D01*
X123817142Y-73559295D02*
X123817142Y-73702152D01*
X123817142Y-73702152D02*
X123769523Y-73797390D01*
X123769523Y-73797390D02*
X123721904Y-73845009D01*
X123721904Y-73845009D02*
X123626666Y-73892628D01*
X123626666Y-73892628D02*
X123245714Y-73892628D01*
X124769523Y-74368819D02*
X124198095Y-74368819D01*
X124483809Y-74368819D02*
X124483809Y-73368819D01*
X124483809Y-73368819D02*
X124388571Y-73511676D01*
X124388571Y-73511676D02*
X124293333Y-73606914D01*
X124293333Y-73606914D02*
X124198095Y-73654533D01*
X125340952Y-73797390D02*
X125245714Y-73749771D01*
X125245714Y-73749771D02*
X125198095Y-73702152D01*
X125198095Y-73702152D02*
X125150476Y-73606914D01*
X125150476Y-73606914D02*
X125150476Y-73559295D01*
X125150476Y-73559295D02*
X125198095Y-73464057D01*
X125198095Y-73464057D02*
X125245714Y-73416438D01*
X125245714Y-73416438D02*
X125340952Y-73368819D01*
X125340952Y-73368819D02*
X125531428Y-73368819D01*
X125531428Y-73368819D02*
X125626666Y-73416438D01*
X125626666Y-73416438D02*
X125674285Y-73464057D01*
X125674285Y-73464057D02*
X125721904Y-73559295D01*
X125721904Y-73559295D02*
X125721904Y-73606914D01*
X125721904Y-73606914D02*
X125674285Y-73702152D01*
X125674285Y-73702152D02*
X125626666Y-73749771D01*
X125626666Y-73749771D02*
X125531428Y-73797390D01*
X125531428Y-73797390D02*
X125340952Y-73797390D01*
X125340952Y-73797390D02*
X125245714Y-73845009D01*
X125245714Y-73845009D02*
X125198095Y-73892628D01*
X125198095Y-73892628D02*
X125150476Y-73987866D01*
X125150476Y-73987866D02*
X125150476Y-74178342D01*
X125150476Y-74178342D02*
X125198095Y-74273580D01*
X125198095Y-74273580D02*
X125245714Y-74321200D01*
X125245714Y-74321200D02*
X125340952Y-74368819D01*
X125340952Y-74368819D02*
X125531428Y-74368819D01*
X125531428Y-74368819D02*
X125626666Y-74321200D01*
X125626666Y-74321200D02*
X125674285Y-74273580D01*
X125674285Y-74273580D02*
X125721904Y-74178342D01*
X125721904Y-74178342D02*
X125721904Y-73987866D01*
X125721904Y-73987866D02*
X125674285Y-73892628D01*
X125674285Y-73892628D02*
X125626666Y-73845009D01*
X125626666Y-73845009D02*
X125531428Y-73797390D01*
D12*
X98382667Y-92776318D02*
X98382667Y-93683461D01*
X98382667Y-93683461D02*
X98322190Y-93864889D01*
X98322190Y-93864889D02*
X98201238Y-93985842D01*
X98201238Y-93985842D02*
X98019809Y-94046318D01*
X98019809Y-94046318D02*
X97898857Y-94046318D01*
X98926952Y-92897270D02*
X98987428Y-92836794D01*
X98987428Y-92836794D02*
X99108381Y-92776318D01*
X99108381Y-92776318D02*
X99410762Y-92776318D01*
X99410762Y-92776318D02*
X99531714Y-92836794D01*
X99531714Y-92836794D02*
X99592190Y-92897270D01*
X99592190Y-92897270D02*
X99652667Y-93018222D01*
X99652667Y-93018222D02*
X99652667Y-93139175D01*
X99652667Y-93139175D02*
X99592190Y-93320603D01*
X99592190Y-93320603D02*
X98866476Y-94046318D01*
X98866476Y-94046318D02*
X99652667Y-94046318D01*
X124798667Y-90998318D02*
X124798667Y-91905461D01*
X124798667Y-91905461D02*
X124738190Y-92086889D01*
X124738190Y-92086889D02*
X124617238Y-92207842D01*
X124617238Y-92207842D02*
X124435809Y-92268318D01*
X124435809Y-92268318D02*
X124314857Y-92268318D01*
X126008190Y-90998318D02*
X125403428Y-90998318D01*
X125403428Y-90998318D02*
X125342952Y-91603080D01*
X125342952Y-91603080D02*
X125403428Y-91542603D01*
X125403428Y-91542603D02*
X125524381Y-91482127D01*
X125524381Y-91482127D02*
X125826762Y-91482127D01*
X125826762Y-91482127D02*
X125947714Y-91542603D01*
X125947714Y-91542603D02*
X126008190Y-91603080D01*
X126008190Y-91603080D02*
X126068667Y-91724032D01*
X126068667Y-91724032D02*
X126068667Y-92026413D01*
X126068667Y-92026413D02*
X126008190Y-92147365D01*
X126008190Y-92147365D02*
X125947714Y-92207842D01*
X125947714Y-92207842D02*
X125826762Y-92268318D01*
X125826762Y-92268318D02*
X125524381Y-92268318D01*
X125524381Y-92268318D02*
X125403428Y-92207842D01*
X125403428Y-92207842D02*
X125342952Y-92147365D01*
D13*
%TO.C,R15*%
X121025676Y-84311500D02*
X121535124Y-84311500D01*
X121025676Y-85356500D02*
X121535124Y-85356500D01*
D14*
%TO.C,S1*%
X135872000Y-76876000D02*
X127272000Y-76876000D01*
X135872000Y-72476000D02*
X127272000Y-72476000D01*
X134254280Y-77457000D02*
G75*
G03*
X134254280Y-77457000I-99280J0D01*
G01*
D13*
%TO.C,J7*%
X139138400Y-90125000D02*
X140468400Y-90125000D01*
X139138400Y-91455000D02*
X139138400Y-90125000D01*
X139138400Y-92725000D02*
X139138400Y-97865000D01*
X139138400Y-92725000D02*
X141738400Y-92725000D01*
X139138400Y-97865000D02*
X144338400Y-97865000D01*
X141738400Y-90125000D02*
X144338400Y-90125000D01*
X141738400Y-92725000D02*
X141738400Y-90125000D01*
X144338400Y-90125000D02*
X144338400Y-97865000D01*
%TO.C,R14*%
X121025676Y-77963500D02*
X121535124Y-77963500D01*
X121025676Y-79008500D02*
X121535124Y-79008500D01*
%TO.C,C25*%
X121110633Y-80006000D02*
X121403167Y-80006000D01*
X121110633Y-81026000D02*
X121403167Y-81026000D01*
%TO.C,R17*%
X121025676Y-75677500D02*
X121535124Y-75677500D01*
X121025676Y-76722500D02*
X121535124Y-76722500D01*
D14*
%TO.C,J1*%
X143414000Y-87158000D02*
X144244000Y-87158000D01*
X141594000Y-86308000D02*
X141594000Y-84958000D01*
X145744000Y-86258000D02*
X145744000Y-79858000D01*
X141594000Y-81158000D02*
X141594000Y-79808000D01*
X143414000Y-78958000D02*
X144244000Y-78958000D01*
X141094000Y-85158000D02*
G75*
G03*
X141094000Y-85158000I-100000J0D01*
G01*
D15*
%TO.C,J3*%
X114933400Y-75706000D02*
X114933400Y-75706000D01*
X114933400Y-75706000D02*
X108183400Y-75706000D01*
X108183400Y-75706000D02*
X114933400Y-75706000D01*
X108183400Y-75706000D02*
X108183400Y-75706000D01*
X104933400Y-75706000D02*
X104933400Y-75706000D01*
X104933400Y-75706000D02*
X102183400Y-75706000D01*
X102183400Y-75706000D02*
X104933400Y-75706000D01*
X102183400Y-75706000D02*
X102183400Y-75706000D01*
X102183400Y-75706000D02*
X102183400Y-75706000D01*
X102183400Y-75706000D02*
X102183400Y-90406000D01*
D14*
X118533400Y-85306000D02*
X118533400Y-85306000D01*
X118533400Y-85306000D02*
X118533400Y-85306000D01*
X118433400Y-85306000D02*
X118433400Y-85306000D01*
D15*
X116683400Y-86306000D02*
X116683400Y-86306000D01*
X116683400Y-86306000D02*
X116683400Y-88556000D01*
X116683400Y-88556000D02*
X116683400Y-86306000D01*
X116683400Y-88556000D02*
X116683400Y-88556000D01*
X114933400Y-90406000D02*
X114933400Y-90406000D01*
X114933400Y-90406000D02*
X108183400Y-90406000D01*
X108183400Y-90406000D02*
X114933400Y-90406000D01*
X108183400Y-90406000D02*
X108183400Y-90406000D01*
X104933400Y-90406000D02*
X104933400Y-90406000D01*
X104933400Y-90406000D02*
X102183400Y-90406000D01*
X102183400Y-90406000D02*
X102183400Y-75706000D01*
X102183400Y-90406000D02*
X104933400Y-90406000D01*
X102183400Y-90406000D02*
X102183400Y-90406000D01*
X102183400Y-90406000D02*
X102183400Y-90406000D01*
D14*
X118433400Y-85306000D02*
G75*
G03*
X118533400Y-85306000I50000J0D01*
G01*
X118533400Y-85306000D02*
G75*
G03*
X118433400Y-85306000I-50000J0D01*
G01*
X118533400Y-85306000D02*
G75*
G03*
X118433400Y-85306000I-50000J0D01*
G01*
D13*
%TO.C,R13*%
X121025676Y-82025500D02*
X121535124Y-82025500D01*
X121025676Y-83070500D02*
X121535124Y-83070500D01*
D16*
%TO.C,BT2*%
X148387400Y-109855000D02*
X146387400Y-109855000D01*
X147387400Y-110855000D02*
X147387400Y-108855000D01*
X145237400Y-120345000D02*
X70177400Y-120345000D01*
X145237400Y-99365000D02*
X145237400Y-120345000D01*
X70181400Y-120345000D02*
X70181400Y-99365000D01*
X70177400Y-99365000D02*
X145237400Y-99365000D01*
X67127400Y-109855000D02*
X65127400Y-109855000D01*
D13*
%TO.C,R16*%
X121025676Y-86343500D02*
X121535124Y-86343500D01*
X121025676Y-87388500D02*
X121535124Y-87388500D01*
D16*
%TO.C,J4*%
X79112200Y-91992000D02*
X93362200Y-91992000D01*
X79112200Y-97492000D02*
X79112200Y-91992000D01*
X93362200Y-91992000D02*
X93362200Y-97492000D01*
X93362200Y-97492000D02*
X79112200Y-97492000D01*
X93862200Y-96442000D02*
X94862200Y-95942000D01*
X94862200Y-95942000D02*
X94862200Y-96942000D01*
X94862200Y-96942000D02*
X93862200Y-96442000D01*
D13*
%TO.C,R18*%
X121025676Y-73391500D02*
X121535124Y-73391500D01*
X121025676Y-74436500D02*
X121535124Y-74436500D01*
D14*
%TO.C,J2*%
X95925400Y-94412000D02*
X102725400Y-94412000D01*
X95925400Y-97612000D02*
X95925400Y-94412000D01*
D15*
X97450400Y-93762000D02*
X97450400Y-93762000D01*
X97450400Y-93862000D02*
X97450400Y-93862000D01*
D14*
X102725400Y-94412000D02*
X102725400Y-97612000D01*
X102725400Y-97612000D02*
X95925400Y-97612000D01*
D15*
X97450400Y-93862000D02*
G75*
G03*
X97450400Y-93762000I0J50000D01*
G01*
X97450400Y-93762000D02*
G75*
G03*
X97450400Y-93862000I0J-50000D01*
G01*
D14*
%TO.C,J5*%
X136906000Y-97734000D02*
X124206000Y-97734000D01*
X136906000Y-90734000D02*
X136906000Y-97734000D01*
D15*
X134366000Y-90264000D02*
X134366000Y-90264000D01*
X134366000Y-90164000D02*
X134366000Y-90164000D01*
D14*
X124206000Y-97734000D02*
X124206000Y-90734000D01*
X124206000Y-90734000D02*
X136906000Y-90734000D01*
D15*
X134366000Y-90164000D02*
G75*
G03*
X134366000Y-90264000I0J-50000D01*
G01*
X134366000Y-90264000D02*
G75*
G03*
X134366000Y-90164000I0J50000D01*
G01*
%TD*%
M02*
