%TF.GenerationSoftware,KiCad,Pcbnew,7.0.8*%
%TF.CreationDate,2023-11-09T17:42:37+01:00*%
%TF.ProjectId,Suspension_telemetry,53757370-656e-4736-996f-6e5f74656c65,rev?*%
%TF.SameCoordinates,Original*%
%TF.FileFunction,Copper,L1,Top*%
%TF.FilePolarity,Positive*%
%FSLAX46Y46*%
G04 Gerber Fmt 4.6, Leading zero omitted, Abs format (unit mm)*
G04 Created by KiCad (PCBNEW 7.0.8) date 2023-11-09 17:42:37*
%MOMM*%
%LPD*%
G01*
G04 APERTURE LIST*
G04 Aperture macros list*
%AMRoundRect*
0 Rectangle with rounded corners*
0 $1 Rounding radius*
0 $2 $3 $4 $5 $6 $7 $8 $9 X,Y pos of 4 corners*
0 Add a 4 corners polygon primitive as box body*
4,1,4,$2,$3,$4,$5,$6,$7,$8,$9,$2,$3,0*
0 Add four circle primitives for the rounded corners*
1,1,$1+$1,$2,$3*
1,1,$1+$1,$4,$5*
1,1,$1+$1,$6,$7*
1,1,$1+$1,$8,$9*
0 Add four rect primitives between the rounded corners*
20,1,$1+$1,$2,$3,$4,$5,0*
20,1,$1+$1,$4,$5,$6,$7,0*
20,1,$1+$1,$6,$7,$8,$9,0*
20,1,$1+$1,$8,$9,$2,$3,0*%
G04 Aperture macros list end*
%TA.AperFunction,ComponentPad*%
%ADD10R,0.850000X0.850000*%
%TD*%
%TA.AperFunction,ComponentPad*%
%ADD11C,0.850000*%
%TD*%
%TA.AperFunction,SMDPad,CuDef*%
%ADD12RoundRect,0.237500X-0.250000X-0.237500X0.250000X-0.237500X0.250000X0.237500X-0.250000X0.237500X0*%
%TD*%
%TA.AperFunction,ComponentPad*%
%ADD13C,1.300000*%
%TD*%
%TA.AperFunction,ComponentPad*%
%ADD14C,2.250000*%
%TD*%
%TA.AperFunction,ComponentPad*%
%ADD15R,1.700000X1.700000*%
%TD*%
%TA.AperFunction,ComponentPad*%
%ADD16O,1.700000X1.700000*%
%TD*%
%TA.AperFunction,SMDPad,CuDef*%
%ADD17RoundRect,0.237500X-0.300000X-0.237500X0.300000X-0.237500X0.300000X0.237500X-0.300000X0.237500X0*%
%TD*%
%TA.AperFunction,SMDPad,CuDef*%
%ADD18R,1.200000X0.450000*%
%TD*%
%TA.AperFunction,ComponentPad*%
%ADD19C,1.000000*%
%TD*%
%TA.AperFunction,SMDPad,CuDef*%
%ADD20R,1.600000X0.700000*%
%TD*%
%TA.AperFunction,SMDPad,CuDef*%
%ADD21R,1.400000X1.200000*%
%TD*%
%TA.AperFunction,SMDPad,CuDef*%
%ADD22R,1.400000X1.600000*%
%TD*%
%TA.AperFunction,SMDPad,CuDef*%
%ADD23R,2.200000X1.200000*%
%TD*%
%TA.AperFunction,ComponentPad*%
%ADD24O,2.400000X4.140000*%
%TD*%
%TA.AperFunction,ComponentPad*%
%ADD25R,1.635000X1.635000*%
%TD*%
%TA.AperFunction,ComponentPad*%
%ADD26C,1.635000*%
%TD*%
%TA.AperFunction,ViaPad*%
%ADD27C,0.800000*%
%TD*%
%TA.AperFunction,ViaPad*%
%ADD28C,0.500000*%
%TD*%
%TA.AperFunction,Conductor*%
%ADD29C,0.500000*%
%TD*%
%TA.AperFunction,Conductor*%
%ADD30C,0.300000*%
%TD*%
%TA.AperFunction,Conductor*%
%ADD31C,0.250000*%
%TD*%
%TA.AperFunction,Conductor*%
%ADD32C,0.750000*%
%TD*%
%TA.AperFunction,Conductor*%
%ADD33C,0.200000*%
%TD*%
G04 APERTURE END LIST*
D10*
%TO.P,J4,1,1*%
%TO.N,PRESSURE_FRONT_OUT*%
X91862200Y-96442000D03*
D11*
%TO.P,J4,2,2*%
%TO.N,PRESSURE_REAR_OUT*%
X90612200Y-96442000D03*
%TO.P,J4,3,3*%
%TO.N,GND*%
X89362200Y-96442000D03*
%TO.P,J4,4,4*%
%TO.N,+3.3VA*%
X88112200Y-96442000D03*
%TO.P,J4,5,5*%
%TO.N,TRAVEL_SENOR_REAR*%
X86862200Y-96442000D03*
%TO.P,J4,6,6*%
%TO.N,TRAVEL_SENSOR_FRONT*%
X85612200Y-96442000D03*
%TO.P,J4,7,7*%
%TO.N,BRAKE_SENSOR_LEFT*%
X84362200Y-96442000D03*
%TO.P,J4,8,8*%
%TO.N,BRAKE_SENSOR_RIGHT*%
X83112200Y-96442000D03*
%TO.P,J4,9,9*%
%TO.N,+5VA*%
X81862200Y-96442000D03*
%TO.P,J4,10,10*%
%TO.N,GND*%
X80612200Y-96442000D03*
%TD*%
D12*
%TO.P,R15,1*%
%TO.N,SDIO_D3*%
X120367900Y-84834000D03*
%TO.P,R15,2*%
%TO.N,+3.3V*%
X122192900Y-84834000D03*
%TD*%
D13*
%TO.P,S1,1,1*%
%TO.N,GND*%
X133572000Y-74676000D03*
%TO.P,S1,2,2*%
%TO.N,Net-(R9-Pad1)*%
X131572000Y-74676000D03*
%TO.P,S1,3,3*%
%TO.N,+3.3V*%
X129572000Y-74676000D03*
D14*
%TO.P,S1,4*%
%TO.N,N/C*%
X135672000Y-74676000D03*
%TO.P,S1,5*%
X127472000Y-74676000D03*
%TD*%
D15*
%TO.P,J7,1,Pin_1*%
%TO.N,NRST*%
X140468400Y-91455000D03*
D16*
%TO.P,J7,2,Pin_2*%
%TO.N,+3.3V*%
X143008400Y-91455000D03*
%TO.P,J7,3,Pin_3*%
%TO.N,GND*%
X140468400Y-93995000D03*
%TO.P,J7,4,Pin_4*%
%TO.N,SWO*%
X143008400Y-93995000D03*
%TO.P,J7,5,Pin_5*%
%TO.N,SWDIO*%
X140468400Y-96535000D03*
%TO.P,J7,6,Pin_6*%
%TO.N,SWDCLK*%
X143008400Y-96535000D03*
%TD*%
D12*
%TO.P,R14,1*%
%TO.N,SDIO_CK*%
X120367900Y-78486000D03*
%TO.P,R14,2*%
%TO.N,+3.3V*%
X122192900Y-78486000D03*
%TD*%
D17*
%TO.P,C25,1*%
%TO.N,+3.3V*%
X120394400Y-80516000D03*
%TO.P,C25,2*%
%TO.N,GND*%
X122119400Y-80516000D03*
%TD*%
D12*
%TO.P,R17,1*%
%TO.N,SDIO_D0*%
X120367900Y-76200000D03*
%TO.P,R17,2*%
%TO.N,+3.3V*%
X122192900Y-76200000D03*
%TD*%
D18*
%TO.P,J1,1,VCC*%
%TO.N,5V_USB*%
X141344000Y-84358000D03*
%TO.P,J1,2,D-*%
%TO.N,DATAN*%
X141344000Y-83708000D03*
%TO.P,J1,3,D+*%
%TO.N,DATAP*%
X141344000Y-83058000D03*
%TO.P,J1,4,ID*%
%TO.N,unconnected-(J1-ID-Pad4)*%
X141344000Y-82408000D03*
%TO.P,J1,5,GND*%
%TO.N,GND*%
X141344000Y-81758000D03*
D13*
%TO.P,J1,S1,SHIELD*%
X142494000Y-86758000D03*
%TO.P,J1,S2,SHIELD*%
X142494000Y-79358000D03*
D19*
%TO.P,J1,S3,SHIELD*%
X144994000Y-86758000D03*
%TO.P,J1,S4,SHIELD*%
X144994000Y-79358000D03*
%TD*%
D20*
%TO.P,J3,1,DAT2*%
%TO.N,SDIO_D2*%
X116683400Y-85306000D03*
%TO.P,J3,2,CD/DAT3*%
%TO.N,SDIO_D3*%
X116683400Y-84206000D03*
%TO.P,J3,3,CMD*%
%TO.N,SDIO_CMD*%
X116683400Y-83106000D03*
%TO.P,J3,4,VDD*%
%TO.N,+3.3V*%
X116683400Y-82006000D03*
%TO.P,J3,5,CLK*%
%TO.N,SDIO_CK*%
X116683400Y-80906000D03*
%TO.P,J3,6,VSS*%
%TO.N,GND*%
X116683400Y-79806000D03*
%TO.P,J3,7,DAT0*%
%TO.N,SDIO_D0*%
X116683400Y-78706000D03*
%TO.P,J3,8,DAT1*%
%TO.N,SDIO_D1*%
X116683400Y-77606000D03*
%TO.P,J3,CD1,CARD_DETECTION*%
%TO.N,SD_detection*%
X116683400Y-76506000D03*
D21*
%TO.P,J3,G1,GROUND*%
%TO.N,GND*%
X116183400Y-75306000D03*
D22*
%TO.P,J3,MP1,MP1*%
X116183400Y-89906000D03*
D23*
%TO.P,J3,MP2,MP2*%
X106583400Y-90806000D03*
%TO.P,J3,MP3,MP3*%
X106583400Y-75306000D03*
%TD*%
D12*
%TO.P,R13,1*%
%TO.N,SDIO_CMD*%
X120367900Y-82548000D03*
%TO.P,R13,2*%
%TO.N,+3.3V*%
X122192900Y-82548000D03*
%TD*%
D24*
%TO.P,BT2,+*%
%TO.N,/Power_Stabilizer_3_3V/V_in_P*%
X143460400Y-109855000D03*
%TO.P,BT2,-*%
%TO.N,PWR_SWITCH_OUT*%
X72060400Y-109855000D03*
%TD*%
D12*
%TO.P,R16,1*%
%TO.N,SDIO_D2*%
X120367900Y-86866000D03*
%TO.P,R16,2*%
%TO.N,+3.3V*%
X122192900Y-86866000D03*
%TD*%
%TO.P,R18,1*%
%TO.N,SDIO_D1*%
X120367900Y-73914000D03*
%TO.P,R18,2*%
%TO.N,+3.3V*%
X122192900Y-73914000D03*
%TD*%
D19*
%TO.P,J2,1,1*%
%TO.N,I2C1_SDA*%
X97450400Y-95562000D03*
%TO.P,J2,2,2*%
%TO.N,I2C1_SCL*%
X98700400Y-95562000D03*
%TO.P,J2,3,3*%
%TO.N,GND*%
X99950400Y-95562000D03*
%TO.P,J2,4,4*%
%TO.N,+3.3V*%
X101200400Y-95562000D03*
%TD*%
D25*
%TO.P,J5,1,1*%
%TO.N,GND*%
X134366000Y-92964000D03*
D26*
%TO.P,J5,2,2*%
%TO.N,+3.3V*%
X134366000Y-95504000D03*
%TO.P,J5,3,3*%
%TO.N,LB_PRE_DEB*%
X131826000Y-92964000D03*
%TO.P,J5,4,4*%
%TO.N,PWR_SWITCH_IN*%
X131826000Y-95504000D03*
%TO.P,J5,5,5*%
%TO.N,RB_PRE_DEB*%
X129286000Y-92964000D03*
%TO.P,J5,6,6*%
%TO.N,PWR_SWITCH_OUT*%
X129286000Y-95504000D03*
%TO.P,J5,7,7*%
%TO.N,NRST*%
X126746000Y-92964000D03*
%TO.P,J5,8,8*%
%TO.N,GND*%
X126746000Y-95504000D03*
%TD*%
D27*
%TO.N,GND*%
X131572000Y-97028000D03*
D28*
%TO.N,CHARGE_DETECTION*%
X105410000Y-115062000D03*
X105156000Y-116840000D03*
D27*
%TO.N,GND*%
X115204800Y-73756000D03*
X142698700Y-81963900D03*
X115655000Y-91333600D03*
X89408000Y-94488000D03*
X86868000Y-94488000D03*
X100838000Y-106172000D03*
X107696000Y-118872000D03*
X107696000Y-114808000D03*
X141732000Y-105918000D03*
X133186548Y-103505000D03*
X104817200Y-90785000D03*
X104817200Y-75554600D03*
X141732000Y-100330000D03*
X124206000Y-112776000D03*
X76962000Y-91440000D03*
X121158000Y-102362000D03*
X98298000Y-106172000D03*
X76962000Y-98298000D03*
X123444000Y-80518000D03*
X125476000Y-101854000D03*
X92710000Y-92202000D03*
X129032000Y-101854000D03*
X95758000Y-101854000D03*
X118872000Y-101346000D03*
X76962000Y-102616000D03*
X100330000Y-100584000D03*
X125730000Y-109728000D03*
X144272000Y-99060000D03*
X115265700Y-79334300D03*
X95250000Y-89662000D03*
X78486000Y-96266000D03*
%TO.N,+3.3V*%
X118237000Y-106426000D03*
X97028000Y-114300000D03*
X106910200Y-100749300D03*
X115316000Y-110490000D03*
X115824000Y-106426000D03*
X76962000Y-90170000D03*
X106426000Y-96266000D03*
X107913400Y-112705900D03*
%TO.N,+5V*%
X79756000Y-102743000D03*
X118110000Y-116713000D03*
D28*
%TO.N,NRST*%
X132588000Y-94361000D03*
D27*
X98044000Y-107455600D03*
%TO.N,SDIO_D2*%
X105181400Y-92984400D03*
%TO.N,SDIO_D3*%
X104335400Y-115177900D03*
%TO.N,SDIO_CMD*%
X110244200Y-93106300D03*
%TO.N,SDIO_CK*%
X108546200Y-91036200D03*
%TO.N,SDIO_D0*%
X114752000Y-81018200D03*
%TO.N,SDIO_D1*%
X118186400Y-76708000D03*
%TO.N,SWDCLK*%
X105888800Y-108009300D03*
%TO.N,SWO*%
X102589900Y-112014800D03*
%TO.N,BOOT*%
X103079800Y-107957300D03*
X120471200Y-93890200D03*
%TO.N,LEFT_BUTTON*%
X125730000Y-105862100D03*
X103500700Y-110031100D03*
D28*
%TO.N,I2C1_SDA*%
X82804000Y-83820000D03*
X73152000Y-88773000D03*
D27*
%TO.N,SWDIO*%
X112522000Y-109460800D03*
%TO.N,SD_detection*%
X114930000Y-76751600D03*
%TO.N,5V_USB*%
X137287000Y-98806000D03*
X135382000Y-85344000D03*
D28*
%TO.N,DATAP*%
X138938000Y-82958500D03*
%TO.N,DATAN*%
X138049520Y-82920689D03*
D27*
%TO.N,BATTERY_LEVEL*%
X112547900Y-114751800D03*
X104566700Y-109587400D03*
%TO.N,ACCELEROMETER_INT0*%
X110744200Y-100115400D03*
X78672900Y-98330400D03*
%TD*%
D29*
%TO.N,GND*%
X131572000Y-97028000D02*
X132337623Y-97028000D01*
D30*
%TO.N,CHARGE_DETECTION*%
X105156000Y-116840000D02*
X105156000Y-115316000D01*
X105156000Y-115316000D02*
X105410000Y-115062000D01*
D29*
%TO.N,GND*%
X107696000Y-118872000D02*
X107696000Y-114808000D01*
D31*
%TO.N,LEFT_BUTTON*%
X103500700Y-109569000D02*
X103500700Y-110031100D01*
X104333400Y-108736300D02*
X103500700Y-109569000D01*
X123179100Y-108736300D02*
X104333400Y-108736300D01*
X125730000Y-106185400D02*
X123179100Y-108736300D01*
X125730000Y-105862100D02*
X125730000Y-106185400D01*
D29*
%TO.N,GND*%
X128270000Y-97028000D02*
X131572000Y-97028000D01*
X143002000Y-100330000D02*
X141732000Y-100330000D01*
X134366000Y-93572950D02*
X134366000Y-92964000D01*
X95250000Y-89662000D02*
X92710000Y-92202000D01*
X133093500Y-94845450D02*
X134366000Y-93572950D01*
D31*
X115556500Y-79625100D02*
X115265700Y-79334300D01*
X105135500Y-90785000D02*
X105156500Y-90806000D01*
D29*
X125730000Y-109728000D02*
X125730000Y-111252000D01*
X125730000Y-111252000D02*
X124206000Y-112776000D01*
X97028000Y-100584000D02*
X95758000Y-101854000D01*
X133093500Y-96272123D02*
X133093500Y-94845450D01*
D31*
X123444000Y-80518000D02*
X122121400Y-80518000D01*
D29*
X135599548Y-105918000D02*
X133186548Y-103505000D01*
D31*
X116183400Y-75306000D02*
X116183400Y-74379100D01*
X106583400Y-75306000D02*
X105156500Y-75306000D01*
D29*
X100330000Y-100584000D02*
X98552000Y-100584000D01*
D31*
X115955700Y-91032900D02*
X116183400Y-91032900D01*
X122121400Y-80518000D02*
X122119400Y-80516000D01*
D29*
X132337623Y-97028000D02*
X133093500Y-96272123D01*
X141732000Y-100330000D02*
X141732000Y-105918000D01*
X119888000Y-102362000D02*
X118872000Y-101346000D01*
D31*
X106583400Y-90806000D02*
X105156500Y-90806000D01*
X115556500Y-79806000D02*
X115556500Y-79625100D01*
D29*
X141732000Y-105918000D02*
X135599548Y-105918000D01*
D31*
X104907900Y-75554600D02*
X105156500Y-75306000D01*
X116683400Y-79806000D02*
X115556500Y-79806000D01*
X104817200Y-90785000D02*
X105135500Y-90785000D01*
X104817200Y-75554600D02*
X104907900Y-75554600D01*
D29*
X95758000Y-101854000D02*
X98298000Y-104394000D01*
D31*
X115204800Y-73756000D02*
X115827900Y-74379100D01*
D29*
X76962000Y-98298000D02*
X76962000Y-102616000D01*
D31*
X142492800Y-81758000D02*
X141344000Y-81758000D01*
X115655000Y-91333600D02*
X115955700Y-91032900D01*
X116183400Y-89906000D02*
X116183400Y-91032900D01*
D29*
X100838000Y-106172000D02*
X98298000Y-106172000D01*
X76962000Y-91440000D02*
X78486000Y-92964000D01*
D31*
X142698700Y-81963900D02*
X142492800Y-81758000D01*
D29*
X78486000Y-92964000D02*
X78486000Y-96266000D01*
X76962000Y-98298000D02*
X76962000Y-97790000D01*
X126746000Y-95504000D02*
X128270000Y-97028000D01*
X89408000Y-94488000D02*
X86868000Y-94488000D01*
X129032000Y-101854000D02*
X125476000Y-101854000D01*
X144272000Y-99060000D02*
X143002000Y-100330000D01*
X98298000Y-104394000D02*
X98298000Y-106172000D01*
D31*
X115827900Y-74379100D02*
X116183400Y-74379100D01*
D29*
X76962000Y-97790000D02*
X78486000Y-96266000D01*
X121158000Y-102362000D02*
X119888000Y-102362000D01*
X98552000Y-100584000D02*
X97028000Y-100584000D01*
D32*
%TO.N,+3.3V*%
X134366000Y-95504000D02*
X135382000Y-95504000D01*
D30*
X118904000Y-82006000D02*
X116683400Y-82006000D01*
X120394000Y-80516000D02*
X118904000Y-82006000D01*
D29*
X142240000Y-90686600D02*
X142240000Y-90170000D01*
D30*
X116683400Y-82006000D02*
X116683000Y-82006000D01*
D29*
X143008400Y-91455000D02*
X142240000Y-90686600D01*
D32*
X134366000Y-95504000D02*
X135128000Y-95504000D01*
X135128000Y-95504000D02*
X133985000Y-96647000D01*
D31*
X122192900Y-78717500D02*
X120394400Y-80516000D01*
X122192900Y-78486000D02*
X122192900Y-78717500D01*
D32*
X135382000Y-95504000D02*
X136144000Y-94742000D01*
D29*
%TO.N,+5V*%
X78960400Y-119404000D02*
X78960400Y-113631000D01*
X78960400Y-113631000D02*
X76962000Y-111633000D01*
X79756000Y-120200000D02*
X78960400Y-119404000D01*
X76962000Y-105537000D02*
X79756000Y-102743000D01*
X118110000Y-116713000D02*
X114623000Y-120200000D01*
X114623000Y-120200000D02*
X79756000Y-120200000D01*
X76962000Y-111633000D02*
X76962000Y-105537000D01*
D31*
%TO.N,NRST*%
X126945300Y-93163300D02*
X127056600Y-93274600D01*
X108723600Y-100972000D02*
X111844100Y-100972000D01*
X119652800Y-93163300D02*
X126945300Y-93163300D01*
X128143000Y-94361000D02*
X127056600Y-93274600D01*
X98044000Y-107455600D02*
X102240000Y-107455600D01*
X111844100Y-100972000D02*
X119652800Y-93163300D01*
X102240000Y-107455600D02*
X108723600Y-100972000D01*
X127056600Y-93274600D02*
X126746000Y-92964000D01*
X132588000Y-94361000D02*
X128143000Y-94361000D01*
%TO.N,SDIO_D2*%
X112727600Y-90461900D02*
X112727600Y-91665300D01*
X116683400Y-85306400D02*
X116683400Y-85306000D01*
X117283300Y-85906200D02*
X112727600Y-90461900D01*
X112727600Y-91665300D02*
X110527100Y-93865800D01*
X118243000Y-86866000D02*
X117283300Y-85906200D01*
X120367900Y-86866000D02*
X118243000Y-86866000D01*
X120368000Y-86866000D02*
X120367900Y-86866000D01*
X117283300Y-85906200D02*
X116683400Y-85306400D01*
X116683400Y-85306400D02*
X116683000Y-85306000D01*
X110527100Y-93865800D02*
X106062800Y-93865800D01*
X106062800Y-93865800D02*
X105181400Y-92984400D01*
%TO.N,SDIO_D3*%
X104335400Y-115177900D02*
X94445000Y-115177900D01*
X111278000Y-97293000D02*
X121184000Y-87387000D01*
X77922800Y-98655700D02*
X77922800Y-98038800D01*
X121184000Y-87387000D02*
X121184000Y-85650100D01*
X77922800Y-98038800D02*
X78668600Y-97293000D01*
X120367900Y-84833900D02*
X119740000Y-84206000D01*
X120367900Y-84833900D02*
X120367900Y-84834000D01*
X121184000Y-85650100D02*
X120367900Y-84834000D01*
X119740000Y-84206000D02*
X116683400Y-84206000D01*
X94445000Y-115177900D02*
X77922800Y-98655700D01*
X78668600Y-97293000D02*
X111278000Y-97293000D01*
X120368000Y-84834000D02*
X120367900Y-84833900D01*
X116683400Y-84206000D02*
X116683000Y-84206000D01*
%TO.N,SDIO_CMD*%
X110244200Y-93106300D02*
X110244200Y-88988400D01*
X119810000Y-83106000D02*
X116683400Y-83106000D01*
X120368000Y-82548000D02*
X120367900Y-82548100D01*
X110244200Y-88988400D02*
X116126600Y-83106000D01*
X116683400Y-83106000D02*
X116683000Y-83106000D01*
X116126600Y-83106000D02*
X116683000Y-83106000D01*
X120367900Y-82548100D02*
X120367900Y-82548000D01*
X120367900Y-82548100D02*
X119810000Y-83106000D01*
%TO.N,SDIO_CK*%
X120368000Y-78738000D02*
X120367900Y-78738100D01*
X108546200Y-88484800D02*
X116125000Y-80906000D01*
X120367900Y-78738100D02*
X118200000Y-80906000D01*
X116125000Y-80906000D02*
X116683000Y-80906000D01*
X118200000Y-80906000D02*
X116683400Y-80906000D01*
X116683400Y-80906000D02*
X116683000Y-80906000D01*
X108546200Y-91036200D02*
X108546200Y-88484800D01*
X120367900Y-78738100D02*
X120367900Y-78738000D01*
%TO.N,SDIO_D0*%
X120367900Y-76200000D02*
X120367900Y-76482100D01*
X114953600Y-78607300D02*
X114499200Y-79061700D01*
X114499200Y-79061700D02*
X114499200Y-80765400D01*
X116683400Y-78706000D02*
X116683200Y-78706000D01*
X114499200Y-80765400D02*
X114752000Y-81018200D01*
X120367900Y-76482100D02*
X118144000Y-78706000D01*
X116584500Y-78607300D02*
X114953600Y-78607300D01*
X116683200Y-78706000D02*
X116683000Y-78706000D01*
X116683200Y-78706000D02*
X116584500Y-78607300D01*
X118144000Y-78706000D02*
X116683400Y-78706000D01*
%TO.N,SDIO_D1*%
X120367900Y-74168000D02*
X120367900Y-74196100D01*
X120367900Y-74526500D02*
X118186400Y-76708000D01*
X120367900Y-73914000D02*
X120367900Y-74526500D01*
X117288400Y-77606000D02*
X116683400Y-77606000D01*
X116683400Y-77606000D02*
X116683000Y-77606000D01*
X118186400Y-76708000D02*
X117288400Y-77606000D01*
%TO.N,SWDCLK*%
X128355800Y-105137600D02*
X108760500Y-105137600D01*
X138135300Y-95358100D02*
X128355800Y-105137600D01*
X143008400Y-96535000D02*
X141831500Y-96535000D01*
X108760500Y-105137600D02*
X105888800Y-108009300D01*
X141020400Y-95358100D02*
X138135300Y-95358100D01*
X141831500Y-96169200D02*
X141020400Y-95358100D01*
X141831500Y-96535000D02*
X141831500Y-96169200D01*
%TO.N,SWO*%
X139570300Y-92804000D02*
X128234300Y-104140000D01*
X102589900Y-109793200D02*
X102589900Y-112014800D01*
X141831500Y-93995000D02*
X141831500Y-93627200D01*
X141008300Y-92804000D02*
X139570300Y-92804000D01*
X143008400Y-93995000D02*
X141831500Y-93995000D01*
X128234300Y-104140000D02*
X108243100Y-104140000D01*
X141831500Y-93627200D02*
X141008300Y-92804000D01*
X108243100Y-104140000D02*
X102589900Y-109793200D01*
%TO.N,BOOT*%
X112877600Y-101483800D02*
X120471200Y-93890200D01*
X103079800Y-107957300D02*
X109553300Y-101483800D01*
X109553300Y-101483800D02*
X112877600Y-101483800D01*
%TO.N,I2C1_SDA*%
X73152000Y-83820000D02*
X73152000Y-88773000D01*
X82804000Y-83820000D02*
X73152000Y-83820000D01*
%TO.N,SWDIO*%
X137594796Y-96535000D02*
X140468400Y-96535000D01*
X127838400Y-105587600D02*
X128542196Y-105587600D01*
X123965200Y-109460800D02*
X127838400Y-105587600D01*
X128542196Y-105587600D02*
X137594796Y-96535000D01*
X112522000Y-109460800D02*
X123965200Y-109460800D01*
%TO.N,SD_detection*%
X116683400Y-76506000D02*
X115175600Y-76506000D01*
X115175600Y-76506000D02*
X114930000Y-76751600D01*
D29*
%TO.N,5V_USB*%
X141369000Y-84383000D02*
X141344000Y-84383000D01*
X142875000Y-98806000D02*
X144399000Y-97282000D01*
X144044000Y-86386000D02*
X142367000Y-84709000D01*
X137287000Y-98806000D02*
X142875000Y-98806000D01*
X142367000Y-84709000D02*
X142041000Y-84383000D01*
X142367000Y-84709000D02*
X138176000Y-84709000D01*
X142041000Y-84383000D02*
X141369000Y-84383000D01*
D31*
X141369000Y-84383000D02*
X141344000Y-84358000D01*
D29*
X144399000Y-97282000D02*
X144399000Y-91008800D01*
X138176000Y-84709000D02*
X137541000Y-85344000D01*
X137541000Y-85344000D02*
X135382000Y-85344000D01*
X144044000Y-90653800D02*
X144044000Y-86386000D01*
X144399000Y-91008800D02*
X144044000Y-90653800D01*
D33*
%TO.N,DATAP*%
X141344000Y-83058000D02*
X141244500Y-82958500D01*
X141244500Y-82958500D02*
X138938000Y-82958500D01*
X141344000Y-83058000D02*
X141219000Y-83183000D01*
%TO.N,DATAN*%
X138049520Y-82920689D02*
X138836831Y-83708000D01*
X138836831Y-83708000D02*
X141344000Y-83708000D01*
D31*
%TO.N,BATTERY_LEVEL*%
X104566700Y-109587400D02*
X107383500Y-109587400D01*
X107383500Y-109587400D02*
X112547900Y-114751800D01*
%TO.N,ACCELEROMETER_INT0*%
X78672900Y-98330400D02*
X108959200Y-98330400D01*
X108959200Y-98330400D02*
X110744200Y-100115400D01*
%TD*%
%TA.AperFunction,Conductor*%
%TO.N,+3.3V*%
G36*
X145549945Y-70730585D02*
G01*
X145595700Y-70783389D01*
X145606906Y-70834900D01*
X145606906Y-78344268D01*
X145587221Y-78411307D01*
X145534417Y-78457062D01*
X145465259Y-78467006D01*
X145424454Y-78453627D01*
X145378731Y-78429188D01*
X145378730Y-78429187D01*
X145378727Y-78429186D01*
X145190132Y-78371976D01*
X145190129Y-78371975D01*
X144994000Y-78352659D01*
X144797870Y-78371975D01*
X144609266Y-78429188D01*
X144435467Y-78522086D01*
X144435460Y-78522090D01*
X144283116Y-78647116D01*
X144158090Y-78799460D01*
X144158086Y-78799467D01*
X144065188Y-78973266D01*
X144007975Y-79161870D01*
X143988659Y-79358000D01*
X144007975Y-79554129D01*
X144007976Y-79554132D01*
X144062493Y-79733851D01*
X144065188Y-79742733D01*
X144158086Y-79916532D01*
X144158090Y-79916539D01*
X144283116Y-80068883D01*
X144435460Y-80193909D01*
X144435467Y-80193913D01*
X144609266Y-80286811D01*
X144609269Y-80286811D01*
X144609273Y-80286814D01*
X144797868Y-80344024D01*
X144994000Y-80363341D01*
X145190132Y-80344024D01*
X145378727Y-80286814D01*
X145424453Y-80262372D01*
X145492855Y-80248131D01*
X145558099Y-80273130D01*
X145599470Y-80329435D01*
X145606906Y-80371731D01*
X145606906Y-85744268D01*
X145587221Y-85811307D01*
X145534417Y-85857062D01*
X145465259Y-85867006D01*
X145424454Y-85853627D01*
X145378731Y-85829188D01*
X145378730Y-85829187D01*
X145378727Y-85829186D01*
X145190132Y-85771976D01*
X145190129Y-85771975D01*
X144994000Y-85752659D01*
X144797869Y-85771975D01*
X144633807Y-85821743D01*
X144563940Y-85822366D01*
X144510131Y-85790763D01*
X142942729Y-84223361D01*
X142930949Y-84209730D01*
X142923482Y-84199701D01*
X142916612Y-84190472D01*
X142911322Y-84186033D01*
X142876587Y-84156886D01*
X142872612Y-84153244D01*
X142868919Y-84149551D01*
X142865238Y-84145869D01*
X142865214Y-84145847D01*
X142616729Y-83897361D01*
X142604949Y-83883730D01*
X142593852Y-83868825D01*
X142590612Y-83864472D01*
X142583495Y-83858500D01*
X142550587Y-83830886D01*
X142546612Y-83827244D01*
X142543690Y-83824322D01*
X142540780Y-83821411D01*
X142515039Y-83801058D01*
X142488792Y-83779033D01*
X142450090Y-83720861D01*
X142444499Y-83684045D01*
X142444499Y-83435128D01*
X142444498Y-83435111D01*
X142440320Y-83396253D01*
X142440320Y-83369747D01*
X142444500Y-83330873D01*
X142444499Y-82983610D01*
X142464183Y-82916573D01*
X142516987Y-82870818D01*
X142586146Y-82860874D01*
X142594251Y-82862316D01*
X142604054Y-82864400D01*
X142604058Y-82864400D01*
X142793344Y-82864400D01*
X142793346Y-82864400D01*
X142978503Y-82825044D01*
X143151430Y-82748051D01*
X143304571Y-82636788D01*
X143431233Y-82496116D01*
X143525879Y-82332184D01*
X143584374Y-82152156D01*
X143604160Y-81963900D01*
X143584374Y-81775644D01*
X143525879Y-81595616D01*
X143431233Y-81431684D01*
X143304571Y-81291012D01*
X143301159Y-81288533D01*
X143151434Y-81179751D01*
X143151429Y-81179748D01*
X142978507Y-81102757D01*
X142978502Y-81102755D01*
X142812710Y-81067516D01*
X142793346Y-81063400D01*
X142604054Y-81063400D01*
X142585706Y-81067300D01*
X142418897Y-81102755D01*
X142396304Y-81112815D01*
X142376170Y-81121779D01*
X142325735Y-81132500D01*
X142285439Y-81132500D01*
X142218400Y-81112815D01*
X142211128Y-81107767D01*
X142186331Y-81089204D01*
X142186328Y-81089202D01*
X142051482Y-81038908D01*
X142051483Y-81038908D01*
X141991883Y-81032501D01*
X141991881Y-81032500D01*
X141991873Y-81032500D01*
X141991864Y-81032500D01*
X140696129Y-81032500D01*
X140696123Y-81032501D01*
X140636516Y-81038908D01*
X140501671Y-81089202D01*
X140501664Y-81089206D01*
X140386455Y-81175452D01*
X140386452Y-81175455D01*
X140300206Y-81290664D01*
X140300202Y-81290671D01*
X140252526Y-81418500D01*
X140249909Y-81425517D01*
X140243500Y-81485127D01*
X140243500Y-81485134D01*
X140243500Y-81485135D01*
X140243500Y-82030869D01*
X140243501Y-82030878D01*
X140247679Y-82069745D01*
X140247679Y-82096251D01*
X140243500Y-82135123D01*
X140243500Y-82234000D01*
X140223815Y-82301039D01*
X140171011Y-82346794D01*
X140119500Y-82358000D01*
X139428663Y-82358000D01*
X139362691Y-82338994D01*
X139265692Y-82278045D01*
X139265691Y-82278044D01*
X139265690Y-82278044D01*
X139202692Y-82256000D01*
X139106056Y-82222185D01*
X138938003Y-82203251D01*
X138937997Y-82203251D01*
X138769943Y-82222185D01*
X138610307Y-82278045D01*
X138589816Y-82290920D01*
X138522579Y-82309918D01*
X138457875Y-82290918D01*
X138377212Y-82240234D01*
X138377211Y-82240233D01*
X138377210Y-82240233D01*
X138338890Y-82226824D01*
X138217576Y-82184374D01*
X138049523Y-82165440D01*
X138049517Y-82165440D01*
X137881463Y-82184374D01*
X137721825Y-82240234D01*
X137721822Y-82240236D01*
X137578635Y-82330207D01*
X137578629Y-82330212D01*
X137459043Y-82449798D01*
X137459038Y-82449804D01*
X137369067Y-82592991D01*
X137369065Y-82592994D01*
X137313205Y-82752632D01*
X137294271Y-82920686D01*
X137294271Y-82920691D01*
X137313205Y-83088745D01*
X137369065Y-83248383D01*
X137369067Y-83248386D01*
X137459038Y-83391573D01*
X137459043Y-83391579D01*
X137578629Y-83511165D01*
X137578635Y-83511170D01*
X137721822Y-83601141D01*
X137721828Y-83601144D01*
X137721830Y-83601145D01*
X137881461Y-83657002D01*
X137900481Y-83659144D01*
X137964893Y-83686209D01*
X137974280Y-83694684D01*
X138048582Y-83768986D01*
X138082067Y-83830309D01*
X138077083Y-83900001D01*
X138035211Y-83955934D01*
X138003309Y-83973190D01*
X138001745Y-83973758D01*
X138001745Y-83973759D01*
X137975545Y-83983294D01*
X137929575Y-84000025D01*
X137856675Y-84024181D01*
X137850126Y-84027236D01*
X137850101Y-84027183D01*
X137843308Y-84030471D01*
X137843334Y-84030523D01*
X137836880Y-84033764D01*
X137772708Y-84075971D01*
X137707347Y-84116285D01*
X137701683Y-84120765D01*
X137701647Y-84120719D01*
X137695797Y-84125485D01*
X137695834Y-84125529D01*
X137690305Y-84130168D01*
X137637598Y-84186033D01*
X137266451Y-84557181D01*
X137205128Y-84590666D01*
X137178770Y-84593500D01*
X135921337Y-84593500D01*
X135854298Y-84573815D01*
X135848452Y-84569818D01*
X135834734Y-84559851D01*
X135834729Y-84559848D01*
X135661807Y-84482857D01*
X135661802Y-84482855D01*
X135490040Y-84446347D01*
X135476646Y-84443500D01*
X135287354Y-84443500D01*
X135273960Y-84446347D01*
X135102197Y-84482855D01*
X135102192Y-84482857D01*
X134929270Y-84559848D01*
X134929265Y-84559851D01*
X134776129Y-84671111D01*
X134649466Y-84811785D01*
X134554821Y-84975715D01*
X134554818Y-84975722D01*
X134496327Y-85155740D01*
X134496326Y-85155744D01*
X134476540Y-85344000D01*
X134496326Y-85532256D01*
X134496327Y-85532259D01*
X134554818Y-85712277D01*
X134554821Y-85712284D01*
X134649467Y-85876216D01*
X134773118Y-86013544D01*
X134776129Y-86016888D01*
X134929265Y-86128148D01*
X134929270Y-86128151D01*
X135102192Y-86205142D01*
X135102197Y-86205144D01*
X135287354Y-86244500D01*
X135287355Y-86244500D01*
X135476644Y-86244500D01*
X135476646Y-86244500D01*
X135661803Y-86205144D01*
X135834730Y-86128151D01*
X135836776Y-86126664D01*
X135848452Y-86118182D01*
X135914258Y-86094702D01*
X135921337Y-86094500D01*
X137477295Y-86094500D01*
X137495265Y-86095809D01*
X137519023Y-86099289D01*
X137571068Y-86094735D01*
X137576470Y-86094500D01*
X137584704Y-86094500D01*
X137584709Y-86094500D01*
X137596327Y-86093141D01*
X137617276Y-86090693D01*
X137630028Y-86089577D01*
X137693797Y-86083999D01*
X137693805Y-86083996D01*
X137700866Y-86082539D01*
X137700878Y-86082598D01*
X137708243Y-86080965D01*
X137708229Y-86080906D01*
X137715246Y-86079241D01*
X137715255Y-86079241D01*
X137787423Y-86052974D01*
X137860334Y-86028814D01*
X137860343Y-86028807D01*
X137866882Y-86025760D01*
X137866908Y-86025816D01*
X137873690Y-86022532D01*
X137873663Y-86022478D01*
X137880106Y-86019240D01*
X137880117Y-86019237D01*
X137944283Y-85977034D01*
X138009656Y-85936712D01*
X138009662Y-85936705D01*
X138015325Y-85932229D01*
X138015362Y-85932277D01*
X138021204Y-85927518D01*
X138021164Y-85927471D01*
X138026686Y-85922836D01*
X138026696Y-85922830D01*
X138049812Y-85898328D01*
X138079387Y-85866981D01*
X138450548Y-85495819D01*
X138511871Y-85462334D01*
X138538229Y-85459500D01*
X141997624Y-85459500D01*
X142064663Y-85479185D01*
X142110418Y-85531989D01*
X142120362Y-85601147D01*
X142091337Y-85664703D01*
X142042419Y-85699126D01*
X142026875Y-85705148D01*
X141978982Y-85723701D01*
X141978980Y-85723702D01*
X141797699Y-85835947D01*
X141640127Y-85979593D01*
X141511632Y-86149746D01*
X141416596Y-86340605D01*
X141416596Y-86340607D01*
X141358244Y-86545689D01*
X141338571Y-86757999D01*
X141338571Y-86758000D01*
X141358244Y-86970310D01*
X141416596Y-87175392D01*
X141416596Y-87175394D01*
X141511632Y-87366253D01*
X141606215Y-87491500D01*
X141640128Y-87536407D01*
X141797698Y-87680052D01*
X141978981Y-87792298D01*
X142177802Y-87869321D01*
X142387390Y-87908500D01*
X142387392Y-87908500D01*
X142600608Y-87908500D01*
X142600610Y-87908500D01*
X142810198Y-87869321D01*
X143009019Y-87792298D01*
X143104223Y-87733349D01*
X143171583Y-87714794D01*
X143238282Y-87735602D01*
X143283144Y-87789167D01*
X143293500Y-87838777D01*
X143293500Y-90036280D01*
X143273815Y-90103319D01*
X143258400Y-90120075D01*
X143258400Y-91019498D01*
X143150715Y-90970320D01*
X143044163Y-90955000D01*
X142972637Y-90955000D01*
X142866085Y-90970320D01*
X142758400Y-91019498D01*
X142758400Y-90124364D01*
X142758399Y-90124364D01*
X142544913Y-90181567D01*
X142544907Y-90181570D01*
X142330822Y-90281399D01*
X142330820Y-90281400D01*
X142137326Y-90416886D01*
X142015265Y-90538947D01*
X141953942Y-90572431D01*
X141884250Y-90567447D01*
X141828317Y-90525575D01*
X141811402Y-90494598D01*
X141810206Y-90491392D01*
X141785407Y-90424902D01*
X141762197Y-90362671D01*
X141762193Y-90362664D01*
X141675947Y-90247455D01*
X141675944Y-90247452D01*
X141560735Y-90161206D01*
X141560728Y-90161202D01*
X141425882Y-90110908D01*
X141425883Y-90110908D01*
X141366283Y-90104501D01*
X141366281Y-90104500D01*
X141366273Y-90104500D01*
X141366264Y-90104500D01*
X139570529Y-90104500D01*
X139570523Y-90104501D01*
X139510916Y-90110908D01*
X139376071Y-90161202D01*
X139376064Y-90161206D01*
X139260855Y-90247452D01*
X139260852Y-90247455D01*
X139174606Y-90362664D01*
X139174602Y-90362671D01*
X139124308Y-90497517D01*
X139117901Y-90557116D01*
X139117900Y-90557135D01*
X139117900Y-92320446D01*
X139098215Y-92387485D01*
X139081581Y-92408127D01*
X135900214Y-95589494D01*
X135838891Y-95622979D01*
X135769199Y-95617995D01*
X135713266Y-95576123D01*
X135688849Y-95510659D01*
X135688664Y-95505505D01*
X135668441Y-95274350D01*
X135668439Y-95274339D01*
X135608777Y-95051674D01*
X135608773Y-95051665D01*
X135511348Y-94842736D01*
X135457589Y-94765961D01*
X134887700Y-95335850D01*
X134884360Y-95319775D01*
X134815435Y-95186754D01*
X134713177Y-95077263D01*
X134585170Y-94999420D01*
X134531940Y-94984505D01*
X135105625Y-94410821D01*
X135118189Y-94348307D01*
X135166804Y-94298124D01*
X135227951Y-94281999D01*
X135231371Y-94281999D01*
X135231372Y-94281999D01*
X135290983Y-94275591D01*
X135425831Y-94225296D01*
X135541046Y-94139046D01*
X135627296Y-94023831D01*
X135677591Y-93888983D01*
X135684000Y-93829373D01*
X135683999Y-92098628D01*
X135678397Y-92046515D01*
X135677591Y-92039016D01*
X135627297Y-91904171D01*
X135627293Y-91904164D01*
X135541047Y-91788955D01*
X135541044Y-91788952D01*
X135425835Y-91702706D01*
X135425828Y-91702702D01*
X135290982Y-91652408D01*
X135290983Y-91652408D01*
X135231383Y-91646001D01*
X135231381Y-91646000D01*
X135231373Y-91646000D01*
X135231364Y-91646000D01*
X133500629Y-91646000D01*
X133500623Y-91646001D01*
X133441016Y-91652408D01*
X133306171Y-91702702D01*
X133306164Y-91702706D01*
X133190955Y-91788952D01*
X133190952Y-91788955D01*
X133104706Y-91904164D01*
X133104702Y-91904171D01*
X133054409Y-92039015D01*
X133054014Y-92042690D01*
X133052912Y-92045347D01*
X133052626Y-92046562D01*
X133052429Y-92046515D01*
X133027272Y-92107239D01*
X132969877Y-92147084D01*
X132900051Y-92149573D01*
X132843044Y-92117108D01*
X132676432Y-91950496D01*
X132487522Y-91818220D01*
X132487518Y-91818218D01*
X132466199Y-91808277D01*
X132278505Y-91720754D01*
X132278501Y-91720753D01*
X132278497Y-91720751D01*
X132055748Y-91661066D01*
X132055744Y-91661065D01*
X132055743Y-91661065D01*
X132055742Y-91661064D01*
X132055737Y-91661064D01*
X131826002Y-91640965D01*
X131825998Y-91640965D01*
X131596262Y-91661064D01*
X131596251Y-91661066D01*
X131373502Y-91720751D01*
X131373493Y-91720755D01*
X131164484Y-91818217D01*
X131164482Y-91818218D01*
X130975566Y-91950497D01*
X130812497Y-92113566D01*
X130680218Y-92302482D01*
X130680214Y-92302489D01*
X130668381Y-92327866D01*
X130622208Y-92380305D01*
X130555015Y-92399456D01*
X130488134Y-92379239D01*
X130443619Y-92327866D01*
X130431785Y-92302489D01*
X130431781Y-92302482D01*
X130361423Y-92202000D01*
X130329259Y-92156064D01*
X130299502Y-92113566D01*
X130136432Y-91950496D01*
X129947522Y-91818220D01*
X129947518Y-91818218D01*
X129926199Y-91808277D01*
X129738505Y-91720754D01*
X129738501Y-91720753D01*
X129738497Y-91720751D01*
X129515748Y-91661066D01*
X129515744Y-91661065D01*
X129515743Y-91661065D01*
X129515742Y-91661064D01*
X129515737Y-91661064D01*
X129286002Y-91640965D01*
X129285998Y-91640965D01*
X129056262Y-91661064D01*
X129056251Y-91661066D01*
X128833502Y-91720751D01*
X128833493Y-91720755D01*
X128624484Y-91818217D01*
X128624482Y-91818218D01*
X128435566Y-91950497D01*
X128272497Y-92113566D01*
X128140218Y-92302482D01*
X128140214Y-92302489D01*
X128128381Y-92327866D01*
X128082208Y-92380305D01*
X128015015Y-92399456D01*
X127948134Y-92379239D01*
X127903619Y-92327866D01*
X127891785Y-92302489D01*
X127891781Y-92302482D01*
X127821423Y-92202000D01*
X127789259Y-92156064D01*
X127759502Y-92113566D01*
X127596432Y-91950496D01*
X127407522Y-91818220D01*
X127407518Y-91818218D01*
X127386199Y-91808277D01*
X127198505Y-91720754D01*
X127198501Y-91720753D01*
X127198497Y-91720751D01*
X126975748Y-91661066D01*
X126975744Y-91661065D01*
X126975743Y-91661065D01*
X126975742Y-91661064D01*
X126975737Y-91661064D01*
X126746002Y-91640965D01*
X126745998Y-91640965D01*
X126516262Y-91661064D01*
X126516251Y-91661066D01*
X126293502Y-91720751D01*
X126293493Y-91720755D01*
X126084484Y-91818217D01*
X126084482Y-91818218D01*
X125895566Y-91950497D01*
X125732497Y-92113566D01*
X125600218Y-92302482D01*
X125600217Y-92302484D01*
X125523873Y-92466205D01*
X125477701Y-92518644D01*
X125411491Y-92537800D01*
X119735537Y-92537800D01*
X119719920Y-92536076D01*
X119719893Y-92536362D01*
X119712131Y-92535627D01*
X119643003Y-92537800D01*
X119613450Y-92537800D01*
X119612729Y-92537890D01*
X119606557Y-92538669D01*
X119600745Y-92539126D01*
X119554172Y-92540590D01*
X119554169Y-92540591D01*
X119534926Y-92546181D01*
X119515883Y-92550125D01*
X119496004Y-92552636D01*
X119496003Y-92552637D01*
X119452678Y-92569790D01*
X119447152Y-92571682D01*
X119402408Y-92584683D01*
X119402404Y-92584685D01*
X119385165Y-92594880D01*
X119367698Y-92603437D01*
X119349069Y-92610812D01*
X119349067Y-92610813D01*
X119311364Y-92638206D01*
X119306482Y-92641412D01*
X119266380Y-92665128D01*
X119252208Y-92679300D01*
X119237423Y-92691928D01*
X119221212Y-92703707D01*
X119191509Y-92739610D01*
X119187577Y-92743931D01*
X111849317Y-100082190D01*
X111787994Y-100115675D01*
X111718302Y-100110691D01*
X111662369Y-100068819D01*
X111638316Y-100007473D01*
X111629874Y-99927144D01*
X111627924Y-99921144D01*
X111571381Y-99747122D01*
X111571380Y-99747121D01*
X111571379Y-99747116D01*
X111476733Y-99583184D01*
X111350071Y-99442512D01*
X111330488Y-99428284D01*
X111196934Y-99331251D01*
X111196929Y-99331248D01*
X111024007Y-99254257D01*
X111024002Y-99254255D01*
X110878201Y-99223265D01*
X110838846Y-99214900D01*
X110838845Y-99214900D01*
X110779653Y-99214900D01*
X110712614Y-99195215D01*
X110691972Y-99178581D01*
X109643572Y-98130181D01*
X109610087Y-98068858D01*
X109615071Y-97999166D01*
X109656943Y-97943233D01*
X109722407Y-97918816D01*
X109731253Y-97918500D01*
X111195257Y-97918500D01*
X111210877Y-97920224D01*
X111210904Y-97919939D01*
X111218660Y-97920671D01*
X111218667Y-97920673D01*
X111287814Y-97918500D01*
X111317350Y-97918500D01*
X111324228Y-97917630D01*
X111330041Y-97917172D01*
X111376627Y-97915709D01*
X111395869Y-97910117D01*
X111414912Y-97906174D01*
X111434792Y-97903664D01*
X111478122Y-97886507D01*
X111483646Y-97884617D01*
X111487396Y-97883527D01*
X111528390Y-97871618D01*
X111545629Y-97861422D01*
X111563103Y-97852862D01*
X111581727Y-97845488D01*
X111581727Y-97845487D01*
X111581732Y-97845486D01*
X111619449Y-97818082D01*
X111624305Y-97814892D01*
X111664420Y-97791170D01*
X111678589Y-97776999D01*
X111693379Y-97764368D01*
X111709587Y-97752594D01*
X111739299Y-97716676D01*
X111743212Y-97712376D01*
X121567786Y-87887802D01*
X121580048Y-87877980D01*
X121579865Y-87877759D01*
X121585870Y-87872789D01*
X121585877Y-87872786D01*
X121610911Y-87846126D01*
X121671151Y-87810732D01*
X121740308Y-87813304D01*
X121792748Y-87830680D01*
X121893751Y-87840999D01*
X121942899Y-87840998D01*
X121942900Y-87840998D01*
X121942900Y-87116000D01*
X122442900Y-87116000D01*
X122442900Y-87840999D01*
X122492040Y-87840999D01*
X122492054Y-87840998D01*
X122593052Y-87830680D01*
X122756700Y-87776453D01*
X122756711Y-87776448D01*
X122903434Y-87685947D01*
X122903438Y-87685944D01*
X123025344Y-87564038D01*
X123025347Y-87564034D01*
X123115848Y-87417311D01*
X123115853Y-87417300D01*
X123170080Y-87253652D01*
X123180399Y-87152654D01*
X123180400Y-87152641D01*
X123180400Y-87116000D01*
X122442900Y-87116000D01*
X121942900Y-87116000D01*
X121942900Y-86740000D01*
X121962585Y-86672961D01*
X122015389Y-86627206D01*
X122066900Y-86616000D01*
X123180399Y-86616000D01*
X123180399Y-86579360D01*
X123180398Y-86579345D01*
X123170080Y-86478347D01*
X123115853Y-86314699D01*
X123115848Y-86314688D01*
X123025347Y-86167965D01*
X123025344Y-86167961D01*
X122903438Y-86046055D01*
X122903434Y-86046052D01*
X122756689Y-85955538D01*
X122709964Y-85903590D01*
X122698743Y-85834628D01*
X122726586Y-85770546D01*
X122756689Y-85744462D01*
X122903434Y-85653947D01*
X122903438Y-85653944D01*
X123025344Y-85532038D01*
X123025347Y-85532034D01*
X123115848Y-85385311D01*
X123115853Y-85385300D01*
X123170080Y-85221652D01*
X123180399Y-85120654D01*
X123180400Y-85120641D01*
X123180400Y-85084000D01*
X122066900Y-85084000D01*
X121999861Y-85064315D01*
X121954106Y-85011511D01*
X121942900Y-84960000D01*
X121942900Y-83859000D01*
X122442900Y-83859000D01*
X122442900Y-84584000D01*
X123180399Y-84584000D01*
X123180399Y-84547360D01*
X123180398Y-84547345D01*
X123170080Y-84446347D01*
X123115853Y-84282699D01*
X123115848Y-84282688D01*
X123025347Y-84135965D01*
X123025344Y-84135961D01*
X122903438Y-84014055D01*
X122903434Y-84014052D01*
X122756711Y-83923551D01*
X122756700Y-83923546D01*
X122593052Y-83869319D01*
X122492054Y-83859000D01*
X122442900Y-83859000D01*
X121942900Y-83859000D01*
X121942899Y-83858999D01*
X121893761Y-83859000D01*
X121893743Y-83859001D01*
X121792747Y-83869319D01*
X121629099Y-83923546D01*
X121629088Y-83923551D01*
X121482365Y-84014052D01*
X121368434Y-84127983D01*
X121307111Y-84161467D01*
X121237419Y-84156483D01*
X121193072Y-84127982D01*
X121078751Y-84013661D01*
X121078750Y-84013660D01*
X120981557Y-83953711D01*
X120931918Y-83923093D01*
X120931913Y-83923091D01*
X120862232Y-83900001D01*
X120768153Y-83868826D01*
X120768151Y-83868825D01*
X120667084Y-83858500D01*
X120667077Y-83858500D01*
X120328465Y-83858500D01*
X120261426Y-83838815D01*
X120231937Y-83809159D01*
X120230759Y-83810134D01*
X120225786Y-83804122D01*
X120200800Y-83780659D01*
X120165405Y-83720418D01*
X120168199Y-83650604D01*
X120197995Y-83602594D01*
X120210592Y-83589996D01*
X120225379Y-83577368D01*
X120241587Y-83565594D01*
X120241590Y-83565589D01*
X120247274Y-83560254D01*
X120248863Y-83561946D01*
X120297104Y-83529355D01*
X120334761Y-83523499D01*
X120667070Y-83523499D01*
X120667076Y-83523499D01*
X120768153Y-83513174D01*
X120931916Y-83458908D01*
X121078750Y-83368340D01*
X121193075Y-83254014D01*
X121254394Y-83220532D01*
X121324086Y-83225516D01*
X121368434Y-83254017D01*
X121482361Y-83367944D01*
X121482365Y-83367947D01*
X121629088Y-83458448D01*
X121629099Y-83458453D01*
X121792747Y-83512680D01*
X121893751Y-83522999D01*
X121942899Y-83522998D01*
X121942900Y-83522998D01*
X121942900Y-82798000D01*
X122442900Y-82798000D01*
X122442900Y-83522999D01*
X122492040Y-83522999D01*
X122492054Y-83522998D01*
X122593052Y-83512680D01*
X122756700Y-83458453D01*
X122756711Y-83458448D01*
X122903434Y-83367947D01*
X122903438Y-83367944D01*
X123025344Y-83246038D01*
X123025347Y-83246034D01*
X123115848Y-83099311D01*
X123115853Y-83099300D01*
X123170080Y-82935652D01*
X123180399Y-82834654D01*
X123180400Y-82834641D01*
X123180400Y-82798000D01*
X122442900Y-82798000D01*
X121942900Y-82798000D01*
X121942900Y-82422000D01*
X121962585Y-82354961D01*
X122015389Y-82309206D01*
X122066900Y-82298000D01*
X123180399Y-82298000D01*
X123180399Y-82261360D01*
X123180398Y-82261345D01*
X123170080Y-82160347D01*
X123115853Y-81996699D01*
X123115848Y-81996688D01*
X123025347Y-81849965D01*
X123025344Y-81849961D01*
X122903438Y-81728055D01*
X122903434Y-81728052D01*
X122750556Y-81633755D01*
X122751318Y-81632519D01*
X122704954Y-81591698D01*
X122685800Y-81524505D01*
X122706014Y-81457623D01*
X122744697Y-81419949D01*
X122880250Y-81336340D01*
X122880252Y-81336338D01*
X122885918Y-81331859D01*
X122887290Y-81333595D01*
X122939124Y-81305268D01*
X123008818Y-81310226D01*
X123015958Y-81313143D01*
X123164197Y-81379144D01*
X123349354Y-81418500D01*
X123349355Y-81418500D01*
X123538644Y-81418500D01*
X123538646Y-81418500D01*
X123723803Y-81379144D01*
X123896730Y-81302151D01*
X124049871Y-81190888D01*
X124176533Y-81050216D01*
X124271179Y-80886284D01*
X124329674Y-80706256D01*
X124349460Y-80518000D01*
X124329674Y-80329744D01*
X124271179Y-80149716D01*
X124176533Y-79985784D01*
X124049871Y-79845112D01*
X124012073Y-79817650D01*
X123896734Y-79733851D01*
X123896729Y-79733848D01*
X123723807Y-79656857D01*
X123723802Y-79656855D01*
X123578001Y-79625865D01*
X123538646Y-79617500D01*
X123349354Y-79617500D01*
X123316897Y-79624398D01*
X123164197Y-79656855D01*
X123164196Y-79656855D01*
X123018729Y-79721622D01*
X122949479Y-79730906D01*
X122886203Y-79701277D01*
X122880613Y-79696023D01*
X122880251Y-79695661D01*
X122880250Y-79695660D01*
X122746545Y-79613190D01*
X122699822Y-79561243D01*
X122688599Y-79492280D01*
X122716443Y-79428198D01*
X122751271Y-79401404D01*
X122750556Y-79400245D01*
X122819045Y-79358000D01*
X141338571Y-79358000D01*
X141358244Y-79570310D01*
X141407303Y-79742733D01*
X141416596Y-79775392D01*
X141416596Y-79775394D01*
X141511632Y-79966253D01*
X141633966Y-80128247D01*
X141640128Y-80136407D01*
X141797698Y-80280052D01*
X141978981Y-80392298D01*
X142177802Y-80469321D01*
X142387390Y-80508500D01*
X142387392Y-80508500D01*
X142600608Y-80508500D01*
X142600610Y-80508500D01*
X142810198Y-80469321D01*
X143009019Y-80392298D01*
X143190302Y-80280052D01*
X143347872Y-80136407D01*
X143476366Y-79966255D01*
X143485958Y-79946992D01*
X143571403Y-79775394D01*
X143571403Y-79775393D01*
X143571405Y-79775389D01*
X143629756Y-79570310D01*
X143649429Y-79358000D01*
X143629756Y-79145690D01*
X143571405Y-78940611D01*
X143571403Y-78940606D01*
X143571403Y-78940605D01*
X143476367Y-78749746D01*
X143347872Y-78579593D01*
X143333366Y-78566369D01*
X143190302Y-78435948D01*
X143009019Y-78323702D01*
X143009017Y-78323701D01*
X142909608Y-78285190D01*
X142810198Y-78246679D01*
X142600610Y-78207500D01*
X142387390Y-78207500D01*
X142177802Y-78246679D01*
X142177799Y-78246679D01*
X142177799Y-78246680D01*
X141978982Y-78323701D01*
X141978980Y-78323702D01*
X141797699Y-78435947D01*
X141640127Y-78579593D01*
X141511632Y-78749746D01*
X141416596Y-78940605D01*
X141416596Y-78940607D01*
X141358244Y-79145689D01*
X141340882Y-79333065D01*
X141338571Y-79358000D01*
X122819045Y-79358000D01*
X122903434Y-79305947D01*
X122903438Y-79305944D01*
X123025344Y-79184038D01*
X123025347Y-79184034D01*
X123115848Y-79037311D01*
X123115853Y-79037300D01*
X123170080Y-78873652D01*
X123180399Y-78772654D01*
X123180400Y-78772641D01*
X123180400Y-78736000D01*
X122066900Y-78736000D01*
X121999861Y-78716315D01*
X121954106Y-78663511D01*
X121942900Y-78612000D01*
X121942900Y-77511000D01*
X122442900Y-77511000D01*
X122442900Y-78236000D01*
X123180399Y-78236000D01*
X123180399Y-78199360D01*
X123180398Y-78199345D01*
X123170080Y-78098347D01*
X123115853Y-77934699D01*
X123115848Y-77934688D01*
X123025347Y-77787965D01*
X123025344Y-77787961D01*
X122903438Y-77666055D01*
X122903434Y-77666052D01*
X122756711Y-77575551D01*
X122756700Y-77575546D01*
X122593052Y-77521319D01*
X122492054Y-77511000D01*
X122442900Y-77511000D01*
X121942900Y-77511000D01*
X121942899Y-77510999D01*
X121893761Y-77511000D01*
X121893743Y-77511001D01*
X121792747Y-77521319D01*
X121629099Y-77575546D01*
X121629088Y-77575551D01*
X121482365Y-77666052D01*
X121368434Y-77779983D01*
X121307111Y-77813467D01*
X121237419Y-77808483D01*
X121193072Y-77779982D01*
X121078751Y-77665661D01*
X121078750Y-77665660D01*
X120936334Y-77577817D01*
X120931918Y-77575093D01*
X120931913Y-77575091D01*
X120930469Y-77574612D01*
X120768153Y-77520826D01*
X120768151Y-77520825D01*
X120667084Y-77510500D01*
X120667077Y-77510500D01*
X120523451Y-77510500D01*
X120456412Y-77490815D01*
X120410657Y-77438011D01*
X120400713Y-77368853D01*
X120429738Y-77305297D01*
X120435770Y-77298819D01*
X120522771Y-77211818D01*
X120584094Y-77178333D01*
X120610452Y-77175499D01*
X120667070Y-77175499D01*
X120667076Y-77175499D01*
X120768153Y-77165174D01*
X120931916Y-77110908D01*
X121078750Y-77020340D01*
X121193075Y-76906014D01*
X121254394Y-76872532D01*
X121324086Y-76877516D01*
X121368434Y-76906017D01*
X121482361Y-77019944D01*
X121482365Y-77019947D01*
X121629088Y-77110448D01*
X121629099Y-77110453D01*
X121792747Y-77164680D01*
X121893751Y-77174999D01*
X121942899Y-77174998D01*
X121942900Y-77174998D01*
X121942900Y-76450000D01*
X122442900Y-76450000D01*
X122442900Y-77174999D01*
X122492040Y-77174999D01*
X122492054Y-77174998D01*
X122593052Y-77164680D01*
X122756700Y-77110453D01*
X122756711Y-77110448D01*
X122903434Y-77019947D01*
X122903438Y-77019944D01*
X123025344Y-76898038D01*
X123025347Y-76898034D01*
X123115848Y-76751311D01*
X123115853Y-76751300D01*
X123170080Y-76587652D01*
X123180399Y-76486654D01*
X123180400Y-76486641D01*
X123180400Y-76450000D01*
X122442900Y-76450000D01*
X121942900Y-76450000D01*
X121942900Y-75225000D01*
X122442900Y-75225000D01*
X122442900Y-75950000D01*
X123180399Y-75950000D01*
X123180399Y-75913360D01*
X123180398Y-75913345D01*
X123170080Y-75812347D01*
X123115853Y-75648699D01*
X123115848Y-75648688D01*
X123025347Y-75501965D01*
X123025344Y-75501961D01*
X122903438Y-75380055D01*
X122903434Y-75380052D01*
X122756711Y-75289551D01*
X122756700Y-75289546D01*
X122593052Y-75235319D01*
X122492054Y-75225000D01*
X122442900Y-75225000D01*
X121942900Y-75225000D01*
X121942899Y-75224999D01*
X121893761Y-75225000D01*
X121893743Y-75225001D01*
X121792747Y-75235319D01*
X121629099Y-75289546D01*
X121629088Y-75289551D01*
X121482365Y-75380052D01*
X121368434Y-75493983D01*
X121307111Y-75527467D01*
X121237419Y-75522483D01*
X121193072Y-75493982D01*
X121078751Y-75379661D01*
X121078750Y-75379660D01*
X120987529Y-75323395D01*
X120931918Y-75289093D01*
X120931917Y-75289092D01*
X120931916Y-75289092D01*
X120790740Y-75242310D01*
X120733297Y-75202538D01*
X120706474Y-75138022D01*
X120718789Y-75069246D01*
X120742062Y-75036927D01*
X120751688Y-75027301D01*
X120763942Y-75017486D01*
X120763759Y-75017264D01*
X120769766Y-75012292D01*
X120769777Y-75012286D01*
X120800675Y-74979382D01*
X120817127Y-74961864D01*
X120827571Y-74951418D01*
X120838020Y-74940971D01*
X120842279Y-74935478D01*
X120846052Y-74931061D01*
X120877962Y-74897082D01*
X120887615Y-74879520D01*
X120898294Y-74863264D01*
X120910573Y-74847436D01*
X120910573Y-74847434D01*
X120910737Y-74847224D01*
X120943611Y-74817694D01*
X121078750Y-74734340D01*
X121193075Y-74620014D01*
X121254394Y-74586532D01*
X121324086Y-74591516D01*
X121368434Y-74620017D01*
X121482361Y-74733944D01*
X121482365Y-74733947D01*
X121629088Y-74824448D01*
X121629099Y-74824453D01*
X121792747Y-74878680D01*
X121893751Y-74888999D01*
X121942899Y-74888998D01*
X121942900Y-74888998D01*
X121942900Y-74164000D01*
X122442900Y-74164000D01*
X122442900Y-74888999D01*
X122492040Y-74888999D01*
X122492054Y-74888998D01*
X122593052Y-74878680D01*
X122756700Y-74824453D01*
X122756711Y-74824448D01*
X122903434Y-74733947D01*
X122903438Y-74733944D01*
X122961382Y-74676000D01*
X125841474Y-74676000D01*
X125861547Y-74931064D01*
X125861547Y-74931067D01*
X125861548Y-74931070D01*
X125921278Y-75179860D01*
X125921279Y-75179864D01*
X126019188Y-75416239D01*
X126019190Y-75416242D01*
X126152875Y-75634396D01*
X126152878Y-75634401D01*
X126217316Y-75709848D01*
X126319044Y-75828956D01*
X126417851Y-75913345D01*
X126513598Y-75995121D01*
X126513600Y-75995122D01*
X126513601Y-75995123D01*
X126650006Y-76078712D01*
X126731757Y-76128809D01*
X126731760Y-76128811D01*
X126950424Y-76219384D01*
X126968140Y-76226722D01*
X127216930Y-76286452D01*
X127472000Y-76306526D01*
X127727070Y-76286452D01*
X127975860Y-76226722D01*
X128094051Y-76177765D01*
X128212239Y-76128811D01*
X128212240Y-76128810D01*
X128212243Y-76128809D01*
X128430399Y-75995123D01*
X128624956Y-75828956D01*
X128771909Y-75656896D01*
X128830415Y-75618702D01*
X128900283Y-75618203D01*
X128931477Y-75632000D01*
X129057206Y-75709848D01*
X129057210Y-75709850D01*
X129255936Y-75786836D01*
X129255941Y-75786837D01*
X129465439Y-75826000D01*
X129678561Y-75826000D01*
X129888058Y-75786837D01*
X129888063Y-75786836D01*
X130086789Y-75709850D01*
X130086793Y-75709848D01*
X130189007Y-75646560D01*
X129616400Y-75073953D01*
X129697148Y-75061165D01*
X129810045Y-75003641D01*
X129899641Y-74914045D01*
X129957165Y-74801148D01*
X129969953Y-74720400D01*
X130551327Y-75301774D01*
X130596766Y-75311758D01*
X130636063Y-75345736D01*
X130718128Y-75454407D01*
X130875698Y-75598052D01*
X131056981Y-75710298D01*
X131255802Y-75787321D01*
X131465390Y-75826500D01*
X131465392Y-75826500D01*
X131678608Y-75826500D01*
X131678610Y-75826500D01*
X131888198Y-75787321D01*
X132087019Y-75710298D01*
X132268302Y-75598052D01*
X132425872Y-75454407D01*
X132473046Y-75391938D01*
X132529155Y-75350303D01*
X132598867Y-75345612D01*
X132660049Y-75379354D01*
X132670953Y-75391938D01*
X132718128Y-75454407D01*
X132875698Y-75598052D01*
X133056981Y-75710298D01*
X133255802Y-75787321D01*
X133465390Y-75826500D01*
X133465392Y-75826500D01*
X133678608Y-75826500D01*
X133678610Y-75826500D01*
X133888198Y-75787321D01*
X134087019Y-75710298D01*
X134212853Y-75632384D01*
X134280212Y-75613829D01*
X134346911Y-75634637D01*
X134372419Y-75657280D01*
X134519044Y-75828956D01*
X134617851Y-75913345D01*
X134713598Y-75995121D01*
X134713600Y-75995122D01*
X134713601Y-75995123D01*
X134850006Y-76078712D01*
X134931757Y-76128809D01*
X134931760Y-76128811D01*
X135150424Y-76219384D01*
X135168140Y-76226722D01*
X135416930Y-76286452D01*
X135672000Y-76306526D01*
X135927070Y-76286452D01*
X136175860Y-76226722D01*
X136294051Y-76177765D01*
X136412239Y-76128811D01*
X136412240Y-76128810D01*
X136412243Y-76128809D01*
X136630399Y-75995123D01*
X136824956Y-75828956D01*
X136991123Y-75634399D01*
X137124809Y-75416243D01*
X137145480Y-75366340D01*
X137173765Y-75298051D01*
X137222722Y-75179860D01*
X137282452Y-74931070D01*
X137302526Y-74676000D01*
X137282452Y-74420930D01*
X137222722Y-74172140D01*
X137206514Y-74133011D01*
X137124811Y-73935760D01*
X137124809Y-73935757D01*
X137083921Y-73869034D01*
X136991123Y-73717601D01*
X136991122Y-73717600D01*
X136991121Y-73717598D01*
X136914018Y-73627323D01*
X136824956Y-73523044D01*
X136637216Y-73362699D01*
X136630401Y-73356878D01*
X136630396Y-73356875D01*
X136412242Y-73223190D01*
X136412239Y-73223188D01*
X136175864Y-73125279D01*
X136175860Y-73125278D01*
X135927070Y-73065548D01*
X135927067Y-73065547D01*
X135927064Y-73065547D01*
X135672000Y-73045474D01*
X135416935Y-73065547D01*
X135416931Y-73065547D01*
X135416930Y-73065548D01*
X135343776Y-73083111D01*
X135168135Y-73125279D01*
X134931760Y-73223188D01*
X134931757Y-73223190D01*
X134713603Y-73356875D01*
X134713598Y-73356878D01*
X134519044Y-73523044D01*
X134372419Y-73694719D01*
X134313912Y-73732912D01*
X134244044Y-73733410D01*
X134212852Y-73719614D01*
X134087024Y-73641705D01*
X134087017Y-73641701D01*
X133987608Y-73603190D01*
X133888198Y-73564679D01*
X133678610Y-73525500D01*
X133465390Y-73525500D01*
X133255802Y-73564679D01*
X133255799Y-73564679D01*
X133255799Y-73564680D01*
X133056982Y-73641701D01*
X133056980Y-73641702D01*
X132875699Y-73753947D01*
X132718126Y-73897594D01*
X132670953Y-73960061D01*
X132614844Y-74001696D01*
X132545132Y-74006387D01*
X132483950Y-73972644D01*
X132473047Y-73960061D01*
X132425873Y-73897594D01*
X132390226Y-73865097D01*
X132268302Y-73753948D01*
X132087019Y-73641702D01*
X132087017Y-73641701D01*
X131987608Y-73603190D01*
X131888198Y-73564679D01*
X131678610Y-73525500D01*
X131465390Y-73525500D01*
X131255802Y-73564679D01*
X131255799Y-73564679D01*
X131255799Y-73564680D01*
X131056982Y-73641701D01*
X131056980Y-73641702D01*
X130875699Y-73753947D01*
X130718126Y-73897594D01*
X130636065Y-74006259D01*
X130579956Y-74047894D01*
X130549280Y-74052271D01*
X129969953Y-74631598D01*
X129957165Y-74550852D01*
X129899641Y-74437955D01*
X129810045Y-74348359D01*
X129697148Y-74290835D01*
X129616400Y-74278046D01*
X130189007Y-73705438D01*
X130086789Y-73642149D01*
X129888063Y-73565163D01*
X129888058Y-73565162D01*
X129678561Y-73526000D01*
X129465439Y-73526000D01*
X129255941Y-73565162D01*
X129255936Y-73565163D01*
X129057210Y-73642149D01*
X129057201Y-73642153D01*
X128931476Y-73719999D01*
X128864115Y-73738554D01*
X128797416Y-73717746D01*
X128771909Y-73695104D01*
X128714018Y-73627323D01*
X128624956Y-73523044D01*
X128437216Y-73362699D01*
X128430401Y-73356878D01*
X128430396Y-73356875D01*
X128212242Y-73223190D01*
X128212239Y-73223188D01*
X127975864Y-73125279D01*
X127975860Y-73125278D01*
X127727070Y-73065548D01*
X127727067Y-73065547D01*
X127727064Y-73065547D01*
X127472000Y-73045474D01*
X127216935Y-73065547D01*
X127216931Y-73065547D01*
X127216930Y-73065548D01*
X127143776Y-73083111D01*
X126968135Y-73125279D01*
X126731760Y-73223188D01*
X126731757Y-73223190D01*
X126513603Y-73356875D01*
X126513598Y-73356878D01*
X126319044Y-73523044D01*
X126152878Y-73717598D01*
X126152875Y-73717603D01*
X126019190Y-73935757D01*
X126019188Y-73935760D01*
X125921279Y-74172135D01*
X125911730Y-74211908D01*
X125890161Y-74301752D01*
X125861547Y-74420935D01*
X125841474Y-74676000D01*
X122961382Y-74676000D01*
X123025344Y-74612038D01*
X123025347Y-74612034D01*
X123115848Y-74465311D01*
X123115853Y-74465300D01*
X123170080Y-74301652D01*
X123180399Y-74200654D01*
X123180400Y-74200641D01*
X123180400Y-74164000D01*
X122442900Y-74164000D01*
X121942900Y-74164000D01*
X121942900Y-72939000D01*
X122442900Y-72939000D01*
X122442900Y-73664000D01*
X123180399Y-73664000D01*
X123180399Y-73627360D01*
X123180398Y-73627345D01*
X123170080Y-73526347D01*
X123115853Y-73362699D01*
X123115848Y-73362688D01*
X123025347Y-73215965D01*
X123025344Y-73215961D01*
X122903438Y-73094055D01*
X122903434Y-73094052D01*
X122756711Y-73003551D01*
X122756700Y-73003546D01*
X122593052Y-72949319D01*
X122492054Y-72939000D01*
X122442900Y-72939000D01*
X121942900Y-72939000D01*
X121942899Y-72938999D01*
X121893761Y-72939000D01*
X121893743Y-72939001D01*
X121792747Y-72949319D01*
X121629099Y-73003546D01*
X121629088Y-73003551D01*
X121482365Y-73094052D01*
X121368434Y-73207983D01*
X121307111Y-73241467D01*
X121237419Y-73236483D01*
X121193072Y-73207982D01*
X121078751Y-73093661D01*
X121078750Y-73093660D01*
X120987529Y-73037395D01*
X120931918Y-73003093D01*
X120931913Y-73003091D01*
X120930469Y-73002612D01*
X120768153Y-72948826D01*
X120768151Y-72948825D01*
X120667078Y-72938500D01*
X120068730Y-72938500D01*
X120068712Y-72938501D01*
X119967647Y-72948825D01*
X119803884Y-73003092D01*
X119803881Y-73003093D01*
X119657048Y-73093661D01*
X119535061Y-73215648D01*
X119444493Y-73362481D01*
X119444491Y-73362486D01*
X119436131Y-73387715D01*
X119390226Y-73526247D01*
X119390226Y-73526248D01*
X119390225Y-73526248D01*
X119379900Y-73627315D01*
X119379900Y-74200669D01*
X119379901Y-74200687D01*
X119390225Y-74301752D01*
X119390226Y-74301755D01*
X119445273Y-74467875D01*
X119447675Y-74537704D01*
X119415248Y-74594560D01*
X118238628Y-75771181D01*
X118177305Y-75804666D01*
X118150947Y-75807500D01*
X118091754Y-75807500D01*
X117958226Y-75835882D01*
X117888559Y-75830565D01*
X117844765Y-75802272D01*
X117840949Y-75798456D01*
X117804514Y-75771181D01*
X117725731Y-75712204D01*
X117725729Y-75712203D01*
X117725728Y-75712202D01*
X117590882Y-75661908D01*
X117590883Y-75661908D01*
X117531283Y-75655501D01*
X117531281Y-75655500D01*
X117531273Y-75655500D01*
X117531265Y-75655500D01*
X117507899Y-75655500D01*
X117440860Y-75635815D01*
X117395105Y-75583011D01*
X117383899Y-75531500D01*
X117383899Y-74658129D01*
X117383898Y-74658123D01*
X117377491Y-74598516D01*
X117327197Y-74463671D01*
X117327193Y-74463664D01*
X117240947Y-74348455D01*
X117240944Y-74348452D01*
X117125735Y-74262206D01*
X117125728Y-74262202D01*
X116990882Y-74211908D01*
X116990883Y-74211908D01*
X116931283Y-74205501D01*
X116931281Y-74205500D01*
X116931273Y-74205500D01*
X116931265Y-74205500D01*
X116874774Y-74205500D01*
X116807735Y-74185815D01*
X116761980Y-74133011D01*
X116756844Y-74119821D01*
X116756458Y-74118635D01*
X116753867Y-74110659D01*
X116749489Y-74103761D01*
X116738895Y-74082968D01*
X116735886Y-74075368D01*
X116702136Y-74028915D01*
X116699945Y-74025692D01*
X116687694Y-74006387D01*
X116669186Y-73977223D01*
X116663233Y-73971633D01*
X116647798Y-73954125D01*
X116642994Y-73947513D01*
X116642991Y-73947511D01*
X116642991Y-73947510D01*
X116598761Y-73910920D01*
X116595838Y-73908343D01*
X116553985Y-73869040D01*
X116553977Y-73869034D01*
X116546815Y-73865097D01*
X116527514Y-73851980D01*
X116521224Y-73846776D01*
X116469278Y-73822332D01*
X116465817Y-73820569D01*
X116415492Y-73792903D01*
X116415489Y-73792902D01*
X116415485Y-73792900D01*
X116407574Y-73790869D01*
X116385622Y-73782966D01*
X116378225Y-73779485D01*
X116378221Y-73779484D01*
X116321844Y-73768730D01*
X116318044Y-73767880D01*
X116262423Y-73753600D01*
X116262419Y-73753600D01*
X116254247Y-73753600D01*
X116231015Y-73751404D01*
X116222988Y-73749873D01*
X116215200Y-73749383D01*
X116215387Y-73746402D01*
X116160881Y-73734048D01*
X116111907Y-73684215D01*
X116097931Y-73638701D01*
X116090474Y-73567744D01*
X116031979Y-73387716D01*
X115937333Y-73223784D01*
X115810671Y-73083112D01*
X115810670Y-73083111D01*
X115657534Y-72971851D01*
X115657529Y-72971848D01*
X115484607Y-72894857D01*
X115484602Y-72894855D01*
X115338801Y-72863865D01*
X115299446Y-72855500D01*
X115110154Y-72855500D01*
X115077697Y-72862398D01*
X114924997Y-72894855D01*
X114924992Y-72894857D01*
X114752070Y-72971848D01*
X114752065Y-72971851D01*
X114598929Y-73083111D01*
X114472266Y-73223785D01*
X114377621Y-73387715D01*
X114377618Y-73387722D01*
X114319127Y-73567740D01*
X114319126Y-73567744D01*
X114299340Y-73756000D01*
X114319126Y-73944256D01*
X114319127Y-73944259D01*
X114377618Y-74124277D01*
X114377621Y-74124284D01*
X114472267Y-74288216D01*
X114526504Y-74348452D01*
X114598929Y-74428888D01*
X114752065Y-74540148D01*
X114752066Y-74540148D01*
X114752070Y-74540151D01*
X114883161Y-74598517D01*
X114909336Y-74610171D01*
X114962573Y-74655421D01*
X114982894Y-74722270D01*
X114982900Y-74723450D01*
X114982900Y-75248840D01*
X114982901Y-75727100D01*
X114963217Y-75794139D01*
X114910413Y-75839894D01*
X114858901Y-75851100D01*
X114835354Y-75851100D01*
X114809107Y-75856679D01*
X114650197Y-75890455D01*
X114650192Y-75890457D01*
X114477270Y-75967448D01*
X114477265Y-75967451D01*
X114324129Y-76078711D01*
X114197466Y-76219385D01*
X114102821Y-76383315D01*
X114102818Y-76383322D01*
X114044327Y-76563340D01*
X114044326Y-76563344D01*
X114024540Y-76751600D01*
X114044326Y-76939856D01*
X114044327Y-76939859D01*
X114102818Y-77119877D01*
X114102821Y-77119884D01*
X114197467Y-77283816D01*
X114216809Y-77305297D01*
X114324129Y-77424488D01*
X114477265Y-77535748D01*
X114477270Y-77535751D01*
X114650192Y-77612742D01*
X114650197Y-77612744D01*
X114835354Y-77652100D01*
X114835355Y-77652100D01*
X115024644Y-77652100D01*
X115024646Y-77652100D01*
X115209803Y-77612744D01*
X115209805Y-77612742D01*
X115215987Y-77610735D01*
X115216485Y-77612268D01*
X115277696Y-77604052D01*
X115340977Y-77633671D01*
X115378199Y-77692800D01*
X115382900Y-77726618D01*
X115382901Y-77857799D01*
X115363217Y-77924839D01*
X115310413Y-77970594D01*
X115258901Y-77981800D01*
X115036343Y-77981800D01*
X115020722Y-77980075D01*
X115020695Y-77980361D01*
X115012933Y-77979626D01*
X114943772Y-77981800D01*
X114914249Y-77981800D01*
X114907378Y-77982667D01*
X114901559Y-77983125D01*
X114854974Y-77984589D01*
X114854968Y-77984590D01*
X114835726Y-77990180D01*
X114816687Y-77994123D01*
X114796817Y-77996634D01*
X114796803Y-77996637D01*
X114753483Y-78013788D01*
X114747958Y-78015680D01*
X114703213Y-78028680D01*
X114703210Y-78028681D01*
X114685966Y-78038879D01*
X114668505Y-78047433D01*
X114649874Y-78054810D01*
X114649862Y-78054817D01*
X114612170Y-78082202D01*
X114607287Y-78085409D01*
X114567180Y-78109129D01*
X114553014Y-78123295D01*
X114538224Y-78135927D01*
X114522014Y-78147704D01*
X114522011Y-78147707D01*
X114492310Y-78183609D01*
X114488377Y-78187931D01*
X114115411Y-78560897D01*
X114103148Y-78570722D01*
X114103331Y-78570944D01*
X114097321Y-78575915D01*
X114049972Y-78626336D01*
X114029089Y-78647219D01*
X114029077Y-78647232D01*
X114024821Y-78652717D01*
X114021037Y-78657147D01*
X113989137Y-78691118D01*
X113989136Y-78691120D01*
X113979484Y-78708676D01*
X113968810Y-78724926D01*
X113956529Y-78740761D01*
X113956524Y-78740768D01*
X113938015Y-78783538D01*
X113935445Y-78788784D01*
X113913003Y-78829606D01*
X113908022Y-78849007D01*
X113901721Y-78867410D01*
X113893762Y-78885802D01*
X113893761Y-78885805D01*
X113886471Y-78931827D01*
X113885287Y-78937546D01*
X113873701Y-78982672D01*
X113873700Y-78982682D01*
X113873700Y-79002716D01*
X113872173Y-79022115D01*
X113869040Y-79041894D01*
X113869040Y-79041895D01*
X113873425Y-79088283D01*
X113873700Y-79094121D01*
X113873700Y-80682655D01*
X113871975Y-80698272D01*
X113872261Y-80698299D01*
X113871526Y-80706065D01*
X113873700Y-80775214D01*
X113873700Y-80787608D01*
X113867632Y-80825924D01*
X113866325Y-80829944D01*
X113846540Y-81018199D01*
X113846540Y-81018200D01*
X113866326Y-81206456D01*
X113866327Y-81206459D01*
X113924818Y-81386477D01*
X113924821Y-81386484D01*
X114019467Y-81550416D01*
X114146129Y-81691088D01*
X114207755Y-81735861D01*
X114250419Y-81791189D01*
X114256398Y-81860802D01*
X114223793Y-81922598D01*
X114222549Y-81923859D01*
X108162408Y-87983999D01*
X108150151Y-87993820D01*
X108150334Y-87994041D01*
X108144323Y-87999013D01*
X108096972Y-88049436D01*
X108076089Y-88070319D01*
X108076077Y-88070332D01*
X108071821Y-88075817D01*
X108068037Y-88080247D01*
X108036137Y-88114218D01*
X108036136Y-88114220D01*
X108026484Y-88131776D01*
X108015810Y-88148026D01*
X108003529Y-88163861D01*
X108003524Y-88163868D01*
X107985015Y-88206638D01*
X107982445Y-88211884D01*
X107960003Y-88252706D01*
X107955022Y-88272107D01*
X107948721Y-88290510D01*
X107940762Y-88308902D01*
X107940761Y-88308905D01*
X107933471Y-88354927D01*
X107932287Y-88360646D01*
X107920701Y-88405772D01*
X107920700Y-88405782D01*
X107920700Y-88425816D01*
X107919173Y-88445215D01*
X107916040Y-88464994D01*
X107916040Y-88464995D01*
X107920425Y-88511383D01*
X107920700Y-88517221D01*
X107920700Y-89587820D01*
X107901015Y-89654859D01*
X107848211Y-89700614D01*
X107783447Y-89711109D01*
X107731273Y-89705500D01*
X107731264Y-89705500D01*
X105435529Y-89705500D01*
X105435523Y-89705501D01*
X105375916Y-89711908D01*
X105241071Y-89762202D01*
X105241064Y-89762206D01*
X105125857Y-89848451D01*
X105125852Y-89848456D01*
X105120701Y-89855337D01*
X105064766Y-89897206D01*
X104995655Y-89902313D01*
X104911850Y-89884500D01*
X104911846Y-89884500D01*
X104722554Y-89884500D01*
X104690097Y-89891398D01*
X104537397Y-89923855D01*
X104537392Y-89923857D01*
X104364470Y-90000848D01*
X104364465Y-90000851D01*
X104211329Y-90112111D01*
X104084666Y-90252785D01*
X103990021Y-90416715D01*
X103990018Y-90416722D01*
X103931527Y-90596740D01*
X103931526Y-90596744D01*
X103911740Y-90785000D01*
X103931526Y-90973256D01*
X103931527Y-90973259D01*
X103990018Y-91153277D01*
X103990021Y-91153284D01*
X104084667Y-91317216D01*
X104178913Y-91421886D01*
X104211329Y-91457888D01*
X104364465Y-91569148D01*
X104364470Y-91569151D01*
X104537392Y-91646142D01*
X104537397Y-91646144D01*
X104722554Y-91685500D01*
X104722555Y-91685500D01*
X104911845Y-91685500D01*
X104911846Y-91685500D01*
X104968530Y-91673451D01*
X105038196Y-91678767D01*
X105093577Y-91720429D01*
X105125854Y-91763546D01*
X105241069Y-91849796D01*
X105241071Y-91849796D01*
X105243397Y-91851067D01*
X105245273Y-91852943D01*
X105248169Y-91855111D01*
X105247857Y-91855527D01*
X105292803Y-91900472D01*
X105307655Y-91968745D01*
X105283239Y-92034210D01*
X105227306Y-92076081D01*
X105183971Y-92083900D01*
X105086754Y-92083900D01*
X105054297Y-92090798D01*
X104901597Y-92123255D01*
X104901592Y-92123257D01*
X104728670Y-92200248D01*
X104728665Y-92200251D01*
X104575529Y-92311511D01*
X104448866Y-92452185D01*
X104354221Y-92616115D01*
X104354218Y-92616122D01*
X104297805Y-92789744D01*
X104295726Y-92796144D01*
X104275940Y-92984400D01*
X104295726Y-93172656D01*
X104295727Y-93172659D01*
X104354218Y-93352677D01*
X104354221Y-93352684D01*
X104448867Y-93516616D01*
X104546923Y-93625518D01*
X104575529Y-93657288D01*
X104728665Y-93768548D01*
X104728670Y-93768551D01*
X104901592Y-93845542D01*
X104901597Y-93845544D01*
X105086754Y-93884900D01*
X105145947Y-93884900D01*
X105212986Y-93904585D01*
X105233628Y-93921219D01*
X105561997Y-94249588D01*
X105571822Y-94261851D01*
X105572043Y-94261669D01*
X105577014Y-94267678D01*
X105597843Y-94287237D01*
X105627435Y-94315026D01*
X105648329Y-94335920D01*
X105653811Y-94340173D01*
X105658243Y-94343957D01*
X105692218Y-94375862D01*
X105709776Y-94385514D01*
X105726033Y-94396193D01*
X105741864Y-94408473D01*
X105761537Y-94416986D01*
X105784633Y-94426982D01*
X105789877Y-94429550D01*
X105830708Y-94451997D01*
X105843323Y-94455235D01*
X105850105Y-94456977D01*
X105868519Y-94463281D01*
X105886904Y-94471238D01*
X105932957Y-94478532D01*
X105938626Y-94479706D01*
X105983781Y-94491300D01*
X106003816Y-94491300D01*
X106023213Y-94492826D01*
X106042996Y-94495960D01*
X106089384Y-94491575D01*
X106095222Y-94491300D01*
X110444357Y-94491300D01*
X110459977Y-94493024D01*
X110460004Y-94492739D01*
X110467760Y-94493471D01*
X110467767Y-94493473D01*
X110536914Y-94491300D01*
X110566450Y-94491300D01*
X110573328Y-94490430D01*
X110579141Y-94489972D01*
X110625727Y-94488509D01*
X110644969Y-94482917D01*
X110664012Y-94478974D01*
X110683892Y-94476464D01*
X110727222Y-94459307D01*
X110732746Y-94457417D01*
X110736496Y-94456327D01*
X110777490Y-94444418D01*
X110794729Y-94434222D01*
X110812203Y-94425662D01*
X110830827Y-94418288D01*
X110830827Y-94418287D01*
X110830832Y-94418286D01*
X110868549Y-94390882D01*
X110873405Y-94387692D01*
X110913520Y-94363970D01*
X110927689Y-94349799D01*
X110942479Y-94337168D01*
X110958687Y-94325394D01*
X110988399Y-94289476D01*
X110992312Y-94285176D01*
X113111388Y-92166101D01*
X113123642Y-92156286D01*
X113123459Y-92156064D01*
X113129466Y-92151092D01*
X113129477Y-92151086D01*
X113164708Y-92113569D01*
X113176827Y-92100664D01*
X113187271Y-92090218D01*
X113197720Y-92079771D01*
X113201979Y-92074278D01*
X113205752Y-92069861D01*
X113237662Y-92035882D01*
X113247315Y-92018320D01*
X113257989Y-92002070D01*
X113270273Y-91986236D01*
X113288780Y-91943467D01*
X113291349Y-91938224D01*
X113302357Y-91918200D01*
X113313797Y-91897392D01*
X113318777Y-91877991D01*
X113325078Y-91859588D01*
X113333038Y-91841196D01*
X113340330Y-91795149D01*
X113341511Y-91789452D01*
X113341639Y-91788954D01*
X113353100Y-91744319D01*
X113353100Y-91724283D01*
X113354627Y-91704882D01*
X113354972Y-91702704D01*
X113357760Y-91685104D01*
X113353375Y-91638715D01*
X113353100Y-91632877D01*
X113353100Y-90772351D01*
X113372785Y-90705312D01*
X113389414Y-90684675D01*
X114771219Y-89302869D01*
X114832542Y-89269385D01*
X114902234Y-89274369D01*
X114958167Y-89316241D01*
X114982584Y-89381705D01*
X114982900Y-89390551D01*
X114982900Y-90686666D01*
X114963215Y-90753705D01*
X114951051Y-90769637D01*
X114922468Y-90801382D01*
X114922464Y-90801387D01*
X114827821Y-90965315D01*
X114827818Y-90965322D01*
X114776195Y-91124202D01*
X114769326Y-91145344D01*
X114749540Y-91333600D01*
X114769326Y-91521856D01*
X114769327Y-91521859D01*
X114827818Y-91701877D01*
X114827821Y-91701884D01*
X114922467Y-91865816D01*
X115049129Y-92006488D01*
X115202265Y-92117748D01*
X115202266Y-92117748D01*
X115202270Y-92117751D01*
X115290963Y-92157240D01*
X115344200Y-92202490D01*
X115364521Y-92269339D01*
X115345476Y-92336563D01*
X115328208Y-92358200D01*
X111055228Y-96631181D01*
X110993905Y-96664666D01*
X110967547Y-96667500D01*
X101748546Y-96667500D01*
X101681507Y-96647815D01*
X101635752Y-96595011D01*
X101625808Y-96525853D01*
X101654833Y-96462297D01*
X101690092Y-96434142D01*
X101708922Y-96424076D01*
X101041035Y-95756188D01*
X101102855Y-95797495D01*
X101175776Y-95812000D01*
X101225024Y-95812000D01*
X101297945Y-95797495D01*
X101380640Y-95742240D01*
X101435895Y-95659545D01*
X101455298Y-95562000D01*
X101553953Y-95562000D01*
X102062476Y-96070522D01*
X102128748Y-95946537D01*
X102185931Y-95758032D01*
X102205238Y-95562000D01*
X102185931Y-95365967D01*
X102128750Y-95177466D01*
X102062476Y-95053476D01*
X101553953Y-95562000D01*
X101455298Y-95562000D01*
X101435895Y-95464455D01*
X101380640Y-95381760D01*
X101297945Y-95326505D01*
X101225024Y-95312000D01*
X101175776Y-95312000D01*
X101102855Y-95326505D01*
X101041028Y-95367815D01*
X101200400Y-95208447D01*
X101708922Y-94699922D01*
X101708922Y-94699921D01*
X101584938Y-94633652D01*
X101396430Y-94576468D01*
X101200400Y-94557161D01*
X101004367Y-94576468D01*
X100815860Y-94633651D01*
X100636769Y-94729378D01*
X100635802Y-94727570D01*
X100578052Y-94745646D01*
X100514688Y-94728255D01*
X100514311Y-94728961D01*
X100511200Y-94727298D01*
X100510674Y-94727154D01*
X100509406Y-94726339D01*
X100335133Y-94633188D01*
X100335127Y-94633186D01*
X100146532Y-94575976D01*
X100146529Y-94575975D01*
X99950400Y-94556659D01*
X99754270Y-94575975D01*
X99565666Y-94633188D01*
X99386489Y-94728961D01*
X99385550Y-94727205D01*
X99327603Y-94745344D01*
X99264770Y-94728101D01*
X99264311Y-94728961D01*
X99260522Y-94726935D01*
X99260224Y-94726854D01*
X99259507Y-94726393D01*
X99085133Y-94633188D01*
X99085127Y-94633186D01*
X98896532Y-94575976D01*
X98896529Y-94575975D01*
X98700400Y-94556659D01*
X98504270Y-94575975D01*
X98315666Y-94633188D01*
X98136489Y-94728961D01*
X98135550Y-94727205D01*
X98077603Y-94745344D01*
X98014770Y-94728101D01*
X98014311Y-94728961D01*
X98010522Y-94726935D01*
X98010224Y-94726854D01*
X98009507Y-94726393D01*
X97835133Y-94633188D01*
X97835127Y-94633186D01*
X97646532Y-94575976D01*
X97646529Y-94575975D01*
X97450400Y-94556659D01*
X97254270Y-94575975D01*
X97065666Y-94633188D01*
X96891867Y-94726086D01*
X96891860Y-94726090D01*
X96739516Y-94851116D01*
X96614490Y-95003460D01*
X96614486Y-95003467D01*
X96521588Y-95177266D01*
X96464375Y-95365870D01*
X96445059Y-95562000D01*
X96464375Y-95758129D01*
X96476317Y-95797495D01*
X96521528Y-95946537D01*
X96521588Y-95946733D01*
X96614486Y-96120532D01*
X96614490Y-96120539D01*
X96739516Y-96272883D01*
X96891860Y-96397909D01*
X96891867Y-96397913D01*
X96959646Y-96434142D01*
X97009490Y-96483104D01*
X97024951Y-96551242D01*
X97001120Y-96616921D01*
X96945562Y-96659290D01*
X96901193Y-96667500D01*
X92911700Y-96667500D01*
X92844661Y-96647815D01*
X92798906Y-96595011D01*
X92787700Y-96543500D01*
X92787699Y-95969129D01*
X92787698Y-95969123D01*
X92785291Y-95946733D01*
X92781291Y-95909517D01*
X92776888Y-95897713D01*
X92730997Y-95774671D01*
X92730993Y-95774664D01*
X92644747Y-95659455D01*
X92644744Y-95659452D01*
X92529535Y-95573206D01*
X92529528Y-95573202D01*
X92394682Y-95522908D01*
X92394683Y-95522908D01*
X92335083Y-95516501D01*
X92335081Y-95516500D01*
X92335073Y-95516500D01*
X92335064Y-95516500D01*
X91389329Y-95516500D01*
X91389323Y-95516501D01*
X91329716Y-95522908D01*
X91194871Y-95573202D01*
X91194865Y-95573205D01*
X91156689Y-95601784D01*
X91091225Y-95626200D01*
X91031945Y-95615796D01*
X90972869Y-95589494D01*
X90899771Y-95556949D01*
X90899769Y-95556948D01*
X90709474Y-95516500D01*
X90514926Y-95516500D01*
X90324631Y-95556948D01*
X90146900Y-95636077D01*
X90146899Y-95636078D01*
X90060085Y-95699153D01*
X89994279Y-95722633D01*
X89926225Y-95706808D01*
X89914315Y-95699153D01*
X89827500Y-95636078D01*
X89827499Y-95636077D01*
X89718331Y-95587473D01*
X89689848Y-95574792D01*
X89636612Y-95529543D01*
X89616290Y-95462694D01*
X89635335Y-95395470D01*
X89687700Y-95349214D01*
X89689848Y-95348234D01*
X89780558Y-95307846D01*
X89860730Y-95272151D01*
X90013871Y-95160888D01*
X90140533Y-95020216D01*
X90235179Y-94856284D01*
X90293674Y-94676256D01*
X90313460Y-94488000D01*
X90293674Y-94299744D01*
X90235179Y-94119716D01*
X90140533Y-93955784D01*
X90013871Y-93815112D01*
X90004750Y-93808485D01*
X89860734Y-93703851D01*
X89860729Y-93703848D01*
X89687807Y-93626857D01*
X89687802Y-93626855D01*
X89542001Y-93595865D01*
X89502646Y-93587500D01*
X89313354Y-93587500D01*
X89280897Y-93594398D01*
X89128197Y-93626855D01*
X89128192Y-93626857D01*
X88955270Y-93703848D01*
X88955265Y-93703851D01*
X88941548Y-93713818D01*
X88875742Y-93737298D01*
X88868663Y-93737500D01*
X87407337Y-93737500D01*
X87340298Y-93717815D01*
X87334452Y-93713818D01*
X87320734Y-93703851D01*
X87320729Y-93703848D01*
X87147807Y-93626857D01*
X87147802Y-93626855D01*
X87002001Y-93595865D01*
X86962646Y-93587500D01*
X86773354Y-93587500D01*
X86740897Y-93594398D01*
X86588197Y-93626855D01*
X86588192Y-93626857D01*
X86415270Y-93703848D01*
X86415265Y-93703851D01*
X86262129Y-93815111D01*
X86135466Y-93955785D01*
X86040821Y-94119715D01*
X86040818Y-94119722D01*
X85985658Y-94289489D01*
X85982326Y-94299744D01*
X85962540Y-94488000D01*
X85982326Y-94676256D01*
X85982327Y-94676259D01*
X86040818Y-94856277D01*
X86040821Y-94856284D01*
X86135467Y-95020216D01*
X86232977Y-95128511D01*
X86262129Y-95160888D01*
X86415265Y-95272148D01*
X86415270Y-95272151D01*
X86560352Y-95336747D01*
X86613589Y-95381997D01*
X86633910Y-95448847D01*
X86614864Y-95516070D01*
X86562498Y-95562325D01*
X86560351Y-95563306D01*
X86396900Y-95636077D01*
X86396899Y-95636078D01*
X86310085Y-95699153D01*
X86244279Y-95722633D01*
X86176225Y-95706808D01*
X86164315Y-95699153D01*
X86077500Y-95636078D01*
X86077499Y-95636077D01*
X85936283Y-95573205D01*
X85899771Y-95556949D01*
X85899769Y-95556948D01*
X85709474Y-95516500D01*
X85514926Y-95516500D01*
X85324631Y-95556948D01*
X85146900Y-95636077D01*
X85146899Y-95636078D01*
X85060085Y-95699153D01*
X84994279Y-95722633D01*
X84926225Y-95706808D01*
X84914315Y-95699153D01*
X84827500Y-95636078D01*
X84827499Y-95636077D01*
X84686283Y-95573205D01*
X84649771Y-95556949D01*
X84649769Y-95556948D01*
X84459474Y-95516500D01*
X84264926Y-95516500D01*
X84074631Y-95556948D01*
X83896900Y-95636077D01*
X83896899Y-95636078D01*
X83810085Y-95699153D01*
X83744279Y-95722633D01*
X83676225Y-95706808D01*
X83664315Y-95699153D01*
X83577500Y-95636078D01*
X83577499Y-95636077D01*
X83436283Y-95573205D01*
X83399771Y-95556949D01*
X83399769Y-95556948D01*
X83209474Y-95516500D01*
X83014926Y-95516500D01*
X82824631Y-95556948D01*
X82646900Y-95636077D01*
X82646899Y-95636078D01*
X82560085Y-95699153D01*
X82494279Y-95722633D01*
X82426225Y-95706808D01*
X82414315Y-95699153D01*
X82327500Y-95636078D01*
X82327499Y-95636077D01*
X82186283Y-95573205D01*
X82149771Y-95556949D01*
X82149769Y-95556948D01*
X81959474Y-95516500D01*
X81764926Y-95516500D01*
X81574631Y-95556948D01*
X81396900Y-95636077D01*
X81396899Y-95636078D01*
X81310085Y-95699153D01*
X81244279Y-95722633D01*
X81176225Y-95706808D01*
X81164315Y-95699153D01*
X81077500Y-95636078D01*
X81077499Y-95636077D01*
X80936283Y-95573205D01*
X80899771Y-95556949D01*
X80899769Y-95556948D01*
X80709474Y-95516500D01*
X80514926Y-95516500D01*
X80324631Y-95556948D01*
X80146902Y-95636076D01*
X79989505Y-95750433D01*
X79989502Y-95750435D01*
X79859329Y-95895009D01*
X79762057Y-96063488D01*
X79762056Y-96063489D01*
X79701938Y-96248516D01*
X79686367Y-96396662D01*
X79681602Y-96442000D01*
X79690415Y-96525853D01*
X79690908Y-96530538D01*
X79678339Y-96599268D01*
X79630606Y-96650292D01*
X79567587Y-96667500D01*
X79473058Y-96667500D01*
X79406019Y-96647815D01*
X79360264Y-96595011D01*
X79350320Y-96525853D01*
X79355127Y-96505182D01*
X79371674Y-96454256D01*
X79391460Y-96266000D01*
X79371674Y-96077744D01*
X79313179Y-95897716D01*
X79289474Y-95856657D01*
X79253113Y-95793677D01*
X79236500Y-95731677D01*
X79236500Y-93027705D01*
X79237809Y-93009735D01*
X79238897Y-93002306D01*
X79241289Y-92985977D01*
X79236735Y-92933933D01*
X79236500Y-92928532D01*
X79236500Y-92920297D01*
X79236500Y-92920291D01*
X79232691Y-92887707D01*
X79225998Y-92811202D01*
X79225996Y-92811197D01*
X79224538Y-92804133D01*
X79224597Y-92804120D01*
X79222967Y-92796764D01*
X79222908Y-92796779D01*
X79221241Y-92789751D01*
X79221241Y-92789745D01*
X79194966Y-92717556D01*
X79170813Y-92644665D01*
X79170808Y-92644658D01*
X79167760Y-92638119D01*
X79167815Y-92638092D01*
X79164529Y-92631305D01*
X79164476Y-92631332D01*
X79161238Y-92624883D01*
X79119023Y-92560700D01*
X79078709Y-92495341D01*
X79074233Y-92489681D01*
X79074280Y-92489643D01*
X79069519Y-92483799D01*
X79069474Y-92483838D01*
X79064834Y-92478309D01*
X79064832Y-92478307D01*
X79064830Y-92478304D01*
X79034061Y-92449275D01*
X79008965Y-92425597D01*
X78785368Y-92202000D01*
X91804540Y-92202000D01*
X91824326Y-92390256D01*
X91824327Y-92390259D01*
X91882818Y-92570277D01*
X91882821Y-92570284D01*
X91977467Y-92734216D01*
X92060352Y-92826269D01*
X92104129Y-92874888D01*
X92257265Y-92986148D01*
X92257270Y-92986151D01*
X92430192Y-93063142D01*
X92430197Y-93063144D01*
X92615354Y-93102500D01*
X92615355Y-93102500D01*
X92804644Y-93102500D01*
X92804646Y-93102500D01*
X92989803Y-93063144D01*
X93162730Y-92986151D01*
X93315871Y-92874888D01*
X93442533Y-92734216D01*
X93537179Y-92570284D01*
X93592522Y-92399955D01*
X93622769Y-92350597D01*
X95402770Y-90570595D01*
X95464091Y-90537112D01*
X95464427Y-90537039D01*
X95529803Y-90523144D01*
X95702730Y-90446151D01*
X95855871Y-90334888D01*
X95982533Y-90194216D01*
X96077179Y-90030284D01*
X96135674Y-89850256D01*
X96155460Y-89662000D01*
X96135674Y-89473744D01*
X96077179Y-89293716D01*
X95982533Y-89129784D01*
X95855871Y-88989112D01*
X95855870Y-88989111D01*
X95702734Y-88877851D01*
X95702729Y-88877848D01*
X95529807Y-88800857D01*
X95529802Y-88800855D01*
X95384001Y-88769865D01*
X95344646Y-88761500D01*
X95155354Y-88761500D01*
X95122897Y-88768398D01*
X94970197Y-88800855D01*
X94970192Y-88800857D01*
X94797270Y-88877848D01*
X94797265Y-88877851D01*
X94644129Y-88989111D01*
X94517466Y-89129785D01*
X94422821Y-89293715D01*
X94422819Y-89293719D01*
X94367478Y-89464041D01*
X94337228Y-89513403D01*
X92557228Y-91293402D01*
X92495905Y-91326887D01*
X92495329Y-91327011D01*
X92430196Y-91340856D01*
X92430192Y-91340857D01*
X92257270Y-91417848D01*
X92257265Y-91417851D01*
X92104129Y-91529111D01*
X91977466Y-91669785D01*
X91882821Y-91833715D01*
X91882818Y-91833722D01*
X91825616Y-92009774D01*
X91824326Y-92013744D01*
X91804540Y-92202000D01*
X78785368Y-92202000D01*
X77874770Y-91291402D01*
X77844521Y-91242041D01*
X77805666Y-91122456D01*
X77789181Y-91071721D01*
X77789178Y-91071715D01*
X77694533Y-90907784D01*
X77567871Y-90767112D01*
X77561892Y-90762768D01*
X77414734Y-90655851D01*
X77414729Y-90655848D01*
X77241807Y-90578857D01*
X77241802Y-90578855D01*
X77096001Y-90547865D01*
X77056646Y-90539500D01*
X76867354Y-90539500D01*
X76834897Y-90546398D01*
X76682197Y-90578855D01*
X76682192Y-90578857D01*
X76509270Y-90655848D01*
X76509265Y-90655851D01*
X76356129Y-90767111D01*
X76229466Y-90907785D01*
X76134821Y-91071715D01*
X76134818Y-91071722D01*
X76076327Y-91251740D01*
X76076326Y-91251744D01*
X76056540Y-91440000D01*
X76076326Y-91628256D01*
X76076327Y-91628259D01*
X76134818Y-91808277D01*
X76134821Y-91808284D01*
X76229467Y-91972216D01*
X76319295Y-92071980D01*
X76356129Y-92112888D01*
X76509265Y-92224148D01*
X76509270Y-92224151D01*
X76682191Y-92301142D01*
X76682194Y-92301142D01*
X76682197Y-92301144D01*
X76716221Y-92308375D01*
X76747329Y-92314988D01*
X76808811Y-92348180D01*
X76809230Y-92348597D01*
X77699181Y-93238548D01*
X77732666Y-93299871D01*
X77735500Y-93326229D01*
X77735500Y-95731677D01*
X77718887Y-95793677D01*
X77658821Y-95897713D01*
X77603478Y-96068041D01*
X77573228Y-96117403D01*
X76476358Y-97214272D01*
X76462729Y-97226051D01*
X76443468Y-97240390D01*
X76409898Y-97280397D01*
X76406253Y-97284376D01*
X76400409Y-97290222D01*
X76380059Y-97315959D01*
X76330695Y-97374789D01*
X76326729Y-97380819D01*
X76326682Y-97380788D01*
X76322630Y-97387147D01*
X76322679Y-97387177D01*
X76318889Y-97393321D01*
X76286424Y-97462941D01*
X76251960Y-97531566D01*
X76249488Y-97538357D01*
X76249432Y-97538336D01*
X76246960Y-97545450D01*
X76247015Y-97545469D01*
X76244744Y-97552322D01*
X76244743Y-97552327D01*
X76229207Y-97627565D01*
X76218887Y-97671110D01*
X76211498Y-97702286D01*
X76210661Y-97709454D01*
X76210601Y-97709447D01*
X76209835Y-97716946D01*
X76209895Y-97716952D01*
X76209265Y-97724142D01*
X76210365Y-97761947D01*
X76193805Y-97827550D01*
X76134820Y-97929716D01*
X76082623Y-98090363D01*
X76076326Y-98109744D01*
X76056540Y-98298000D01*
X76076326Y-98486256D01*
X76076327Y-98486259D01*
X76134818Y-98666277D01*
X76134821Y-98666284D01*
X76194887Y-98770321D01*
X76211500Y-98832321D01*
X76211500Y-102081677D01*
X76194887Y-102143677D01*
X76134821Y-102247714D01*
X76093556Y-102374715D01*
X76076326Y-102427744D01*
X76056540Y-102616000D01*
X76076326Y-102804256D01*
X76076327Y-102804259D01*
X76134818Y-102984277D01*
X76134821Y-102984284D01*
X76229467Y-103148216D01*
X76296931Y-103223142D01*
X76356129Y-103288888D01*
X76509265Y-103400148D01*
X76509270Y-103400151D01*
X76682192Y-103477142D01*
X76682197Y-103477144D01*
X76867354Y-103516500D01*
X76867355Y-103516500D01*
X77056644Y-103516500D01*
X77056646Y-103516500D01*
X77241803Y-103477144D01*
X77414730Y-103400151D01*
X77567871Y-103288888D01*
X77694533Y-103148216D01*
X77789179Y-102984284D01*
X77847674Y-102804256D01*
X77867460Y-102616000D01*
X77847674Y-102427744D01*
X77789179Y-102247716D01*
X77789178Y-102247714D01*
X77729113Y-102143677D01*
X77712500Y-102081677D01*
X77712500Y-99629352D01*
X77732185Y-99562313D01*
X77784989Y-99516558D01*
X77854147Y-99506614D01*
X77917703Y-99535639D01*
X77924181Y-99541671D01*
X80030056Y-101647546D01*
X80063541Y-101708869D01*
X80058557Y-101778561D01*
X80016685Y-101834494D01*
X79951221Y-101858911D01*
X79916596Y-101856518D01*
X79850646Y-101842500D01*
X79661354Y-101842500D01*
X79628897Y-101849398D01*
X79476197Y-101881855D01*
X79476192Y-101881857D01*
X79303270Y-101958848D01*
X79303265Y-101958851D01*
X79150129Y-102070111D01*
X79023466Y-102210785D01*
X78928821Y-102374715D01*
X78928819Y-102374719D01*
X78873478Y-102545041D01*
X78843228Y-102594403D01*
X76476358Y-104961272D01*
X76462729Y-104973051D01*
X76443468Y-104987390D01*
X76409898Y-105027397D01*
X76406253Y-105031376D01*
X76400409Y-105037222D01*
X76380059Y-105062959D01*
X76330695Y-105121789D01*
X76326729Y-105127819D01*
X76326682Y-105127788D01*
X76322630Y-105134147D01*
X76322679Y-105134177D01*
X76318889Y-105140321D01*
X76286424Y-105209941D01*
X76251960Y-105278566D01*
X76249488Y-105285357D01*
X76249432Y-105285336D01*
X76246960Y-105292450D01*
X76247015Y-105292469D01*
X76244742Y-105299327D01*
X76236975Y-105336946D01*
X76229207Y-105374565D01*
X76218084Y-105421500D01*
X76211498Y-105449286D01*
X76210661Y-105456454D01*
X76210601Y-105456447D01*
X76209835Y-105463945D01*
X76209895Y-105463951D01*
X76209265Y-105471140D01*
X76211500Y-105547916D01*
X76211500Y-111569337D01*
X76210193Y-111587296D01*
X76206709Y-111611098D01*
X76211263Y-111663096D01*
X76211500Y-111668508D01*
X76211500Y-111676708D01*
X76215312Y-111709328D01*
X76222016Y-111785866D01*
X76223478Y-111792940D01*
X76223414Y-111792953D01*
X76225030Y-111800240D01*
X76225093Y-111800226D01*
X76226759Y-111807255D01*
X76253041Y-111879466D01*
X76277216Y-111952400D01*
X76280271Y-111958949D01*
X76280212Y-111958976D01*
X76283462Y-111965688D01*
X76283520Y-111965660D01*
X76286762Y-111972115D01*
X76286763Y-111972117D01*
X76328987Y-112036315D01*
X76369335Y-112101715D01*
X76369337Y-112101717D01*
X76373812Y-112107376D01*
X76373762Y-112107415D01*
X76378478Y-112113203D01*
X76378527Y-112113163D01*
X76383170Y-112118696D01*
X76439052Y-112171418D01*
X77962609Y-113694670D01*
X78173572Y-113905590D01*
X78207064Y-113966910D01*
X78209900Y-113993280D01*
X78209900Y-119340188D01*
X78208586Y-119358191D01*
X78205117Y-119381828D01*
X78205117Y-119381832D01*
X78209665Y-119433975D01*
X78209900Y-119439364D01*
X78209900Y-119447709D01*
X78213697Y-119480195D01*
X78220363Y-119556611D01*
X78220363Y-119556613D01*
X78220364Y-119556616D01*
X78221822Y-119563689D01*
X78221777Y-119563698D01*
X78223449Y-119571244D01*
X78223495Y-119571234D01*
X78225159Y-119578258D01*
X78251396Y-119650343D01*
X78275506Y-119723162D01*
X78275509Y-119723167D01*
X78278559Y-119729713D01*
X78278515Y-119729733D01*
X78281879Y-119736684D01*
X78281922Y-119736663D01*
X78285161Y-119743113D01*
X78285163Y-119743117D01*
X78327313Y-119807202D01*
X78367572Y-119872510D01*
X78372048Y-119878174D01*
X78372011Y-119878202D01*
X78376896Y-119884199D01*
X78376933Y-119884169D01*
X78381574Y-119889701D01*
X78437346Y-119942318D01*
X78732721Y-120237841D01*
X78766191Y-120299172D01*
X78761189Y-120368863D01*
X78719304Y-120424786D01*
X78653833Y-120449186D01*
X78645018Y-120449500D01*
X70185906Y-120449500D01*
X70118867Y-120429815D01*
X70073112Y-120377011D01*
X70061906Y-120325500D01*
X70061906Y-110790177D01*
X70359900Y-110790177D01*
X70374884Y-110985342D01*
X70374884Y-110985347D01*
X70434378Y-111239583D01*
X70434381Y-111239593D01*
X70531981Y-111481758D01*
X70531986Y-111481767D01*
X70633228Y-111652063D01*
X70665418Y-111706208D01*
X70831548Y-111907652D01*
X70831550Y-111907654D01*
X71026471Y-112081368D01*
X71026488Y-112081381D01*
X71245642Y-112223304D01*
X71245645Y-112223304D01*
X71245647Y-112223306D01*
X71483911Y-112330118D01*
X71735687Y-112399307D01*
X71995075Y-112429252D01*
X72255993Y-112419251D01*
X72512327Y-112369538D01*
X72512330Y-112369537D01*
X72758063Y-112281281D01*
X72758064Y-112281280D01*
X72758068Y-112281279D01*
X72987457Y-112156541D01*
X73195116Y-111998250D01*
X73376178Y-111810114D01*
X73526399Y-111596544D01*
X73642259Y-111362547D01*
X73721041Y-111113605D01*
X73760900Y-110855555D01*
X73760900Y-108919823D01*
X73745916Y-108724656D01*
X73686421Y-108470414D01*
X73682231Y-108460017D01*
X73588818Y-108228241D01*
X73588813Y-108228232D01*
X73497407Y-108074481D01*
X73455382Y-108003792D01*
X73289252Y-107802348D01*
X73289249Y-107802345D01*
X73094328Y-107628631D01*
X73094311Y-107628618D01*
X72875157Y-107486695D01*
X72875153Y-107486694D01*
X72636888Y-107379881D01*
X72385114Y-107310693D01*
X72212346Y-107290748D01*
X72125725Y-107280748D01*
X72125724Y-107280748D01*
X71864806Y-107290748D01*
X71608471Y-107340462D01*
X71608469Y-107340462D01*
X71362736Y-107428718D01*
X71133339Y-107553461D01*
X70925688Y-107711746D01*
X70925684Y-107711749D01*
X70925684Y-107711750D01*
X70838493Y-107802348D01*
X70744623Y-107899885D01*
X70744614Y-107899895D01*
X70594410Y-108113441D01*
X70594399Y-108113460D01*
X70478539Y-108347455D01*
X70417852Y-108539222D01*
X70399759Y-108596395D01*
X70359900Y-108854445D01*
X70359900Y-108854449D01*
X70359900Y-110790177D01*
X70061906Y-110790177D01*
X70061906Y-88773002D01*
X72396751Y-88773002D01*
X72415685Y-88941056D01*
X72471545Y-89100694D01*
X72471547Y-89100697D01*
X72561518Y-89243884D01*
X72561523Y-89243890D01*
X72681109Y-89363476D01*
X72681115Y-89363481D01*
X72824302Y-89453452D01*
X72824305Y-89453454D01*
X72824309Y-89453455D01*
X72824310Y-89453456D01*
X72882279Y-89473740D01*
X72983943Y-89509314D01*
X73151997Y-89528249D01*
X73152000Y-89528249D01*
X73152003Y-89528249D01*
X73320056Y-89509314D01*
X73381591Y-89487782D01*
X73479690Y-89453456D01*
X73479692Y-89453454D01*
X73479694Y-89453454D01*
X73479697Y-89453452D01*
X73622884Y-89363481D01*
X73622885Y-89363480D01*
X73622890Y-89363477D01*
X73742477Y-89243890D01*
X73763036Y-89211171D01*
X73832452Y-89100697D01*
X73832454Y-89100694D01*
X73832454Y-89100692D01*
X73832456Y-89100690D01*
X73888313Y-88941059D01*
X73888313Y-88941058D01*
X73888314Y-88941056D01*
X73907249Y-88773002D01*
X73907249Y-88772997D01*
X73888314Y-88604943D01*
X73870150Y-88553035D01*
X73832456Y-88445310D01*
X73807619Y-88405782D01*
X73796506Y-88388095D01*
X73777500Y-88322123D01*
X73777500Y-86191056D01*
X105482900Y-86191056D01*
X105490235Y-86220815D01*
X105523610Y-86356226D01*
X105602663Y-86506849D01*
X105602666Y-86506852D01*
X105715471Y-86634183D01*
X105805718Y-86696476D01*
X105855468Y-86730817D01*
X105855469Y-86730817D01*
X105855470Y-86730818D01*
X105927141Y-86757999D01*
X106013665Y-86790813D01*
X106014528Y-86791140D01*
X106090428Y-86800356D01*
X106141026Y-86806500D01*
X106141028Y-86806500D01*
X106225774Y-86806500D01*
X106267938Y-86801380D01*
X106352272Y-86791140D01*
X106511330Y-86730818D01*
X106651329Y-86634183D01*
X106764134Y-86506852D01*
X106843190Y-86356225D01*
X106883900Y-86191056D01*
X106883900Y-86020944D01*
X106843190Y-85855775D01*
X106832784Y-85835948D01*
X106764136Y-85705150D01*
X106703194Y-85636361D01*
X106651329Y-85577817D01*
X106585007Y-85532038D01*
X106511331Y-85481182D01*
X106352274Y-85420860D01*
X106352268Y-85420859D01*
X106225774Y-85405500D01*
X106225772Y-85405500D01*
X106141028Y-85405500D01*
X106141026Y-85405500D01*
X106014531Y-85420859D01*
X106014525Y-85420860D01*
X105855468Y-85481182D01*
X105715472Y-85577816D01*
X105602663Y-85705150D01*
X105523610Y-85855773D01*
X105496268Y-85966708D01*
X105482900Y-86020944D01*
X105482900Y-86191056D01*
X73777500Y-86191056D01*
X73777500Y-84569500D01*
X73797185Y-84502461D01*
X73849989Y-84456706D01*
X73901500Y-84445500D01*
X82353124Y-84445500D01*
X82419095Y-84464505D01*
X82476310Y-84500456D01*
X82597621Y-84542904D01*
X82635943Y-84556314D01*
X82803997Y-84575249D01*
X82804000Y-84575249D01*
X82804003Y-84575249D01*
X82972056Y-84556314D01*
X82997748Y-84547324D01*
X83131690Y-84500456D01*
X83131692Y-84500454D01*
X83131694Y-84500454D01*
X83131697Y-84500452D01*
X83274884Y-84410481D01*
X83274885Y-84410480D01*
X83274890Y-84410477D01*
X83394477Y-84290890D01*
X83457574Y-84190472D01*
X83484452Y-84147697D01*
X83484454Y-84147694D01*
X83484454Y-84147692D01*
X83484456Y-84147690D01*
X83540313Y-83988059D01*
X83540313Y-83988058D01*
X83540314Y-83988056D01*
X83559249Y-83820002D01*
X83559249Y-83819997D01*
X83540314Y-83651943D01*
X83508823Y-83561946D01*
X83484456Y-83492310D01*
X83484455Y-83492309D01*
X83484454Y-83492305D01*
X83484452Y-83492302D01*
X83394481Y-83349115D01*
X83394476Y-83349109D01*
X83274890Y-83229523D01*
X83274884Y-83229518D01*
X83131697Y-83139547D01*
X83131694Y-83139545D01*
X82972056Y-83083685D01*
X82804003Y-83064751D01*
X82803997Y-83064751D01*
X82635943Y-83083685D01*
X82476307Y-83139545D01*
X82419096Y-83175494D01*
X82353124Y-83194500D01*
X73222847Y-83194500D01*
X73199615Y-83192304D01*
X73191588Y-83190773D01*
X73191586Y-83190773D01*
X73182633Y-83191336D01*
X73134275Y-83194378D01*
X73130403Y-83194500D01*
X73112643Y-83194500D01*
X73095032Y-83196725D01*
X73091164Y-83197090D01*
X73059375Y-83199090D01*
X73033859Y-83200696D01*
X73026085Y-83203222D01*
X73003320Y-83208310D01*
X72995218Y-83209333D01*
X72995205Y-83209337D01*
X72941810Y-83230477D01*
X72938154Y-83231792D01*
X72887098Y-83248383D01*
X72883556Y-83249534D01*
X72876652Y-83253915D01*
X72855880Y-83264499D01*
X72848273Y-83267511D01*
X72848262Y-83267517D01*
X72801814Y-83301263D01*
X72798595Y-83303451D01*
X72750123Y-83334213D01*
X72750120Y-83334216D01*
X72744529Y-83340170D01*
X72727029Y-83355599D01*
X72720413Y-83360405D01*
X72720412Y-83360406D01*
X72683812Y-83404646D01*
X72681238Y-83407565D01*
X72641937Y-83449417D01*
X72641935Y-83449420D01*
X72637994Y-83456589D01*
X72624889Y-83475873D01*
X72619677Y-83482173D01*
X72619674Y-83482178D01*
X72595231Y-83534121D01*
X72593464Y-83537589D01*
X72565804Y-83587903D01*
X72565803Y-83587908D01*
X72563769Y-83595828D01*
X72555870Y-83617768D01*
X72552386Y-83625172D01*
X72552384Y-83625178D01*
X72541629Y-83681561D01*
X72540779Y-83685361D01*
X72526500Y-83740976D01*
X72526500Y-83749152D01*
X72524305Y-83772382D01*
X72522773Y-83780414D01*
X72523294Y-83788697D01*
X72526378Y-83837724D01*
X72526500Y-83841595D01*
X72526500Y-88322123D01*
X72507494Y-88388095D01*
X72471545Y-88445307D01*
X72415685Y-88604943D01*
X72396751Y-88772997D01*
X72396751Y-88773002D01*
X70061906Y-88773002D01*
X70061906Y-78191055D01*
X105482900Y-78191055D01*
X105523610Y-78356226D01*
X105602663Y-78506849D01*
X105625728Y-78532884D01*
X105715471Y-78634183D01*
X105748740Y-78657147D01*
X105855468Y-78730817D01*
X105855469Y-78730817D01*
X105855470Y-78730818D01*
X105905377Y-78749745D01*
X106008315Y-78788784D01*
X106014528Y-78791140D01*
X106090428Y-78800356D01*
X106141026Y-78806500D01*
X106141028Y-78806500D01*
X106225774Y-78806500D01*
X106267938Y-78801380D01*
X106352272Y-78791140D01*
X106511330Y-78730818D01*
X106651329Y-78634183D01*
X106764134Y-78506852D01*
X106843190Y-78356225D01*
X106883900Y-78191056D01*
X106883900Y-78020944D01*
X106843190Y-77855775D01*
X106811340Y-77795090D01*
X106764136Y-77705150D01*
X106729151Y-77665660D01*
X106651329Y-77577817D01*
X106568764Y-77520826D01*
X106511331Y-77481182D01*
X106352274Y-77420860D01*
X106352268Y-77420859D01*
X106225774Y-77405500D01*
X106225772Y-77405500D01*
X106141028Y-77405500D01*
X106141026Y-77405500D01*
X106014531Y-77420859D01*
X106014525Y-77420860D01*
X105855468Y-77481182D01*
X105715472Y-77577816D01*
X105602663Y-77705150D01*
X105523610Y-77855773D01*
X105482900Y-78020944D01*
X105482900Y-78191055D01*
X70061906Y-78191055D01*
X70061906Y-75554600D01*
X103911740Y-75554600D01*
X103931526Y-75742856D01*
X103931527Y-75742859D01*
X103990018Y-75922877D01*
X103990021Y-75922884D01*
X104084667Y-76086816D01*
X104204032Y-76219384D01*
X104211329Y-76227488D01*
X104364465Y-76338748D01*
X104364470Y-76338751D01*
X104537392Y-76415742D01*
X104537397Y-76415744D01*
X104722554Y-76455100D01*
X104722555Y-76455100D01*
X104911844Y-76455100D01*
X104911846Y-76455100D01*
X105097003Y-76415744D01*
X105196983Y-76371228D01*
X105266230Y-76361943D01*
X105290749Y-76368325D01*
X105375917Y-76400091D01*
X105435527Y-76406500D01*
X107731272Y-76406499D01*
X107790883Y-76400091D01*
X107925731Y-76349796D01*
X108040946Y-76263546D01*
X108127196Y-76148331D01*
X108177491Y-76013483D01*
X108183900Y-75953873D01*
X108183899Y-74658128D01*
X108177491Y-74598517D01*
X108176015Y-74594560D01*
X108127197Y-74463671D01*
X108127193Y-74463664D01*
X108040947Y-74348455D01*
X108040944Y-74348452D01*
X107925735Y-74262206D01*
X107925728Y-74262202D01*
X107790882Y-74211908D01*
X107790883Y-74211908D01*
X107731283Y-74205501D01*
X107731281Y-74205500D01*
X107731273Y-74205500D01*
X107731264Y-74205500D01*
X105435529Y-74205500D01*
X105435523Y-74205501D01*
X105375916Y-74211908D01*
X105241071Y-74262202D01*
X105241064Y-74262206D01*
X105125855Y-74348452D01*
X105125852Y-74348455D01*
X105039606Y-74463664D01*
X105039602Y-74463671D01*
X104998664Y-74573433D01*
X104956793Y-74629367D01*
X104891328Y-74653784D01*
X104882482Y-74654100D01*
X104722554Y-74654100D01*
X104703604Y-74658128D01*
X104537397Y-74693455D01*
X104537392Y-74693457D01*
X104364470Y-74770448D01*
X104364465Y-74770451D01*
X104211329Y-74881711D01*
X104084666Y-75022385D01*
X103990021Y-75186315D01*
X103990018Y-75186322D01*
X103952506Y-75301774D01*
X103931526Y-75366344D01*
X103911740Y-75554600D01*
X70061906Y-75554600D01*
X70061906Y-70834900D01*
X70081591Y-70767861D01*
X70134395Y-70722106D01*
X70185906Y-70710900D01*
X145482906Y-70710900D01*
X145549945Y-70730585D01*
G37*
%TD.AperFunction*%
%TA.AperFunction,Conductor*%
G36*
X145558099Y-87673130D02*
G01*
X145599470Y-87729435D01*
X145606906Y-87771731D01*
X145606906Y-120325500D01*
X145587221Y-120392539D01*
X145534417Y-120438294D01*
X145482906Y-120449500D01*
X115734230Y-120449500D01*
X115667191Y-120429815D01*
X115621436Y-120377011D01*
X115611492Y-120307853D01*
X115640517Y-120244297D01*
X115646549Y-120237819D01*
X116077166Y-119807202D01*
X118262770Y-117621595D01*
X118324091Y-117588112D01*
X118324427Y-117588039D01*
X118389803Y-117574144D01*
X118562730Y-117497151D01*
X118715871Y-117385888D01*
X118842533Y-117245216D01*
X118937179Y-117081284D01*
X118995674Y-116901256D01*
X119015460Y-116713000D01*
X118995674Y-116524744D01*
X118937179Y-116344716D01*
X118842533Y-116180784D01*
X118715871Y-116040112D01*
X118714401Y-116039044D01*
X118562734Y-115928851D01*
X118562729Y-115928848D01*
X118389807Y-115851857D01*
X118389802Y-115851855D01*
X118244001Y-115820865D01*
X118204646Y-115812500D01*
X118015354Y-115812500D01*
X117982897Y-115819398D01*
X117830197Y-115851855D01*
X117830192Y-115851857D01*
X117657270Y-115928848D01*
X117657265Y-115928851D01*
X117504129Y-116040111D01*
X117377466Y-116180785D01*
X117282821Y-116344715D01*
X117282819Y-116344719D01*
X117227478Y-116515041D01*
X117197228Y-116564403D01*
X114348451Y-119413181D01*
X114287128Y-119446666D01*
X114260770Y-119449500D01*
X108617162Y-119449500D01*
X108550123Y-119429815D01*
X108504368Y-119377011D01*
X108494424Y-119307853D01*
X108509775Y-119263500D01*
X108523179Y-119240284D01*
X108581674Y-119060256D01*
X108601460Y-118872000D01*
X108581674Y-118683744D01*
X108523179Y-118503716D01*
X108463113Y-118399677D01*
X108446500Y-118337677D01*
X108446500Y-115342321D01*
X108463113Y-115280321D01*
X108523179Y-115176284D01*
X108581674Y-114996256D01*
X108601460Y-114808000D01*
X108581674Y-114619744D01*
X108523179Y-114439716D01*
X108428533Y-114275784D01*
X108301871Y-114135112D01*
X108301870Y-114135111D01*
X108148734Y-114023851D01*
X108148729Y-114023848D01*
X107975807Y-113946857D01*
X107975802Y-113946855D01*
X107830001Y-113915865D01*
X107790646Y-113907500D01*
X107601354Y-113907500D01*
X107568897Y-113914398D01*
X107416197Y-113946855D01*
X107416192Y-113946857D01*
X107243270Y-114023848D01*
X107243265Y-114023851D01*
X107090129Y-114135111D01*
X106963466Y-114275785D01*
X106868821Y-114439715D01*
X106868818Y-114439722D01*
X106819628Y-114591115D01*
X106810326Y-114619744D01*
X106790540Y-114808000D01*
X106810326Y-114996256D01*
X106810327Y-114996259D01*
X106868818Y-115176277D01*
X106868821Y-115176284D01*
X106928887Y-115280321D01*
X106945500Y-115342321D01*
X106945500Y-118337677D01*
X106928887Y-118399677D01*
X106868821Y-118503714D01*
X106810327Y-118683740D01*
X106810326Y-118683744D01*
X106790540Y-118872000D01*
X106810326Y-119060256D01*
X106810327Y-119060259D01*
X106868818Y-119240277D01*
X106868821Y-119240284D01*
X106882225Y-119263500D01*
X106898698Y-119331400D01*
X106875845Y-119397427D01*
X106820924Y-119440618D01*
X106774838Y-119449500D01*
X80118358Y-119449500D01*
X80051319Y-119429815D01*
X80030655Y-119413159D01*
X79747197Y-119129558D01*
X79713727Y-119068227D01*
X79710900Y-119041899D01*
X79710900Y-113694670D01*
X79712207Y-113676710D01*
X79712238Y-113676500D01*
X79715692Y-113652902D01*
X79711137Y-113600893D01*
X79710900Y-113595481D01*
X79710900Y-113587298D01*
X79710900Y-113587291D01*
X79707091Y-113554704D01*
X79700384Y-113478129D01*
X79700384Y-113478126D01*
X79698923Y-113471055D01*
X79698986Y-113471041D01*
X79697372Y-113463762D01*
X79697308Y-113463778D01*
X79695641Y-113456747D01*
X79695641Y-113456745D01*
X79669363Y-113384547D01*
X79645182Y-113311595D01*
X79642130Y-113305052D01*
X79642189Y-113305024D01*
X79638939Y-113298310D01*
X79638880Y-113298340D01*
X79635638Y-113291884D01*
X79593412Y-113227684D01*
X79553065Y-113162285D01*
X79548588Y-113156624D01*
X79548637Y-113156584D01*
X79543916Y-113150789D01*
X79543867Y-113150831D01*
X79539225Y-113145298D01*
X79483347Y-113092581D01*
X77748828Y-111358408D01*
X77715336Y-111297088D01*
X77712500Y-111270718D01*
X77712500Y-109789675D01*
X79206148Y-109789675D01*
X79216148Y-110050593D01*
X79265862Y-110306928D01*
X79265862Y-110306930D01*
X79354118Y-110552663D01*
X79478861Y-110782060D01*
X79637146Y-110989711D01*
X79637150Y-110989716D01*
X79825286Y-111170778D01*
X79825291Y-111170781D01*
X79825295Y-111170785D01*
X80038841Y-111320989D01*
X80038845Y-111320991D01*
X80038856Y-111320999D01*
X80196561Y-111399084D01*
X80272855Y-111436860D01*
X80355833Y-111463119D01*
X80521795Y-111515641D01*
X80779845Y-111555500D01*
X80779849Y-111555500D01*
X80975577Y-111555500D01*
X81170744Y-111540516D01*
X81424986Y-111481021D01*
X81470345Y-111462739D01*
X81667158Y-111383418D01*
X81667163Y-111383415D01*
X81667166Y-111383414D01*
X81891608Y-111249982D01*
X82093052Y-111083852D01*
X82263813Y-110892244D01*
X82266768Y-110888928D01*
X82266768Y-110888926D01*
X82266775Y-110888920D01*
X82314483Y-110815251D01*
X82408704Y-110669757D01*
X82408704Y-110669755D01*
X82408706Y-110669753D01*
X82515518Y-110431489D01*
X82584707Y-110179713D01*
X82614652Y-109920325D01*
X82604651Y-109659407D01*
X82554938Y-109403073D01*
X82546195Y-109378729D01*
X82466681Y-109157336D01*
X82411093Y-109055112D01*
X82341941Y-108927943D01*
X82319735Y-108898812D01*
X82183653Y-108720288D01*
X82183650Y-108720284D01*
X81995514Y-108539222D01*
X81995508Y-108539218D01*
X81995504Y-108539214D01*
X81781958Y-108389010D01*
X81781951Y-108389006D01*
X81781944Y-108389001D01*
X81636006Y-108316742D01*
X81547944Y-108273139D01*
X81299008Y-108194360D01*
X81299005Y-108194359D01*
X81040955Y-108154500D01*
X80845223Y-108154500D01*
X80650056Y-108169484D01*
X80650052Y-108169484D01*
X80395816Y-108228978D01*
X80395806Y-108228981D01*
X80153641Y-108326581D01*
X80153632Y-108326586D01*
X79929193Y-108460017D01*
X79727745Y-108626150D01*
X79554031Y-108821071D01*
X79554018Y-108821088D01*
X79412095Y-109040242D01*
X79412094Y-109040246D01*
X79305281Y-109278511D01*
X79236093Y-109530285D01*
X79206148Y-109789675D01*
X77712500Y-109789675D01*
X77712500Y-105899228D01*
X77732185Y-105832189D01*
X77748814Y-105811552D01*
X79908770Y-103651595D01*
X79970091Y-103618112D01*
X79970427Y-103618039D01*
X80035803Y-103604144D01*
X80208730Y-103527151D01*
X80361871Y-103415888D01*
X80488533Y-103275216D01*
X80583179Y-103111284D01*
X80641674Y-102931256D01*
X80661460Y-102743000D01*
X80643560Y-102572689D01*
X80656128Y-102503965D01*
X80703860Y-102452941D01*
X80771600Y-102435823D01*
X80837842Y-102458045D01*
X80854561Y-102472052D01*
X93944197Y-115561688D01*
X93954022Y-115573951D01*
X93954243Y-115573769D01*
X93959214Y-115579778D01*
X93985217Y-115604195D01*
X94009635Y-115627126D01*
X94030529Y-115648020D01*
X94036011Y-115652273D01*
X94040443Y-115656057D01*
X94074418Y-115687962D01*
X94091976Y-115697614D01*
X94108235Y-115708295D01*
X94124064Y-115720573D01*
X94166838Y-115739082D01*
X94172056Y-115741638D01*
X94212908Y-115764097D01*
X94232316Y-115769080D01*
X94250717Y-115775380D01*
X94269104Y-115783337D01*
X94312488Y-115790208D01*
X94315119Y-115790625D01*
X94320839Y-115791809D01*
X94365981Y-115803400D01*
X94386016Y-115803400D01*
X94405414Y-115804926D01*
X94425194Y-115808059D01*
X94425195Y-115808060D01*
X94425195Y-115808059D01*
X94425196Y-115808060D01*
X94471584Y-115803675D01*
X94477422Y-115803400D01*
X103631652Y-115803400D01*
X103698691Y-115823085D01*
X103723800Y-115844426D01*
X103729526Y-115850785D01*
X103729530Y-115850789D01*
X103882665Y-115962048D01*
X103882670Y-115962051D01*
X104055592Y-116039042D01*
X104055597Y-116039044D01*
X104240754Y-116078400D01*
X104240755Y-116078400D01*
X104381500Y-116078400D01*
X104448539Y-116098085D01*
X104494294Y-116150889D01*
X104505500Y-116202400D01*
X104505500Y-116428911D01*
X104486495Y-116494882D01*
X104475544Y-116512310D01*
X104419685Y-116671943D01*
X104400751Y-116839997D01*
X104400751Y-116840002D01*
X104419685Y-117008056D01*
X104475545Y-117167694D01*
X104475547Y-117167697D01*
X104565518Y-117310884D01*
X104565523Y-117310890D01*
X104685109Y-117430476D01*
X104685115Y-117430481D01*
X104828302Y-117520452D01*
X104828305Y-117520454D01*
X104828309Y-117520455D01*
X104828310Y-117520456D01*
X104900913Y-117545860D01*
X104987943Y-117576314D01*
X105155997Y-117595249D01*
X105156000Y-117595249D01*
X105156003Y-117595249D01*
X105324056Y-117576314D01*
X105324059Y-117576313D01*
X105483690Y-117520456D01*
X105483692Y-117520454D01*
X105483694Y-117520454D01*
X105483697Y-117520452D01*
X105626884Y-117430481D01*
X105626885Y-117430480D01*
X105626890Y-117430477D01*
X105746477Y-117310890D01*
X105836452Y-117167697D01*
X105836454Y-117167694D01*
X105836454Y-117167692D01*
X105836456Y-117167690D01*
X105892313Y-117008059D01*
X105892313Y-117008058D01*
X105892314Y-117008056D01*
X105911249Y-116840002D01*
X105911249Y-116839997D01*
X105892314Y-116671943D01*
X105879417Y-116635088D01*
X105836456Y-116512310D01*
X105825504Y-116494881D01*
X105806500Y-116428911D01*
X105806500Y-115767751D01*
X105826185Y-115700712D01*
X105864528Y-115662757D01*
X105880890Y-115652477D01*
X106000477Y-115532890D01*
X106000481Y-115532884D01*
X106090452Y-115389697D01*
X106090454Y-115389694D01*
X106090454Y-115389692D01*
X106090456Y-115389690D01*
X106146313Y-115230059D01*
X106146313Y-115230058D01*
X106146314Y-115230056D01*
X106165249Y-115062002D01*
X106165249Y-115061997D01*
X106146314Y-114893943D01*
X106090454Y-114734305D01*
X106090452Y-114734302D01*
X106000481Y-114591115D01*
X106000476Y-114591109D01*
X105880890Y-114471523D01*
X105880884Y-114471518D01*
X105737697Y-114381547D01*
X105737694Y-114381545D01*
X105578056Y-114325685D01*
X105410003Y-114306751D01*
X105409997Y-114306751D01*
X105241943Y-114325685D01*
X105082307Y-114381545D01*
X104986560Y-114441707D01*
X104919323Y-114460707D01*
X104852488Y-114440339D01*
X104847714Y-114437039D01*
X104788130Y-114393749D01*
X104788129Y-114393748D01*
X104615207Y-114316757D01*
X104615202Y-114316755D01*
X104469401Y-114285765D01*
X104430046Y-114277400D01*
X104240754Y-114277400D01*
X104208297Y-114284298D01*
X104055597Y-114316755D01*
X104055592Y-114316757D01*
X103882670Y-114393748D01*
X103882665Y-114393751D01*
X103729530Y-114505010D01*
X103729526Y-114505014D01*
X103723800Y-114511374D01*
X103664313Y-114548021D01*
X103631652Y-114552400D01*
X94755453Y-114552400D01*
X94688414Y-114532715D01*
X94667772Y-114516081D01*
X79319272Y-99167581D01*
X79285787Y-99106258D01*
X79290771Y-99036566D01*
X79332643Y-98980633D01*
X79398107Y-98956216D01*
X79406953Y-98955900D01*
X108648748Y-98955900D01*
X108715787Y-98975585D01*
X108736429Y-98992219D01*
X109805238Y-100061029D01*
X109838723Y-100122352D01*
X109840877Y-100135746D01*
X109848634Y-100209536D01*
X109836067Y-100278266D01*
X109788335Y-100329291D01*
X109725314Y-100346500D01*
X108806338Y-100346500D01*
X108790721Y-100344776D01*
X108790694Y-100345062D01*
X108782932Y-100344327D01*
X108713804Y-100346500D01*
X108684250Y-100346500D01*
X108683529Y-100346590D01*
X108677357Y-100347369D01*
X108671545Y-100347826D01*
X108624973Y-100349290D01*
X108624972Y-100349290D01*
X108605729Y-100354881D01*
X108586679Y-100358825D01*
X108566811Y-100361334D01*
X108523484Y-100378488D01*
X108517958Y-100380379D01*
X108473214Y-100393379D01*
X108473210Y-100393381D01*
X108455966Y-100403579D01*
X108438505Y-100412133D01*
X108419874Y-100419510D01*
X108419862Y-100419517D01*
X108382170Y-100446902D01*
X108377287Y-100450109D01*
X108337180Y-100473829D01*
X108323014Y-100487995D01*
X108308224Y-100500627D01*
X108292014Y-100512404D01*
X108292011Y-100512407D01*
X108262310Y-100548309D01*
X108258377Y-100552631D01*
X102017228Y-106793781D01*
X101955905Y-106827266D01*
X101929547Y-106830100D01*
X101712628Y-106830100D01*
X101645589Y-106810415D01*
X101599834Y-106757611D01*
X101589890Y-106688453D01*
X101605241Y-106644100D01*
X101634415Y-106593569D01*
X101665179Y-106540284D01*
X101723674Y-106360256D01*
X101743460Y-106172000D01*
X101723674Y-105983744D01*
X101665179Y-105803716D01*
X101570533Y-105639784D01*
X101443871Y-105499112D01*
X101443870Y-105499111D01*
X101290734Y-105387851D01*
X101290729Y-105387848D01*
X101117807Y-105310857D01*
X101117802Y-105310855D01*
X100965889Y-105278566D01*
X100932646Y-105271500D01*
X100743354Y-105271500D01*
X100710897Y-105278398D01*
X100558197Y-105310855D01*
X100558192Y-105310857D01*
X100385270Y-105387848D01*
X100385265Y-105387851D01*
X100371548Y-105397818D01*
X100305742Y-105421298D01*
X100298663Y-105421500D01*
X99172500Y-105421500D01*
X99105461Y-105401815D01*
X99059706Y-105349011D01*
X99048500Y-105297500D01*
X99048500Y-104457705D01*
X99049809Y-104439735D01*
X99053289Y-104415974D01*
X99048736Y-104363939D01*
X99048500Y-104358532D01*
X99048500Y-104350297D01*
X99048500Y-104350291D01*
X99044691Y-104317707D01*
X99037998Y-104241202D01*
X99037996Y-104241197D01*
X99036538Y-104234133D01*
X99036597Y-104234120D01*
X99034967Y-104226764D01*
X99034908Y-104226779D01*
X99033242Y-104219753D01*
X99033241Y-104219745D01*
X99006973Y-104147573D01*
X98982815Y-104074666D01*
X98979763Y-104068121D01*
X98979817Y-104068095D01*
X98976533Y-104061312D01*
X98976480Y-104061340D01*
X98973238Y-104054885D01*
X98961617Y-104037216D01*
X98931029Y-103990709D01*
X98890711Y-103925344D01*
X98890710Y-103925343D01*
X98890709Y-103925341D01*
X98886233Y-103919681D01*
X98886280Y-103919643D01*
X98881519Y-103913799D01*
X98881474Y-103913838D01*
X98876834Y-103908308D01*
X98820964Y-103855596D01*
X96907048Y-101941680D01*
X96873563Y-101880357D01*
X96878547Y-101810665D01*
X96907048Y-101766318D01*
X97081552Y-101591815D01*
X97302548Y-101370819D01*
X97363871Y-101337334D01*
X97390229Y-101334500D01*
X98464279Y-101334500D01*
X99790663Y-101334500D01*
X99857702Y-101354185D01*
X99863548Y-101358182D01*
X99877265Y-101368148D01*
X99877270Y-101368151D01*
X100050192Y-101445142D01*
X100050197Y-101445144D01*
X100235354Y-101484500D01*
X100235355Y-101484500D01*
X100424644Y-101484500D01*
X100424646Y-101484500D01*
X100609803Y-101445144D01*
X100782730Y-101368151D01*
X100935871Y-101256888D01*
X101062533Y-101116216D01*
X101157179Y-100952284D01*
X101215674Y-100772256D01*
X101235460Y-100584000D01*
X101215674Y-100395744D01*
X101157179Y-100215716D01*
X101062533Y-100051784D01*
X100935871Y-99911112D01*
X100932638Y-99908763D01*
X100782734Y-99799851D01*
X100782729Y-99799848D01*
X100609807Y-99722857D01*
X100609802Y-99722855D01*
X100464001Y-99691865D01*
X100424646Y-99683500D01*
X100235354Y-99683500D01*
X100202897Y-99690398D01*
X100050197Y-99722855D01*
X100050192Y-99722857D01*
X99877270Y-99799848D01*
X99877265Y-99799851D01*
X99863548Y-99809818D01*
X99797742Y-99833298D01*
X99790663Y-99833500D01*
X97091705Y-99833500D01*
X97073735Y-99832191D01*
X97049972Y-99828710D01*
X97004890Y-99832655D01*
X96997933Y-99833264D01*
X96992532Y-99833500D01*
X96984287Y-99833500D01*
X96958222Y-99836546D01*
X96951705Y-99837308D01*
X96946403Y-99837771D01*
X96875201Y-99844001D01*
X96868134Y-99845461D01*
X96868122Y-99845404D01*
X96860753Y-99847038D01*
X96860767Y-99847095D01*
X96853739Y-99848760D01*
X96781568Y-99875028D01*
X96708665Y-99899186D01*
X96708663Y-99899186D01*
X96708660Y-99899188D01*
X96702123Y-99902236D01*
X96702098Y-99902184D01*
X96695310Y-99905470D01*
X96695336Y-99905521D01*
X96688885Y-99908761D01*
X96624723Y-99950961D01*
X96559346Y-99991285D01*
X96553682Y-99995765D01*
X96553646Y-99995719D01*
X96547798Y-100000484D01*
X96547835Y-100000528D01*
X96542310Y-100005164D01*
X96489614Y-100061017D01*
X95605228Y-100945402D01*
X95543905Y-100978887D01*
X95543329Y-100979011D01*
X95478196Y-100992856D01*
X95478192Y-100992857D01*
X95305270Y-101069848D01*
X95305265Y-101069851D01*
X95152129Y-101181111D01*
X95025466Y-101321785D01*
X94930821Y-101485715D01*
X94930818Y-101485722D01*
X94889951Y-101611500D01*
X94872326Y-101665744D01*
X94852540Y-101854000D01*
X94872326Y-102042256D01*
X94872327Y-102042259D01*
X94930818Y-102222277D01*
X94930821Y-102222284D01*
X95025467Y-102386216D01*
X95131489Y-102503965D01*
X95152129Y-102526888D01*
X95305265Y-102638148D01*
X95305270Y-102638151D01*
X95478191Y-102715142D01*
X95478193Y-102715142D01*
X95478197Y-102715144D01*
X95543329Y-102728987D01*
X95604809Y-102762178D01*
X95605228Y-102762596D01*
X97511181Y-104668548D01*
X97544666Y-104729871D01*
X97547500Y-104756229D01*
X97547500Y-105637677D01*
X97530887Y-105699677D01*
X97470821Y-105803714D01*
X97412327Y-105983740D01*
X97412326Y-105983744D01*
X97392540Y-106172000D01*
X97412326Y-106360256D01*
X97412327Y-106360259D01*
X97470818Y-106540277D01*
X97470821Y-106540284D01*
X97503939Y-106597646D01*
X97520412Y-106665547D01*
X97497559Y-106731573D01*
X97469440Y-106759962D01*
X97438130Y-106782710D01*
X97438123Y-106782716D01*
X97311466Y-106923385D01*
X97216821Y-107087315D01*
X97216818Y-107087322D01*
X97158327Y-107267340D01*
X97158326Y-107267344D01*
X97138540Y-107455600D01*
X97158326Y-107643856D01*
X97158327Y-107643859D01*
X97216818Y-107823877D01*
X97216821Y-107823884D01*
X97311467Y-107987816D01*
X97404478Y-108091115D01*
X97438129Y-108128488D01*
X97591265Y-108239748D01*
X97591270Y-108239751D01*
X97764192Y-108316742D01*
X97764197Y-108316744D01*
X97949354Y-108356100D01*
X97949355Y-108356100D01*
X98138644Y-108356100D01*
X98138646Y-108356100D01*
X98323803Y-108316744D01*
X98496730Y-108239751D01*
X98649871Y-108128488D01*
X98652788Y-108125247D01*
X98655600Y-108122126D01*
X98715087Y-108085479D01*
X98747748Y-108081100D01*
X102083092Y-108081100D01*
X102150131Y-108100785D01*
X102195886Y-108153589D01*
X102201023Y-108166782D01*
X102252618Y-108325578D01*
X102252621Y-108325584D01*
X102347267Y-108489516D01*
X102473929Y-108630188D01*
X102550546Y-108685853D01*
X102584900Y-108710813D01*
X102627565Y-108766143D01*
X102633544Y-108835757D01*
X102600938Y-108897551D01*
X102599695Y-108898812D01*
X102206108Y-109292399D01*
X102193851Y-109302220D01*
X102194034Y-109302441D01*
X102188023Y-109307413D01*
X102140672Y-109357836D01*
X102119789Y-109378719D01*
X102119777Y-109378732D01*
X102115521Y-109384217D01*
X102111737Y-109388647D01*
X102079837Y-109422618D01*
X102079836Y-109422620D01*
X102070184Y-109440176D01*
X102059510Y-109456426D01*
X102047229Y-109472261D01*
X102047224Y-109472268D01*
X102028715Y-109515038D01*
X102026145Y-109520284D01*
X102003703Y-109561106D01*
X101998722Y-109580507D01*
X101992421Y-109598910D01*
X101984462Y-109617302D01*
X101984461Y-109617305D01*
X101977171Y-109663327D01*
X101975987Y-109669046D01*
X101964401Y-109714172D01*
X101964400Y-109714182D01*
X101964400Y-109734216D01*
X101962873Y-109753615D01*
X101959740Y-109773394D01*
X101959740Y-109773395D01*
X101964125Y-109819783D01*
X101964400Y-109825621D01*
X101964400Y-111316112D01*
X101944715Y-111383151D01*
X101932550Y-111399084D01*
X101857366Y-111482584D01*
X101762721Y-111646515D01*
X101762718Y-111646522D01*
X101709564Y-111810114D01*
X101704226Y-111826544D01*
X101684440Y-112014800D01*
X101704226Y-112203056D01*
X101704227Y-112203059D01*
X101762718Y-112383077D01*
X101762721Y-112383084D01*
X101857367Y-112547016D01*
X101894039Y-112587744D01*
X101984029Y-112687688D01*
X102137165Y-112798948D01*
X102137170Y-112798951D01*
X102310092Y-112875942D01*
X102310097Y-112875944D01*
X102495254Y-112915300D01*
X102495255Y-112915300D01*
X102684544Y-112915300D01*
X102684546Y-112915300D01*
X102869703Y-112875944D01*
X103042630Y-112798951D01*
X103195771Y-112687688D01*
X103322433Y-112547016D01*
X103417079Y-112383084D01*
X103475574Y-112203056D01*
X103495360Y-112014800D01*
X103475574Y-111826544D01*
X103420595Y-111657337D01*
X103417081Y-111646522D01*
X103417080Y-111646521D01*
X103417079Y-111646516D01*
X103322433Y-111482584D01*
X103281262Y-111436859D01*
X103247250Y-111399084D01*
X103217020Y-111336092D01*
X103215400Y-111316112D01*
X103215400Y-111044202D01*
X103235085Y-110977163D01*
X103287889Y-110931408D01*
X103357047Y-110921464D01*
X103365173Y-110922910D01*
X103406054Y-110931600D01*
X103406055Y-110931600D01*
X103595344Y-110931600D01*
X103595346Y-110931600D01*
X103780503Y-110892244D01*
X103953430Y-110815251D01*
X104106571Y-110703988D01*
X104233233Y-110563316D01*
X104253073Y-110528950D01*
X104303640Y-110480735D01*
X104372247Y-110467511D01*
X104386240Y-110469659D01*
X104472054Y-110487900D01*
X104472055Y-110487900D01*
X104661344Y-110487900D01*
X104661346Y-110487900D01*
X104846503Y-110448544D01*
X105019430Y-110371551D01*
X105172571Y-110260288D01*
X105175488Y-110257047D01*
X105178300Y-110253926D01*
X105237787Y-110217279D01*
X105270448Y-110212900D01*
X107073048Y-110212900D01*
X107140087Y-110232585D01*
X107160729Y-110249219D01*
X111608938Y-114697428D01*
X111642423Y-114758751D01*
X111644578Y-114772147D01*
X111652039Y-114843138D01*
X111662226Y-114940056D01*
X111662227Y-114940059D01*
X111720718Y-115120077D01*
X111720721Y-115120084D01*
X111815367Y-115284016D01*
X111910517Y-115389690D01*
X111942029Y-115424688D01*
X112095165Y-115535948D01*
X112095170Y-115535951D01*
X112268092Y-115612942D01*
X112268097Y-115612944D01*
X112453254Y-115652300D01*
X112453255Y-115652300D01*
X112642544Y-115652300D01*
X112642546Y-115652300D01*
X112827703Y-115612944D01*
X113000630Y-115535951D01*
X113153771Y-115424688D01*
X113280433Y-115284016D01*
X113375079Y-115120084D01*
X113433574Y-114940056D01*
X113453360Y-114751800D01*
X113433574Y-114563544D01*
X113375079Y-114383516D01*
X113280433Y-114219584D01*
X113153771Y-114078912D01*
X113153770Y-114078911D01*
X113000634Y-113967651D01*
X113000629Y-113967648D01*
X112827707Y-113890657D01*
X112827702Y-113890655D01*
X112681901Y-113859665D01*
X112642546Y-113851300D01*
X112642545Y-113851300D01*
X112583353Y-113851300D01*
X112516314Y-113831615D01*
X112495672Y-113814981D01*
X108254172Y-109573481D01*
X108220687Y-109512158D01*
X108225671Y-109442466D01*
X108267543Y-109386533D01*
X108333007Y-109362116D01*
X108341853Y-109361800D01*
X111494485Y-109361800D01*
X111561524Y-109381485D01*
X111607279Y-109434289D01*
X111617804Y-109472834D01*
X111636326Y-109649056D01*
X111636327Y-109649059D01*
X111694818Y-109829077D01*
X111694821Y-109829084D01*
X111789467Y-109993016D01*
X111882444Y-110096277D01*
X111916129Y-110133688D01*
X112069265Y-110244948D01*
X112069270Y-110244951D01*
X112242192Y-110321942D01*
X112242197Y-110321944D01*
X112427354Y-110361300D01*
X112427355Y-110361300D01*
X112616644Y-110361300D01*
X112616646Y-110361300D01*
X112801803Y-110321944D01*
X112974730Y-110244951D01*
X113127871Y-110133688D01*
X113130788Y-110130447D01*
X113133600Y-110127326D01*
X113193087Y-110090679D01*
X113225748Y-110086300D01*
X123882457Y-110086300D01*
X123898077Y-110088024D01*
X123898104Y-110087739D01*
X123905860Y-110088471D01*
X123905867Y-110088473D01*
X123975014Y-110086300D01*
X124004550Y-110086300D01*
X124011428Y-110085430D01*
X124017241Y-110084972D01*
X124063827Y-110083509D01*
X124083069Y-110077917D01*
X124102112Y-110073974D01*
X124121992Y-110071464D01*
X124165322Y-110054307D01*
X124170846Y-110052417D01*
X124177124Y-110050593D01*
X124215590Y-110039418D01*
X124232829Y-110029222D01*
X124250303Y-110020662D01*
X124268927Y-110013288D01*
X124268927Y-110013287D01*
X124268932Y-110013286D01*
X124306649Y-109985882D01*
X124311505Y-109982692D01*
X124351620Y-109958970D01*
X124365789Y-109944799D01*
X124380579Y-109932168D01*
X124396787Y-109920394D01*
X124426499Y-109884476D01*
X124430412Y-109880176D01*
X124617703Y-109692885D01*
X124679024Y-109659402D01*
X124748716Y-109664386D01*
X124804649Y-109706258D01*
X124828702Y-109767604D01*
X124844326Y-109916256D01*
X124844327Y-109916259D01*
X124902818Y-110096277D01*
X124902821Y-110096284D01*
X124950989Y-110179714D01*
X124962887Y-110200321D01*
X124979500Y-110262321D01*
X124979500Y-110889770D01*
X124959815Y-110956809D01*
X124943181Y-110977451D01*
X124053229Y-111867402D01*
X123991906Y-111900887D01*
X123991330Y-111901011D01*
X123926196Y-111914856D01*
X123926192Y-111914857D01*
X123753270Y-111991848D01*
X123753265Y-111991851D01*
X123600129Y-112103111D01*
X123473466Y-112243785D01*
X123378821Y-112407715D01*
X123378818Y-112407722D01*
X123371823Y-112429252D01*
X123320326Y-112587744D01*
X123300540Y-112776000D01*
X123320326Y-112964256D01*
X123320327Y-112964259D01*
X123378818Y-113144277D01*
X123378821Y-113144284D01*
X123473467Y-113308216D01*
X123542196Y-113384547D01*
X123600129Y-113448888D01*
X123753265Y-113560148D01*
X123753270Y-113560151D01*
X123926192Y-113637142D01*
X123926197Y-113637144D01*
X124111354Y-113676500D01*
X124111355Y-113676500D01*
X124300644Y-113676500D01*
X124300646Y-113676500D01*
X124485803Y-113637144D01*
X124658730Y-113560151D01*
X124811871Y-113448888D01*
X124938533Y-113308216D01*
X125033179Y-113144284D01*
X125088522Y-112973955D01*
X125118769Y-112924597D01*
X126215638Y-111827727D01*
X126229267Y-111815950D01*
X126248530Y-111801610D01*
X126248532Y-111801606D01*
X126248534Y-111801606D01*
X126266663Y-111779999D01*
X126282113Y-111761585D01*
X126285767Y-111757599D01*
X126291590Y-111751777D01*
X126311923Y-111726060D01*
X126361302Y-111667214D01*
X126361309Y-111667198D01*
X126365272Y-111661176D01*
X126365324Y-111661210D01*
X126369371Y-111654858D01*
X126369317Y-111654825D01*
X126373104Y-111648684D01*
X126373110Y-111648677D01*
X126390633Y-111611098D01*
X126405561Y-111579086D01*
X126440036Y-111510440D01*
X126440040Y-111510433D01*
X126440042Y-111510421D01*
X126442510Y-111503644D01*
X126442568Y-111503665D01*
X126445043Y-111496546D01*
X126444985Y-111496527D01*
X126447256Y-111489672D01*
X126448720Y-111482584D01*
X126462784Y-111414467D01*
X126480500Y-111339721D01*
X126480500Y-111339720D01*
X126481339Y-111332548D01*
X126481397Y-111332554D01*
X126482164Y-111325056D01*
X126482104Y-111325051D01*
X126482733Y-111317860D01*
X126480500Y-111241103D01*
X126480500Y-110262321D01*
X126497113Y-110200321D01*
X126557179Y-110096284D01*
X126615674Y-109916256D01*
X126628978Y-109789675D01*
X132906148Y-109789675D01*
X132916148Y-110050593D01*
X132965862Y-110306928D01*
X132965862Y-110306930D01*
X133054118Y-110552663D01*
X133178861Y-110782060D01*
X133337146Y-110989711D01*
X133337150Y-110989716D01*
X133525286Y-111170778D01*
X133525291Y-111170781D01*
X133525295Y-111170785D01*
X133738841Y-111320989D01*
X133738845Y-111320991D01*
X133738856Y-111320999D01*
X133896561Y-111399084D01*
X133972855Y-111436860D01*
X134055833Y-111463119D01*
X134221795Y-111515641D01*
X134479845Y-111555500D01*
X134479849Y-111555500D01*
X134675577Y-111555500D01*
X134870744Y-111540516D01*
X135124986Y-111481021D01*
X135170345Y-111462739D01*
X135367158Y-111383418D01*
X135367163Y-111383415D01*
X135367166Y-111383414D01*
X135591608Y-111249982D01*
X135793052Y-111083852D01*
X135963813Y-110892244D01*
X135966768Y-110888928D01*
X135966768Y-110888926D01*
X135966775Y-110888920D01*
X136014483Y-110815251D01*
X136030721Y-110790177D01*
X141759900Y-110790177D01*
X141774884Y-110985342D01*
X141774884Y-110985347D01*
X141834378Y-111239583D01*
X141834381Y-111239593D01*
X141931981Y-111481758D01*
X141931986Y-111481767D01*
X142033228Y-111652063D01*
X142065418Y-111706208D01*
X142231548Y-111907652D01*
X142231550Y-111907654D01*
X142426471Y-112081368D01*
X142426488Y-112081381D01*
X142645642Y-112223304D01*
X142645645Y-112223304D01*
X142645647Y-112223306D01*
X142883911Y-112330118D01*
X143135687Y-112399307D01*
X143395075Y-112429252D01*
X143655993Y-112419251D01*
X143912327Y-112369538D01*
X143912330Y-112369537D01*
X144158063Y-112281281D01*
X144158064Y-112281280D01*
X144158068Y-112281279D01*
X144387457Y-112156541D01*
X144595116Y-111998250D01*
X144776178Y-111810114D01*
X144926399Y-111596544D01*
X145042259Y-111362547D01*
X145121041Y-111113605D01*
X145160900Y-110855555D01*
X145160900Y-108919823D01*
X145145916Y-108724656D01*
X145086421Y-108470414D01*
X145082231Y-108460017D01*
X144988818Y-108228241D01*
X144988813Y-108228232D01*
X144897407Y-108074481D01*
X144855382Y-108003792D01*
X144689252Y-107802348D01*
X144689249Y-107802345D01*
X144494328Y-107628631D01*
X144494311Y-107628618D01*
X144275157Y-107486695D01*
X144275153Y-107486694D01*
X144036888Y-107379881D01*
X143785114Y-107310693D01*
X143612346Y-107290748D01*
X143525725Y-107280748D01*
X143525724Y-107280748D01*
X143264806Y-107290748D01*
X143008471Y-107340462D01*
X143008469Y-107340462D01*
X142762736Y-107428718D01*
X142533339Y-107553461D01*
X142325688Y-107711746D01*
X142325684Y-107711749D01*
X142325684Y-107711750D01*
X142238493Y-107802348D01*
X142144623Y-107899885D01*
X142144614Y-107899895D01*
X141994410Y-108113441D01*
X141994399Y-108113460D01*
X141878539Y-108347455D01*
X141817852Y-108539222D01*
X141799759Y-108596395D01*
X141759900Y-108854445D01*
X141759900Y-108854449D01*
X141759900Y-110790177D01*
X136030721Y-110790177D01*
X136108704Y-110669757D01*
X136108704Y-110669755D01*
X136108706Y-110669753D01*
X136215518Y-110431489D01*
X136284707Y-110179713D01*
X136314652Y-109920325D01*
X136304651Y-109659407D01*
X136254938Y-109403073D01*
X136246195Y-109378729D01*
X136166681Y-109157336D01*
X136111093Y-109055112D01*
X136041941Y-108927943D01*
X136019735Y-108898812D01*
X135883653Y-108720288D01*
X135883650Y-108720284D01*
X135695514Y-108539222D01*
X135695508Y-108539218D01*
X135695504Y-108539214D01*
X135481958Y-108389010D01*
X135481951Y-108389006D01*
X135481944Y-108389001D01*
X135336006Y-108316742D01*
X135247944Y-108273139D01*
X134999008Y-108194360D01*
X134999005Y-108194359D01*
X134740955Y-108154500D01*
X134545223Y-108154500D01*
X134350056Y-108169484D01*
X134350052Y-108169484D01*
X134095816Y-108228978D01*
X134095806Y-108228981D01*
X133853641Y-108326581D01*
X133853632Y-108326586D01*
X133629193Y-108460017D01*
X133427745Y-108626150D01*
X133254031Y-108821071D01*
X133254018Y-108821088D01*
X133112095Y-109040242D01*
X133112094Y-109040246D01*
X133005281Y-109278511D01*
X132936093Y-109530285D01*
X132906148Y-109789675D01*
X126628978Y-109789675D01*
X126635460Y-109728000D01*
X126615674Y-109539744D01*
X126557179Y-109359716D01*
X126462533Y-109195784D01*
X126335871Y-109055112D01*
X126315410Y-109040246D01*
X126182734Y-108943851D01*
X126182729Y-108943848D01*
X126009807Y-108866857D01*
X126009802Y-108866855D01*
X125863492Y-108835757D01*
X125824646Y-108827500D01*
X125782451Y-108827500D01*
X125715412Y-108807815D01*
X125669657Y-108755011D01*
X125659713Y-108685853D01*
X125688738Y-108622297D01*
X125694770Y-108615819D01*
X126116230Y-108194360D01*
X128061172Y-106249419D01*
X128122495Y-106215934D01*
X128148853Y-106213100D01*
X128459453Y-106213100D01*
X128475073Y-106214824D01*
X128475100Y-106214539D01*
X128482856Y-106215271D01*
X128482863Y-106215273D01*
X128552010Y-106213100D01*
X128581546Y-106213100D01*
X128588424Y-106212230D01*
X128594237Y-106211772D01*
X128640823Y-106210309D01*
X128660065Y-106204717D01*
X128679108Y-106200774D01*
X128698988Y-106198264D01*
X128742318Y-106181107D01*
X128747842Y-106179217D01*
X128751592Y-106178127D01*
X128792586Y-106166218D01*
X128809825Y-106156022D01*
X128827299Y-106147462D01*
X128845923Y-106140088D01*
X128845923Y-106140087D01*
X128845928Y-106140086D01*
X128883645Y-106112682D01*
X128888501Y-106109492D01*
X128928616Y-106085770D01*
X128942785Y-106071599D01*
X128957575Y-106058968D01*
X128973783Y-106047194D01*
X129003495Y-106011276D01*
X129007408Y-106006976D01*
X136181246Y-98833138D01*
X136242567Y-98799655D01*
X136312259Y-98804639D01*
X136368192Y-98846511D01*
X136392245Y-98907857D01*
X136401326Y-98994256D01*
X136401327Y-98994259D01*
X136459818Y-99174277D01*
X136459821Y-99174284D01*
X136554467Y-99338216D01*
X136635559Y-99428277D01*
X136681129Y-99478888D01*
X136834265Y-99590148D01*
X136834270Y-99590151D01*
X137007192Y-99667142D01*
X137007197Y-99667144D01*
X137192354Y-99706500D01*
X137192355Y-99706500D01*
X137381644Y-99706500D01*
X137381646Y-99706500D01*
X137566803Y-99667144D01*
X137739730Y-99590151D01*
X137749318Y-99583185D01*
X137753452Y-99580182D01*
X137819258Y-99556702D01*
X137826337Y-99556500D01*
X140938212Y-99556500D01*
X141005251Y-99576185D01*
X141051006Y-99628989D01*
X141060950Y-99698147D01*
X141031925Y-99761703D01*
X141030420Y-99763406D01*
X141005842Y-99790702D01*
X140999464Y-99797787D01*
X140904821Y-99961715D01*
X140904818Y-99961722D01*
X140854796Y-100115675D01*
X140846326Y-100141744D01*
X140826540Y-100330000D01*
X140846326Y-100518256D01*
X140846327Y-100518259D01*
X140904818Y-100698277D01*
X140904821Y-100698284D01*
X140947530Y-100772259D01*
X140964887Y-100802321D01*
X140981500Y-100864321D01*
X140981500Y-105043500D01*
X140961815Y-105110539D01*
X140909011Y-105156294D01*
X140857500Y-105167500D01*
X135961778Y-105167500D01*
X135894739Y-105147815D01*
X135874097Y-105131181D01*
X134099318Y-103356402D01*
X134069069Y-103307041D01*
X134013727Y-103136716D01*
X133919081Y-102972784D01*
X133792419Y-102832112D01*
X133786718Y-102827970D01*
X133639282Y-102720851D01*
X133639277Y-102720848D01*
X133466355Y-102643857D01*
X133466350Y-102643855D01*
X133320549Y-102612865D01*
X133281194Y-102604500D01*
X133091902Y-102604500D01*
X133059445Y-102611398D01*
X132906745Y-102643855D01*
X132906740Y-102643857D01*
X132733818Y-102720848D01*
X132733813Y-102720851D01*
X132580677Y-102832111D01*
X132454014Y-102972785D01*
X132359369Y-103136715D01*
X132359366Y-103136722D01*
X132300875Y-103316740D01*
X132300874Y-103316744D01*
X132281088Y-103505000D01*
X132300874Y-103693256D01*
X132300875Y-103693259D01*
X132359366Y-103873277D01*
X132359369Y-103873284D01*
X132454015Y-104037216D01*
X132553381Y-104147573D01*
X132580677Y-104177888D01*
X132733813Y-104289148D01*
X132733818Y-104289151D01*
X132906739Y-104366142D01*
X132906741Y-104366142D01*
X132906745Y-104366144D01*
X132971877Y-104379987D01*
X133033357Y-104413178D01*
X133033776Y-104413596D01*
X135023815Y-106403634D01*
X135035596Y-106417266D01*
X135049938Y-106436530D01*
X135089968Y-106470119D01*
X135093940Y-106473759D01*
X135099771Y-106479590D01*
X135099770Y-106479590D01*
X135125492Y-106499927D01*
X135184334Y-106549302D01*
X135184342Y-106549306D01*
X135190372Y-106553273D01*
X135190338Y-106553323D01*
X135196685Y-106557366D01*
X135196717Y-106557316D01*
X135202866Y-106561108D01*
X135202868Y-106561109D01*
X135202871Y-106561111D01*
X135272478Y-106593569D01*
X135341115Y-106628040D01*
X135341124Y-106628042D01*
X135347903Y-106630510D01*
X135347882Y-106630567D01*
X135354999Y-106633040D01*
X135355018Y-106632984D01*
X135361878Y-106635257D01*
X135437080Y-106650784D01*
X135511827Y-106668500D01*
X135511836Y-106668500D01*
X135519000Y-106669338D01*
X135518993Y-106669397D01*
X135526494Y-106670163D01*
X135526500Y-106670104D01*
X135533688Y-106670733D01*
X135533691Y-106670732D01*
X135533692Y-106670733D01*
X135610446Y-106668500D01*
X141192663Y-106668500D01*
X141259702Y-106688185D01*
X141265548Y-106692182D01*
X141279265Y-106702148D01*
X141279270Y-106702151D01*
X141452192Y-106779142D01*
X141452197Y-106779144D01*
X141637354Y-106818500D01*
X141637355Y-106818500D01*
X141826644Y-106818500D01*
X141826646Y-106818500D01*
X142011803Y-106779144D01*
X142184730Y-106702151D01*
X142337871Y-106590888D01*
X142464533Y-106450216D01*
X142559179Y-106286284D01*
X142617674Y-106106256D01*
X142637460Y-105918000D01*
X142617674Y-105729744D01*
X142559179Y-105549716D01*
X142529963Y-105499112D01*
X142499113Y-105445677D01*
X142482500Y-105383677D01*
X142482500Y-101204500D01*
X142502185Y-101137461D01*
X142554989Y-101091706D01*
X142606500Y-101080500D01*
X142938295Y-101080500D01*
X142956265Y-101081809D01*
X142980023Y-101085289D01*
X143032068Y-101080735D01*
X143037470Y-101080500D01*
X143045704Y-101080500D01*
X143045709Y-101080500D01*
X143057327Y-101079141D01*
X143078276Y-101076693D01*
X143091028Y-101075577D01*
X143154797Y-101069999D01*
X143154805Y-101069996D01*
X143161866Y-101068539D01*
X143161878Y-101068598D01*
X143169243Y-101066965D01*
X143169229Y-101066906D01*
X143176246Y-101065241D01*
X143176255Y-101065241D01*
X143248423Y-101038974D01*
X143321334Y-101014814D01*
X143321343Y-101014807D01*
X143327882Y-101011760D01*
X143327908Y-101011816D01*
X143334690Y-101008532D01*
X143334663Y-101008478D01*
X143341106Y-101005240D01*
X143341117Y-101005237D01*
X143405283Y-100963034D01*
X143470656Y-100922712D01*
X143470662Y-100922705D01*
X143476325Y-100918229D01*
X143476362Y-100918277D01*
X143482204Y-100913518D01*
X143482164Y-100913471D01*
X143487686Y-100908836D01*
X143487696Y-100908830D01*
X143509398Y-100885825D01*
X143540386Y-100852982D01*
X143981234Y-100412133D01*
X144424770Y-99968595D01*
X144486091Y-99935112D01*
X144486427Y-99935039D01*
X144551803Y-99921144D01*
X144724730Y-99844151D01*
X144877871Y-99732888D01*
X145004533Y-99592216D01*
X145099179Y-99428284D01*
X145157674Y-99248256D01*
X145177460Y-99060000D01*
X145157674Y-98871744D01*
X145099179Y-98691716D01*
X145004533Y-98527784D01*
X144877871Y-98387112D01*
X144877870Y-98387111D01*
X144724734Y-98275851D01*
X144724730Y-98275849D01*
X144710883Y-98269684D01*
X144657649Y-98224436D01*
X144637327Y-98157587D01*
X144656372Y-98090363D01*
X144673636Y-98068729D01*
X144884638Y-97857727D01*
X144898267Y-97845950D01*
X144898888Y-97845488D01*
X144917530Y-97831610D01*
X144917532Y-97831606D01*
X144917534Y-97831606D01*
X144936060Y-97809526D01*
X144951113Y-97791585D01*
X144954767Y-97787599D01*
X144960590Y-97781777D01*
X144980923Y-97756060D01*
X145030302Y-97697214D01*
X145030309Y-97697198D01*
X145034272Y-97691176D01*
X145034324Y-97691210D01*
X145038371Y-97684858D01*
X145038317Y-97684825D01*
X145042104Y-97678684D01*
X145042110Y-97678677D01*
X145069139Y-97620713D01*
X145074561Y-97609086D01*
X145105979Y-97546528D01*
X145109040Y-97540433D01*
X145109042Y-97540421D01*
X145111510Y-97533644D01*
X145111568Y-97533665D01*
X145114043Y-97526546D01*
X145113985Y-97526527D01*
X145116256Y-97519672D01*
X145131784Y-97444467D01*
X145143906Y-97393321D01*
X145149500Y-97369721D01*
X145149500Y-97369720D01*
X145150339Y-97362548D01*
X145150397Y-97362554D01*
X145151164Y-97355056D01*
X145151104Y-97355051D01*
X145151733Y-97347860D01*
X145149500Y-97271103D01*
X145149500Y-91072505D01*
X145150809Y-91054535D01*
X145151129Y-91052347D01*
X145154289Y-91030777D01*
X145154225Y-91030048D01*
X145150876Y-90991764D01*
X145149735Y-90978731D01*
X145149500Y-90973328D01*
X145149500Y-90965097D01*
X145149500Y-90965091D01*
X145145693Y-90932524D01*
X145138999Y-90856003D01*
X145138999Y-90856001D01*
X145137539Y-90848929D01*
X145137597Y-90848916D01*
X145135965Y-90841557D01*
X145135906Y-90841572D01*
X145134242Y-90834553D01*
X145134241Y-90834545D01*
X145107974Y-90762376D01*
X145083814Y-90689466D01*
X145083809Y-90689459D01*
X145080760Y-90682918D01*
X145080815Y-90682891D01*
X145077533Y-90676113D01*
X145077480Y-90676140D01*
X145074235Y-90669680D01*
X145032028Y-90605508D01*
X145002187Y-90557128D01*
X144991712Y-90540145D01*
X144991711Y-90540144D01*
X144991710Y-90540142D01*
X144987234Y-90534482D01*
X144987281Y-90534444D01*
X144982515Y-90528594D01*
X144982470Y-90528633D01*
X144977831Y-90523104D01*
X144944218Y-90491392D01*
X144921967Y-90470399D01*
X144830819Y-90379251D01*
X144797334Y-90317928D01*
X144794500Y-90291570D01*
X144794500Y-87880505D01*
X144814185Y-87813466D01*
X144866989Y-87767711D01*
X144930653Y-87757102D01*
X144994000Y-87763341D01*
X145190132Y-87744024D01*
X145378727Y-87686814D01*
X145424453Y-87662372D01*
X145492855Y-87648131D01*
X145558099Y-87673130D01*
G37*
%TD.AperFunction*%
%TA.AperFunction,Conductor*%
G36*
X124769524Y-105782785D02*
G01*
X124815279Y-105835589D01*
X124825804Y-105874134D01*
X124837325Y-105983740D01*
X124844326Y-106050356D01*
X124844327Y-106050359D01*
X124854228Y-106080830D01*
X124856223Y-106150671D01*
X124823978Y-106206829D01*
X122956328Y-108074481D01*
X122895005Y-108107966D01*
X122868647Y-108110800D01*
X106971252Y-108110800D01*
X106904213Y-108091115D01*
X106858458Y-108038311D01*
X106848514Y-107969153D01*
X106877539Y-107905597D01*
X106883571Y-107899119D01*
X108983272Y-105799419D01*
X109044595Y-105765934D01*
X109070953Y-105763100D01*
X124702485Y-105763100D01*
X124769524Y-105782785D01*
G37*
%TD.AperFunction*%
%TA.AperFunction,Conductor*%
G36*
X125722542Y-93808485D02*
G01*
X125743179Y-93825114D01*
X125822650Y-93904585D01*
X125895570Y-93977505D01*
X126084477Y-94109779D01*
X126084479Y-94109780D01*
X126084482Y-94109782D01*
X126109865Y-94121618D01*
X126162304Y-94167790D01*
X126181456Y-94234984D01*
X126161240Y-94301865D01*
X126109866Y-94346381D01*
X126084489Y-94358214D01*
X126084482Y-94358218D01*
X125895566Y-94490497D01*
X125732497Y-94653566D01*
X125600218Y-94842482D01*
X125600217Y-94842484D01*
X125502755Y-95051493D01*
X125502751Y-95051502D01*
X125443066Y-95274251D01*
X125443064Y-95274262D01*
X125422965Y-95503998D01*
X125422965Y-95504001D01*
X125443064Y-95733737D01*
X125443066Y-95733748D01*
X125502751Y-95956497D01*
X125502753Y-95956501D01*
X125502754Y-95956505D01*
X125577782Y-96117403D01*
X125600218Y-96165518D01*
X125600220Y-96165522D01*
X125732496Y-96354432D01*
X125895567Y-96517503D01*
X126084477Y-96649779D01*
X126084479Y-96649780D01*
X126084482Y-96649782D01*
X126293495Y-96747246D01*
X126516257Y-96806935D01*
X126680359Y-96821292D01*
X126745998Y-96827035D01*
X126746000Y-96827035D01*
X126746001Y-96827035D01*
X126781468Y-96823931D01*
X126929014Y-96811023D01*
X126997513Y-96824789D01*
X127027502Y-96846870D01*
X127694267Y-97513634D01*
X127706048Y-97527266D01*
X127709250Y-97531567D01*
X127720390Y-97546530D01*
X127760420Y-97580119D01*
X127764392Y-97583759D01*
X127770223Y-97589590D01*
X127795939Y-97609923D01*
X127854786Y-97659302D01*
X127854788Y-97659303D01*
X127860823Y-97663272D01*
X127860789Y-97663322D01*
X127867144Y-97667370D01*
X127867177Y-97667318D01*
X127873319Y-97671107D01*
X127873323Y-97671110D01*
X127927122Y-97696197D01*
X127942914Y-97703561D01*
X128011558Y-97738036D01*
X128011561Y-97738037D01*
X128011567Y-97738040D01*
X128011572Y-97738041D01*
X128018355Y-97740510D01*
X128018334Y-97740567D01*
X128025451Y-97743040D01*
X128025470Y-97742984D01*
X128032330Y-97745257D01*
X128107532Y-97760784D01*
X128182279Y-97778500D01*
X128182288Y-97778500D01*
X128189452Y-97779338D01*
X128189445Y-97779397D01*
X128196946Y-97780163D01*
X128196952Y-97780104D01*
X128204140Y-97780733D01*
X128204143Y-97780732D01*
X128204144Y-97780733D01*
X128280898Y-97778500D01*
X131032663Y-97778500D01*
X131099702Y-97798185D01*
X131105548Y-97802182D01*
X131119265Y-97812148D01*
X131119270Y-97812151D01*
X131292192Y-97889142D01*
X131292197Y-97889144D01*
X131477354Y-97928500D01*
X131477355Y-97928500D01*
X131666644Y-97928500D01*
X131666646Y-97928500D01*
X131851803Y-97889144D01*
X132024730Y-97812151D01*
X132028343Y-97809526D01*
X132038452Y-97802182D01*
X132104258Y-97778702D01*
X132111337Y-97778500D01*
X132273918Y-97778500D01*
X132291888Y-97779809D01*
X132315646Y-97783289D01*
X132367691Y-97778735D01*
X132373093Y-97778500D01*
X132381327Y-97778500D01*
X132381332Y-97778500D01*
X132394052Y-97777013D01*
X132413899Y-97774693D01*
X132426651Y-97773577D01*
X132490420Y-97767999D01*
X132490428Y-97767996D01*
X132497489Y-97766539D01*
X132497501Y-97766598D01*
X132504866Y-97764965D01*
X132504852Y-97764906D01*
X132511869Y-97763241D01*
X132511878Y-97763241D01*
X132584046Y-97736974D01*
X132656957Y-97712814D01*
X132656966Y-97712807D01*
X132663505Y-97709760D01*
X132663531Y-97709816D01*
X132670313Y-97706532D01*
X132670286Y-97706478D01*
X132676729Y-97703240D01*
X132676740Y-97703237D01*
X132740906Y-97661034D01*
X132806279Y-97620712D01*
X132806285Y-97620705D01*
X132811948Y-97616229D01*
X132811985Y-97616277D01*
X132817827Y-97611518D01*
X132817787Y-97611471D01*
X132823309Y-97606836D01*
X132823319Y-97606830D01*
X132854766Y-97573498D01*
X132876010Y-97550981D01*
X133225995Y-97200993D01*
X133579141Y-96847847D01*
X133592760Y-96836077D01*
X133612030Y-96821733D01*
X133645623Y-96781697D01*
X133649257Y-96777731D01*
X133655091Y-96771899D01*
X133675430Y-96746175D01*
X133680905Y-96739649D01*
X133739071Y-96700945D01*
X133808931Y-96699831D01*
X133828304Y-96706968D01*
X133913670Y-96746775D01*
X133913674Y-96746777D01*
X134136339Y-96806439D01*
X134136350Y-96806441D01*
X134371393Y-96827005D01*
X134371243Y-96828714D01*
X134430852Y-96846218D01*
X134476607Y-96899022D01*
X134486551Y-96968180D01*
X134457526Y-97031736D01*
X134451494Y-97038214D01*
X130026452Y-101463256D01*
X129965129Y-101496741D01*
X129895437Y-101491757D01*
X129839504Y-101449885D01*
X129831393Y-101437589D01*
X129764533Y-101321784D01*
X129637871Y-101181112D01*
X129605708Y-101157744D01*
X129484734Y-101069851D01*
X129484729Y-101069848D01*
X129311807Y-100992857D01*
X129311802Y-100992855D01*
X129166001Y-100961865D01*
X129126646Y-100953500D01*
X128937354Y-100953500D01*
X128904897Y-100960398D01*
X128752197Y-100992855D01*
X128752192Y-100992857D01*
X128579270Y-101069848D01*
X128579265Y-101069851D01*
X128565548Y-101079818D01*
X128499742Y-101103298D01*
X128492663Y-101103500D01*
X126015337Y-101103500D01*
X125948298Y-101083815D01*
X125942452Y-101079818D01*
X125928734Y-101069851D01*
X125928729Y-101069848D01*
X125755807Y-100992857D01*
X125755802Y-100992855D01*
X125610001Y-100961865D01*
X125570646Y-100953500D01*
X125381354Y-100953500D01*
X125348897Y-100960398D01*
X125196197Y-100992855D01*
X125196192Y-100992857D01*
X125023270Y-101069848D01*
X125023265Y-101069851D01*
X124870129Y-101181111D01*
X124743466Y-101321785D01*
X124648821Y-101485715D01*
X124648818Y-101485722D01*
X124607951Y-101611500D01*
X124590326Y-101665744D01*
X124570540Y-101854000D01*
X124590326Y-102042256D01*
X124590327Y-102042259D01*
X124648818Y-102222277D01*
X124648821Y-102222284D01*
X124743467Y-102386216D01*
X124849489Y-102503965D01*
X124870129Y-102526888D01*
X125023265Y-102638148D01*
X125023270Y-102638151D01*
X125196192Y-102715142D01*
X125196197Y-102715144D01*
X125381354Y-102754500D01*
X125381355Y-102754500D01*
X125570644Y-102754500D01*
X125570646Y-102754500D01*
X125755803Y-102715144D01*
X125928730Y-102638151D01*
X125930776Y-102636664D01*
X125942452Y-102628182D01*
X126008258Y-102604702D01*
X126015337Y-102604500D01*
X128492663Y-102604500D01*
X128559702Y-102624185D01*
X128565548Y-102628182D01*
X128579264Y-102638147D01*
X128579270Y-102638151D01*
X128602854Y-102648651D01*
X128656088Y-102693897D01*
X128676411Y-102760746D01*
X128657367Y-102827970D01*
X128640098Y-102849610D01*
X128011528Y-103478181D01*
X127950205Y-103511666D01*
X127923847Y-103514500D01*
X108706553Y-103514500D01*
X108639514Y-103494815D01*
X108593759Y-103442011D01*
X108583815Y-103372853D01*
X108612840Y-103309297D01*
X108618872Y-103302819D01*
X109776072Y-102145619D01*
X109837395Y-102112134D01*
X109863753Y-102109300D01*
X112794857Y-102109300D01*
X112810477Y-102111024D01*
X112810504Y-102110739D01*
X112818260Y-102111471D01*
X112818267Y-102111473D01*
X112887414Y-102109300D01*
X112916950Y-102109300D01*
X112923828Y-102108430D01*
X112929641Y-102107972D01*
X112976227Y-102106509D01*
X112995469Y-102100917D01*
X113014512Y-102096974D01*
X113034392Y-102094464D01*
X113077722Y-102077307D01*
X113083246Y-102075417D01*
X113086996Y-102074327D01*
X113127990Y-102062418D01*
X113145229Y-102052222D01*
X113162703Y-102043662D01*
X113181327Y-102036288D01*
X113181327Y-102036287D01*
X113181332Y-102036286D01*
X113219049Y-102008882D01*
X113223905Y-102005692D01*
X113264020Y-101981970D01*
X113278189Y-101967799D01*
X113292979Y-101955168D01*
X113309187Y-101943394D01*
X113338899Y-101907476D01*
X113342812Y-101903176D01*
X113899988Y-101346000D01*
X117966540Y-101346000D01*
X117986326Y-101534256D01*
X117986327Y-101534259D01*
X118044818Y-101714277D01*
X118044821Y-101714284D01*
X118139467Y-101878216D01*
X118254244Y-102005688D01*
X118266129Y-102018888D01*
X118419265Y-102130148D01*
X118419270Y-102130151D01*
X118592191Y-102207142D01*
X118592193Y-102207142D01*
X118592197Y-102207144D01*
X118657329Y-102220987D01*
X118718809Y-102254178D01*
X118719228Y-102254596D01*
X119312270Y-102847638D01*
X119324051Y-102861270D01*
X119338388Y-102880528D01*
X119378409Y-102914111D01*
X119382397Y-102917766D01*
X119388216Y-102923585D01*
X119388220Y-102923588D01*
X119388223Y-102923591D01*
X119413959Y-102943940D01*
X119472786Y-102993302D01*
X119472787Y-102993302D01*
X119472789Y-102993304D01*
X119478818Y-102997270D01*
X119478785Y-102997319D01*
X119485147Y-103001372D01*
X119485179Y-103001321D01*
X119491319Y-103005108D01*
X119491323Y-103005111D01*
X119526132Y-103021343D01*
X119560941Y-103037575D01*
X119629565Y-103072039D01*
X119629567Y-103072040D01*
X119629569Y-103072040D01*
X119636357Y-103074511D01*
X119636336Y-103074567D01*
X119643457Y-103077043D01*
X119643476Y-103076986D01*
X119650322Y-103079254D01*
X119650327Y-103079257D01*
X119650332Y-103079258D01*
X119650335Y-103079259D01*
X119725565Y-103094792D01*
X119800279Y-103112500D01*
X119800282Y-103112500D01*
X119800286Y-103112501D01*
X119807453Y-103113339D01*
X119807446Y-103113398D01*
X119814944Y-103114164D01*
X119814950Y-103114105D01*
X119822139Y-103114734D01*
X119822143Y-103114733D01*
X119822144Y-103114734D01*
X119898917Y-103112500D01*
X120618663Y-103112500D01*
X120685702Y-103132185D01*
X120691548Y-103136182D01*
X120705265Y-103146148D01*
X120705270Y-103146151D01*
X120878192Y-103223142D01*
X120878197Y-103223144D01*
X121063354Y-103262500D01*
X121063355Y-103262500D01*
X121252644Y-103262500D01*
X121252646Y-103262500D01*
X121437803Y-103223144D01*
X121610730Y-103146151D01*
X121763871Y-103034888D01*
X121890533Y-102894216D01*
X121985179Y-102730284D01*
X122043674Y-102550256D01*
X122063460Y-102362000D01*
X122043674Y-102173744D01*
X121985179Y-101993716D01*
X121890533Y-101829784D01*
X121763871Y-101689112D01*
X121731708Y-101665744D01*
X121610734Y-101577851D01*
X121610729Y-101577848D01*
X121437807Y-101500857D01*
X121437802Y-101500855D01*
X121260907Y-101463256D01*
X121252646Y-101461500D01*
X121063354Y-101461500D01*
X121055093Y-101463256D01*
X120878197Y-101500855D01*
X120878192Y-101500857D01*
X120705270Y-101577848D01*
X120705265Y-101577851D01*
X120691548Y-101587818D01*
X120625742Y-101611298D01*
X120618663Y-101611500D01*
X120250230Y-101611500D01*
X120183191Y-101591815D01*
X120162549Y-101575181D01*
X119784770Y-101197402D01*
X119754521Y-101148041D01*
X119704099Y-100992857D01*
X119699181Y-100977721D01*
X119699178Y-100977715D01*
X119690702Y-100963034D01*
X119604533Y-100813784D01*
X119477871Y-100673112D01*
X119477870Y-100673111D01*
X119324734Y-100561851D01*
X119324729Y-100561848D01*
X119151807Y-100484857D01*
X119151802Y-100484855D01*
X119006001Y-100453865D01*
X118966646Y-100445500D01*
X118777354Y-100445500D01*
X118744897Y-100452398D01*
X118592197Y-100484855D01*
X118592192Y-100484857D01*
X118419270Y-100561848D01*
X118419265Y-100561851D01*
X118266129Y-100673111D01*
X118139466Y-100813785D01*
X118044821Y-100977715D01*
X118044818Y-100977722D01*
X118003951Y-101103500D01*
X117986326Y-101157744D01*
X117966540Y-101346000D01*
X113899988Y-101346000D01*
X120418972Y-94827019D01*
X120480295Y-94793534D01*
X120506653Y-94790700D01*
X120565844Y-94790700D01*
X120565846Y-94790700D01*
X120751003Y-94751344D01*
X120923930Y-94674351D01*
X121077071Y-94563088D01*
X121203733Y-94422416D01*
X121298379Y-94258484D01*
X121356874Y-94078456D01*
X121375647Y-93899837D01*
X121402232Y-93835224D01*
X121459529Y-93795239D01*
X121498968Y-93788800D01*
X125655503Y-93788800D01*
X125722542Y-93808485D01*
G37*
%TD.AperFunction*%
%TA.AperFunction,Conductor*%
G36*
X100964905Y-95659545D02*
G01*
X101006211Y-95721364D01*
X100987447Y-95702600D01*
X100953962Y-95641277D01*
X100951725Y-95602770D01*
X100952350Y-95596428D01*
X100964905Y-95659545D01*
G37*
%TD.AperFunction*%
%TA.AperFunction,Conductor*%
G36*
X100964905Y-95464455D02*
G01*
X100952350Y-95527571D01*
X100951725Y-95521231D01*
X100964743Y-95452589D01*
X100987447Y-95421397D01*
X101006216Y-95402627D01*
X100964905Y-95464455D01*
G37*
%TD.AperFunction*%
%TA.AperFunction,Conductor*%
G36*
X119287734Y-80805366D02*
G01*
X119343668Y-80847237D01*
X119363332Y-80897562D01*
X119365802Y-80897034D01*
X119367217Y-80903648D01*
X119421446Y-81067300D01*
X119421451Y-81067311D01*
X119511952Y-81214034D01*
X119511955Y-81214038D01*
X119633861Y-81335944D01*
X119633865Y-81335947D01*
X119786744Y-81430245D01*
X119785981Y-81431481D01*
X119832341Y-81472293D01*
X119851499Y-81539485D01*
X119831290Y-81606368D01*
X119792600Y-81644051D01*
X119657053Y-81727657D01*
X119657049Y-81727660D01*
X119535061Y-81849648D01*
X119444493Y-81996481D01*
X119444491Y-81996486D01*
X119433098Y-82030869D01*
X119390226Y-82160247D01*
X119390226Y-82160248D01*
X119390225Y-82160248D01*
X119379900Y-82261315D01*
X119379900Y-82356500D01*
X119360215Y-82423539D01*
X119307411Y-82469294D01*
X119255900Y-82480500D01*
X118107400Y-82480500D01*
X118040361Y-82460815D01*
X117994606Y-82408011D01*
X117983400Y-82356500D01*
X117983400Y-82256000D01*
X117539245Y-82256000D01*
X117532613Y-82255644D01*
X117532198Y-82255599D01*
X117531276Y-82255500D01*
X116557400Y-82255500D01*
X116490361Y-82235815D01*
X116444606Y-82183011D01*
X116433400Y-82131500D01*
X116433400Y-81880499D01*
X116453085Y-81813460D01*
X116505889Y-81767705D01*
X116557400Y-81756499D01*
X117531271Y-81756499D01*
X117531272Y-81756499D01*
X117531277Y-81756498D01*
X117531282Y-81756498D01*
X117532607Y-81756356D01*
X117539241Y-81756000D01*
X117983400Y-81756000D01*
X117983400Y-81655500D01*
X118003085Y-81588461D01*
X118055889Y-81542706D01*
X118107400Y-81531500D01*
X118117257Y-81531500D01*
X118132877Y-81533224D01*
X118132904Y-81532939D01*
X118140660Y-81533671D01*
X118140667Y-81533673D01*
X118209814Y-81531500D01*
X118239350Y-81531500D01*
X118246228Y-81530630D01*
X118252041Y-81530172D01*
X118298627Y-81528709D01*
X118317869Y-81523117D01*
X118336912Y-81519174D01*
X118356792Y-81516664D01*
X118400122Y-81499507D01*
X118405646Y-81497617D01*
X118409396Y-81496527D01*
X118450390Y-81484618D01*
X118467629Y-81474422D01*
X118485103Y-81465862D01*
X118503727Y-81458488D01*
X118503727Y-81458487D01*
X118503732Y-81458486D01*
X118541449Y-81431082D01*
X118546305Y-81427892D01*
X118586420Y-81404170D01*
X118600589Y-81389999D01*
X118615379Y-81377368D01*
X118631587Y-81365594D01*
X118661290Y-81329687D01*
X118665212Y-81325376D01*
X119156724Y-80833864D01*
X119218043Y-80800382D01*
X119287734Y-80805366D01*
G37*
%TD.AperFunction*%
%TA.AperFunction,Conductor*%
G36*
X121324086Y-79163516D02*
G01*
X121368434Y-79192017D01*
X121482361Y-79305944D01*
X121482365Y-79305947D01*
X121579577Y-79365909D01*
X121626302Y-79417857D01*
X121637523Y-79486819D01*
X121609680Y-79550901D01*
X121553485Y-79589152D01*
X121521264Y-79599830D01*
X121505384Y-79605092D01*
X121505381Y-79605093D01*
X121358548Y-79695661D01*
X121344225Y-79709984D01*
X121282901Y-79743468D01*
X121213209Y-79738482D01*
X121168865Y-79709982D01*
X121154938Y-79696055D01*
X121154934Y-79696052D01*
X121008211Y-79605551D01*
X121008198Y-79605545D01*
X120990951Y-79599830D01*
X120933507Y-79560056D01*
X120906686Y-79495539D01*
X120919002Y-79426764D01*
X120964860Y-79376587D01*
X121078750Y-79306340D01*
X121193075Y-79192014D01*
X121254394Y-79158532D01*
X121324086Y-79163516D01*
G37*
%TD.AperFunction*%
%TD*%
M02*
