M48
INCH,TZ
T1C0.0118
T2C0.0157
T3C0.0197
T4C0.0197
T5C0.0276
T6C0.0315
T7C0.0394
T8C0.0429
T9C0.0591
T10C0.0709
%
G90
G05
T1
X28800Y-34950
X32600Y-33000
X41400Y-46000
X41500Y-45300
X52200Y-37150
X54350Y-32646
X54700Y-32661
T2
X30974Y-38713
X38600Y-42305
X40390Y-44100
X40583Y-42503
X40748Y-43319
X41077Y-45346
X41168Y-43145
X41267Y-29746
X41267Y-35742
X41410Y-36608
X41689Y-42523
X41900Y-37900
X42091Y-39665
X42486Y-44372
X42735Y-35841
X43403Y-36656
X43600Y-39416
X44300Y-43095
X44310Y-45178
X45178Y-31897
X45248Y-30217
X45356Y-29038
X45380Y-31234
X45533Y-35958
X46530Y-30200
X47430Y-36965
X48600Y-31700
X49500Y-41678
X56181Y-32269
T3
X30300Y-35500
X30300Y-36000
X30300Y-38700
X30300Y-40400
X30900Y-37900
X31400Y-40450
X34200Y-37200
X35200Y-37200
X36500Y-36300
X37500Y-35300
X37700Y-40100
X38200Y-45000
X38700Y-41800
X39500Y-39600
X39700Y-41800
X42400Y-45200
X42400Y-46800
X45400Y-43500
X45600Y-41900
X46500Y-45950
X46550Y-41900
X46800Y-39900
X47700Y-40300
X48900Y-44400
X49400Y-40100
X49500Y-43200
X50800Y-40100
X51800Y-38200
X52436Y-40750
X53300Y-33600
X54050Y-38900
X55800Y-39500
X55800Y-41700
X56800Y-39000
T4
X31737Y-37969
X32229Y-37969
X32721Y-37969
X33213Y-37969
X33706Y-37969
X34198Y-37969
X34690Y-37969
X35182Y-37969
X35674Y-37969
X36166Y-37969
X38366Y-37623
X38858Y-37623
X39351Y-37623
X39843Y-37623
T5
X57084Y-31243
X57084Y-34157
T6
X51013Y-29400
X51800Y-29400
X52587Y-29400
T7
X55303Y-36006
X55303Y-37006
X55303Y-38006
X56303Y-36006
X56303Y-37006
X56303Y-38006
T8
X49900Y-36600
X49900Y-37600
X50900Y-36600
X50900Y-37600
X51900Y-36600
X51900Y-37600
X52900Y-36600
X52900Y-37600
T9
X50186Y-29400
X53414Y-29400
T5
G00X56080Y-31243
M15
G01X56120Y-31243
M16
G05
G00X56080Y-34157
M15
G01X56120Y-34157
M16
G05
T10
G00X28370Y-43250
M15
G01X28370Y-43250
M16
G05
G00X56480Y-43250
M15
G01X56480Y-43250
M16
G05
T0
M30
