%TF.GenerationSoftware,KiCad,Pcbnew,7.0.8*%
%TF.CreationDate,2023-11-09T17:42:37+01:00*%
%TF.ProjectId,Suspension_telemetry,53757370-656e-4736-996f-6e5f74656c65,rev?*%
%TF.SameCoordinates,Original*%
%TF.FileFunction,Soldermask,Top*%
%TF.FilePolarity,Negative*%
%FSLAX46Y46*%
G04 Gerber Fmt 4.6, Leading zero omitted, Abs format (unit mm)*
G04 Created by KiCad (PCBNEW 7.0.8) date 2023-11-09 17:42:37*
%MOMM*%
%LPD*%
G01*
G04 APERTURE LIST*
G04 Aperture macros list*
%AMRoundRect*
0 Rectangle with rounded corners*
0 $1 Rounding radius*
0 $2 $3 $4 $5 $6 $7 $8 $9 X,Y pos of 4 corners*
0 Add a 4 corners polygon primitive as box body*
4,1,4,$2,$3,$4,$5,$6,$7,$8,$9,$2,$3,0*
0 Add four circle primitives for the rounded corners*
1,1,$1+$1,$2,$3*
1,1,$1+$1,$4,$5*
1,1,$1+$1,$6,$7*
1,1,$1+$1,$8,$9*
0 Add four rect primitives between the rounded corners*
20,1,$1+$1,$2,$3,$4,$5,0*
20,1,$1+$1,$4,$5,$6,$7,0*
20,1,$1+$1,$6,$7,$8,$9,0*
20,1,$1+$1,$8,$9,$2,$3,0*%
G04 Aperture macros list end*
%ADD10R,0.850000X0.850000*%
%ADD11C,0.850000*%
%ADD12RoundRect,0.237500X-0.250000X-0.237500X0.250000X-0.237500X0.250000X0.237500X-0.250000X0.237500X0*%
%ADD13C,1.300000*%
%ADD14C,2.250000*%
%ADD15R,1.700000X1.700000*%
%ADD16O,1.700000X1.700000*%
%ADD17RoundRect,0.237500X-0.300000X-0.237500X0.300000X-0.237500X0.300000X0.237500X-0.300000X0.237500X0*%
%ADD18RoundRect,0.102000X0.600000X-0.225000X0.600000X0.225000X-0.600000X0.225000X-0.600000X-0.225000X0*%
%ADD19C,1.504000*%
%ADD20C,1.204000*%
%ADD21C,1.000000*%
%ADD22R,1.600000X0.700000*%
%ADD23R,1.400000X1.200000*%
%ADD24R,1.400000X1.600000*%
%ADD25R,2.200000X1.200000*%
%ADD26C,6.000000*%
%ADD27O,2.604000X4.344000*%
%ADD28R,1.635000X1.635000*%
%ADD29C,1.635000*%
G04 APERTURE END LIST*
D10*
%TO.C,J4*%
X91862200Y-96442000D03*
D11*
X90612200Y-96442000D03*
X89362200Y-96442000D03*
X88112200Y-96442000D03*
X86862200Y-96442000D03*
X85612200Y-96442000D03*
X84362200Y-96442000D03*
X83112200Y-96442000D03*
X81862200Y-96442000D03*
X80612200Y-96442000D03*
%TD*%
D12*
%TO.C,R15*%
X120367900Y-84834000D03*
X122192900Y-84834000D03*
%TD*%
D13*
%TO.C,S1*%
X133572000Y-74676000D03*
X131572000Y-74676000D03*
X129572000Y-74676000D03*
D14*
X135672000Y-74676000D03*
X127472000Y-74676000D03*
%TD*%
D15*
%TO.C,J7*%
X140468400Y-91455000D03*
D16*
X143008400Y-91455000D03*
X140468400Y-93995000D03*
X143008400Y-93995000D03*
X140468400Y-96535000D03*
X143008400Y-96535000D03*
%TD*%
D12*
%TO.C,R14*%
X120367900Y-78486000D03*
X122192900Y-78486000D03*
%TD*%
D17*
%TO.C,C25*%
X120394400Y-80516000D03*
X122119400Y-80516000D03*
%TD*%
D12*
%TO.C,R17*%
X120367900Y-76200000D03*
X122192900Y-76200000D03*
%TD*%
D18*
%TO.C,J1*%
X141344000Y-84358000D03*
X141344000Y-83708000D03*
X141344000Y-83058000D03*
X141344000Y-82408000D03*
X141344000Y-81758000D03*
D19*
X142494000Y-86758000D03*
X142494000Y-79358000D03*
D20*
X144994000Y-86758000D03*
X144994000Y-79358000D03*
%TD*%
D21*
%TO.C,J3*%
X106183400Y-78106000D03*
X106183400Y-86106000D03*
D22*
X116683400Y-85306000D03*
X116683400Y-84206000D03*
X116683400Y-83106000D03*
X116683400Y-82006000D03*
X116683400Y-80906000D03*
X116683400Y-79806000D03*
X116683400Y-78706000D03*
X116683400Y-77606000D03*
X116683400Y-76506000D03*
D23*
X116183400Y-75306000D03*
D24*
X116183400Y-89906000D03*
D25*
X106583400Y-90806000D03*
X106583400Y-75306000D03*
%TD*%
D12*
%TO.C,R13*%
X120367900Y-82548000D03*
X122192900Y-82548000D03*
%TD*%
D26*
%TO.C,BT2*%
X134610400Y-109855000D03*
X80910400Y-109855000D03*
D27*
X143460400Y-109855000D03*
X72060400Y-109855000D03*
%TD*%
D12*
%TO.C,R16*%
X120367900Y-86866000D03*
X122192900Y-86866000D03*
%TD*%
%TO.C,R18*%
X120367900Y-73914000D03*
X122192900Y-73914000D03*
%TD*%
D21*
%TO.C,J2*%
X97450400Y-95562000D03*
X98700400Y-95562000D03*
X99950400Y-95562000D03*
X101200400Y-95562000D03*
%TD*%
D28*
%TO.C,J5*%
X134366000Y-92964000D03*
D29*
X134366000Y-95504000D03*
X131826000Y-92964000D03*
X131826000Y-95504000D03*
X129286000Y-92964000D03*
X129286000Y-95504000D03*
X126746000Y-92964000D03*
X126746000Y-95504000D03*
%TD*%
M02*
