%TF.GenerationSoftware,KiCad,Pcbnew,7.0.8*%
%TF.CreationDate,2023-11-09T17:42:37+01:00*%
%TF.ProjectId,Suspension_telemetry,53757370-656e-4736-996f-6e5f74656c65,rev?*%
%TF.SameCoordinates,Original*%
%TF.FileFunction,Soldermask,Bot*%
%TF.FilePolarity,Negative*%
%FSLAX46Y46*%
G04 Gerber Fmt 4.6, Leading zero omitted, Abs format (unit mm)*
G04 Created by KiCad (PCBNEW 7.0.8) date 2023-11-09 17:42:37*
%MOMM*%
%LPD*%
G01*
G04 APERTURE LIST*
G04 Aperture macros list*
%AMRoundRect*
0 Rectangle with rounded corners*
0 $1 Rounding radius*
0 $2 $3 $4 $5 $6 $7 $8 $9 X,Y pos of 4 corners*
0 Add a 4 corners polygon primitive as box body*
4,1,4,$2,$3,$4,$5,$6,$7,$8,$9,$2,$3,0*
0 Add four circle primitives for the rounded corners*
1,1,$1+$1,$2,$3*
1,1,$1+$1,$4,$5*
1,1,$1+$1,$6,$7*
1,1,$1+$1,$8,$9*
0 Add four rect primitives between the rounded corners*
20,1,$1+$1,$2,$3,$4,$5,0*
20,1,$1+$1,$4,$5,$6,$7,0*
20,1,$1+$1,$6,$7,$8,$9,0*
20,1,$1+$1,$8,$9,$2,$3,0*%
G04 Aperture macros list end*
%ADD10RoundRect,0.237500X-0.237500X0.250000X-0.237500X-0.250000X0.237500X-0.250000X0.237500X0.250000X0*%
%ADD11R,1.460500X0.558800*%
%ADD12R,0.850000X0.850000*%
%ADD13C,0.850000*%
%ADD14R,0.800000X0.300000*%
%ADD15R,1.750000X2.450000*%
%ADD16C,1.300000*%
%ADD17C,2.250000*%
%ADD18R,1.700000X1.700000*%
%ADD19O,1.700000X1.700000*%
%ADD20C,1.504000*%
%ADD21C,1.204000*%
%ADD22C,1.000000*%
%ADD23C,6.000000*%
%ADD24O,2.604000X4.344000*%
%ADD25R,1.635000X1.635000*%
%ADD26C,1.635000*%
%ADD27RoundRect,0.250000X-0.412500X-0.650000X0.412500X-0.650000X0.412500X0.650000X-0.412500X0.650000X0*%
%ADD28RoundRect,0.237500X-0.237500X0.287500X-0.237500X-0.287500X0.237500X-0.287500X0.237500X0.287500X0*%
%ADD29RoundRect,0.237500X0.250000X0.237500X-0.250000X0.237500X-0.250000X-0.237500X0.250000X-0.237500X0*%
%ADD30RoundRect,0.237500X0.237500X-0.250000X0.237500X0.250000X-0.237500X0.250000X-0.237500X-0.250000X0*%
%ADD31R,2.000000X1.500000*%
%ADD32R,2.000000X3.800000*%
%ADD33RoundRect,0.150000X0.512500X0.150000X-0.512500X0.150000X-0.512500X-0.150000X0.512500X-0.150000X0*%
%ADD34R,1.800000X2.100000*%
%ADD35RoundRect,0.237500X-0.300000X-0.237500X0.300000X-0.237500X0.300000X0.237500X-0.300000X0.237500X0*%
%ADD36R,1.205000X2.700000*%
%ADD37RoundRect,0.237500X-0.237500X0.300000X-0.237500X-0.300000X0.237500X-0.300000X0.237500X0.300000X0*%
%ADD38RoundRect,0.250000X0.650000X-0.412500X0.650000X0.412500X-0.650000X0.412500X-0.650000X-0.412500X0*%
%ADD39RoundRect,0.150000X-0.825000X-0.150000X0.825000X-0.150000X0.825000X0.150000X-0.825000X0.150000X0*%
%ADD40RoundRect,0.237500X0.237500X-0.300000X0.237500X0.300000X-0.237500X0.300000X-0.237500X-0.300000X0*%
%ADD41RoundRect,0.237500X0.237500X-0.287500X0.237500X0.287500X-0.237500X0.287500X-0.237500X-0.287500X0*%
%ADD42R,1.900000X1.100000*%
%ADD43RoundRect,0.237500X0.300000X0.237500X-0.300000X0.237500X-0.300000X-0.237500X0.300000X-0.237500X0*%
%ADD44RoundRect,0.237500X0.287500X0.237500X-0.287500X0.237500X-0.287500X-0.237500X0.287500X-0.237500X0*%
%ADD45RoundRect,0.075000X-0.700000X-0.075000X0.700000X-0.075000X0.700000X0.075000X-0.700000X0.075000X0*%
%ADD46RoundRect,0.075000X-0.075000X-0.700000X0.075000X-0.700000X0.075000X0.700000X-0.075000X0.700000X0*%
%ADD47RoundRect,0.150000X0.325000X0.150000X-0.325000X0.150000X-0.325000X-0.150000X0.325000X-0.150000X0*%
%ADD48RoundRect,0.150000X0.150000X0.325000X-0.150000X0.325000X-0.150000X-0.325000X0.150000X-0.325000X0*%
%ADD49RoundRect,0.237500X-0.250000X-0.237500X0.250000X-0.237500X0.250000X0.237500X-0.250000X0.237500X0*%
%ADD50RoundRect,0.150000X-0.512500X-0.150000X0.512500X-0.150000X0.512500X0.150000X-0.512500X0.150000X0*%
G04 APERTURE END LIST*
D10*
%TO.C,R23*%
X106172000Y-116943500D03*
X106172000Y-118768500D03*
%TD*%
%TO.C,R20*%
X104140000Y-116943500D03*
X104140000Y-118768500D03*
%TD*%
D11*
%TO.C,Q1*%
X138244550Y-114300000D03*
X138244550Y-115570000D03*
X138244550Y-116840000D03*
X138244550Y-118110000D03*
X132796250Y-118110000D03*
X132796250Y-116840000D03*
X132796250Y-115570000D03*
X132796250Y-114300000D03*
%TD*%
D12*
%TO.C,J4*%
X91862200Y-96442000D03*
D13*
X90612200Y-96442000D03*
X89362200Y-96442000D03*
X88112200Y-96442000D03*
X86862200Y-96442000D03*
X85612200Y-96442000D03*
X84362200Y-96442000D03*
X83112200Y-96442000D03*
X81862200Y-96442000D03*
X80612200Y-96442000D03*
%TD*%
D14*
%TO.C,IC1*%
X139560400Y-102505000D03*
X139560400Y-103005000D03*
X139560400Y-103505000D03*
X139560400Y-104005000D03*
X139560400Y-104505000D03*
X136560400Y-104505000D03*
X136560400Y-104005000D03*
X136560400Y-103505000D03*
X136560400Y-103005000D03*
X136560400Y-102505000D03*
D15*
X138060400Y-103505000D03*
%TD*%
D16*
%TO.C,S1*%
X133572000Y-74676000D03*
X131572000Y-74676000D03*
X129572000Y-74676000D03*
D17*
X135672000Y-74676000D03*
X127472000Y-74676000D03*
%TD*%
D18*
%TO.C,J7*%
X140468400Y-91455000D03*
D19*
X143008400Y-91455000D03*
X140468400Y-93995000D03*
X143008400Y-93995000D03*
X140468400Y-96535000D03*
X143008400Y-96535000D03*
%TD*%
D20*
%TO.C,J1*%
X142494000Y-86758000D03*
X142494000Y-79358000D03*
D21*
X144994000Y-86758000D03*
X144994000Y-79358000D03*
%TD*%
D22*
%TO.C,J3*%
X106183400Y-78106000D03*
X106183400Y-86106000D03*
%TD*%
D23*
%TO.C,BT2*%
X134610400Y-109855000D03*
X80910400Y-109855000D03*
D24*
X143460400Y-109855000D03*
X72060400Y-109855000D03*
%TD*%
D22*
%TO.C,J2*%
X97450400Y-95562000D03*
X98700400Y-95562000D03*
X99950400Y-95562000D03*
X101200400Y-95562000D03*
%TD*%
D25*
%TO.C,J5*%
X134366000Y-92964000D03*
D26*
X134366000Y-95504000D03*
X131826000Y-92964000D03*
X131826000Y-95504000D03*
X129286000Y-92964000D03*
X129286000Y-95504000D03*
X126746000Y-92964000D03*
X126746000Y-95504000D03*
%TD*%
D10*
%TO.C,R22*%
X95758000Y-94337500D03*
X95758000Y-96162500D03*
%TD*%
D27*
%TO.C,C9*%
X117574900Y-112674400D03*
X120699900Y-112674400D03*
%TD*%
D28*
%TO.C,L2*%
X83312000Y-90946000D03*
X83312000Y-92696000D03*
%TD*%
D29*
%TO.C,R7*%
X115477900Y-118110000D03*
X113652900Y-118110000D03*
%TD*%
D30*
%TO.C,R27*%
X122555000Y-100380000D03*
X122555000Y-98555000D03*
%TD*%
%TO.C,R24*%
X93726000Y-96162500D03*
X93726000Y-94337500D03*
%TD*%
D29*
%TO.C,R10*%
X75097900Y-97074200D03*
X73272900Y-97074200D03*
%TD*%
D30*
%TO.C,R1*%
X134250400Y-102258500D03*
X134250400Y-100433500D03*
%TD*%
D31*
%TO.C,U3*%
X120255400Y-104126000D03*
X120255400Y-106426000D03*
D32*
X113955400Y-106426000D03*
D31*
X120255400Y-108726000D03*
%TD*%
D33*
%TO.C,U2*%
X129418900Y-111318000D03*
X129418900Y-112268000D03*
X129418900Y-113218000D03*
X127143900Y-113218000D03*
X127143900Y-112268000D03*
X127143900Y-111318000D03*
%TD*%
D34*
%TO.C,Y1*%
X85856400Y-112321000D03*
X85856400Y-109421000D03*
X88156400Y-109421000D03*
X88156400Y-112321000D03*
%TD*%
D35*
%TO.C,C14*%
X99478900Y-99568000D03*
X101203900Y-99568000D03*
%TD*%
D36*
%TO.C,L1*%
X126978900Y-108204000D03*
X129583900Y-108204000D03*
%TD*%
D37*
%TO.C,C12*%
X109485400Y-113945500D03*
X109485400Y-115670500D03*
%TD*%
D38*
%TO.C,C8*%
X124090400Y-106464500D03*
X124090400Y-103339500D03*
%TD*%
D39*
%TO.C,U6*%
X74106000Y-86741000D03*
X74106000Y-85471000D03*
X74106000Y-84201000D03*
X74106000Y-82931000D03*
X79056000Y-82931000D03*
X79056000Y-84201000D03*
X79056000Y-85471000D03*
X79056000Y-86741000D03*
%TD*%
D10*
%TO.C,R2*%
X122947400Y-116658500D03*
X122947400Y-118483500D03*
%TD*%
D35*
%TO.C,C1*%
X137197900Y-100330000D03*
X138922900Y-100330000D03*
%TD*%
D40*
%TO.C,C18*%
X88138000Y-92683500D03*
X88138000Y-90958500D03*
%TD*%
D41*
%TO.C,D2*%
X131710400Y-102221000D03*
X131710400Y-100471000D03*
%TD*%
D42*
%TO.C,Y2*%
X91705400Y-116312000D03*
X91705400Y-113812000D03*
%TD*%
D43*
%TO.C,C24*%
X92694900Y-111252000D03*
X90969900Y-111252000D03*
%TD*%
D40*
%TO.C,C6*%
X142251400Y-103986500D03*
X142251400Y-102261500D03*
%TD*%
D37*
%TO.C,C2*%
X124471400Y-109373500D03*
X124471400Y-111098500D03*
%TD*%
D29*
%TO.C,R4*%
X133511900Y-104648000D03*
X131686900Y-104648000D03*
%TD*%
D44*
%TO.C,L3*%
X79728000Y-101092000D03*
X77978000Y-101092000D03*
%TD*%
D37*
%TO.C,C13*%
X98309400Y-116993500D03*
X98309400Y-118718500D03*
%TD*%
D10*
%TO.C,R25*%
X93726000Y-98505000D03*
X93726000Y-100330000D03*
%TD*%
D45*
%TO.C,U1*%
X96444400Y-111700000D03*
X96444400Y-111200000D03*
X96444400Y-110700000D03*
X96444400Y-110200000D03*
X96444400Y-109700000D03*
X96444400Y-109200000D03*
X96444400Y-108700000D03*
X96444400Y-108200000D03*
X96444400Y-107700000D03*
X96444400Y-107200000D03*
X96444400Y-106700000D03*
X96444400Y-106200000D03*
X96444400Y-105700000D03*
X96444400Y-105200000D03*
X96444400Y-104700000D03*
X96444400Y-104200000D03*
D46*
X98369400Y-102275000D03*
X98869400Y-102275000D03*
X99369400Y-102275000D03*
X99869400Y-102275000D03*
X100369400Y-102275000D03*
X100869400Y-102275000D03*
X101369400Y-102275000D03*
X101869400Y-102275000D03*
X102369400Y-102275000D03*
X102869400Y-102275000D03*
X103369400Y-102275000D03*
X103869400Y-102275000D03*
X104369400Y-102275000D03*
X104869400Y-102275000D03*
X105369400Y-102275000D03*
X105869400Y-102275000D03*
D45*
X107794400Y-104200000D03*
X107794400Y-104700000D03*
X107794400Y-105200000D03*
X107794400Y-105700000D03*
X107794400Y-106200000D03*
X107794400Y-106700000D03*
X107794400Y-107200000D03*
X107794400Y-107700000D03*
X107794400Y-108200000D03*
X107794400Y-108700000D03*
X107794400Y-109200000D03*
X107794400Y-109700000D03*
X107794400Y-110200000D03*
X107794400Y-110700000D03*
X107794400Y-111200000D03*
X107794400Y-111700000D03*
D46*
X105869400Y-113625000D03*
X105369400Y-113625000D03*
X104869400Y-113625000D03*
X104369400Y-113625000D03*
X103869400Y-113625000D03*
X103369400Y-113625000D03*
X102869400Y-113625000D03*
X102369400Y-113625000D03*
X101869400Y-113625000D03*
X101369400Y-113625000D03*
X100869400Y-113625000D03*
X100369400Y-113625000D03*
X99869400Y-113625000D03*
X99369400Y-113625000D03*
X98869400Y-113625000D03*
X98369400Y-113625000D03*
%TD*%
D30*
%TO.C,R29*%
X129032000Y-100380000D03*
X129032000Y-98555000D03*
%TD*%
D40*
%TO.C,C15*%
X107823000Y-99922500D03*
X107823000Y-98197500D03*
%TD*%
D29*
%TO.C,R3*%
X127531500Y-118491000D03*
X125706500Y-118491000D03*
%TD*%
D10*
%TO.C,R19*%
X78867000Y-90908500D03*
X78867000Y-92733500D03*
%TD*%
D37*
%TO.C,C5*%
X120142000Y-98605000D03*
X120142000Y-100330000D03*
%TD*%
D47*
%TO.C,U4*%
X75195400Y-90856000D03*
X75195400Y-91656000D03*
X75195400Y-92456000D03*
X75195400Y-93256000D03*
X75195400Y-94056000D03*
X75195400Y-94856000D03*
D48*
X74195400Y-94856000D03*
D47*
X73195400Y-94856000D03*
X73195400Y-94056000D03*
X73195400Y-93256000D03*
X73195400Y-92456000D03*
X73195400Y-91656000D03*
X73195400Y-90856000D03*
D48*
X74195400Y-90856000D03*
%TD*%
D35*
%TO.C,C19*%
X88302900Y-106426000D03*
X90027900Y-106426000D03*
%TD*%
D10*
%TO.C,R12*%
X100341400Y-116943500D03*
X100341400Y-118768500D03*
%TD*%
D37*
%TO.C,C4*%
X124587000Y-98605000D03*
X124587000Y-100330000D03*
%TD*%
D40*
%TO.C,C3*%
X119899400Y-118464500D03*
X119899400Y-116739500D03*
%TD*%
D37*
%TO.C,C26*%
X75438000Y-100991500D03*
X75438000Y-102716500D03*
%TD*%
%TO.C,C10*%
X74930000Y-104801500D03*
X74930000Y-106526500D03*
%TD*%
D29*
%TO.C,R8*%
X92871900Y-108712000D03*
X91046900Y-108712000D03*
%TD*%
D37*
%TO.C,C7*%
X126746000Y-98605000D03*
X126746000Y-100330000D03*
%TD*%
D40*
%TO.C,C17*%
X85852000Y-92683500D03*
X85852000Y-90958500D03*
%TD*%
D10*
%TO.C,R11*%
X102373400Y-116943500D03*
X102373400Y-118768500D03*
%TD*%
D43*
%TO.C,C23*%
X92313900Y-118999000D03*
X90588900Y-118999000D03*
%TD*%
D29*
%TO.C,R5*%
X143060400Y-117475000D03*
X141235400Y-117475000D03*
%TD*%
D49*
%TO.C,R6*%
X113652900Y-115062000D03*
X115477900Y-115062000D03*
%TD*%
D37*
%TO.C,C27*%
X73025000Y-100991500D03*
X73025000Y-102716500D03*
%TD*%
%TO.C,C16*%
X95515400Y-114326500D03*
X95515400Y-116051500D03*
%TD*%
D10*
%TO.C,R21*%
X95758000Y-98505000D03*
X95758000Y-100330000D03*
%TD*%
D29*
%TO.C,R9*%
X131559500Y-78232000D03*
X129734500Y-78232000D03*
%TD*%
D50*
%TO.C,U5*%
X133863500Y-84262000D03*
X133863500Y-83312000D03*
X133863500Y-82362000D03*
X136138500Y-82362000D03*
X136138500Y-83312000D03*
X136138500Y-84262000D03*
%TD*%
D40*
%TO.C,C22*%
X104913400Y-99922500D03*
X104913400Y-98197500D03*
%TD*%
D35*
%TO.C,C20*%
X85889900Y-115316000D03*
X87614900Y-115316000D03*
%TD*%
M02*
