%TF.GenerationSoftware,KiCad,Pcbnew,7.0.8*%
%TF.CreationDate,2023-10-16T09:34:00+02:00*%
%TF.ProjectId,Suspension_telemetry,53757370-656e-4736-996f-6e5f74656c65,rev?*%
%TF.SameCoordinates,Original*%
%TF.FileFunction,Legend,Bot*%
%TF.FilePolarity,Positive*%
%FSLAX46Y46*%
G04 Gerber Fmt 4.6, Leading zero omitted, Abs format (unit mm)*
G04 Created by KiCad (PCBNEW 7.0.8) date 2023-10-16 09:34:00*
%MOMM*%
%LPD*%
G01*
G04 APERTURE LIST*
%ADD10C,0.150000*%
%ADD11C,0.127000*%
G04 APERTURE END LIST*
D10*
X74230714Y-122685009D02*
X74087857Y-122732628D01*
X74087857Y-122732628D02*
X74040238Y-122780247D01*
X74040238Y-122780247D02*
X73992619Y-122875485D01*
X73992619Y-122875485D02*
X73992619Y-123018342D01*
X73992619Y-123018342D02*
X74040238Y-123113580D01*
X74040238Y-123113580D02*
X74087857Y-123161200D01*
X74087857Y-123161200D02*
X74183095Y-123208819D01*
X74183095Y-123208819D02*
X74564047Y-123208819D01*
X74564047Y-123208819D02*
X74564047Y-122208819D01*
X74564047Y-122208819D02*
X74230714Y-122208819D01*
X74230714Y-122208819D02*
X74135476Y-122256438D01*
X74135476Y-122256438D02*
X74087857Y-122304057D01*
X74087857Y-122304057D02*
X74040238Y-122399295D01*
X74040238Y-122399295D02*
X74040238Y-122494533D01*
X74040238Y-122494533D02*
X74087857Y-122589771D01*
X74087857Y-122589771D02*
X74135476Y-122637390D01*
X74135476Y-122637390D02*
X74230714Y-122685009D01*
X74230714Y-122685009D02*
X74564047Y-122685009D01*
X73706904Y-122208819D02*
X73135476Y-122208819D01*
X73421190Y-123208819D02*
X73421190Y-122208819D01*
X72278333Y-123208819D02*
X72849761Y-123208819D01*
X72564047Y-123208819D02*
X72564047Y-122208819D01*
X72564047Y-122208819D02*
X72659285Y-122351676D01*
X72659285Y-122351676D02*
X72754523Y-122446914D01*
X72754523Y-122446914D02*
X72849761Y-122494533D01*
X143238714Y-77473009D02*
X143095857Y-77520628D01*
X143095857Y-77520628D02*
X143048238Y-77568247D01*
X143048238Y-77568247D02*
X143000619Y-77663485D01*
X143000619Y-77663485D02*
X143000619Y-77806342D01*
X143000619Y-77806342D02*
X143048238Y-77901580D01*
X143048238Y-77901580D02*
X143095857Y-77949200D01*
X143095857Y-77949200D02*
X143191095Y-77996819D01*
X143191095Y-77996819D02*
X143572047Y-77996819D01*
X143572047Y-77996819D02*
X143572047Y-76996819D01*
X143572047Y-76996819D02*
X143238714Y-76996819D01*
X143238714Y-76996819D02*
X143143476Y-77044438D01*
X143143476Y-77044438D02*
X143095857Y-77092057D01*
X143095857Y-77092057D02*
X143048238Y-77187295D01*
X143048238Y-77187295D02*
X143048238Y-77282533D01*
X143048238Y-77282533D02*
X143095857Y-77377771D01*
X143095857Y-77377771D02*
X143143476Y-77425390D01*
X143143476Y-77425390D02*
X143238714Y-77473009D01*
X143238714Y-77473009D02*
X143572047Y-77473009D01*
X142714904Y-76996819D02*
X142143476Y-76996819D01*
X142429190Y-77996819D02*
X142429190Y-76996819D01*
X141857761Y-77092057D02*
X141810142Y-77044438D01*
X141810142Y-77044438D02*
X141714904Y-76996819D01*
X141714904Y-76996819D02*
X141476809Y-76996819D01*
X141476809Y-76996819D02*
X141381571Y-77044438D01*
X141381571Y-77044438D02*
X141333952Y-77092057D01*
X141333952Y-77092057D02*
X141286333Y-77187295D01*
X141286333Y-77187295D02*
X141286333Y-77282533D01*
X141286333Y-77282533D02*
X141333952Y-77425390D01*
X141333952Y-77425390D02*
X141905380Y-77996819D01*
X141905380Y-77996819D02*
X141286333Y-77996819D01*
D11*
%TO.C,BT1*%
X67270000Y-111324000D02*
X69270000Y-111324000D01*
X68270000Y-112324000D02*
X68270000Y-110324000D01*
X70420000Y-100834000D02*
X70420000Y-121814000D01*
X70420000Y-121814000D02*
X145480000Y-121814000D01*
X145476000Y-121814000D02*
X145476000Y-100834000D01*
X145480000Y-100834000D02*
X70420000Y-100834000D01*
X148530000Y-111324000D02*
X150530000Y-111324000D01*
%TO.C,BT2*%
X148628000Y-88972000D02*
X146628000Y-88972000D01*
X147628000Y-87972000D02*
X147628000Y-89972000D01*
X145478000Y-99462000D02*
X145478000Y-78482000D01*
X145478000Y-78482000D02*
X70418000Y-78482000D01*
X70422000Y-78482000D02*
X70422000Y-99462000D01*
X70418000Y-99462000D02*
X145478000Y-99462000D01*
X67368000Y-88972000D02*
X65368000Y-88972000D01*
%TD*%
M02*
