%TF.GenerationSoftware,KiCad,Pcbnew,7.0.8*%
%TF.CreationDate,2023-10-22T12:25:58+02:00*%
%TF.ProjectId,Suspension_telemetry,53757370-656e-4736-996f-6e5f74656c65,rev?*%
%TF.SameCoordinates,Original*%
%TF.FileFunction,Soldermask,Bot*%
%TF.FilePolarity,Negative*%
%FSLAX46Y46*%
G04 Gerber Fmt 4.6, Leading zero omitted, Abs format (unit mm)*
G04 Created by KiCad (PCBNEW 7.0.8) date 2023-10-22 12:25:58*
%MOMM*%
%LPD*%
G01*
G04 APERTURE LIST*
%ADD10R,0.850000X0.850000*%
%ADD11C,0.850000*%
%ADD12R,1.700000X1.700000*%
%ADD13O,1.700000X1.700000*%
%ADD14C,1.000000*%
%ADD15C,1.860000*%
%ADD16R,1.000000X1.000000*%
%ADD17O,1.000000X1.000000*%
%ADD18C,2.280000*%
%ADD19C,2.850000*%
%ADD20O,2.604000X4.344000*%
G04 APERTURE END LIST*
D10*
%TO.C,J12*%
X72566000Y-116623200D03*
D11*
X72566000Y-117873200D03*
X72566000Y-119123200D03*
X72566000Y-120373200D03*
%TD*%
D12*
%TO.C,J6*%
X109982000Y-118618000D03*
D13*
X112522000Y-118618000D03*
X115062000Y-118618000D03*
X117602000Y-118618000D03*
X120142000Y-118618000D03*
X122682000Y-118618000D03*
X125222000Y-118618000D03*
X127762000Y-118618000D03*
%TD*%
D14*
%TO.C,J3*%
X132204000Y-80661000D03*
X124204000Y-80661000D03*
%TD*%
D15*
%TO.C,S1*%
X99314000Y-87324000D03*
X99314000Y-80824000D03*
%TD*%
D16*
%TO.C,J10*%
X110490000Y-89916000D03*
D17*
X111760000Y-89916000D03*
X113030000Y-89916000D03*
%TD*%
D12*
%TO.C,J4*%
X133461600Y-116058000D03*
D13*
X133461600Y-118598000D03*
X136001600Y-116058000D03*
X136001600Y-118598000D03*
X138541600Y-116058000D03*
X138541600Y-118598000D03*
X141081600Y-116058000D03*
X141081600Y-118598000D03*
%TD*%
D18*
%TO.C,J1*%
X141422000Y-105696000D03*
X141422000Y-94456000D03*
D19*
X145422000Y-105696000D03*
X145422000Y-94456000D03*
%TD*%
D16*
%TO.C,J2*%
X96012000Y-93980000D03*
D17*
X96012000Y-92710000D03*
X96012000Y-91440000D03*
%TD*%
D10*
%TO.C,J8*%
X72566000Y-103786200D03*
D11*
X72566000Y-105036200D03*
X72566000Y-106286200D03*
%TD*%
D10*
%TO.C,J9*%
X72566000Y-78777200D03*
D11*
X72566000Y-80027200D03*
X72566000Y-81277200D03*
X72566000Y-82527200D03*
%TD*%
D10*
%TO.C,J7*%
X143080000Y-83645700D03*
D11*
X143080000Y-82395700D03*
X143080000Y-81145700D03*
X143080000Y-79895700D03*
X143080000Y-78645700D03*
%TD*%
D10*
%TO.C,J11*%
X72566000Y-94388200D03*
D11*
X72566000Y-95638200D03*
X72566000Y-96888200D03*
%TD*%
D20*
%TO.C,BT1*%
X72197000Y-111324000D03*
X143597000Y-111324000D03*
%TD*%
%TO.C,BT2*%
X143701000Y-88972000D03*
X72301000Y-88972000D03*
%TD*%
M02*
