%TF.GenerationSoftware,KiCad,Pcbnew,7.0.8*%
%TF.CreationDate,2023-10-22T12:25:58+02:00*%
%TF.ProjectId,Suspension_telemetry,53757370-656e-4736-996f-6e5f74656c65,rev?*%
%TF.SameCoordinates,Original*%
%TF.FileFunction,Legend,Top*%
%TF.FilePolarity,Positive*%
%FSLAX46Y46*%
G04 Gerber Fmt 4.6, Leading zero omitted, Abs format (unit mm)*
G04 Created by KiCad (PCBNEW 7.0.8) date 2023-10-22 12:25:58*
%MOMM*%
%LPD*%
G01*
G04 APERTURE LIST*
%ADD10C,0.254000*%
%ADD11C,0.150000*%
%ADD12C,0.127000*%
%ADD13C,0.120000*%
%ADD14C,0.200000*%
%ADD15C,0.152400*%
%ADD16C,0.100000*%
G04 APERTURE END LIST*
D10*
X69662318Y-119392094D02*
X70569461Y-119392094D01*
X70569461Y-119392094D02*
X70750889Y-119452571D01*
X70750889Y-119452571D02*
X70871842Y-119573523D01*
X70871842Y-119573523D02*
X70932318Y-119754952D01*
X70932318Y-119754952D02*
X70932318Y-119875904D01*
X70932318Y-118122094D02*
X70932318Y-118847809D01*
X70932318Y-118484952D02*
X69662318Y-118484952D01*
X69662318Y-118484952D02*
X69843746Y-118605904D01*
X69843746Y-118605904D02*
X69964699Y-118726856D01*
X69964699Y-118726856D02*
X70025175Y-118847809D01*
X69783270Y-117638285D02*
X69722794Y-117577809D01*
X69722794Y-117577809D02*
X69662318Y-117456856D01*
X69662318Y-117456856D02*
X69662318Y-117154475D01*
X69662318Y-117154475D02*
X69722794Y-117033523D01*
X69722794Y-117033523D02*
X69783270Y-116973047D01*
X69783270Y-116973047D02*
X69904222Y-116912570D01*
X69904222Y-116912570D02*
X70025175Y-116912570D01*
X70025175Y-116912570D02*
X70206603Y-116973047D01*
X70206603Y-116973047D02*
X70932318Y-117698761D01*
X70932318Y-117698761D02*
X70932318Y-116912570D01*
D11*
X111198819Y-116466857D02*
X110722628Y-116800190D01*
X111198819Y-117038285D02*
X110198819Y-117038285D01*
X110198819Y-117038285D02*
X110198819Y-116657333D01*
X110198819Y-116657333D02*
X110246438Y-116562095D01*
X110246438Y-116562095D02*
X110294057Y-116514476D01*
X110294057Y-116514476D02*
X110389295Y-116466857D01*
X110389295Y-116466857D02*
X110532152Y-116466857D01*
X110532152Y-116466857D02*
X110627390Y-116514476D01*
X110627390Y-116514476D02*
X110675009Y-116562095D01*
X110675009Y-116562095D02*
X110722628Y-116657333D01*
X110722628Y-116657333D02*
X110722628Y-117038285D01*
X110294057Y-116085904D02*
X110246438Y-116038285D01*
X110246438Y-116038285D02*
X110198819Y-115943047D01*
X110198819Y-115943047D02*
X110198819Y-115704952D01*
X110198819Y-115704952D02*
X110246438Y-115609714D01*
X110246438Y-115609714D02*
X110294057Y-115562095D01*
X110294057Y-115562095D02*
X110389295Y-115514476D01*
X110389295Y-115514476D02*
X110484533Y-115514476D01*
X110484533Y-115514476D02*
X110627390Y-115562095D01*
X110627390Y-115562095D02*
X111198819Y-116133523D01*
X111198819Y-116133523D02*
X111198819Y-115514476D01*
X110294057Y-115133523D02*
X110246438Y-115085904D01*
X110246438Y-115085904D02*
X110198819Y-114990666D01*
X110198819Y-114990666D02*
X110198819Y-114752571D01*
X110198819Y-114752571D02*
X110246438Y-114657333D01*
X110246438Y-114657333D02*
X110294057Y-114609714D01*
X110294057Y-114609714D02*
X110389295Y-114562095D01*
X110389295Y-114562095D02*
X110484533Y-114562095D01*
X110484533Y-114562095D02*
X110627390Y-114609714D01*
X110627390Y-114609714D02*
X111198819Y-115181142D01*
X111198819Y-115181142D02*
X111198819Y-114562095D01*
X92083180Y-116714166D02*
X92130800Y-116761785D01*
X92130800Y-116761785D02*
X92178419Y-116904642D01*
X92178419Y-116904642D02*
X92178419Y-116999880D01*
X92178419Y-116999880D02*
X92130800Y-117142737D01*
X92130800Y-117142737D02*
X92035561Y-117237975D01*
X92035561Y-117237975D02*
X91940323Y-117285594D01*
X91940323Y-117285594D02*
X91749847Y-117333213D01*
X91749847Y-117333213D02*
X91606990Y-117333213D01*
X91606990Y-117333213D02*
X91416514Y-117285594D01*
X91416514Y-117285594D02*
X91321276Y-117237975D01*
X91321276Y-117237975D02*
X91226038Y-117142737D01*
X91226038Y-117142737D02*
X91178419Y-116999880D01*
X91178419Y-116999880D02*
X91178419Y-116904642D01*
X91178419Y-116904642D02*
X91226038Y-116761785D01*
X91226038Y-116761785D02*
X91273657Y-116714166D01*
X92178419Y-116237975D02*
X92178419Y-116047499D01*
X92178419Y-116047499D02*
X92130800Y-115952261D01*
X92130800Y-115952261D02*
X92083180Y-115904642D01*
X92083180Y-115904642D02*
X91940323Y-115809404D01*
X91940323Y-115809404D02*
X91749847Y-115761785D01*
X91749847Y-115761785D02*
X91368895Y-115761785D01*
X91368895Y-115761785D02*
X91273657Y-115809404D01*
X91273657Y-115809404D02*
X91226038Y-115857023D01*
X91226038Y-115857023D02*
X91178419Y-115952261D01*
X91178419Y-115952261D02*
X91178419Y-116142737D01*
X91178419Y-116142737D02*
X91226038Y-116237975D01*
X91226038Y-116237975D02*
X91273657Y-116285594D01*
X91273657Y-116285594D02*
X91368895Y-116333213D01*
X91368895Y-116333213D02*
X91606990Y-116333213D01*
X91606990Y-116333213D02*
X91702228Y-116285594D01*
X91702228Y-116285594D02*
X91749847Y-116237975D01*
X91749847Y-116237975D02*
X91797466Y-116142737D01*
X91797466Y-116142737D02*
X91797466Y-115952261D01*
X91797466Y-115952261D02*
X91749847Y-115857023D01*
X91749847Y-115857023D02*
X91702228Y-115809404D01*
X91702228Y-115809404D02*
X91606990Y-115761785D01*
X96814819Y-110707466D02*
X96814819Y-111183656D01*
X96814819Y-111183656D02*
X95814819Y-111183656D01*
X95910057Y-110421751D02*
X95862438Y-110374132D01*
X95862438Y-110374132D02*
X95814819Y-110278894D01*
X95814819Y-110278894D02*
X95814819Y-110040799D01*
X95814819Y-110040799D02*
X95862438Y-109945561D01*
X95862438Y-109945561D02*
X95910057Y-109897942D01*
X95910057Y-109897942D02*
X96005295Y-109850323D01*
X96005295Y-109850323D02*
X96100533Y-109850323D01*
X96100533Y-109850323D02*
X96243390Y-109897942D01*
X96243390Y-109897942D02*
X96814819Y-110469370D01*
X96814819Y-110469370D02*
X96814819Y-109850323D01*
X86989819Y-101195094D02*
X85989819Y-101195094D01*
X85989819Y-101195094D02*
X85989819Y-100956999D01*
X85989819Y-100956999D02*
X86037438Y-100814142D01*
X86037438Y-100814142D02*
X86132676Y-100718904D01*
X86132676Y-100718904D02*
X86227914Y-100671285D01*
X86227914Y-100671285D02*
X86418390Y-100623666D01*
X86418390Y-100623666D02*
X86561247Y-100623666D01*
X86561247Y-100623666D02*
X86751723Y-100671285D01*
X86751723Y-100671285D02*
X86846961Y-100718904D01*
X86846961Y-100718904D02*
X86942200Y-100814142D01*
X86942200Y-100814142D02*
X86989819Y-100956999D01*
X86989819Y-100956999D02*
X86989819Y-101195094D01*
X85989819Y-100290332D02*
X85989819Y-99671285D01*
X85989819Y-99671285D02*
X86370771Y-100004618D01*
X86370771Y-100004618D02*
X86370771Y-99861761D01*
X86370771Y-99861761D02*
X86418390Y-99766523D01*
X86418390Y-99766523D02*
X86466009Y-99718904D01*
X86466009Y-99718904D02*
X86561247Y-99671285D01*
X86561247Y-99671285D02*
X86799342Y-99671285D01*
X86799342Y-99671285D02*
X86894580Y-99718904D01*
X86894580Y-99718904D02*
X86942200Y-99766523D01*
X86942200Y-99766523D02*
X86989819Y-99861761D01*
X86989819Y-99861761D02*
X86989819Y-100147475D01*
X86989819Y-100147475D02*
X86942200Y-100242713D01*
X86942200Y-100242713D02*
X86894580Y-100290332D01*
X123898819Y-100210857D02*
X123422628Y-100544190D01*
X123898819Y-100782285D02*
X122898819Y-100782285D01*
X122898819Y-100782285D02*
X122898819Y-100401333D01*
X122898819Y-100401333D02*
X122946438Y-100306095D01*
X122946438Y-100306095D02*
X122994057Y-100258476D01*
X122994057Y-100258476D02*
X123089295Y-100210857D01*
X123089295Y-100210857D02*
X123232152Y-100210857D01*
X123232152Y-100210857D02*
X123327390Y-100258476D01*
X123327390Y-100258476D02*
X123375009Y-100306095D01*
X123375009Y-100306095D02*
X123422628Y-100401333D01*
X123422628Y-100401333D02*
X123422628Y-100782285D01*
X123898819Y-99258476D02*
X123898819Y-99829904D01*
X123898819Y-99544190D02*
X122898819Y-99544190D01*
X122898819Y-99544190D02*
X123041676Y-99639428D01*
X123041676Y-99639428D02*
X123136914Y-99734666D01*
X123136914Y-99734666D02*
X123184533Y-99829904D01*
X122898819Y-98353714D02*
X122898819Y-98829904D01*
X122898819Y-98829904D02*
X123375009Y-98877523D01*
X123375009Y-98877523D02*
X123327390Y-98829904D01*
X123327390Y-98829904D02*
X123279771Y-98734666D01*
X123279771Y-98734666D02*
X123279771Y-98496571D01*
X123279771Y-98496571D02*
X123327390Y-98401333D01*
X123327390Y-98401333D02*
X123375009Y-98353714D01*
X123375009Y-98353714D02*
X123470247Y-98306095D01*
X123470247Y-98306095D02*
X123708342Y-98306095D01*
X123708342Y-98306095D02*
X123803580Y-98353714D01*
X123803580Y-98353714D02*
X123851200Y-98401333D01*
X123851200Y-98401333D02*
X123898819Y-98496571D01*
X123898819Y-98496571D02*
X123898819Y-98734666D01*
X123898819Y-98734666D02*
X123851200Y-98829904D01*
X123851200Y-98829904D02*
X123803580Y-98877523D01*
X138549142Y-93418819D02*
X138215809Y-92942628D01*
X137977714Y-93418819D02*
X137977714Y-92418819D01*
X137977714Y-92418819D02*
X138358666Y-92418819D01*
X138358666Y-92418819D02*
X138453904Y-92466438D01*
X138453904Y-92466438D02*
X138501523Y-92514057D01*
X138501523Y-92514057D02*
X138549142Y-92609295D01*
X138549142Y-92609295D02*
X138549142Y-92752152D01*
X138549142Y-92752152D02*
X138501523Y-92847390D01*
X138501523Y-92847390D02*
X138453904Y-92895009D01*
X138453904Y-92895009D02*
X138358666Y-92942628D01*
X138358666Y-92942628D02*
X137977714Y-92942628D01*
X138930095Y-92514057D02*
X138977714Y-92466438D01*
X138977714Y-92466438D02*
X139072952Y-92418819D01*
X139072952Y-92418819D02*
X139311047Y-92418819D01*
X139311047Y-92418819D02*
X139406285Y-92466438D01*
X139406285Y-92466438D02*
X139453904Y-92514057D01*
X139453904Y-92514057D02*
X139501523Y-92609295D01*
X139501523Y-92609295D02*
X139501523Y-92704533D01*
X139501523Y-92704533D02*
X139453904Y-92847390D01*
X139453904Y-92847390D02*
X138882476Y-93418819D01*
X138882476Y-93418819D02*
X139501523Y-93418819D01*
X140120571Y-92418819D02*
X140215809Y-92418819D01*
X140215809Y-92418819D02*
X140311047Y-92466438D01*
X140311047Y-92466438D02*
X140358666Y-92514057D01*
X140358666Y-92514057D02*
X140406285Y-92609295D01*
X140406285Y-92609295D02*
X140453904Y-92799771D01*
X140453904Y-92799771D02*
X140453904Y-93037866D01*
X140453904Y-93037866D02*
X140406285Y-93228342D01*
X140406285Y-93228342D02*
X140358666Y-93323580D01*
X140358666Y-93323580D02*
X140311047Y-93371200D01*
X140311047Y-93371200D02*
X140215809Y-93418819D01*
X140215809Y-93418819D02*
X140120571Y-93418819D01*
X140120571Y-93418819D02*
X140025333Y-93371200D01*
X140025333Y-93371200D02*
X139977714Y-93323580D01*
X139977714Y-93323580D02*
X139930095Y-93228342D01*
X139930095Y-93228342D02*
X139882476Y-93037866D01*
X139882476Y-93037866D02*
X139882476Y-92799771D01*
X139882476Y-92799771D02*
X139930095Y-92609295D01*
X139930095Y-92609295D02*
X139977714Y-92514057D01*
X139977714Y-92514057D02*
X140025333Y-92466438D01*
X140025333Y-92466438D02*
X140120571Y-92418819D01*
X75892819Y-96146857D02*
X75416628Y-96480190D01*
X75892819Y-96718285D02*
X74892819Y-96718285D01*
X74892819Y-96718285D02*
X74892819Y-96337333D01*
X74892819Y-96337333D02*
X74940438Y-96242095D01*
X74940438Y-96242095D02*
X74988057Y-96194476D01*
X74988057Y-96194476D02*
X75083295Y-96146857D01*
X75083295Y-96146857D02*
X75226152Y-96146857D01*
X75226152Y-96146857D02*
X75321390Y-96194476D01*
X75321390Y-96194476D02*
X75369009Y-96242095D01*
X75369009Y-96242095D02*
X75416628Y-96337333D01*
X75416628Y-96337333D02*
X75416628Y-96718285D01*
X74988057Y-95765904D02*
X74940438Y-95718285D01*
X74940438Y-95718285D02*
X74892819Y-95623047D01*
X74892819Y-95623047D02*
X74892819Y-95384952D01*
X74892819Y-95384952D02*
X74940438Y-95289714D01*
X74940438Y-95289714D02*
X74988057Y-95242095D01*
X74988057Y-95242095D02*
X75083295Y-95194476D01*
X75083295Y-95194476D02*
X75178533Y-95194476D01*
X75178533Y-95194476D02*
X75321390Y-95242095D01*
X75321390Y-95242095D02*
X75892819Y-95813523D01*
X75892819Y-95813523D02*
X75892819Y-95194476D01*
X75226152Y-94337333D02*
X75892819Y-94337333D01*
X74845200Y-94575428D02*
X75559485Y-94813523D01*
X75559485Y-94813523D02*
X75559485Y-94194476D01*
X129994819Y-100210857D02*
X129518628Y-100544190D01*
X129994819Y-100782285D02*
X128994819Y-100782285D01*
X128994819Y-100782285D02*
X128994819Y-100401333D01*
X128994819Y-100401333D02*
X129042438Y-100306095D01*
X129042438Y-100306095D02*
X129090057Y-100258476D01*
X129090057Y-100258476D02*
X129185295Y-100210857D01*
X129185295Y-100210857D02*
X129328152Y-100210857D01*
X129328152Y-100210857D02*
X129423390Y-100258476D01*
X129423390Y-100258476D02*
X129471009Y-100306095D01*
X129471009Y-100306095D02*
X129518628Y-100401333D01*
X129518628Y-100401333D02*
X129518628Y-100782285D01*
X129994819Y-99258476D02*
X129994819Y-99829904D01*
X129994819Y-99544190D02*
X128994819Y-99544190D01*
X128994819Y-99544190D02*
X129137676Y-99639428D01*
X129137676Y-99639428D02*
X129232914Y-99734666D01*
X129232914Y-99734666D02*
X129280533Y-99829904D01*
X129328152Y-98401333D02*
X129994819Y-98401333D01*
X128947200Y-98639428D02*
X129661485Y-98877523D01*
X129661485Y-98877523D02*
X129661485Y-98258476D01*
X118216819Y-90812857D02*
X117740628Y-91146190D01*
X118216819Y-91384285D02*
X117216819Y-91384285D01*
X117216819Y-91384285D02*
X117216819Y-91003333D01*
X117216819Y-91003333D02*
X117264438Y-90908095D01*
X117264438Y-90908095D02*
X117312057Y-90860476D01*
X117312057Y-90860476D02*
X117407295Y-90812857D01*
X117407295Y-90812857D02*
X117550152Y-90812857D01*
X117550152Y-90812857D02*
X117645390Y-90860476D01*
X117645390Y-90860476D02*
X117693009Y-90908095D01*
X117693009Y-90908095D02*
X117740628Y-91003333D01*
X117740628Y-91003333D02*
X117740628Y-91384285D01*
X118216819Y-89860476D02*
X118216819Y-90431904D01*
X118216819Y-90146190D02*
X117216819Y-90146190D01*
X117216819Y-90146190D02*
X117359676Y-90241428D01*
X117359676Y-90241428D02*
X117454914Y-90336666D01*
X117454914Y-90336666D02*
X117502533Y-90431904D01*
X117216819Y-89241428D02*
X117216819Y-89146190D01*
X117216819Y-89146190D02*
X117264438Y-89050952D01*
X117264438Y-89050952D02*
X117312057Y-89003333D01*
X117312057Y-89003333D02*
X117407295Y-88955714D01*
X117407295Y-88955714D02*
X117597771Y-88908095D01*
X117597771Y-88908095D02*
X117835866Y-88908095D01*
X117835866Y-88908095D02*
X118026342Y-88955714D01*
X118026342Y-88955714D02*
X118121580Y-89003333D01*
X118121580Y-89003333D02*
X118169200Y-89050952D01*
X118169200Y-89050952D02*
X118216819Y-89146190D01*
X118216819Y-89146190D02*
X118216819Y-89241428D01*
X118216819Y-89241428D02*
X118169200Y-89336666D01*
X118169200Y-89336666D02*
X118121580Y-89384285D01*
X118121580Y-89384285D02*
X118026342Y-89431904D01*
X118026342Y-89431904D02*
X117835866Y-89479523D01*
X117835866Y-89479523D02*
X117597771Y-89479523D01*
X117597771Y-89479523D02*
X117407295Y-89431904D01*
X117407295Y-89431904D02*
X117312057Y-89384285D01*
X117312057Y-89384285D02*
X117264438Y-89336666D01*
X117264438Y-89336666D02*
X117216819Y-89241428D01*
D10*
X81854318Y-112237762D02*
X80584318Y-112237762D01*
X81733365Y-110907285D02*
X81793842Y-110967761D01*
X81793842Y-110967761D02*
X81854318Y-111149190D01*
X81854318Y-111149190D02*
X81854318Y-111270142D01*
X81854318Y-111270142D02*
X81793842Y-111451571D01*
X81793842Y-111451571D02*
X81672889Y-111572523D01*
X81672889Y-111572523D02*
X81551937Y-111633000D01*
X81551937Y-111633000D02*
X81310032Y-111693476D01*
X81310032Y-111693476D02*
X81128603Y-111693476D01*
X81128603Y-111693476D02*
X80886699Y-111633000D01*
X80886699Y-111633000D02*
X80765746Y-111572523D01*
X80765746Y-111572523D02*
X80644794Y-111451571D01*
X80644794Y-111451571D02*
X80584318Y-111270142D01*
X80584318Y-111270142D02*
X80584318Y-111149190D01*
X80584318Y-111149190D02*
X80644794Y-110967761D01*
X80644794Y-110967761D02*
X80705270Y-110907285D01*
X81854318Y-109697761D02*
X81854318Y-110423476D01*
X81854318Y-110060619D02*
X80584318Y-110060619D01*
X80584318Y-110060619D02*
X80765746Y-110181571D01*
X80765746Y-110181571D02*
X80886699Y-110302523D01*
X80886699Y-110302523D02*
X80947175Y-110423476D01*
D11*
X128121580Y-100187357D02*
X128169200Y-100234976D01*
X128169200Y-100234976D02*
X128216819Y-100377833D01*
X128216819Y-100377833D02*
X128216819Y-100473071D01*
X128216819Y-100473071D02*
X128169200Y-100615928D01*
X128169200Y-100615928D02*
X128073961Y-100711166D01*
X128073961Y-100711166D02*
X127978723Y-100758785D01*
X127978723Y-100758785D02*
X127788247Y-100806404D01*
X127788247Y-100806404D02*
X127645390Y-100806404D01*
X127645390Y-100806404D02*
X127454914Y-100758785D01*
X127454914Y-100758785D02*
X127359676Y-100711166D01*
X127359676Y-100711166D02*
X127264438Y-100615928D01*
X127264438Y-100615928D02*
X127216819Y-100473071D01*
X127216819Y-100473071D02*
X127216819Y-100377833D01*
X127216819Y-100377833D02*
X127264438Y-100234976D01*
X127264438Y-100234976D02*
X127312057Y-100187357D01*
X127312057Y-99806404D02*
X127264438Y-99758785D01*
X127264438Y-99758785D02*
X127216819Y-99663547D01*
X127216819Y-99663547D02*
X127216819Y-99425452D01*
X127216819Y-99425452D02*
X127264438Y-99330214D01*
X127264438Y-99330214D02*
X127312057Y-99282595D01*
X127312057Y-99282595D02*
X127407295Y-99234976D01*
X127407295Y-99234976D02*
X127502533Y-99234976D01*
X127502533Y-99234976D02*
X127645390Y-99282595D01*
X127645390Y-99282595D02*
X128216819Y-99854023D01*
X128216819Y-99854023D02*
X128216819Y-99234976D01*
X127216819Y-98330214D02*
X127216819Y-98806404D01*
X127216819Y-98806404D02*
X127693009Y-98854023D01*
X127693009Y-98854023D02*
X127645390Y-98806404D01*
X127645390Y-98806404D02*
X127597771Y-98711166D01*
X127597771Y-98711166D02*
X127597771Y-98473071D01*
X127597771Y-98473071D02*
X127645390Y-98377833D01*
X127645390Y-98377833D02*
X127693009Y-98330214D01*
X127693009Y-98330214D02*
X127788247Y-98282595D01*
X127788247Y-98282595D02*
X128026342Y-98282595D01*
X128026342Y-98282595D02*
X128121580Y-98330214D01*
X128121580Y-98330214D02*
X128169200Y-98377833D01*
X128169200Y-98377833D02*
X128216819Y-98473071D01*
X128216819Y-98473071D02*
X128216819Y-98711166D01*
X128216819Y-98711166D02*
X128169200Y-98806404D01*
X128169200Y-98806404D02*
X128121580Y-98854023D01*
X83907333Y-98023819D02*
X83574000Y-97547628D01*
X83335905Y-98023819D02*
X83335905Y-97023819D01*
X83335905Y-97023819D02*
X83716857Y-97023819D01*
X83716857Y-97023819D02*
X83812095Y-97071438D01*
X83812095Y-97071438D02*
X83859714Y-97119057D01*
X83859714Y-97119057D02*
X83907333Y-97214295D01*
X83907333Y-97214295D02*
X83907333Y-97357152D01*
X83907333Y-97357152D02*
X83859714Y-97452390D01*
X83859714Y-97452390D02*
X83812095Y-97500009D01*
X83812095Y-97500009D02*
X83716857Y-97547628D01*
X83716857Y-97547628D02*
X83335905Y-97547628D01*
X84859714Y-98023819D02*
X84288286Y-98023819D01*
X84574000Y-98023819D02*
X84574000Y-97023819D01*
X84574000Y-97023819D02*
X84478762Y-97166676D01*
X84478762Y-97166676D02*
X84383524Y-97261914D01*
X84383524Y-97261914D02*
X84288286Y-97309533D01*
X103776819Y-118871904D02*
X104586342Y-118871904D01*
X104586342Y-118871904D02*
X104681580Y-118824285D01*
X104681580Y-118824285D02*
X104729200Y-118776666D01*
X104729200Y-118776666D02*
X104776819Y-118681428D01*
X104776819Y-118681428D02*
X104776819Y-118490952D01*
X104776819Y-118490952D02*
X104729200Y-118395714D01*
X104729200Y-118395714D02*
X104681580Y-118348095D01*
X104681580Y-118348095D02*
X104586342Y-118300476D01*
X104586342Y-118300476D02*
X103776819Y-118300476D01*
X103776819Y-117919523D02*
X103776819Y-117300476D01*
X103776819Y-117300476D02*
X104157771Y-117633809D01*
X104157771Y-117633809D02*
X104157771Y-117490952D01*
X104157771Y-117490952D02*
X104205390Y-117395714D01*
X104205390Y-117395714D02*
X104253009Y-117348095D01*
X104253009Y-117348095D02*
X104348247Y-117300476D01*
X104348247Y-117300476D02*
X104586342Y-117300476D01*
X104586342Y-117300476D02*
X104681580Y-117348095D01*
X104681580Y-117348095D02*
X104729200Y-117395714D01*
X104729200Y-117395714D02*
X104776819Y-117490952D01*
X104776819Y-117490952D02*
X104776819Y-117776666D01*
X104776819Y-117776666D02*
X104729200Y-117871904D01*
X104729200Y-117871904D02*
X104681580Y-117919523D01*
X80518095Y-94818819D02*
X80518095Y-95628342D01*
X80518095Y-95628342D02*
X80565714Y-95723580D01*
X80565714Y-95723580D02*
X80613333Y-95771200D01*
X80613333Y-95771200D02*
X80708571Y-95818819D01*
X80708571Y-95818819D02*
X80899047Y-95818819D01*
X80899047Y-95818819D02*
X80994285Y-95771200D01*
X80994285Y-95771200D02*
X81041904Y-95723580D01*
X81041904Y-95723580D02*
X81089523Y-95628342D01*
X81089523Y-95628342D02*
X81089523Y-94818819D01*
X81518095Y-94914057D02*
X81565714Y-94866438D01*
X81565714Y-94866438D02*
X81660952Y-94818819D01*
X81660952Y-94818819D02*
X81899047Y-94818819D01*
X81899047Y-94818819D02*
X81994285Y-94866438D01*
X81994285Y-94866438D02*
X82041904Y-94914057D01*
X82041904Y-94914057D02*
X82089523Y-95009295D01*
X82089523Y-95009295D02*
X82089523Y-95104533D01*
X82089523Y-95104533D02*
X82041904Y-95247390D01*
X82041904Y-95247390D02*
X81470476Y-95818819D01*
X81470476Y-95818819D02*
X82089523Y-95818819D01*
X99038628Y-105378190D02*
X99514819Y-105378190D01*
X98514819Y-105711523D02*
X99038628Y-105378190D01*
X99038628Y-105378190D02*
X98514819Y-105044857D01*
X99514819Y-104187714D02*
X99514819Y-104759142D01*
X99514819Y-104473428D02*
X98514819Y-104473428D01*
X98514819Y-104473428D02*
X98657676Y-104568666D01*
X98657676Y-104568666D02*
X98752914Y-104663904D01*
X98752914Y-104663904D02*
X98800533Y-104759142D01*
X109071580Y-116466857D02*
X109119200Y-116514476D01*
X109119200Y-116514476D02*
X109166819Y-116657333D01*
X109166819Y-116657333D02*
X109166819Y-116752571D01*
X109166819Y-116752571D02*
X109119200Y-116895428D01*
X109119200Y-116895428D02*
X109023961Y-116990666D01*
X109023961Y-116990666D02*
X108928723Y-117038285D01*
X108928723Y-117038285D02*
X108738247Y-117085904D01*
X108738247Y-117085904D02*
X108595390Y-117085904D01*
X108595390Y-117085904D02*
X108404914Y-117038285D01*
X108404914Y-117038285D02*
X108309676Y-116990666D01*
X108309676Y-116990666D02*
X108214438Y-116895428D01*
X108214438Y-116895428D02*
X108166819Y-116752571D01*
X108166819Y-116752571D02*
X108166819Y-116657333D01*
X108166819Y-116657333D02*
X108214438Y-116514476D01*
X108214438Y-116514476D02*
X108262057Y-116466857D01*
X109166819Y-115514476D02*
X109166819Y-116085904D01*
X109166819Y-115800190D02*
X108166819Y-115800190D01*
X108166819Y-115800190D02*
X108309676Y-115895428D01*
X108309676Y-115895428D02*
X108404914Y-115990666D01*
X108404914Y-115990666D02*
X108452533Y-116085904D01*
X108500152Y-114657333D02*
X109166819Y-114657333D01*
X108119200Y-114895428D02*
X108833485Y-115133523D01*
X108833485Y-115133523D02*
X108833485Y-114514476D01*
D10*
X78298318Y-83015666D02*
X78298318Y-83620428D01*
X78298318Y-83620428D02*
X77028318Y-83620428D01*
X78298318Y-81927094D02*
X78298318Y-82652809D01*
X78298318Y-82289952D02*
X77028318Y-82289952D01*
X77028318Y-82289952D02*
X77209746Y-82410904D01*
X77209746Y-82410904D02*
X77330699Y-82531856D01*
X77330699Y-82531856D02*
X77391175Y-82652809D01*
D11*
X136612333Y-100878819D02*
X136279000Y-100402628D01*
X136040905Y-100878819D02*
X136040905Y-99878819D01*
X136040905Y-99878819D02*
X136421857Y-99878819D01*
X136421857Y-99878819D02*
X136517095Y-99926438D01*
X136517095Y-99926438D02*
X136564714Y-99974057D01*
X136564714Y-99974057D02*
X136612333Y-100069295D01*
X136612333Y-100069295D02*
X136612333Y-100212152D01*
X136612333Y-100212152D02*
X136564714Y-100307390D01*
X136564714Y-100307390D02*
X136517095Y-100355009D01*
X136517095Y-100355009D02*
X136421857Y-100402628D01*
X136421857Y-100402628D02*
X136040905Y-100402628D01*
X136945667Y-99878819D02*
X137612333Y-99878819D01*
X137612333Y-99878819D02*
X137183762Y-100878819D01*
X136739333Y-97322819D02*
X136406000Y-96846628D01*
X136167905Y-97322819D02*
X136167905Y-96322819D01*
X136167905Y-96322819D02*
X136548857Y-96322819D01*
X136548857Y-96322819D02*
X136644095Y-96370438D01*
X136644095Y-96370438D02*
X136691714Y-96418057D01*
X136691714Y-96418057D02*
X136739333Y-96513295D01*
X136739333Y-96513295D02*
X136739333Y-96656152D01*
X136739333Y-96656152D02*
X136691714Y-96751390D01*
X136691714Y-96751390D02*
X136644095Y-96799009D01*
X136644095Y-96799009D02*
X136548857Y-96846628D01*
X136548857Y-96846628D02*
X136167905Y-96846628D01*
X137596476Y-96322819D02*
X137406000Y-96322819D01*
X137406000Y-96322819D02*
X137310762Y-96370438D01*
X137310762Y-96370438D02*
X137263143Y-96418057D01*
X137263143Y-96418057D02*
X137167905Y-96560914D01*
X137167905Y-96560914D02*
X137120286Y-96751390D01*
X137120286Y-96751390D02*
X137120286Y-97132342D01*
X137120286Y-97132342D02*
X137167905Y-97227580D01*
X137167905Y-97227580D02*
X137215524Y-97275200D01*
X137215524Y-97275200D02*
X137310762Y-97322819D01*
X137310762Y-97322819D02*
X137501238Y-97322819D01*
X137501238Y-97322819D02*
X137596476Y-97275200D01*
X137596476Y-97275200D02*
X137644095Y-97227580D01*
X137644095Y-97227580D02*
X137691714Y-97132342D01*
X137691714Y-97132342D02*
X137691714Y-96894247D01*
X137691714Y-96894247D02*
X137644095Y-96799009D01*
X137644095Y-96799009D02*
X137596476Y-96751390D01*
X137596476Y-96751390D02*
X137501238Y-96703771D01*
X137501238Y-96703771D02*
X137310762Y-96703771D01*
X137310762Y-96703771D02*
X137215524Y-96751390D01*
X137215524Y-96751390D02*
X137167905Y-96799009D01*
X137167905Y-96799009D02*
X137120286Y-96894247D01*
X117801580Y-97924857D02*
X117849200Y-97972476D01*
X117849200Y-97972476D02*
X117896819Y-98115333D01*
X117896819Y-98115333D02*
X117896819Y-98210571D01*
X117896819Y-98210571D02*
X117849200Y-98353428D01*
X117849200Y-98353428D02*
X117753961Y-98448666D01*
X117753961Y-98448666D02*
X117658723Y-98496285D01*
X117658723Y-98496285D02*
X117468247Y-98543904D01*
X117468247Y-98543904D02*
X117325390Y-98543904D01*
X117325390Y-98543904D02*
X117134914Y-98496285D01*
X117134914Y-98496285D02*
X117039676Y-98448666D01*
X117039676Y-98448666D02*
X116944438Y-98353428D01*
X116944438Y-98353428D02*
X116896819Y-98210571D01*
X116896819Y-98210571D02*
X116896819Y-98115333D01*
X116896819Y-98115333D02*
X116944438Y-97972476D01*
X116944438Y-97972476D02*
X116992057Y-97924857D01*
X117896819Y-96972476D02*
X117896819Y-97543904D01*
X117896819Y-97258190D02*
X116896819Y-97258190D01*
X116896819Y-97258190D02*
X117039676Y-97353428D01*
X117039676Y-97353428D02*
X117134914Y-97448666D01*
X117134914Y-97448666D02*
X117182533Y-97543904D01*
X116992057Y-96591523D02*
X116944438Y-96543904D01*
X116944438Y-96543904D02*
X116896819Y-96448666D01*
X116896819Y-96448666D02*
X116896819Y-96210571D01*
X116896819Y-96210571D02*
X116944438Y-96115333D01*
X116944438Y-96115333D02*
X116992057Y-96067714D01*
X116992057Y-96067714D02*
X117087295Y-96020095D01*
X117087295Y-96020095D02*
X117182533Y-96020095D01*
X117182533Y-96020095D02*
X117325390Y-96067714D01*
X117325390Y-96067714D02*
X117896819Y-96639142D01*
X117896819Y-96639142D02*
X117896819Y-96020095D01*
X101179333Y-112119580D02*
X101131714Y-112167200D01*
X101131714Y-112167200D02*
X100988857Y-112214819D01*
X100988857Y-112214819D02*
X100893619Y-112214819D01*
X100893619Y-112214819D02*
X100750762Y-112167200D01*
X100750762Y-112167200D02*
X100655524Y-112071961D01*
X100655524Y-112071961D02*
X100607905Y-111976723D01*
X100607905Y-111976723D02*
X100560286Y-111786247D01*
X100560286Y-111786247D02*
X100560286Y-111643390D01*
X100560286Y-111643390D02*
X100607905Y-111452914D01*
X100607905Y-111452914D02*
X100655524Y-111357676D01*
X100655524Y-111357676D02*
X100750762Y-111262438D01*
X100750762Y-111262438D02*
X100893619Y-111214819D01*
X100893619Y-111214819D02*
X100988857Y-111214819D01*
X100988857Y-111214819D02*
X101131714Y-111262438D01*
X101131714Y-111262438D02*
X101179333Y-111310057D01*
X101750762Y-111643390D02*
X101655524Y-111595771D01*
X101655524Y-111595771D02*
X101607905Y-111548152D01*
X101607905Y-111548152D02*
X101560286Y-111452914D01*
X101560286Y-111452914D02*
X101560286Y-111405295D01*
X101560286Y-111405295D02*
X101607905Y-111310057D01*
X101607905Y-111310057D02*
X101655524Y-111262438D01*
X101655524Y-111262438D02*
X101750762Y-111214819D01*
X101750762Y-111214819D02*
X101941238Y-111214819D01*
X101941238Y-111214819D02*
X102036476Y-111262438D01*
X102036476Y-111262438D02*
X102084095Y-111310057D01*
X102084095Y-111310057D02*
X102131714Y-111405295D01*
X102131714Y-111405295D02*
X102131714Y-111452914D01*
X102131714Y-111452914D02*
X102084095Y-111548152D01*
X102084095Y-111548152D02*
X102036476Y-111595771D01*
X102036476Y-111595771D02*
X101941238Y-111643390D01*
X101941238Y-111643390D02*
X101750762Y-111643390D01*
X101750762Y-111643390D02*
X101655524Y-111691009D01*
X101655524Y-111691009D02*
X101607905Y-111738628D01*
X101607905Y-111738628D02*
X101560286Y-111833866D01*
X101560286Y-111833866D02*
X101560286Y-112024342D01*
X101560286Y-112024342D02*
X101607905Y-112119580D01*
X101607905Y-112119580D02*
X101655524Y-112167200D01*
X101655524Y-112167200D02*
X101750762Y-112214819D01*
X101750762Y-112214819D02*
X101941238Y-112214819D01*
X101941238Y-112214819D02*
X102036476Y-112167200D01*
X102036476Y-112167200D02*
X102084095Y-112119580D01*
X102084095Y-112119580D02*
X102131714Y-112024342D01*
X102131714Y-112024342D02*
X102131714Y-111833866D01*
X102131714Y-111833866D02*
X102084095Y-111738628D01*
X102084095Y-111738628D02*
X102036476Y-111691009D01*
X102036476Y-111691009D02*
X101941238Y-111643390D01*
X80464819Y-88050666D02*
X79988628Y-88383999D01*
X80464819Y-88622094D02*
X79464819Y-88622094D01*
X79464819Y-88622094D02*
X79464819Y-88241142D01*
X79464819Y-88241142D02*
X79512438Y-88145904D01*
X79512438Y-88145904D02*
X79560057Y-88098285D01*
X79560057Y-88098285D02*
X79655295Y-88050666D01*
X79655295Y-88050666D02*
X79798152Y-88050666D01*
X79798152Y-88050666D02*
X79893390Y-88098285D01*
X79893390Y-88098285D02*
X79941009Y-88145904D01*
X79941009Y-88145904D02*
X79988628Y-88241142D01*
X79988628Y-88241142D02*
X79988628Y-88622094D01*
X79560057Y-87669713D02*
X79512438Y-87622094D01*
X79512438Y-87622094D02*
X79464819Y-87526856D01*
X79464819Y-87526856D02*
X79464819Y-87288761D01*
X79464819Y-87288761D02*
X79512438Y-87193523D01*
X79512438Y-87193523D02*
X79560057Y-87145904D01*
X79560057Y-87145904D02*
X79655295Y-87098285D01*
X79655295Y-87098285D02*
X79750533Y-87098285D01*
X79750533Y-87098285D02*
X79893390Y-87145904D01*
X79893390Y-87145904D02*
X80464819Y-87717332D01*
X80464819Y-87717332D02*
X80464819Y-87098285D01*
X106627819Y-119738333D02*
X107342104Y-119738333D01*
X107342104Y-119738333D02*
X107484961Y-119785952D01*
X107484961Y-119785952D02*
X107580200Y-119881190D01*
X107580200Y-119881190D02*
X107627819Y-120024047D01*
X107627819Y-120024047D02*
X107627819Y-120119285D01*
X106627819Y-118833571D02*
X106627819Y-119024047D01*
X106627819Y-119024047D02*
X106675438Y-119119285D01*
X106675438Y-119119285D02*
X106723057Y-119166904D01*
X106723057Y-119166904D02*
X106865914Y-119262142D01*
X106865914Y-119262142D02*
X107056390Y-119309761D01*
X107056390Y-119309761D02*
X107437342Y-119309761D01*
X107437342Y-119309761D02*
X107532580Y-119262142D01*
X107532580Y-119262142D02*
X107580200Y-119214523D01*
X107580200Y-119214523D02*
X107627819Y-119119285D01*
X107627819Y-119119285D02*
X107627819Y-118928809D01*
X107627819Y-118928809D02*
X107580200Y-118833571D01*
X107580200Y-118833571D02*
X107532580Y-118785952D01*
X107532580Y-118785952D02*
X107437342Y-118738333D01*
X107437342Y-118738333D02*
X107199247Y-118738333D01*
X107199247Y-118738333D02*
X107104009Y-118785952D01*
X107104009Y-118785952D02*
X107056390Y-118833571D01*
X107056390Y-118833571D02*
X107008771Y-118928809D01*
X107008771Y-118928809D02*
X107008771Y-119119285D01*
X107008771Y-119119285D02*
X107056390Y-119214523D01*
X107056390Y-119214523D02*
X107104009Y-119262142D01*
X107104009Y-119262142D02*
X107199247Y-119309761D01*
X132026819Y-94114857D02*
X131550628Y-94448190D01*
X132026819Y-94686285D02*
X131026819Y-94686285D01*
X131026819Y-94686285D02*
X131026819Y-94305333D01*
X131026819Y-94305333D02*
X131074438Y-94210095D01*
X131074438Y-94210095D02*
X131122057Y-94162476D01*
X131122057Y-94162476D02*
X131217295Y-94114857D01*
X131217295Y-94114857D02*
X131360152Y-94114857D01*
X131360152Y-94114857D02*
X131455390Y-94162476D01*
X131455390Y-94162476D02*
X131503009Y-94210095D01*
X131503009Y-94210095D02*
X131550628Y-94305333D01*
X131550628Y-94305333D02*
X131550628Y-94686285D01*
X132026819Y-93162476D02*
X132026819Y-93733904D01*
X132026819Y-93448190D02*
X131026819Y-93448190D01*
X131026819Y-93448190D02*
X131169676Y-93543428D01*
X131169676Y-93543428D02*
X131264914Y-93638666D01*
X131264914Y-93638666D02*
X131312533Y-93733904D01*
X131026819Y-92829142D02*
X131026819Y-92162476D01*
X131026819Y-92162476D02*
X132026819Y-92591047D01*
X86117580Y-89320666D02*
X86165200Y-89368285D01*
X86165200Y-89368285D02*
X86212819Y-89511142D01*
X86212819Y-89511142D02*
X86212819Y-89606380D01*
X86212819Y-89606380D02*
X86165200Y-89749237D01*
X86165200Y-89749237D02*
X86069961Y-89844475D01*
X86069961Y-89844475D02*
X85974723Y-89892094D01*
X85974723Y-89892094D02*
X85784247Y-89939713D01*
X85784247Y-89939713D02*
X85641390Y-89939713D01*
X85641390Y-89939713D02*
X85450914Y-89892094D01*
X85450914Y-89892094D02*
X85355676Y-89844475D01*
X85355676Y-89844475D02*
X85260438Y-89749237D01*
X85260438Y-89749237D02*
X85212819Y-89606380D01*
X85212819Y-89606380D02*
X85212819Y-89511142D01*
X85212819Y-89511142D02*
X85260438Y-89368285D01*
X85260438Y-89368285D02*
X85308057Y-89320666D01*
X86212819Y-88368285D02*
X86212819Y-88939713D01*
X86212819Y-88653999D02*
X85212819Y-88653999D01*
X85212819Y-88653999D02*
X85355676Y-88749237D01*
X85355676Y-88749237D02*
X85450914Y-88844475D01*
X85450914Y-88844475D02*
X85498533Y-88939713D01*
X77335142Y-100022819D02*
X77001809Y-99546628D01*
X76763714Y-100022819D02*
X76763714Y-99022819D01*
X76763714Y-99022819D02*
X77144666Y-99022819D01*
X77144666Y-99022819D02*
X77239904Y-99070438D01*
X77239904Y-99070438D02*
X77287523Y-99118057D01*
X77287523Y-99118057D02*
X77335142Y-99213295D01*
X77335142Y-99213295D02*
X77335142Y-99356152D01*
X77335142Y-99356152D02*
X77287523Y-99451390D01*
X77287523Y-99451390D02*
X77239904Y-99499009D01*
X77239904Y-99499009D02*
X77144666Y-99546628D01*
X77144666Y-99546628D02*
X76763714Y-99546628D01*
X77716095Y-99118057D02*
X77763714Y-99070438D01*
X77763714Y-99070438D02*
X77858952Y-99022819D01*
X77858952Y-99022819D02*
X78097047Y-99022819D01*
X78097047Y-99022819D02*
X78192285Y-99070438D01*
X78192285Y-99070438D02*
X78239904Y-99118057D01*
X78239904Y-99118057D02*
X78287523Y-99213295D01*
X78287523Y-99213295D02*
X78287523Y-99308533D01*
X78287523Y-99308533D02*
X78239904Y-99451390D01*
X78239904Y-99451390D02*
X77668476Y-100022819D01*
X77668476Y-100022819D02*
X78287523Y-100022819D01*
X78620857Y-99022819D02*
X79239904Y-99022819D01*
X79239904Y-99022819D02*
X78906571Y-99403771D01*
X78906571Y-99403771D02*
X79049428Y-99403771D01*
X79049428Y-99403771D02*
X79144666Y-99451390D01*
X79144666Y-99451390D02*
X79192285Y-99499009D01*
X79192285Y-99499009D02*
X79239904Y-99594247D01*
X79239904Y-99594247D02*
X79239904Y-99832342D01*
X79239904Y-99832342D02*
X79192285Y-99927580D01*
X79192285Y-99927580D02*
X79144666Y-99975200D01*
X79144666Y-99975200D02*
X79049428Y-100022819D01*
X79049428Y-100022819D02*
X78763714Y-100022819D01*
X78763714Y-100022819D02*
X78668476Y-99975200D01*
X78668476Y-99975200D02*
X78620857Y-99927580D01*
X101380580Y-109333357D02*
X101428200Y-109380976D01*
X101428200Y-109380976D02*
X101475819Y-109523833D01*
X101475819Y-109523833D02*
X101475819Y-109619071D01*
X101475819Y-109619071D02*
X101428200Y-109761928D01*
X101428200Y-109761928D02*
X101332961Y-109857166D01*
X101332961Y-109857166D02*
X101237723Y-109904785D01*
X101237723Y-109904785D02*
X101047247Y-109952404D01*
X101047247Y-109952404D02*
X100904390Y-109952404D01*
X100904390Y-109952404D02*
X100713914Y-109904785D01*
X100713914Y-109904785D02*
X100618676Y-109857166D01*
X100618676Y-109857166D02*
X100523438Y-109761928D01*
X100523438Y-109761928D02*
X100475819Y-109619071D01*
X100475819Y-109619071D02*
X100475819Y-109523833D01*
X100475819Y-109523833D02*
X100523438Y-109380976D01*
X100523438Y-109380976D02*
X100571057Y-109333357D01*
X101475819Y-108380976D02*
X101475819Y-108952404D01*
X101475819Y-108666690D02*
X100475819Y-108666690D01*
X100475819Y-108666690D02*
X100618676Y-108761928D01*
X100618676Y-108761928D02*
X100713914Y-108857166D01*
X100713914Y-108857166D02*
X100761533Y-108952404D01*
X100904390Y-107809547D02*
X100856771Y-107904785D01*
X100856771Y-107904785D02*
X100809152Y-107952404D01*
X100809152Y-107952404D02*
X100713914Y-108000023D01*
X100713914Y-108000023D02*
X100666295Y-108000023D01*
X100666295Y-108000023D02*
X100571057Y-107952404D01*
X100571057Y-107952404D02*
X100523438Y-107904785D01*
X100523438Y-107904785D02*
X100475819Y-107809547D01*
X100475819Y-107809547D02*
X100475819Y-107619071D01*
X100475819Y-107619071D02*
X100523438Y-107523833D01*
X100523438Y-107523833D02*
X100571057Y-107476214D01*
X100571057Y-107476214D02*
X100666295Y-107428595D01*
X100666295Y-107428595D02*
X100713914Y-107428595D01*
X100713914Y-107428595D02*
X100809152Y-107476214D01*
X100809152Y-107476214D02*
X100856771Y-107523833D01*
X100856771Y-107523833D02*
X100904390Y-107619071D01*
X100904390Y-107619071D02*
X100904390Y-107809547D01*
X100904390Y-107809547D02*
X100952009Y-107904785D01*
X100952009Y-107904785D02*
X100999628Y-107952404D01*
X100999628Y-107952404D02*
X101094866Y-108000023D01*
X101094866Y-108000023D02*
X101285342Y-108000023D01*
X101285342Y-108000023D02*
X101380580Y-107952404D01*
X101380580Y-107952404D02*
X101428200Y-107904785D01*
X101428200Y-107904785D02*
X101475819Y-107809547D01*
X101475819Y-107809547D02*
X101475819Y-107619071D01*
X101475819Y-107619071D02*
X101428200Y-107523833D01*
X101428200Y-107523833D02*
X101380580Y-107476214D01*
X101380580Y-107476214D02*
X101285342Y-107428595D01*
X101285342Y-107428595D02*
X101094866Y-107428595D01*
X101094866Y-107428595D02*
X100999628Y-107476214D01*
X100999628Y-107476214D02*
X100952009Y-107523833D01*
X100952009Y-107523833D02*
X100904390Y-107619071D01*
X85036819Y-108180094D02*
X84036819Y-108180094D01*
X84036819Y-108180094D02*
X84036819Y-107941999D01*
X84036819Y-107941999D02*
X84084438Y-107799142D01*
X84084438Y-107799142D02*
X84179676Y-107703904D01*
X84179676Y-107703904D02*
X84274914Y-107656285D01*
X84274914Y-107656285D02*
X84465390Y-107608666D01*
X84465390Y-107608666D02*
X84608247Y-107608666D01*
X84608247Y-107608666D02*
X84798723Y-107656285D01*
X84798723Y-107656285D02*
X84893961Y-107703904D01*
X84893961Y-107703904D02*
X84989200Y-107799142D01*
X84989200Y-107799142D02*
X85036819Y-107941999D01*
X85036819Y-107941999D02*
X85036819Y-108180094D01*
X84132057Y-107227713D02*
X84084438Y-107180094D01*
X84084438Y-107180094D02*
X84036819Y-107084856D01*
X84036819Y-107084856D02*
X84036819Y-106846761D01*
X84036819Y-106846761D02*
X84084438Y-106751523D01*
X84084438Y-106751523D02*
X84132057Y-106703904D01*
X84132057Y-106703904D02*
X84227295Y-106656285D01*
X84227295Y-106656285D02*
X84322533Y-106656285D01*
X84322533Y-106656285D02*
X84465390Y-106703904D01*
X84465390Y-106703904D02*
X85036819Y-107275332D01*
X85036819Y-107275332D02*
X85036819Y-106656285D01*
D10*
X98775556Y-97632761D02*
X99380318Y-97632761D01*
X98110318Y-98056094D02*
X98775556Y-97632761D01*
X98775556Y-97632761D02*
X98110318Y-97209427D01*
X98231270Y-96846571D02*
X98170794Y-96786095D01*
X98170794Y-96786095D02*
X98110318Y-96665142D01*
X98110318Y-96665142D02*
X98110318Y-96362761D01*
X98110318Y-96362761D02*
X98170794Y-96241809D01*
X98170794Y-96241809D02*
X98231270Y-96181333D01*
X98231270Y-96181333D02*
X98352222Y-96120856D01*
X98352222Y-96120856D02*
X98473175Y-96120856D01*
X98473175Y-96120856D02*
X98654603Y-96181333D01*
X98654603Y-96181333D02*
X99380318Y-96907047D01*
X99380318Y-96907047D02*
X99380318Y-96120856D01*
D11*
X100703142Y-102467580D02*
X100655523Y-102515200D01*
X100655523Y-102515200D02*
X100512666Y-102562819D01*
X100512666Y-102562819D02*
X100417428Y-102562819D01*
X100417428Y-102562819D02*
X100274571Y-102515200D01*
X100274571Y-102515200D02*
X100179333Y-102419961D01*
X100179333Y-102419961D02*
X100131714Y-102324723D01*
X100131714Y-102324723D02*
X100084095Y-102134247D01*
X100084095Y-102134247D02*
X100084095Y-101991390D01*
X100084095Y-101991390D02*
X100131714Y-101800914D01*
X100131714Y-101800914D02*
X100179333Y-101705676D01*
X100179333Y-101705676D02*
X100274571Y-101610438D01*
X100274571Y-101610438D02*
X100417428Y-101562819D01*
X100417428Y-101562819D02*
X100512666Y-101562819D01*
X100512666Y-101562819D02*
X100655523Y-101610438D01*
X100655523Y-101610438D02*
X100703142Y-101658057D01*
X101084095Y-101658057D02*
X101131714Y-101610438D01*
X101131714Y-101610438D02*
X101226952Y-101562819D01*
X101226952Y-101562819D02*
X101465047Y-101562819D01*
X101465047Y-101562819D02*
X101560285Y-101610438D01*
X101560285Y-101610438D02*
X101607904Y-101658057D01*
X101607904Y-101658057D02*
X101655523Y-101753295D01*
X101655523Y-101753295D02*
X101655523Y-101848533D01*
X101655523Y-101848533D02*
X101607904Y-101991390D01*
X101607904Y-101991390D02*
X101036476Y-102562819D01*
X101036476Y-102562819D02*
X101655523Y-102562819D01*
X102512666Y-101896152D02*
X102512666Y-102562819D01*
X102274571Y-101515200D02*
X102036476Y-102229485D01*
X102036476Y-102229485D02*
X102655523Y-102229485D01*
X75035580Y-111418666D02*
X75083200Y-111466285D01*
X75083200Y-111466285D02*
X75130819Y-111609142D01*
X75130819Y-111609142D02*
X75130819Y-111704380D01*
X75130819Y-111704380D02*
X75083200Y-111847237D01*
X75083200Y-111847237D02*
X74987961Y-111942475D01*
X74987961Y-111942475D02*
X74892723Y-111990094D01*
X74892723Y-111990094D02*
X74702247Y-112037713D01*
X74702247Y-112037713D02*
X74559390Y-112037713D01*
X74559390Y-112037713D02*
X74368914Y-111990094D01*
X74368914Y-111990094D02*
X74273676Y-111942475D01*
X74273676Y-111942475D02*
X74178438Y-111847237D01*
X74178438Y-111847237D02*
X74130819Y-111704380D01*
X74130819Y-111704380D02*
X74130819Y-111609142D01*
X74130819Y-111609142D02*
X74178438Y-111466285D01*
X74178438Y-111466285D02*
X74226057Y-111418666D01*
X74130819Y-110561523D02*
X74130819Y-110751999D01*
X74130819Y-110751999D02*
X74178438Y-110847237D01*
X74178438Y-110847237D02*
X74226057Y-110894856D01*
X74226057Y-110894856D02*
X74368914Y-110990094D01*
X74368914Y-110990094D02*
X74559390Y-111037713D01*
X74559390Y-111037713D02*
X74940342Y-111037713D01*
X74940342Y-111037713D02*
X75035580Y-110990094D01*
X75035580Y-110990094D02*
X75083200Y-110942475D01*
X75083200Y-110942475D02*
X75130819Y-110847237D01*
X75130819Y-110847237D02*
X75130819Y-110656761D01*
X75130819Y-110656761D02*
X75083200Y-110561523D01*
X75083200Y-110561523D02*
X75035580Y-110513904D01*
X75035580Y-110513904D02*
X74940342Y-110466285D01*
X74940342Y-110466285D02*
X74702247Y-110466285D01*
X74702247Y-110466285D02*
X74607009Y-110513904D01*
X74607009Y-110513904D02*
X74559390Y-110561523D01*
X74559390Y-110561523D02*
X74511771Y-110656761D01*
X74511771Y-110656761D02*
X74511771Y-110847237D01*
X74511771Y-110847237D02*
X74559390Y-110942475D01*
X74559390Y-110942475D02*
X74607009Y-110990094D01*
X74607009Y-110990094D02*
X74702247Y-111037713D01*
X87481580Y-87796666D02*
X87529200Y-87844285D01*
X87529200Y-87844285D02*
X87576819Y-87987142D01*
X87576819Y-87987142D02*
X87576819Y-88082380D01*
X87576819Y-88082380D02*
X87529200Y-88225237D01*
X87529200Y-88225237D02*
X87433961Y-88320475D01*
X87433961Y-88320475D02*
X87338723Y-88368094D01*
X87338723Y-88368094D02*
X87148247Y-88415713D01*
X87148247Y-88415713D02*
X87005390Y-88415713D01*
X87005390Y-88415713D02*
X86814914Y-88368094D01*
X86814914Y-88368094D02*
X86719676Y-88320475D01*
X86719676Y-88320475D02*
X86624438Y-88225237D01*
X86624438Y-88225237D02*
X86576819Y-88082380D01*
X86576819Y-88082380D02*
X86576819Y-87987142D01*
X86576819Y-87987142D02*
X86624438Y-87844285D01*
X86624438Y-87844285D02*
X86672057Y-87796666D01*
X86672057Y-87415713D02*
X86624438Y-87368094D01*
X86624438Y-87368094D02*
X86576819Y-87272856D01*
X86576819Y-87272856D02*
X86576819Y-87034761D01*
X86576819Y-87034761D02*
X86624438Y-86939523D01*
X86624438Y-86939523D02*
X86672057Y-86891904D01*
X86672057Y-86891904D02*
X86767295Y-86844285D01*
X86767295Y-86844285D02*
X86862533Y-86844285D01*
X86862533Y-86844285D02*
X87005390Y-86891904D01*
X87005390Y-86891904D02*
X87576819Y-87463332D01*
X87576819Y-87463332D02*
X87576819Y-86844285D01*
D10*
X126830667Y-84140318D02*
X126830667Y-85047461D01*
X126830667Y-85047461D02*
X126770190Y-85228889D01*
X126770190Y-85228889D02*
X126649238Y-85349842D01*
X126649238Y-85349842D02*
X126467809Y-85410318D01*
X126467809Y-85410318D02*
X126346857Y-85410318D01*
X127314476Y-84140318D02*
X128100667Y-84140318D01*
X128100667Y-84140318D02*
X127677333Y-84624127D01*
X127677333Y-84624127D02*
X127858762Y-84624127D01*
X127858762Y-84624127D02*
X127979714Y-84684603D01*
X127979714Y-84684603D02*
X128040190Y-84745080D01*
X128040190Y-84745080D02*
X128100667Y-84866032D01*
X128100667Y-84866032D02*
X128100667Y-85168413D01*
X128100667Y-85168413D02*
X128040190Y-85289365D01*
X128040190Y-85289365D02*
X127979714Y-85349842D01*
X127979714Y-85349842D02*
X127858762Y-85410318D01*
X127858762Y-85410318D02*
X127495905Y-85410318D01*
X127495905Y-85410318D02*
X127374952Y-85349842D01*
X127374952Y-85349842D02*
X127314476Y-85289365D01*
D11*
X126184819Y-100210857D02*
X125708628Y-100544190D01*
X126184819Y-100782285D02*
X125184819Y-100782285D01*
X125184819Y-100782285D02*
X125184819Y-100401333D01*
X125184819Y-100401333D02*
X125232438Y-100306095D01*
X125232438Y-100306095D02*
X125280057Y-100258476D01*
X125280057Y-100258476D02*
X125375295Y-100210857D01*
X125375295Y-100210857D02*
X125518152Y-100210857D01*
X125518152Y-100210857D02*
X125613390Y-100258476D01*
X125613390Y-100258476D02*
X125661009Y-100306095D01*
X125661009Y-100306095D02*
X125708628Y-100401333D01*
X125708628Y-100401333D02*
X125708628Y-100782285D01*
X126184819Y-99258476D02*
X126184819Y-99829904D01*
X126184819Y-99544190D02*
X125184819Y-99544190D01*
X125184819Y-99544190D02*
X125327676Y-99639428D01*
X125327676Y-99639428D02*
X125422914Y-99734666D01*
X125422914Y-99734666D02*
X125470533Y-99829904D01*
X125184819Y-98925142D02*
X125184819Y-98306095D01*
X125184819Y-98306095D02*
X125565771Y-98639428D01*
X125565771Y-98639428D02*
X125565771Y-98496571D01*
X125565771Y-98496571D02*
X125613390Y-98401333D01*
X125613390Y-98401333D02*
X125661009Y-98353714D01*
X125661009Y-98353714D02*
X125756247Y-98306095D01*
X125756247Y-98306095D02*
X125994342Y-98306095D01*
X125994342Y-98306095D02*
X126089580Y-98353714D01*
X126089580Y-98353714D02*
X126137200Y-98401333D01*
X126137200Y-98401333D02*
X126184819Y-98496571D01*
X126184819Y-98496571D02*
X126184819Y-98782285D01*
X126184819Y-98782285D02*
X126137200Y-98877523D01*
X126137200Y-98877523D02*
X126089580Y-98925142D01*
X79956819Y-107354666D02*
X79480628Y-107687999D01*
X79956819Y-107926094D02*
X78956819Y-107926094D01*
X78956819Y-107926094D02*
X78956819Y-107545142D01*
X78956819Y-107545142D02*
X79004438Y-107449904D01*
X79004438Y-107449904D02*
X79052057Y-107402285D01*
X79052057Y-107402285D02*
X79147295Y-107354666D01*
X79147295Y-107354666D02*
X79290152Y-107354666D01*
X79290152Y-107354666D02*
X79385390Y-107402285D01*
X79385390Y-107402285D02*
X79433009Y-107449904D01*
X79433009Y-107449904D02*
X79480628Y-107545142D01*
X79480628Y-107545142D02*
X79480628Y-107926094D01*
X79290152Y-106497523D02*
X79956819Y-106497523D01*
X78909200Y-106735618D02*
X79623485Y-106973713D01*
X79623485Y-106973713D02*
X79623485Y-106354666D01*
D10*
X99827842Y-85041619D02*
X99888318Y-84860190D01*
X99888318Y-84860190D02*
X99888318Y-84557809D01*
X99888318Y-84557809D02*
X99827842Y-84436857D01*
X99827842Y-84436857D02*
X99767365Y-84376381D01*
X99767365Y-84376381D02*
X99646413Y-84315904D01*
X99646413Y-84315904D02*
X99525461Y-84315904D01*
X99525461Y-84315904D02*
X99404508Y-84376381D01*
X99404508Y-84376381D02*
X99344032Y-84436857D01*
X99344032Y-84436857D02*
X99283556Y-84557809D01*
X99283556Y-84557809D02*
X99223080Y-84799714D01*
X99223080Y-84799714D02*
X99162603Y-84920666D01*
X99162603Y-84920666D02*
X99102127Y-84981143D01*
X99102127Y-84981143D02*
X98981175Y-85041619D01*
X98981175Y-85041619D02*
X98860222Y-85041619D01*
X98860222Y-85041619D02*
X98739270Y-84981143D01*
X98739270Y-84981143D02*
X98678794Y-84920666D01*
X98678794Y-84920666D02*
X98618318Y-84799714D01*
X98618318Y-84799714D02*
X98618318Y-84497333D01*
X98618318Y-84497333D02*
X98678794Y-84315904D01*
X99888318Y-83106380D02*
X99888318Y-83832095D01*
X99888318Y-83469238D02*
X98618318Y-83469238D01*
X98618318Y-83469238D02*
X98799746Y-83590190D01*
X98799746Y-83590190D02*
X98920699Y-83711142D01*
X98920699Y-83711142D02*
X98981175Y-83832095D01*
D11*
X75130819Y-107467666D02*
X75130819Y-107943856D01*
X75130819Y-107943856D02*
X74130819Y-107943856D01*
X74130819Y-107229570D02*
X74130819Y-106610523D01*
X74130819Y-106610523D02*
X74511771Y-106943856D01*
X74511771Y-106943856D02*
X74511771Y-106800999D01*
X74511771Y-106800999D02*
X74559390Y-106705761D01*
X74559390Y-106705761D02*
X74607009Y-106658142D01*
X74607009Y-106658142D02*
X74702247Y-106610523D01*
X74702247Y-106610523D02*
X74940342Y-106610523D01*
X74940342Y-106610523D02*
X75035580Y-106658142D01*
X75035580Y-106658142D02*
X75083200Y-106705761D01*
X75083200Y-106705761D02*
X75130819Y-106800999D01*
X75130819Y-106800999D02*
X75130819Y-107086713D01*
X75130819Y-107086713D02*
X75083200Y-107181951D01*
X75083200Y-107181951D02*
X75035580Y-107229570D01*
X106625580Y-94876857D02*
X106673200Y-94924476D01*
X106673200Y-94924476D02*
X106720819Y-95067333D01*
X106720819Y-95067333D02*
X106720819Y-95162571D01*
X106720819Y-95162571D02*
X106673200Y-95305428D01*
X106673200Y-95305428D02*
X106577961Y-95400666D01*
X106577961Y-95400666D02*
X106482723Y-95448285D01*
X106482723Y-95448285D02*
X106292247Y-95495904D01*
X106292247Y-95495904D02*
X106149390Y-95495904D01*
X106149390Y-95495904D02*
X105958914Y-95448285D01*
X105958914Y-95448285D02*
X105863676Y-95400666D01*
X105863676Y-95400666D02*
X105768438Y-95305428D01*
X105768438Y-95305428D02*
X105720819Y-95162571D01*
X105720819Y-95162571D02*
X105720819Y-95067333D01*
X105720819Y-95067333D02*
X105768438Y-94924476D01*
X105768438Y-94924476D02*
X105816057Y-94876857D01*
X106720819Y-93924476D02*
X106720819Y-94495904D01*
X106720819Y-94210190D02*
X105720819Y-94210190D01*
X105720819Y-94210190D02*
X105863676Y-94305428D01*
X105863676Y-94305428D02*
X105958914Y-94400666D01*
X105958914Y-94400666D02*
X106006533Y-94495904D01*
X105720819Y-93591142D02*
X105720819Y-92972095D01*
X105720819Y-92972095D02*
X106101771Y-93305428D01*
X106101771Y-93305428D02*
X106101771Y-93162571D01*
X106101771Y-93162571D02*
X106149390Y-93067333D01*
X106149390Y-93067333D02*
X106197009Y-93019714D01*
X106197009Y-93019714D02*
X106292247Y-92972095D01*
X106292247Y-92972095D02*
X106530342Y-92972095D01*
X106530342Y-92972095D02*
X106625580Y-93019714D01*
X106625580Y-93019714D02*
X106673200Y-93067333D01*
X106673200Y-93067333D02*
X106720819Y-93162571D01*
X106720819Y-93162571D02*
X106720819Y-93448285D01*
X106720819Y-93448285D02*
X106673200Y-93543523D01*
X106673200Y-93543523D02*
X106625580Y-93591142D01*
X111506095Y-103086819D02*
X111506095Y-103896342D01*
X111506095Y-103896342D02*
X111553714Y-103991580D01*
X111553714Y-103991580D02*
X111601333Y-104039200D01*
X111601333Y-104039200D02*
X111696571Y-104086819D01*
X111696571Y-104086819D02*
X111887047Y-104086819D01*
X111887047Y-104086819D02*
X111982285Y-104039200D01*
X111982285Y-104039200D02*
X112029904Y-103991580D01*
X112029904Y-103991580D02*
X112077523Y-103896342D01*
X112077523Y-103896342D02*
X112077523Y-103086819D01*
X113077523Y-104086819D02*
X112506095Y-104086819D01*
X112791809Y-104086819D02*
X112791809Y-103086819D01*
X112791809Y-103086819D02*
X112696571Y-103229676D01*
X112696571Y-103229676D02*
X112601333Y-103324914D01*
X112601333Y-103324914D02*
X112506095Y-103372533D01*
X104106742Y-88083580D02*
X104059123Y-88131200D01*
X104059123Y-88131200D02*
X103916266Y-88178819D01*
X103916266Y-88178819D02*
X103821028Y-88178819D01*
X103821028Y-88178819D02*
X103678171Y-88131200D01*
X103678171Y-88131200D02*
X103582933Y-88035961D01*
X103582933Y-88035961D02*
X103535314Y-87940723D01*
X103535314Y-87940723D02*
X103487695Y-87750247D01*
X103487695Y-87750247D02*
X103487695Y-87607390D01*
X103487695Y-87607390D02*
X103535314Y-87416914D01*
X103535314Y-87416914D02*
X103582933Y-87321676D01*
X103582933Y-87321676D02*
X103678171Y-87226438D01*
X103678171Y-87226438D02*
X103821028Y-87178819D01*
X103821028Y-87178819D02*
X103916266Y-87178819D01*
X103916266Y-87178819D02*
X104059123Y-87226438D01*
X104059123Y-87226438D02*
X104106742Y-87274057D01*
X104487695Y-87274057D02*
X104535314Y-87226438D01*
X104535314Y-87226438D02*
X104630552Y-87178819D01*
X104630552Y-87178819D02*
X104868647Y-87178819D01*
X104868647Y-87178819D02*
X104963885Y-87226438D01*
X104963885Y-87226438D02*
X105011504Y-87274057D01*
X105011504Y-87274057D02*
X105059123Y-87369295D01*
X105059123Y-87369295D02*
X105059123Y-87464533D01*
X105059123Y-87464533D02*
X105011504Y-87607390D01*
X105011504Y-87607390D02*
X104440076Y-88178819D01*
X104440076Y-88178819D02*
X105059123Y-88178819D01*
X106011504Y-88178819D02*
X105440076Y-88178819D01*
X105725790Y-88178819D02*
X105725790Y-87178819D01*
X105725790Y-87178819D02*
X105630552Y-87321676D01*
X105630552Y-87321676D02*
X105535314Y-87416914D01*
X105535314Y-87416914D02*
X105440076Y-87464533D01*
X118494642Y-108929580D02*
X118447023Y-108977200D01*
X118447023Y-108977200D02*
X118304166Y-109024819D01*
X118304166Y-109024819D02*
X118208928Y-109024819D01*
X118208928Y-109024819D02*
X118066071Y-108977200D01*
X118066071Y-108977200D02*
X117970833Y-108881961D01*
X117970833Y-108881961D02*
X117923214Y-108786723D01*
X117923214Y-108786723D02*
X117875595Y-108596247D01*
X117875595Y-108596247D02*
X117875595Y-108453390D01*
X117875595Y-108453390D02*
X117923214Y-108262914D01*
X117923214Y-108262914D02*
X117970833Y-108167676D01*
X117970833Y-108167676D02*
X118066071Y-108072438D01*
X118066071Y-108072438D02*
X118208928Y-108024819D01*
X118208928Y-108024819D02*
X118304166Y-108024819D01*
X118304166Y-108024819D02*
X118447023Y-108072438D01*
X118447023Y-108072438D02*
X118494642Y-108120057D01*
X119447023Y-109024819D02*
X118875595Y-109024819D01*
X119161309Y-109024819D02*
X119161309Y-108024819D01*
X119161309Y-108024819D02*
X119066071Y-108167676D01*
X119066071Y-108167676D02*
X118970833Y-108262914D01*
X118970833Y-108262914D02*
X118875595Y-108310533D01*
X120351785Y-108024819D02*
X119875595Y-108024819D01*
X119875595Y-108024819D02*
X119827976Y-108501009D01*
X119827976Y-108501009D02*
X119875595Y-108453390D01*
X119875595Y-108453390D02*
X119970833Y-108405771D01*
X119970833Y-108405771D02*
X120208928Y-108405771D01*
X120208928Y-108405771D02*
X120304166Y-108453390D01*
X120304166Y-108453390D02*
X120351785Y-108501009D01*
X120351785Y-108501009D02*
X120399404Y-108596247D01*
X120399404Y-108596247D02*
X120399404Y-108834342D01*
X120399404Y-108834342D02*
X120351785Y-108929580D01*
X120351785Y-108929580D02*
X120304166Y-108977200D01*
X120304166Y-108977200D02*
X120208928Y-109024819D01*
X120208928Y-109024819D02*
X119970833Y-109024819D01*
X119970833Y-109024819D02*
X119875595Y-108977200D01*
X119875595Y-108977200D02*
X119827976Y-108929580D01*
X108249819Y-90725523D02*
X108964104Y-90725523D01*
X108964104Y-90725523D02*
X109106961Y-90773142D01*
X109106961Y-90773142D02*
X109202200Y-90868380D01*
X109202200Y-90868380D02*
X109249819Y-91011237D01*
X109249819Y-91011237D02*
X109249819Y-91106475D01*
X109249819Y-89725523D02*
X109249819Y-90296951D01*
X109249819Y-90011237D02*
X108249819Y-90011237D01*
X108249819Y-90011237D02*
X108392676Y-90106475D01*
X108392676Y-90106475D02*
X108487914Y-90201713D01*
X108487914Y-90201713D02*
X108535533Y-90296951D01*
X108249819Y-89106475D02*
X108249819Y-89011237D01*
X108249819Y-89011237D02*
X108297438Y-88915999D01*
X108297438Y-88915999D02*
X108345057Y-88868380D01*
X108345057Y-88868380D02*
X108440295Y-88820761D01*
X108440295Y-88820761D02*
X108630771Y-88773142D01*
X108630771Y-88773142D02*
X108868866Y-88773142D01*
X108868866Y-88773142D02*
X109059342Y-88820761D01*
X109059342Y-88820761D02*
X109154580Y-88868380D01*
X109154580Y-88868380D02*
X109202200Y-88915999D01*
X109202200Y-88915999D02*
X109249819Y-89011237D01*
X109249819Y-89011237D02*
X109249819Y-89106475D01*
X109249819Y-89106475D02*
X109202200Y-89201713D01*
X109202200Y-89201713D02*
X109154580Y-89249332D01*
X109154580Y-89249332D02*
X109059342Y-89296951D01*
X109059342Y-89296951D02*
X108868866Y-89344570D01*
X108868866Y-89344570D02*
X108630771Y-89344570D01*
X108630771Y-89344570D02*
X108440295Y-89296951D01*
X108440295Y-89296951D02*
X108345057Y-89249332D01*
X108345057Y-89249332D02*
X108297438Y-89201713D01*
X108297438Y-89201713D02*
X108249819Y-89106475D01*
X92910819Y-89828666D02*
X92434628Y-90161999D01*
X92910819Y-90400094D02*
X91910819Y-90400094D01*
X91910819Y-90400094D02*
X91910819Y-90019142D01*
X91910819Y-90019142D02*
X91958438Y-89923904D01*
X91958438Y-89923904D02*
X92006057Y-89876285D01*
X92006057Y-89876285D02*
X92101295Y-89828666D01*
X92101295Y-89828666D02*
X92244152Y-89828666D01*
X92244152Y-89828666D02*
X92339390Y-89876285D01*
X92339390Y-89876285D02*
X92387009Y-89923904D01*
X92387009Y-89923904D02*
X92434628Y-90019142D01*
X92434628Y-90019142D02*
X92434628Y-90400094D01*
X91910819Y-89495332D02*
X91910819Y-88876285D01*
X91910819Y-88876285D02*
X92291771Y-89209618D01*
X92291771Y-89209618D02*
X92291771Y-89066761D01*
X92291771Y-89066761D02*
X92339390Y-88971523D01*
X92339390Y-88971523D02*
X92387009Y-88923904D01*
X92387009Y-88923904D02*
X92482247Y-88876285D01*
X92482247Y-88876285D02*
X92720342Y-88876285D01*
X92720342Y-88876285D02*
X92815580Y-88923904D01*
X92815580Y-88923904D02*
X92863200Y-88971523D01*
X92863200Y-88971523D02*
X92910819Y-89066761D01*
X92910819Y-89066761D02*
X92910819Y-89352475D01*
X92910819Y-89352475D02*
X92863200Y-89447713D01*
X92863200Y-89447713D02*
X92815580Y-89495332D01*
X140662819Y-88526857D02*
X140186628Y-88860190D01*
X140662819Y-89098285D02*
X139662819Y-89098285D01*
X139662819Y-89098285D02*
X139662819Y-88717333D01*
X139662819Y-88717333D02*
X139710438Y-88622095D01*
X139710438Y-88622095D02*
X139758057Y-88574476D01*
X139758057Y-88574476D02*
X139853295Y-88526857D01*
X139853295Y-88526857D02*
X139996152Y-88526857D01*
X139996152Y-88526857D02*
X140091390Y-88574476D01*
X140091390Y-88574476D02*
X140139009Y-88622095D01*
X140139009Y-88622095D02*
X140186628Y-88717333D01*
X140186628Y-88717333D02*
X140186628Y-89098285D01*
X140662819Y-87574476D02*
X140662819Y-88145904D01*
X140662819Y-87860190D02*
X139662819Y-87860190D01*
X139662819Y-87860190D02*
X139805676Y-87955428D01*
X139805676Y-87955428D02*
X139900914Y-88050666D01*
X139900914Y-88050666D02*
X139948533Y-88145904D01*
X140662819Y-87098285D02*
X140662819Y-86907809D01*
X140662819Y-86907809D02*
X140615200Y-86812571D01*
X140615200Y-86812571D02*
X140567580Y-86764952D01*
X140567580Y-86764952D02*
X140424723Y-86669714D01*
X140424723Y-86669714D02*
X140234247Y-86622095D01*
X140234247Y-86622095D02*
X139853295Y-86622095D01*
X139853295Y-86622095D02*
X139758057Y-86669714D01*
X139758057Y-86669714D02*
X139710438Y-86717333D01*
X139710438Y-86717333D02*
X139662819Y-86812571D01*
X139662819Y-86812571D02*
X139662819Y-87003047D01*
X139662819Y-87003047D02*
X139710438Y-87098285D01*
X139710438Y-87098285D02*
X139758057Y-87145904D01*
X139758057Y-87145904D02*
X139853295Y-87193523D01*
X139853295Y-87193523D02*
X140091390Y-87193523D01*
X140091390Y-87193523D02*
X140186628Y-87145904D01*
X140186628Y-87145904D02*
X140234247Y-87098285D01*
X140234247Y-87098285D02*
X140281866Y-87003047D01*
X140281866Y-87003047D02*
X140281866Y-86812571D01*
X140281866Y-86812571D02*
X140234247Y-86717333D01*
X140234247Y-86717333D02*
X140186628Y-86669714D01*
X140186628Y-86669714D02*
X140091390Y-86622095D01*
X81875333Y-104245580D02*
X81827714Y-104293200D01*
X81827714Y-104293200D02*
X81684857Y-104340819D01*
X81684857Y-104340819D02*
X81589619Y-104340819D01*
X81589619Y-104340819D02*
X81446762Y-104293200D01*
X81446762Y-104293200D02*
X81351524Y-104197961D01*
X81351524Y-104197961D02*
X81303905Y-104102723D01*
X81303905Y-104102723D02*
X81256286Y-103912247D01*
X81256286Y-103912247D02*
X81256286Y-103769390D01*
X81256286Y-103769390D02*
X81303905Y-103578914D01*
X81303905Y-103578914D02*
X81351524Y-103483676D01*
X81351524Y-103483676D02*
X81446762Y-103388438D01*
X81446762Y-103388438D02*
X81589619Y-103340819D01*
X81589619Y-103340819D02*
X81684857Y-103340819D01*
X81684857Y-103340819D02*
X81827714Y-103388438D01*
X81827714Y-103388438D02*
X81875333Y-103436057D01*
X82780095Y-103340819D02*
X82303905Y-103340819D01*
X82303905Y-103340819D02*
X82256286Y-103817009D01*
X82256286Y-103817009D02*
X82303905Y-103769390D01*
X82303905Y-103769390D02*
X82399143Y-103721771D01*
X82399143Y-103721771D02*
X82637238Y-103721771D01*
X82637238Y-103721771D02*
X82732476Y-103769390D01*
X82732476Y-103769390D02*
X82780095Y-103817009D01*
X82780095Y-103817009D02*
X82827714Y-103912247D01*
X82827714Y-103912247D02*
X82827714Y-104150342D01*
X82827714Y-104150342D02*
X82780095Y-104245580D01*
X82780095Y-104245580D02*
X82732476Y-104293200D01*
X82732476Y-104293200D02*
X82637238Y-104340819D01*
X82637238Y-104340819D02*
X82399143Y-104340819D01*
X82399143Y-104340819D02*
X82303905Y-104293200D01*
X82303905Y-104293200D02*
X82256286Y-104245580D01*
X121866819Y-100210857D02*
X121390628Y-100544190D01*
X121866819Y-100782285D02*
X120866819Y-100782285D01*
X120866819Y-100782285D02*
X120866819Y-100401333D01*
X120866819Y-100401333D02*
X120914438Y-100306095D01*
X120914438Y-100306095D02*
X120962057Y-100258476D01*
X120962057Y-100258476D02*
X121057295Y-100210857D01*
X121057295Y-100210857D02*
X121200152Y-100210857D01*
X121200152Y-100210857D02*
X121295390Y-100258476D01*
X121295390Y-100258476D02*
X121343009Y-100306095D01*
X121343009Y-100306095D02*
X121390628Y-100401333D01*
X121390628Y-100401333D02*
X121390628Y-100782285D01*
X121866819Y-99258476D02*
X121866819Y-99829904D01*
X121866819Y-99544190D02*
X120866819Y-99544190D01*
X120866819Y-99544190D02*
X121009676Y-99639428D01*
X121009676Y-99639428D02*
X121104914Y-99734666D01*
X121104914Y-99734666D02*
X121152533Y-99829904D01*
X120866819Y-98401333D02*
X120866819Y-98591809D01*
X120866819Y-98591809D02*
X120914438Y-98687047D01*
X120914438Y-98687047D02*
X120962057Y-98734666D01*
X120962057Y-98734666D02*
X121104914Y-98829904D01*
X121104914Y-98829904D02*
X121295390Y-98877523D01*
X121295390Y-98877523D02*
X121676342Y-98877523D01*
X121676342Y-98877523D02*
X121771580Y-98829904D01*
X121771580Y-98829904D02*
X121819200Y-98782285D01*
X121819200Y-98782285D02*
X121866819Y-98687047D01*
X121866819Y-98687047D02*
X121866819Y-98496571D01*
X121866819Y-98496571D02*
X121819200Y-98401333D01*
X121819200Y-98401333D02*
X121771580Y-98353714D01*
X121771580Y-98353714D02*
X121676342Y-98306095D01*
X121676342Y-98306095D02*
X121438247Y-98306095D01*
X121438247Y-98306095D02*
X121343009Y-98353714D01*
X121343009Y-98353714D02*
X121295390Y-98401333D01*
X121295390Y-98401333D02*
X121247771Y-98496571D01*
X121247771Y-98496571D02*
X121247771Y-98687047D01*
X121247771Y-98687047D02*
X121295390Y-98782285D01*
X121295390Y-98782285D02*
X121343009Y-98829904D01*
X121343009Y-98829904D02*
X121438247Y-98877523D01*
X85598095Y-121175819D02*
X85598095Y-121985342D01*
X85598095Y-121985342D02*
X85645714Y-122080580D01*
X85645714Y-122080580D02*
X85693333Y-122128200D01*
X85693333Y-122128200D02*
X85788571Y-122175819D01*
X85788571Y-122175819D02*
X85979047Y-122175819D01*
X85979047Y-122175819D02*
X86074285Y-122128200D01*
X86074285Y-122128200D02*
X86121904Y-122080580D01*
X86121904Y-122080580D02*
X86169523Y-121985342D01*
X86169523Y-121985342D02*
X86169523Y-121175819D01*
X87074285Y-121509152D02*
X87074285Y-122175819D01*
X86836190Y-121128200D02*
X86598095Y-121842485D01*
X86598095Y-121842485D02*
X87217142Y-121842485D01*
X95623142Y-107453580D02*
X95575523Y-107501200D01*
X95575523Y-107501200D02*
X95432666Y-107548819D01*
X95432666Y-107548819D02*
X95337428Y-107548819D01*
X95337428Y-107548819D02*
X95194571Y-107501200D01*
X95194571Y-107501200D02*
X95099333Y-107405961D01*
X95099333Y-107405961D02*
X95051714Y-107310723D01*
X95051714Y-107310723D02*
X95004095Y-107120247D01*
X95004095Y-107120247D02*
X95004095Y-106977390D01*
X95004095Y-106977390D02*
X95051714Y-106786914D01*
X95051714Y-106786914D02*
X95099333Y-106691676D01*
X95099333Y-106691676D02*
X95194571Y-106596438D01*
X95194571Y-106596438D02*
X95337428Y-106548819D01*
X95337428Y-106548819D02*
X95432666Y-106548819D01*
X95432666Y-106548819D02*
X95575523Y-106596438D01*
X95575523Y-106596438D02*
X95623142Y-106644057D01*
X96575523Y-107548819D02*
X96004095Y-107548819D01*
X96289809Y-107548819D02*
X96289809Y-106548819D01*
X96289809Y-106548819D02*
X96194571Y-106691676D01*
X96194571Y-106691676D02*
X96099333Y-106786914D01*
X96099333Y-106786914D02*
X96004095Y-106834533D01*
X97051714Y-107548819D02*
X97242190Y-107548819D01*
X97242190Y-107548819D02*
X97337428Y-107501200D01*
X97337428Y-107501200D02*
X97385047Y-107453580D01*
X97385047Y-107453580D02*
X97480285Y-107310723D01*
X97480285Y-107310723D02*
X97527904Y-107120247D01*
X97527904Y-107120247D02*
X97527904Y-106739295D01*
X97527904Y-106739295D02*
X97480285Y-106644057D01*
X97480285Y-106644057D02*
X97432666Y-106596438D01*
X97432666Y-106596438D02*
X97337428Y-106548819D01*
X97337428Y-106548819D02*
X97146952Y-106548819D01*
X97146952Y-106548819D02*
X97051714Y-106596438D01*
X97051714Y-106596438D02*
X97004095Y-106644057D01*
X97004095Y-106644057D02*
X96956476Y-106739295D01*
X96956476Y-106739295D02*
X96956476Y-106977390D01*
X96956476Y-106977390D02*
X97004095Y-107072628D01*
X97004095Y-107072628D02*
X97051714Y-107120247D01*
X97051714Y-107120247D02*
X97146952Y-107167866D01*
X97146952Y-107167866D02*
X97337428Y-107167866D01*
X97337428Y-107167866D02*
X97432666Y-107120247D01*
X97432666Y-107120247D02*
X97480285Y-107072628D01*
X97480285Y-107072628D02*
X97527904Y-106977390D01*
X109085142Y-92656819D02*
X108751809Y-92180628D01*
X108513714Y-92656819D02*
X108513714Y-91656819D01*
X108513714Y-91656819D02*
X108894666Y-91656819D01*
X108894666Y-91656819D02*
X108989904Y-91704438D01*
X108989904Y-91704438D02*
X109037523Y-91752057D01*
X109037523Y-91752057D02*
X109085142Y-91847295D01*
X109085142Y-91847295D02*
X109085142Y-91990152D01*
X109085142Y-91990152D02*
X109037523Y-92085390D01*
X109037523Y-92085390D02*
X108989904Y-92133009D01*
X108989904Y-92133009D02*
X108894666Y-92180628D01*
X108894666Y-92180628D02*
X108513714Y-92180628D01*
X110037523Y-92656819D02*
X109466095Y-92656819D01*
X109751809Y-92656819D02*
X109751809Y-91656819D01*
X109751809Y-91656819D02*
X109656571Y-91799676D01*
X109656571Y-91799676D02*
X109561333Y-91894914D01*
X109561333Y-91894914D02*
X109466095Y-91942533D01*
X110418476Y-91752057D02*
X110466095Y-91704438D01*
X110466095Y-91704438D02*
X110561333Y-91656819D01*
X110561333Y-91656819D02*
X110799428Y-91656819D01*
X110799428Y-91656819D02*
X110894666Y-91704438D01*
X110894666Y-91704438D02*
X110942285Y-91752057D01*
X110942285Y-91752057D02*
X110989904Y-91847295D01*
X110989904Y-91847295D02*
X110989904Y-91942533D01*
X110989904Y-91942533D02*
X110942285Y-92085390D01*
X110942285Y-92085390D02*
X110370857Y-92656819D01*
X110370857Y-92656819D02*
X110989904Y-92656819D01*
X132804819Y-113363333D02*
X133519104Y-113363333D01*
X133519104Y-113363333D02*
X133661961Y-113410952D01*
X133661961Y-113410952D02*
X133757200Y-113506190D01*
X133757200Y-113506190D02*
X133804819Y-113649047D01*
X133804819Y-113649047D02*
X133804819Y-113744285D01*
X133138152Y-112458571D02*
X133804819Y-112458571D01*
X132757200Y-112696666D02*
X133471485Y-112934761D01*
X133471485Y-112934761D02*
X133471485Y-112315714D01*
X87481580Y-94908666D02*
X87529200Y-94956285D01*
X87529200Y-94956285D02*
X87576819Y-95099142D01*
X87576819Y-95099142D02*
X87576819Y-95194380D01*
X87576819Y-95194380D02*
X87529200Y-95337237D01*
X87529200Y-95337237D02*
X87433961Y-95432475D01*
X87433961Y-95432475D02*
X87338723Y-95480094D01*
X87338723Y-95480094D02*
X87148247Y-95527713D01*
X87148247Y-95527713D02*
X87005390Y-95527713D01*
X87005390Y-95527713D02*
X86814914Y-95480094D01*
X86814914Y-95480094D02*
X86719676Y-95432475D01*
X86719676Y-95432475D02*
X86624438Y-95337237D01*
X86624438Y-95337237D02*
X86576819Y-95194380D01*
X86576819Y-95194380D02*
X86576819Y-95099142D01*
X86576819Y-95099142D02*
X86624438Y-94956285D01*
X86624438Y-94956285D02*
X86672057Y-94908666D01*
X86910152Y-94051523D02*
X87576819Y-94051523D01*
X86529200Y-94289618D02*
X87243485Y-94527713D01*
X87243485Y-94527713D02*
X87243485Y-93908666D01*
X135488819Y-97059357D02*
X135012628Y-97392690D01*
X135488819Y-97630785D02*
X134488819Y-97630785D01*
X134488819Y-97630785D02*
X134488819Y-97249833D01*
X134488819Y-97249833D02*
X134536438Y-97154595D01*
X134536438Y-97154595D02*
X134584057Y-97106976D01*
X134584057Y-97106976D02*
X134679295Y-97059357D01*
X134679295Y-97059357D02*
X134822152Y-97059357D01*
X134822152Y-97059357D02*
X134917390Y-97106976D01*
X134917390Y-97106976D02*
X134965009Y-97154595D01*
X134965009Y-97154595D02*
X135012628Y-97249833D01*
X135012628Y-97249833D02*
X135012628Y-97630785D01*
X135488819Y-96106976D02*
X135488819Y-96678404D01*
X135488819Y-96392690D02*
X134488819Y-96392690D01*
X134488819Y-96392690D02*
X134631676Y-96487928D01*
X134631676Y-96487928D02*
X134726914Y-96583166D01*
X134726914Y-96583166D02*
X134774533Y-96678404D01*
X134917390Y-95535547D02*
X134869771Y-95630785D01*
X134869771Y-95630785D02*
X134822152Y-95678404D01*
X134822152Y-95678404D02*
X134726914Y-95726023D01*
X134726914Y-95726023D02*
X134679295Y-95726023D01*
X134679295Y-95726023D02*
X134584057Y-95678404D01*
X134584057Y-95678404D02*
X134536438Y-95630785D01*
X134536438Y-95630785D02*
X134488819Y-95535547D01*
X134488819Y-95535547D02*
X134488819Y-95345071D01*
X134488819Y-95345071D02*
X134536438Y-95249833D01*
X134536438Y-95249833D02*
X134584057Y-95202214D01*
X134584057Y-95202214D02*
X134679295Y-95154595D01*
X134679295Y-95154595D02*
X134726914Y-95154595D01*
X134726914Y-95154595D02*
X134822152Y-95202214D01*
X134822152Y-95202214D02*
X134869771Y-95249833D01*
X134869771Y-95249833D02*
X134917390Y-95345071D01*
X134917390Y-95345071D02*
X134917390Y-95535547D01*
X134917390Y-95535547D02*
X134965009Y-95630785D01*
X134965009Y-95630785D02*
X135012628Y-95678404D01*
X135012628Y-95678404D02*
X135107866Y-95726023D01*
X135107866Y-95726023D02*
X135298342Y-95726023D01*
X135298342Y-95726023D02*
X135393580Y-95678404D01*
X135393580Y-95678404D02*
X135441200Y-95630785D01*
X135441200Y-95630785D02*
X135488819Y-95535547D01*
X135488819Y-95535547D02*
X135488819Y-95345071D01*
X135488819Y-95345071D02*
X135441200Y-95249833D01*
X135441200Y-95249833D02*
X135393580Y-95202214D01*
X135393580Y-95202214D02*
X135298342Y-95154595D01*
X135298342Y-95154595D02*
X135107866Y-95154595D01*
X135107866Y-95154595D02*
X135012628Y-95202214D01*
X135012628Y-95202214D02*
X134965009Y-95249833D01*
X134965009Y-95249833D02*
X134917390Y-95345071D01*
X87481580Y-92114666D02*
X87529200Y-92162285D01*
X87529200Y-92162285D02*
X87576819Y-92305142D01*
X87576819Y-92305142D02*
X87576819Y-92400380D01*
X87576819Y-92400380D02*
X87529200Y-92543237D01*
X87529200Y-92543237D02*
X87433961Y-92638475D01*
X87433961Y-92638475D02*
X87338723Y-92686094D01*
X87338723Y-92686094D02*
X87148247Y-92733713D01*
X87148247Y-92733713D02*
X87005390Y-92733713D01*
X87005390Y-92733713D02*
X86814914Y-92686094D01*
X86814914Y-92686094D02*
X86719676Y-92638475D01*
X86719676Y-92638475D02*
X86624438Y-92543237D01*
X86624438Y-92543237D02*
X86576819Y-92400380D01*
X86576819Y-92400380D02*
X86576819Y-92305142D01*
X86576819Y-92305142D02*
X86624438Y-92162285D01*
X86624438Y-92162285D02*
X86672057Y-92114666D01*
X86576819Y-91781332D02*
X86576819Y-91162285D01*
X86576819Y-91162285D02*
X86957771Y-91495618D01*
X86957771Y-91495618D02*
X86957771Y-91352761D01*
X86957771Y-91352761D02*
X87005390Y-91257523D01*
X87005390Y-91257523D02*
X87053009Y-91209904D01*
X87053009Y-91209904D02*
X87148247Y-91162285D01*
X87148247Y-91162285D02*
X87386342Y-91162285D01*
X87386342Y-91162285D02*
X87481580Y-91209904D01*
X87481580Y-91209904D02*
X87529200Y-91257523D01*
X87529200Y-91257523D02*
X87576819Y-91352761D01*
X87576819Y-91352761D02*
X87576819Y-91638475D01*
X87576819Y-91638475D02*
X87529200Y-91733713D01*
X87529200Y-91733713D02*
X87481580Y-91781332D01*
X75035580Y-104528857D02*
X75083200Y-104576476D01*
X75083200Y-104576476D02*
X75130819Y-104719333D01*
X75130819Y-104719333D02*
X75130819Y-104814571D01*
X75130819Y-104814571D02*
X75083200Y-104957428D01*
X75083200Y-104957428D02*
X74987961Y-105052666D01*
X74987961Y-105052666D02*
X74892723Y-105100285D01*
X74892723Y-105100285D02*
X74702247Y-105147904D01*
X74702247Y-105147904D02*
X74559390Y-105147904D01*
X74559390Y-105147904D02*
X74368914Y-105100285D01*
X74368914Y-105100285D02*
X74273676Y-105052666D01*
X74273676Y-105052666D02*
X74178438Y-104957428D01*
X74178438Y-104957428D02*
X74130819Y-104814571D01*
X74130819Y-104814571D02*
X74130819Y-104719333D01*
X74130819Y-104719333D02*
X74178438Y-104576476D01*
X74178438Y-104576476D02*
X74226057Y-104528857D01*
X74226057Y-104147904D02*
X74178438Y-104100285D01*
X74178438Y-104100285D02*
X74130819Y-104005047D01*
X74130819Y-104005047D02*
X74130819Y-103766952D01*
X74130819Y-103766952D02*
X74178438Y-103671714D01*
X74178438Y-103671714D02*
X74226057Y-103624095D01*
X74226057Y-103624095D02*
X74321295Y-103576476D01*
X74321295Y-103576476D02*
X74416533Y-103576476D01*
X74416533Y-103576476D02*
X74559390Y-103624095D01*
X74559390Y-103624095D02*
X75130819Y-104195523D01*
X75130819Y-104195523D02*
X75130819Y-103576476D01*
X74130819Y-102719333D02*
X74130819Y-102909809D01*
X74130819Y-102909809D02*
X74178438Y-103005047D01*
X74178438Y-103005047D02*
X74226057Y-103052666D01*
X74226057Y-103052666D02*
X74368914Y-103147904D01*
X74368914Y-103147904D02*
X74559390Y-103195523D01*
X74559390Y-103195523D02*
X74940342Y-103195523D01*
X74940342Y-103195523D02*
X75035580Y-103147904D01*
X75035580Y-103147904D02*
X75083200Y-103100285D01*
X75083200Y-103100285D02*
X75130819Y-103005047D01*
X75130819Y-103005047D02*
X75130819Y-102814571D01*
X75130819Y-102814571D02*
X75083200Y-102719333D01*
X75083200Y-102719333D02*
X75035580Y-102671714D01*
X75035580Y-102671714D02*
X74940342Y-102624095D01*
X74940342Y-102624095D02*
X74702247Y-102624095D01*
X74702247Y-102624095D02*
X74607009Y-102671714D01*
X74607009Y-102671714D02*
X74559390Y-102719333D01*
X74559390Y-102719333D02*
X74511771Y-102814571D01*
X74511771Y-102814571D02*
X74511771Y-103005047D01*
X74511771Y-103005047D02*
X74559390Y-103100285D01*
X74559390Y-103100285D02*
X74607009Y-103147904D01*
X74607009Y-103147904D02*
X74702247Y-103195523D01*
X78351142Y-117144580D02*
X78303523Y-117192200D01*
X78303523Y-117192200D02*
X78160666Y-117239819D01*
X78160666Y-117239819D02*
X78065428Y-117239819D01*
X78065428Y-117239819D02*
X77922571Y-117192200D01*
X77922571Y-117192200D02*
X77827333Y-117096961D01*
X77827333Y-117096961D02*
X77779714Y-117001723D01*
X77779714Y-117001723D02*
X77732095Y-116811247D01*
X77732095Y-116811247D02*
X77732095Y-116668390D01*
X77732095Y-116668390D02*
X77779714Y-116477914D01*
X77779714Y-116477914D02*
X77827333Y-116382676D01*
X77827333Y-116382676D02*
X77922571Y-116287438D01*
X77922571Y-116287438D02*
X78065428Y-116239819D01*
X78065428Y-116239819D02*
X78160666Y-116239819D01*
X78160666Y-116239819D02*
X78303523Y-116287438D01*
X78303523Y-116287438D02*
X78351142Y-116335057D01*
X79303523Y-117239819D02*
X78732095Y-117239819D01*
X79017809Y-117239819D02*
X79017809Y-116239819D01*
X79017809Y-116239819D02*
X78922571Y-116382676D01*
X78922571Y-116382676D02*
X78827333Y-116477914D01*
X78827333Y-116477914D02*
X78732095Y-116525533D01*
X79922571Y-116239819D02*
X80017809Y-116239819D01*
X80017809Y-116239819D02*
X80113047Y-116287438D01*
X80113047Y-116287438D02*
X80160666Y-116335057D01*
X80160666Y-116335057D02*
X80208285Y-116430295D01*
X80208285Y-116430295D02*
X80255904Y-116620771D01*
X80255904Y-116620771D02*
X80255904Y-116858866D01*
X80255904Y-116858866D02*
X80208285Y-117049342D01*
X80208285Y-117049342D02*
X80160666Y-117144580D01*
X80160666Y-117144580D02*
X80113047Y-117192200D01*
X80113047Y-117192200D02*
X80017809Y-117239819D01*
X80017809Y-117239819D02*
X79922571Y-117239819D01*
X79922571Y-117239819D02*
X79827333Y-117192200D01*
X79827333Y-117192200D02*
X79779714Y-117144580D01*
X79779714Y-117144580D02*
X79732095Y-117049342D01*
X79732095Y-117049342D02*
X79684476Y-116858866D01*
X79684476Y-116858866D02*
X79684476Y-116620771D01*
X79684476Y-116620771D02*
X79732095Y-116430295D01*
X79732095Y-116430295D02*
X79779714Y-116335057D01*
X79779714Y-116335057D02*
X79827333Y-116287438D01*
X79827333Y-116287438D02*
X79922571Y-116239819D01*
D10*
X142926318Y-100499332D02*
X143833461Y-100499332D01*
X143833461Y-100499332D02*
X144014889Y-100559809D01*
X144014889Y-100559809D02*
X144135842Y-100680761D01*
X144135842Y-100680761D02*
X144196318Y-100862190D01*
X144196318Y-100862190D02*
X144196318Y-100983142D01*
X144196318Y-99229332D02*
X144196318Y-99955047D01*
X144196318Y-99592190D02*
X142926318Y-99592190D01*
X142926318Y-99592190D02*
X143107746Y-99713142D01*
X143107746Y-99713142D02*
X143228699Y-99834094D01*
X143228699Y-99834094D02*
X143289175Y-99955047D01*
D11*
X101179333Y-105262819D02*
X100846000Y-104786628D01*
X100607905Y-105262819D02*
X100607905Y-104262819D01*
X100607905Y-104262819D02*
X100988857Y-104262819D01*
X100988857Y-104262819D02*
X101084095Y-104310438D01*
X101084095Y-104310438D02*
X101131714Y-104358057D01*
X101131714Y-104358057D02*
X101179333Y-104453295D01*
X101179333Y-104453295D02*
X101179333Y-104596152D01*
X101179333Y-104596152D02*
X101131714Y-104691390D01*
X101131714Y-104691390D02*
X101084095Y-104739009D01*
X101084095Y-104739009D02*
X100988857Y-104786628D01*
X100988857Y-104786628D02*
X100607905Y-104786628D01*
X101750762Y-104691390D02*
X101655524Y-104643771D01*
X101655524Y-104643771D02*
X101607905Y-104596152D01*
X101607905Y-104596152D02*
X101560286Y-104500914D01*
X101560286Y-104500914D02*
X101560286Y-104453295D01*
X101560286Y-104453295D02*
X101607905Y-104358057D01*
X101607905Y-104358057D02*
X101655524Y-104310438D01*
X101655524Y-104310438D02*
X101750762Y-104262819D01*
X101750762Y-104262819D02*
X101941238Y-104262819D01*
X101941238Y-104262819D02*
X102036476Y-104310438D01*
X102036476Y-104310438D02*
X102084095Y-104358057D01*
X102084095Y-104358057D02*
X102131714Y-104453295D01*
X102131714Y-104453295D02*
X102131714Y-104500914D01*
X102131714Y-104500914D02*
X102084095Y-104596152D01*
X102084095Y-104596152D02*
X102036476Y-104643771D01*
X102036476Y-104643771D02*
X101941238Y-104691390D01*
X101941238Y-104691390D02*
X101750762Y-104691390D01*
X101750762Y-104691390D02*
X101655524Y-104739009D01*
X101655524Y-104739009D02*
X101607905Y-104786628D01*
X101607905Y-104786628D02*
X101560286Y-104881866D01*
X101560286Y-104881866D02*
X101560286Y-105072342D01*
X101560286Y-105072342D02*
X101607905Y-105167580D01*
X101607905Y-105167580D02*
X101655524Y-105215200D01*
X101655524Y-105215200D02*
X101750762Y-105262819D01*
X101750762Y-105262819D02*
X101941238Y-105262819D01*
X101941238Y-105262819D02*
X102036476Y-105215200D01*
X102036476Y-105215200D02*
X102084095Y-105167580D01*
X102084095Y-105167580D02*
X102131714Y-105072342D01*
X102131714Y-105072342D02*
X102131714Y-104881866D01*
X102131714Y-104881866D02*
X102084095Y-104786628D01*
X102084095Y-104786628D02*
X102036476Y-104739009D01*
X102036476Y-104739009D02*
X101941238Y-104691390D01*
X81875333Y-101197580D02*
X81827714Y-101245200D01*
X81827714Y-101245200D02*
X81684857Y-101292819D01*
X81684857Y-101292819D02*
X81589619Y-101292819D01*
X81589619Y-101292819D02*
X81446762Y-101245200D01*
X81446762Y-101245200D02*
X81351524Y-101149961D01*
X81351524Y-101149961D02*
X81303905Y-101054723D01*
X81303905Y-101054723D02*
X81256286Y-100864247D01*
X81256286Y-100864247D02*
X81256286Y-100721390D01*
X81256286Y-100721390D02*
X81303905Y-100530914D01*
X81303905Y-100530914D02*
X81351524Y-100435676D01*
X81351524Y-100435676D02*
X81446762Y-100340438D01*
X81446762Y-100340438D02*
X81589619Y-100292819D01*
X81589619Y-100292819D02*
X81684857Y-100292819D01*
X81684857Y-100292819D02*
X81827714Y-100340438D01*
X81827714Y-100340438D02*
X81875333Y-100388057D01*
X82208667Y-100292819D02*
X82875333Y-100292819D01*
X82875333Y-100292819D02*
X82446762Y-101292819D01*
X98911580Y-108338857D02*
X98959200Y-108386476D01*
X98959200Y-108386476D02*
X99006819Y-108529333D01*
X99006819Y-108529333D02*
X99006819Y-108624571D01*
X99006819Y-108624571D02*
X98959200Y-108767428D01*
X98959200Y-108767428D02*
X98863961Y-108862666D01*
X98863961Y-108862666D02*
X98768723Y-108910285D01*
X98768723Y-108910285D02*
X98578247Y-108957904D01*
X98578247Y-108957904D02*
X98435390Y-108957904D01*
X98435390Y-108957904D02*
X98244914Y-108910285D01*
X98244914Y-108910285D02*
X98149676Y-108862666D01*
X98149676Y-108862666D02*
X98054438Y-108767428D01*
X98054438Y-108767428D02*
X98006819Y-108624571D01*
X98006819Y-108624571D02*
X98006819Y-108529333D01*
X98006819Y-108529333D02*
X98054438Y-108386476D01*
X98054438Y-108386476D02*
X98102057Y-108338857D01*
X99006819Y-107386476D02*
X99006819Y-107957904D01*
X99006819Y-107672190D02*
X98006819Y-107672190D01*
X98006819Y-107672190D02*
X98149676Y-107767428D01*
X98149676Y-107767428D02*
X98244914Y-107862666D01*
X98244914Y-107862666D02*
X98292533Y-107957904D01*
X98006819Y-107053142D02*
X98006819Y-106386476D01*
X98006819Y-106386476D02*
X99006819Y-106815047D01*
X113738819Y-94876857D02*
X113262628Y-95210190D01*
X113738819Y-95448285D02*
X112738819Y-95448285D01*
X112738819Y-95448285D02*
X112738819Y-95067333D01*
X112738819Y-95067333D02*
X112786438Y-94972095D01*
X112786438Y-94972095D02*
X112834057Y-94924476D01*
X112834057Y-94924476D02*
X112929295Y-94876857D01*
X112929295Y-94876857D02*
X113072152Y-94876857D01*
X113072152Y-94876857D02*
X113167390Y-94924476D01*
X113167390Y-94924476D02*
X113215009Y-94972095D01*
X113215009Y-94972095D02*
X113262628Y-95067333D01*
X113262628Y-95067333D02*
X113262628Y-95448285D01*
X113738819Y-93924476D02*
X113738819Y-94495904D01*
X113738819Y-94210190D02*
X112738819Y-94210190D01*
X112738819Y-94210190D02*
X112881676Y-94305428D01*
X112881676Y-94305428D02*
X112976914Y-94400666D01*
X112976914Y-94400666D02*
X113024533Y-94495904D01*
X113738819Y-92972095D02*
X113738819Y-93543523D01*
X113738819Y-93257809D02*
X112738819Y-93257809D01*
X112738819Y-93257809D02*
X112881676Y-93353047D01*
X112881676Y-93353047D02*
X112976914Y-93448285D01*
X112976914Y-93448285D02*
X113024533Y-93543523D01*
X100195142Y-94880580D02*
X100147523Y-94928200D01*
X100147523Y-94928200D02*
X100004666Y-94975819D01*
X100004666Y-94975819D02*
X99909428Y-94975819D01*
X99909428Y-94975819D02*
X99766571Y-94928200D01*
X99766571Y-94928200D02*
X99671333Y-94832961D01*
X99671333Y-94832961D02*
X99623714Y-94737723D01*
X99623714Y-94737723D02*
X99576095Y-94547247D01*
X99576095Y-94547247D02*
X99576095Y-94404390D01*
X99576095Y-94404390D02*
X99623714Y-94213914D01*
X99623714Y-94213914D02*
X99671333Y-94118676D01*
X99671333Y-94118676D02*
X99766571Y-94023438D01*
X99766571Y-94023438D02*
X99909428Y-93975819D01*
X99909428Y-93975819D02*
X100004666Y-93975819D01*
X100004666Y-93975819D02*
X100147523Y-94023438D01*
X100147523Y-94023438D02*
X100195142Y-94071057D01*
X100576095Y-94071057D02*
X100623714Y-94023438D01*
X100623714Y-94023438D02*
X100718952Y-93975819D01*
X100718952Y-93975819D02*
X100957047Y-93975819D01*
X100957047Y-93975819D02*
X101052285Y-94023438D01*
X101052285Y-94023438D02*
X101099904Y-94071057D01*
X101099904Y-94071057D02*
X101147523Y-94166295D01*
X101147523Y-94166295D02*
X101147523Y-94261533D01*
X101147523Y-94261533D02*
X101099904Y-94404390D01*
X101099904Y-94404390D02*
X100528476Y-94975819D01*
X100528476Y-94975819D02*
X101147523Y-94975819D01*
X101480857Y-93975819D02*
X102099904Y-93975819D01*
X102099904Y-93975819D02*
X101766571Y-94356771D01*
X101766571Y-94356771D02*
X101909428Y-94356771D01*
X101909428Y-94356771D02*
X102004666Y-94404390D01*
X102004666Y-94404390D02*
X102052285Y-94452009D01*
X102052285Y-94452009D02*
X102099904Y-94547247D01*
X102099904Y-94547247D02*
X102099904Y-94785342D01*
X102099904Y-94785342D02*
X102052285Y-94880580D01*
X102052285Y-94880580D02*
X102004666Y-94928200D01*
X102004666Y-94928200D02*
X101909428Y-94975819D01*
X101909428Y-94975819D02*
X101623714Y-94975819D01*
X101623714Y-94975819D02*
X101528476Y-94928200D01*
X101528476Y-94928200D02*
X101480857Y-94880580D01*
X87990819Y-111418666D02*
X87514628Y-111751999D01*
X87990819Y-111990094D02*
X86990819Y-111990094D01*
X86990819Y-111990094D02*
X86990819Y-111609142D01*
X86990819Y-111609142D02*
X87038438Y-111513904D01*
X87038438Y-111513904D02*
X87086057Y-111466285D01*
X87086057Y-111466285D02*
X87181295Y-111418666D01*
X87181295Y-111418666D02*
X87324152Y-111418666D01*
X87324152Y-111418666D02*
X87419390Y-111466285D01*
X87419390Y-111466285D02*
X87467009Y-111513904D01*
X87467009Y-111513904D02*
X87514628Y-111609142D01*
X87514628Y-111609142D02*
X87514628Y-111990094D01*
X86990819Y-110513904D02*
X86990819Y-110990094D01*
X86990819Y-110990094D02*
X87467009Y-111037713D01*
X87467009Y-111037713D02*
X87419390Y-110990094D01*
X87419390Y-110990094D02*
X87371771Y-110894856D01*
X87371771Y-110894856D02*
X87371771Y-110656761D01*
X87371771Y-110656761D02*
X87419390Y-110561523D01*
X87419390Y-110561523D02*
X87467009Y-110513904D01*
X87467009Y-110513904D02*
X87562247Y-110466285D01*
X87562247Y-110466285D02*
X87800342Y-110466285D01*
X87800342Y-110466285D02*
X87895580Y-110513904D01*
X87895580Y-110513904D02*
X87943200Y-110561523D01*
X87943200Y-110561523D02*
X87990819Y-110656761D01*
X87990819Y-110656761D02*
X87990819Y-110894856D01*
X87990819Y-110894856D02*
X87943200Y-110990094D01*
X87943200Y-110990094D02*
X87895580Y-111037713D01*
X93434819Y-93043333D02*
X94149104Y-93043333D01*
X94149104Y-93043333D02*
X94291961Y-93090952D01*
X94291961Y-93090952D02*
X94387200Y-93186190D01*
X94387200Y-93186190D02*
X94434819Y-93329047D01*
X94434819Y-93329047D02*
X94434819Y-93424285D01*
X93530057Y-92614761D02*
X93482438Y-92567142D01*
X93482438Y-92567142D02*
X93434819Y-92471904D01*
X93434819Y-92471904D02*
X93434819Y-92233809D01*
X93434819Y-92233809D02*
X93482438Y-92138571D01*
X93482438Y-92138571D02*
X93530057Y-92090952D01*
X93530057Y-92090952D02*
X93625295Y-92043333D01*
X93625295Y-92043333D02*
X93720533Y-92043333D01*
X93720533Y-92043333D02*
X93863390Y-92090952D01*
X93863390Y-92090952D02*
X94434819Y-92662380D01*
X94434819Y-92662380D02*
X94434819Y-92043333D01*
X77335142Y-121335580D02*
X77287523Y-121383200D01*
X77287523Y-121383200D02*
X77144666Y-121430819D01*
X77144666Y-121430819D02*
X77049428Y-121430819D01*
X77049428Y-121430819D02*
X76906571Y-121383200D01*
X76906571Y-121383200D02*
X76811333Y-121287961D01*
X76811333Y-121287961D02*
X76763714Y-121192723D01*
X76763714Y-121192723D02*
X76716095Y-121002247D01*
X76716095Y-121002247D02*
X76716095Y-120859390D01*
X76716095Y-120859390D02*
X76763714Y-120668914D01*
X76763714Y-120668914D02*
X76811333Y-120573676D01*
X76811333Y-120573676D02*
X76906571Y-120478438D01*
X76906571Y-120478438D02*
X77049428Y-120430819D01*
X77049428Y-120430819D02*
X77144666Y-120430819D01*
X77144666Y-120430819D02*
X77287523Y-120478438D01*
X77287523Y-120478438D02*
X77335142Y-120526057D01*
X78287523Y-121430819D02*
X77716095Y-121430819D01*
X78001809Y-121430819D02*
X78001809Y-120430819D01*
X78001809Y-120430819D02*
X77906571Y-120573676D01*
X77906571Y-120573676D02*
X77811333Y-120668914D01*
X77811333Y-120668914D02*
X77716095Y-120716533D01*
X79239904Y-121430819D02*
X78668476Y-121430819D01*
X78954190Y-121430819D02*
X78954190Y-120430819D01*
X78954190Y-120430819D02*
X78858952Y-120573676D01*
X78858952Y-120573676D02*
X78763714Y-120668914D01*
X78763714Y-120668914D02*
X78668476Y-120716533D01*
X75035580Y-101226857D02*
X75083200Y-101274476D01*
X75083200Y-101274476D02*
X75130819Y-101417333D01*
X75130819Y-101417333D02*
X75130819Y-101512571D01*
X75130819Y-101512571D02*
X75083200Y-101655428D01*
X75083200Y-101655428D02*
X74987961Y-101750666D01*
X74987961Y-101750666D02*
X74892723Y-101798285D01*
X74892723Y-101798285D02*
X74702247Y-101845904D01*
X74702247Y-101845904D02*
X74559390Y-101845904D01*
X74559390Y-101845904D02*
X74368914Y-101798285D01*
X74368914Y-101798285D02*
X74273676Y-101750666D01*
X74273676Y-101750666D02*
X74178438Y-101655428D01*
X74178438Y-101655428D02*
X74130819Y-101512571D01*
X74130819Y-101512571D02*
X74130819Y-101417333D01*
X74130819Y-101417333D02*
X74178438Y-101274476D01*
X74178438Y-101274476D02*
X74226057Y-101226857D01*
X74226057Y-100845904D02*
X74178438Y-100798285D01*
X74178438Y-100798285D02*
X74130819Y-100703047D01*
X74130819Y-100703047D02*
X74130819Y-100464952D01*
X74130819Y-100464952D02*
X74178438Y-100369714D01*
X74178438Y-100369714D02*
X74226057Y-100322095D01*
X74226057Y-100322095D02*
X74321295Y-100274476D01*
X74321295Y-100274476D02*
X74416533Y-100274476D01*
X74416533Y-100274476D02*
X74559390Y-100322095D01*
X74559390Y-100322095D02*
X75130819Y-100893523D01*
X75130819Y-100893523D02*
X75130819Y-100274476D01*
X74130819Y-99941142D02*
X74130819Y-99274476D01*
X74130819Y-99274476D02*
X75130819Y-99703047D01*
D10*
X69662318Y-105579332D02*
X70569461Y-105579332D01*
X70569461Y-105579332D02*
X70750889Y-105639809D01*
X70750889Y-105639809D02*
X70871842Y-105760761D01*
X70871842Y-105760761D02*
X70932318Y-105942190D01*
X70932318Y-105942190D02*
X70932318Y-106063142D01*
X70206603Y-104793142D02*
X70146127Y-104914094D01*
X70146127Y-104914094D02*
X70085651Y-104974571D01*
X70085651Y-104974571D02*
X69964699Y-105035047D01*
X69964699Y-105035047D02*
X69904222Y-105035047D01*
X69904222Y-105035047D02*
X69783270Y-104974571D01*
X69783270Y-104974571D02*
X69722794Y-104914094D01*
X69722794Y-104914094D02*
X69662318Y-104793142D01*
X69662318Y-104793142D02*
X69662318Y-104551237D01*
X69662318Y-104551237D02*
X69722794Y-104430285D01*
X69722794Y-104430285D02*
X69783270Y-104369809D01*
X69783270Y-104369809D02*
X69904222Y-104309332D01*
X69904222Y-104309332D02*
X69964699Y-104309332D01*
X69964699Y-104309332D02*
X70085651Y-104369809D01*
X70085651Y-104369809D02*
X70146127Y-104430285D01*
X70146127Y-104430285D02*
X70206603Y-104551237D01*
X70206603Y-104551237D02*
X70206603Y-104793142D01*
X70206603Y-104793142D02*
X70267080Y-104914094D01*
X70267080Y-104914094D02*
X70327556Y-104974571D01*
X70327556Y-104974571D02*
X70448508Y-105035047D01*
X70448508Y-105035047D02*
X70690413Y-105035047D01*
X70690413Y-105035047D02*
X70811365Y-104974571D01*
X70811365Y-104974571D02*
X70871842Y-104914094D01*
X70871842Y-104914094D02*
X70932318Y-104793142D01*
X70932318Y-104793142D02*
X70932318Y-104551237D01*
X70932318Y-104551237D02*
X70871842Y-104430285D01*
X70871842Y-104430285D02*
X70811365Y-104369809D01*
X70811365Y-104369809D02*
X70690413Y-104309332D01*
X70690413Y-104309332D02*
X70448508Y-104309332D01*
X70448508Y-104309332D02*
X70327556Y-104369809D01*
X70327556Y-104369809D02*
X70267080Y-104430285D01*
X70267080Y-104430285D02*
X70206603Y-104551237D01*
D11*
X103991580Y-96654857D02*
X104039200Y-96702476D01*
X104039200Y-96702476D02*
X104086819Y-96845333D01*
X104086819Y-96845333D02*
X104086819Y-96940571D01*
X104086819Y-96940571D02*
X104039200Y-97083428D01*
X104039200Y-97083428D02*
X103943961Y-97178666D01*
X103943961Y-97178666D02*
X103848723Y-97226285D01*
X103848723Y-97226285D02*
X103658247Y-97273904D01*
X103658247Y-97273904D02*
X103515390Y-97273904D01*
X103515390Y-97273904D02*
X103324914Y-97226285D01*
X103324914Y-97226285D02*
X103229676Y-97178666D01*
X103229676Y-97178666D02*
X103134438Y-97083428D01*
X103134438Y-97083428D02*
X103086819Y-96940571D01*
X103086819Y-96940571D02*
X103086819Y-96845333D01*
X103086819Y-96845333D02*
X103134438Y-96702476D01*
X103134438Y-96702476D02*
X103182057Y-96654857D01*
X104086819Y-95702476D02*
X104086819Y-96273904D01*
X104086819Y-95988190D02*
X103086819Y-95988190D01*
X103086819Y-95988190D02*
X103229676Y-96083428D01*
X103229676Y-96083428D02*
X103324914Y-96178666D01*
X103324914Y-96178666D02*
X103372533Y-96273904D01*
X103086819Y-94845333D02*
X103086819Y-95035809D01*
X103086819Y-95035809D02*
X103134438Y-95131047D01*
X103134438Y-95131047D02*
X103182057Y-95178666D01*
X103182057Y-95178666D02*
X103324914Y-95273904D01*
X103324914Y-95273904D02*
X103515390Y-95321523D01*
X103515390Y-95321523D02*
X103896342Y-95321523D01*
X103896342Y-95321523D02*
X103991580Y-95273904D01*
X103991580Y-95273904D02*
X104039200Y-95226285D01*
X104039200Y-95226285D02*
X104086819Y-95131047D01*
X104086819Y-95131047D02*
X104086819Y-94940571D01*
X104086819Y-94940571D02*
X104039200Y-94845333D01*
X104039200Y-94845333D02*
X103991580Y-94797714D01*
X103991580Y-94797714D02*
X103896342Y-94750095D01*
X103896342Y-94750095D02*
X103658247Y-94750095D01*
X103658247Y-94750095D02*
X103563009Y-94797714D01*
X103563009Y-94797714D02*
X103515390Y-94845333D01*
X103515390Y-94845333D02*
X103467771Y-94940571D01*
X103467771Y-94940571D02*
X103467771Y-95131047D01*
X103467771Y-95131047D02*
X103515390Y-95226285D01*
X103515390Y-95226285D02*
X103563009Y-95273904D01*
X103563009Y-95273904D02*
X103658247Y-95321523D01*
X113434019Y-116466857D02*
X112957828Y-116800190D01*
X113434019Y-117038285D02*
X112434019Y-117038285D01*
X112434019Y-117038285D02*
X112434019Y-116657333D01*
X112434019Y-116657333D02*
X112481638Y-116562095D01*
X112481638Y-116562095D02*
X112529257Y-116514476D01*
X112529257Y-116514476D02*
X112624495Y-116466857D01*
X112624495Y-116466857D02*
X112767352Y-116466857D01*
X112767352Y-116466857D02*
X112862590Y-116514476D01*
X112862590Y-116514476D02*
X112910209Y-116562095D01*
X112910209Y-116562095D02*
X112957828Y-116657333D01*
X112957828Y-116657333D02*
X112957828Y-117038285D01*
X112529257Y-116085904D02*
X112481638Y-116038285D01*
X112481638Y-116038285D02*
X112434019Y-115943047D01*
X112434019Y-115943047D02*
X112434019Y-115704952D01*
X112434019Y-115704952D02*
X112481638Y-115609714D01*
X112481638Y-115609714D02*
X112529257Y-115562095D01*
X112529257Y-115562095D02*
X112624495Y-115514476D01*
X112624495Y-115514476D02*
X112719733Y-115514476D01*
X112719733Y-115514476D02*
X112862590Y-115562095D01*
X112862590Y-115562095D02*
X113434019Y-116133523D01*
X113434019Y-116133523D02*
X113434019Y-115514476D01*
X113434019Y-114562095D02*
X113434019Y-115133523D01*
X113434019Y-114847809D02*
X112434019Y-114847809D01*
X112434019Y-114847809D02*
X112576876Y-114943047D01*
X112576876Y-114943047D02*
X112672114Y-115038285D01*
X112672114Y-115038285D02*
X112719733Y-115133523D01*
X93926819Y-83288094D02*
X92926819Y-83288094D01*
X92926819Y-83288094D02*
X92926819Y-83049999D01*
X92926819Y-83049999D02*
X92974438Y-82907142D01*
X92974438Y-82907142D02*
X93069676Y-82811904D01*
X93069676Y-82811904D02*
X93164914Y-82764285D01*
X93164914Y-82764285D02*
X93355390Y-82716666D01*
X93355390Y-82716666D02*
X93498247Y-82716666D01*
X93498247Y-82716666D02*
X93688723Y-82764285D01*
X93688723Y-82764285D02*
X93783961Y-82811904D01*
X93783961Y-82811904D02*
X93879200Y-82907142D01*
X93879200Y-82907142D02*
X93926819Y-83049999D01*
X93926819Y-83049999D02*
X93926819Y-83288094D01*
X93926819Y-81764285D02*
X93926819Y-82335713D01*
X93926819Y-82049999D02*
X92926819Y-82049999D01*
X92926819Y-82049999D02*
X93069676Y-82145237D01*
X93069676Y-82145237D02*
X93164914Y-82240475D01*
X93164914Y-82240475D02*
X93212533Y-82335713D01*
D10*
X104732667Y-82584318D02*
X104732667Y-83491461D01*
X104732667Y-83491461D02*
X104672190Y-83672889D01*
X104672190Y-83672889D02*
X104551238Y-83793842D01*
X104551238Y-83793842D02*
X104369809Y-83854318D01*
X104369809Y-83854318D02*
X104248857Y-83854318D01*
X105942190Y-82584318D02*
X105337428Y-82584318D01*
X105337428Y-82584318D02*
X105276952Y-83189080D01*
X105276952Y-83189080D02*
X105337428Y-83128603D01*
X105337428Y-83128603D02*
X105458381Y-83068127D01*
X105458381Y-83068127D02*
X105760762Y-83068127D01*
X105760762Y-83068127D02*
X105881714Y-83128603D01*
X105881714Y-83128603D02*
X105942190Y-83189080D01*
X105942190Y-83189080D02*
X106002667Y-83310032D01*
X106002667Y-83310032D02*
X106002667Y-83612413D01*
X106002667Y-83612413D02*
X105942190Y-83733365D01*
X105942190Y-83733365D02*
X105881714Y-83793842D01*
X105881714Y-83793842D02*
X105760762Y-83854318D01*
X105760762Y-83854318D02*
X105458381Y-83854318D01*
X105458381Y-83854318D02*
X105337428Y-83793842D01*
X105337428Y-83793842D02*
X105276952Y-83733365D01*
X91573047Y-110677270D02*
X91452095Y-110616794D01*
X91452095Y-110616794D02*
X91331142Y-110495842D01*
X91331142Y-110495842D02*
X91149714Y-110314413D01*
X91149714Y-110314413D02*
X91028761Y-110253937D01*
X91028761Y-110253937D02*
X90907809Y-110253937D01*
X90968285Y-110556318D02*
X90847333Y-110495842D01*
X90847333Y-110495842D02*
X90726380Y-110374889D01*
X90726380Y-110374889D02*
X90665904Y-110132984D01*
X90665904Y-110132984D02*
X90665904Y-109709651D01*
X90665904Y-109709651D02*
X90726380Y-109467746D01*
X90726380Y-109467746D02*
X90847333Y-109346794D01*
X90847333Y-109346794D02*
X90968285Y-109286318D01*
X90968285Y-109286318D02*
X91210190Y-109286318D01*
X91210190Y-109286318D02*
X91331142Y-109346794D01*
X91331142Y-109346794D02*
X91452095Y-109467746D01*
X91452095Y-109467746D02*
X91512571Y-109709651D01*
X91512571Y-109709651D02*
X91512571Y-110132984D01*
X91512571Y-110132984D02*
X91452095Y-110374889D01*
X91452095Y-110374889D02*
X91331142Y-110495842D01*
X91331142Y-110495842D02*
X91210190Y-110556318D01*
X91210190Y-110556318D02*
X90968285Y-110556318D01*
X92722095Y-110556318D02*
X91996380Y-110556318D01*
X92359237Y-110556318D02*
X92359237Y-109286318D01*
X92359237Y-109286318D02*
X92238285Y-109467746D01*
X92238285Y-109467746D02*
X92117333Y-109588699D01*
X92117333Y-109588699D02*
X91996380Y-109649175D01*
D11*
X100671333Y-90210819D02*
X100338000Y-89734628D01*
X100099905Y-90210819D02*
X100099905Y-89210819D01*
X100099905Y-89210819D02*
X100480857Y-89210819D01*
X100480857Y-89210819D02*
X100576095Y-89258438D01*
X100576095Y-89258438D02*
X100623714Y-89306057D01*
X100623714Y-89306057D02*
X100671333Y-89401295D01*
X100671333Y-89401295D02*
X100671333Y-89544152D01*
X100671333Y-89544152D02*
X100623714Y-89639390D01*
X100623714Y-89639390D02*
X100576095Y-89687009D01*
X100576095Y-89687009D02*
X100480857Y-89734628D01*
X100480857Y-89734628D02*
X100099905Y-89734628D01*
X101147524Y-90210819D02*
X101338000Y-90210819D01*
X101338000Y-90210819D02*
X101433238Y-90163200D01*
X101433238Y-90163200D02*
X101480857Y-90115580D01*
X101480857Y-90115580D02*
X101576095Y-89972723D01*
X101576095Y-89972723D02*
X101623714Y-89782247D01*
X101623714Y-89782247D02*
X101623714Y-89401295D01*
X101623714Y-89401295D02*
X101576095Y-89306057D01*
X101576095Y-89306057D02*
X101528476Y-89258438D01*
X101528476Y-89258438D02*
X101433238Y-89210819D01*
X101433238Y-89210819D02*
X101242762Y-89210819D01*
X101242762Y-89210819D02*
X101147524Y-89258438D01*
X101147524Y-89258438D02*
X101099905Y-89306057D01*
X101099905Y-89306057D02*
X101052286Y-89401295D01*
X101052286Y-89401295D02*
X101052286Y-89639390D01*
X101052286Y-89639390D02*
X101099905Y-89734628D01*
X101099905Y-89734628D02*
X101147524Y-89782247D01*
X101147524Y-89782247D02*
X101242762Y-89829866D01*
X101242762Y-89829866D02*
X101433238Y-89829866D01*
X101433238Y-89829866D02*
X101528476Y-89782247D01*
X101528476Y-89782247D02*
X101576095Y-89734628D01*
X101576095Y-89734628D02*
X101623714Y-89639390D01*
X131826095Y-102832819D02*
X131826095Y-103642342D01*
X131826095Y-103642342D02*
X131873714Y-103737580D01*
X131873714Y-103737580D02*
X131921333Y-103785200D01*
X131921333Y-103785200D02*
X132016571Y-103832819D01*
X132016571Y-103832819D02*
X132207047Y-103832819D01*
X132207047Y-103832819D02*
X132302285Y-103785200D01*
X132302285Y-103785200D02*
X132349904Y-103737580D01*
X132349904Y-103737580D02*
X132397523Y-103642342D01*
X132397523Y-103642342D02*
X132397523Y-102832819D01*
X133349904Y-102832819D02*
X132873714Y-102832819D01*
X132873714Y-102832819D02*
X132826095Y-103309009D01*
X132826095Y-103309009D02*
X132873714Y-103261390D01*
X132873714Y-103261390D02*
X132968952Y-103213771D01*
X132968952Y-103213771D02*
X133207047Y-103213771D01*
X133207047Y-103213771D02*
X133302285Y-103261390D01*
X133302285Y-103261390D02*
X133349904Y-103309009D01*
X133349904Y-103309009D02*
X133397523Y-103404247D01*
X133397523Y-103404247D02*
X133397523Y-103642342D01*
X133397523Y-103642342D02*
X133349904Y-103737580D01*
X133349904Y-103737580D02*
X133302285Y-103785200D01*
X133302285Y-103785200D02*
X133207047Y-103832819D01*
X133207047Y-103832819D02*
X132968952Y-103832819D01*
X132968952Y-103832819D02*
X132873714Y-103785200D01*
X132873714Y-103785200D02*
X132826095Y-103737580D01*
D10*
X69408318Y-81195332D02*
X70315461Y-81195332D01*
X70315461Y-81195332D02*
X70496889Y-81255809D01*
X70496889Y-81255809D02*
X70617842Y-81376761D01*
X70617842Y-81376761D02*
X70678318Y-81558190D01*
X70678318Y-81558190D02*
X70678318Y-81679142D01*
X70678318Y-80530094D02*
X70678318Y-80288190D01*
X70678318Y-80288190D02*
X70617842Y-80167237D01*
X70617842Y-80167237D02*
X70557365Y-80106761D01*
X70557365Y-80106761D02*
X70375937Y-79985809D01*
X70375937Y-79985809D02*
X70134032Y-79925332D01*
X70134032Y-79925332D02*
X69650222Y-79925332D01*
X69650222Y-79925332D02*
X69529270Y-79985809D01*
X69529270Y-79985809D02*
X69468794Y-80046285D01*
X69468794Y-80046285D02*
X69408318Y-80167237D01*
X69408318Y-80167237D02*
X69408318Y-80409142D01*
X69408318Y-80409142D02*
X69468794Y-80530094D01*
X69468794Y-80530094D02*
X69529270Y-80590571D01*
X69529270Y-80590571D02*
X69650222Y-80651047D01*
X69650222Y-80651047D02*
X69952603Y-80651047D01*
X69952603Y-80651047D02*
X70073556Y-80590571D01*
X70073556Y-80590571D02*
X70134032Y-80530094D01*
X70134032Y-80530094D02*
X70194508Y-80409142D01*
X70194508Y-80409142D02*
X70194508Y-80167237D01*
X70194508Y-80167237D02*
X70134032Y-80046285D01*
X70134032Y-80046285D02*
X70073556Y-79985809D01*
X70073556Y-79985809D02*
X69952603Y-79925332D01*
D11*
X117453580Y-113672857D02*
X117501200Y-113720476D01*
X117501200Y-113720476D02*
X117548819Y-113863333D01*
X117548819Y-113863333D02*
X117548819Y-113958571D01*
X117548819Y-113958571D02*
X117501200Y-114101428D01*
X117501200Y-114101428D02*
X117405961Y-114196666D01*
X117405961Y-114196666D02*
X117310723Y-114244285D01*
X117310723Y-114244285D02*
X117120247Y-114291904D01*
X117120247Y-114291904D02*
X116977390Y-114291904D01*
X116977390Y-114291904D02*
X116786914Y-114244285D01*
X116786914Y-114244285D02*
X116691676Y-114196666D01*
X116691676Y-114196666D02*
X116596438Y-114101428D01*
X116596438Y-114101428D02*
X116548819Y-113958571D01*
X116548819Y-113958571D02*
X116548819Y-113863333D01*
X116548819Y-113863333D02*
X116596438Y-113720476D01*
X116596438Y-113720476D02*
X116644057Y-113672857D01*
X116644057Y-113291904D02*
X116596438Y-113244285D01*
X116596438Y-113244285D02*
X116548819Y-113149047D01*
X116548819Y-113149047D02*
X116548819Y-112910952D01*
X116548819Y-112910952D02*
X116596438Y-112815714D01*
X116596438Y-112815714D02*
X116644057Y-112768095D01*
X116644057Y-112768095D02*
X116739295Y-112720476D01*
X116739295Y-112720476D02*
X116834533Y-112720476D01*
X116834533Y-112720476D02*
X116977390Y-112768095D01*
X116977390Y-112768095D02*
X117548819Y-113339523D01*
X117548819Y-113339523D02*
X117548819Y-112720476D01*
X116644057Y-112339523D02*
X116596438Y-112291904D01*
X116596438Y-112291904D02*
X116548819Y-112196666D01*
X116548819Y-112196666D02*
X116548819Y-111958571D01*
X116548819Y-111958571D02*
X116596438Y-111863333D01*
X116596438Y-111863333D02*
X116644057Y-111815714D01*
X116644057Y-111815714D02*
X116739295Y-111768095D01*
X116739295Y-111768095D02*
X116834533Y-111768095D01*
X116834533Y-111768095D02*
X116977390Y-111815714D01*
X116977390Y-111815714D02*
X117548819Y-112387142D01*
X117548819Y-112387142D02*
X117548819Y-111768095D01*
D10*
X145100318Y-81449332D02*
X146007461Y-81449332D01*
X146007461Y-81449332D02*
X146188889Y-81509809D01*
X146188889Y-81509809D02*
X146309842Y-81630761D01*
X146309842Y-81630761D02*
X146370318Y-81812190D01*
X146370318Y-81812190D02*
X146370318Y-81933142D01*
X145100318Y-80965523D02*
X145100318Y-80118856D01*
X145100318Y-80118856D02*
X146370318Y-80663142D01*
D11*
X94085580Y-97416857D02*
X94133200Y-97464476D01*
X94133200Y-97464476D02*
X94180819Y-97607333D01*
X94180819Y-97607333D02*
X94180819Y-97702571D01*
X94180819Y-97702571D02*
X94133200Y-97845428D01*
X94133200Y-97845428D02*
X94037961Y-97940666D01*
X94037961Y-97940666D02*
X93942723Y-97988285D01*
X93942723Y-97988285D02*
X93752247Y-98035904D01*
X93752247Y-98035904D02*
X93609390Y-98035904D01*
X93609390Y-98035904D02*
X93418914Y-97988285D01*
X93418914Y-97988285D02*
X93323676Y-97940666D01*
X93323676Y-97940666D02*
X93228438Y-97845428D01*
X93228438Y-97845428D02*
X93180819Y-97702571D01*
X93180819Y-97702571D02*
X93180819Y-97607333D01*
X93180819Y-97607333D02*
X93228438Y-97464476D01*
X93228438Y-97464476D02*
X93276057Y-97416857D01*
X93276057Y-97035904D02*
X93228438Y-96988285D01*
X93228438Y-96988285D02*
X93180819Y-96893047D01*
X93180819Y-96893047D02*
X93180819Y-96654952D01*
X93180819Y-96654952D02*
X93228438Y-96559714D01*
X93228438Y-96559714D02*
X93276057Y-96512095D01*
X93276057Y-96512095D02*
X93371295Y-96464476D01*
X93371295Y-96464476D02*
X93466533Y-96464476D01*
X93466533Y-96464476D02*
X93609390Y-96512095D01*
X93609390Y-96512095D02*
X94180819Y-97083523D01*
X94180819Y-97083523D02*
X94180819Y-96464476D01*
X93180819Y-95845428D02*
X93180819Y-95750190D01*
X93180819Y-95750190D02*
X93228438Y-95654952D01*
X93228438Y-95654952D02*
X93276057Y-95607333D01*
X93276057Y-95607333D02*
X93371295Y-95559714D01*
X93371295Y-95559714D02*
X93561771Y-95512095D01*
X93561771Y-95512095D02*
X93799866Y-95512095D01*
X93799866Y-95512095D02*
X93990342Y-95559714D01*
X93990342Y-95559714D02*
X94085580Y-95607333D01*
X94085580Y-95607333D02*
X94133200Y-95654952D01*
X94133200Y-95654952D02*
X94180819Y-95750190D01*
X94180819Y-95750190D02*
X94180819Y-95845428D01*
X94180819Y-95845428D02*
X94133200Y-95940666D01*
X94133200Y-95940666D02*
X94085580Y-95988285D01*
X94085580Y-95988285D02*
X93990342Y-96035904D01*
X93990342Y-96035904D02*
X93799866Y-96083523D01*
X93799866Y-96083523D02*
X93561771Y-96083523D01*
X93561771Y-96083523D02*
X93371295Y-96035904D01*
X93371295Y-96035904D02*
X93276057Y-95988285D01*
X93276057Y-95988285D02*
X93228438Y-95940666D01*
X93228438Y-95940666D02*
X93180819Y-95845428D01*
D10*
X69662318Y-96532094D02*
X70569461Y-96532094D01*
X70569461Y-96532094D02*
X70750889Y-96592571D01*
X70750889Y-96592571D02*
X70871842Y-96713523D01*
X70871842Y-96713523D02*
X70932318Y-96894952D01*
X70932318Y-96894952D02*
X70932318Y-97015904D01*
X70932318Y-95262094D02*
X70932318Y-95987809D01*
X70932318Y-95624952D02*
X69662318Y-95624952D01*
X69662318Y-95624952D02*
X69843746Y-95745904D01*
X69843746Y-95745904D02*
X69964699Y-95866856D01*
X69964699Y-95866856D02*
X70025175Y-95987809D01*
X70932318Y-94052570D02*
X70932318Y-94778285D01*
X70932318Y-94415428D02*
X69662318Y-94415428D01*
X69662318Y-94415428D02*
X69843746Y-94536380D01*
X69843746Y-94536380D02*
X69964699Y-94657332D01*
X69964699Y-94657332D02*
X70025175Y-94778285D01*
D12*
%TO.C,J12*%
X68116000Y-121873200D02*
X68116000Y-115123200D01*
X73616000Y-121873200D02*
X68116000Y-121873200D01*
X68116000Y-115123200D02*
X73616000Y-115123200D01*
X73616000Y-115123200D02*
X73616000Y-121873200D01*
X72566000Y-114623200D02*
X72066000Y-113623200D01*
X72066000Y-113623200D02*
X73066000Y-113623200D01*
X73066000Y-113623200D02*
X72566000Y-114623200D01*
D13*
%TO.C,R22*%
X110221500Y-113284724D02*
X110221500Y-112775276D01*
X111266500Y-113284724D02*
X111266500Y-112775276D01*
%TO.C,C9*%
X92663600Y-117258752D02*
X92663600Y-115836248D01*
X94483600Y-117258752D02*
X94483600Y-115836248D01*
%TO.C,L2*%
X97280000Y-110712067D02*
X97280000Y-110369533D01*
X98300000Y-110712067D02*
X98300000Y-110369533D01*
%TO.C,D3*%
X87385000Y-104117000D02*
X91685000Y-104117000D01*
X87385000Y-104117000D02*
X87385000Y-98307000D01*
X91685000Y-104117000D02*
X91685000Y-98307000D01*
%TO.C,R15*%
X123966500Y-96161776D02*
X123966500Y-96671224D01*
X122921500Y-96161776D02*
X122921500Y-96671224D01*
%TO.C,R20*%
X139013476Y-90561900D02*
X139522924Y-90561900D01*
X139013476Y-91606900D02*
X139522924Y-91606900D01*
%TO.C,R24*%
X78232724Y-96026500D02*
X77723276Y-96026500D01*
X78232724Y-94981500D02*
X77723276Y-94981500D01*
%TO.C,R14*%
X130062500Y-96161776D02*
X130062500Y-96671224D01*
X129017500Y-96161776D02*
X129017500Y-96671224D01*
%TO.C,R10*%
X116854500Y-89915276D02*
X116854500Y-90424724D01*
X115809500Y-89915276D02*
X115809500Y-90424724D01*
D14*
%TO.C,IC1*%
X84180000Y-112548000D02*
X82780000Y-112548000D01*
X82430000Y-112498000D02*
X80130000Y-112498000D01*
X82430000Y-109498000D02*
X82430000Y-112498000D01*
X80130000Y-112498000D02*
X80130000Y-109498000D01*
X80130000Y-109498000D02*
X82430000Y-109498000D01*
D13*
%TO.C,C25*%
X128272000Y-96246733D02*
X128272000Y-96539267D01*
X127252000Y-96246733D02*
X127252000Y-96539267D01*
%TO.C,R1*%
X84328724Y-96661500D02*
X83819276Y-96661500D01*
X84328724Y-95616500D02*
X83819276Y-95616500D01*
%TO.C,U3*%
X103232000Y-114010000D02*
X103232000Y-120020000D01*
X96412000Y-116260000D02*
X96412000Y-120020000D01*
X103232000Y-120020000D02*
X101972000Y-120020000D01*
X96412000Y-120020000D02*
X97672000Y-120020000D01*
%TO.C,U2*%
X83058000Y-94524000D02*
X84858000Y-94524000D01*
X83058000Y-94524000D02*
X82258000Y-94524000D01*
X83058000Y-91404000D02*
X83858000Y-91404000D01*
X83058000Y-91404000D02*
X82258000Y-91404000D01*
%TO.C,Y1*%
X98643000Y-98519000D02*
X94143000Y-98519000D01*
X94143000Y-98519000D02*
X94143000Y-103919000D01*
%TO.C,C14*%
X109196600Y-112858333D02*
X109196600Y-113150867D01*
X108176600Y-112858333D02*
X108176600Y-113150867D01*
D15*
%TO.C,L1*%
X79248000Y-78994000D02*
X79248000Y-80721200D01*
X79248000Y-84886800D02*
X79248000Y-86614000D01*
X79248000Y-86614000D02*
X86868000Y-86614000D01*
X79451200Y-80721200D02*
X81153000Y-78994000D01*
X79451200Y-84886800D02*
X81153000Y-86614000D01*
X86868000Y-78994000D02*
X79248000Y-78994000D01*
X86868000Y-80721200D02*
X86868000Y-78994000D01*
X86868000Y-86614000D02*
X86868000Y-84886800D01*
D13*
%TO.C,R7*%
X136524276Y-101331500D02*
X137033724Y-101331500D01*
X136524276Y-102376500D02*
X137033724Y-102376500D01*
%TO.C,R6*%
X136651276Y-97775500D02*
X137160724Y-97775500D01*
X136651276Y-98820500D02*
X137160724Y-98820500D01*
%TO.C,C12*%
X118362000Y-97428267D02*
X118362000Y-97135733D01*
X119382000Y-97428267D02*
X119382000Y-97135733D01*
%TO.C,C8*%
X100634748Y-110850000D02*
X102057252Y-110850000D01*
X100634748Y-112670000D02*
X102057252Y-112670000D01*
%TO.C,R2*%
X82310500Y-88899276D02*
X82310500Y-89408724D01*
X81265500Y-88899276D02*
X81265500Y-89408724D01*
%TO.C,J6*%
X111252000Y-119948000D02*
X129092000Y-119948000D01*
X111252000Y-119948000D02*
X111252000Y-117288000D01*
X129092000Y-119948000D02*
X129092000Y-117288000D01*
X108652000Y-118618000D02*
X108652000Y-117288000D01*
X108652000Y-117288000D02*
X109982000Y-117288000D01*
X111252000Y-117288000D02*
X129092000Y-117288000D01*
%TO.C,R17*%
X132094500Y-96161776D02*
X132094500Y-96671224D01*
X131049500Y-96161776D02*
X131049500Y-96671224D01*
%TO.C,C1*%
X84838000Y-89007733D02*
X84838000Y-89300267D01*
X83818000Y-89007733D02*
X83818000Y-89300267D01*
%TO.C,R23*%
X77723276Y-97491500D02*
X78232724Y-97491500D01*
X77723276Y-98536500D02*
X78232724Y-98536500D01*
%TO.C,C18*%
X101941000Y-108836767D02*
X101941000Y-108544233D01*
X102961000Y-108836767D02*
X102961000Y-108544233D01*
%TO.C,D2*%
X85371000Y-108594000D02*
X86841000Y-108594000D01*
X86841000Y-108594000D02*
X86841000Y-106134000D01*
X85371000Y-106134000D02*
X85371000Y-108594000D01*
D16*
%TO.C,Y2*%
X101842000Y-96628000D02*
X101842000Y-97428000D01*
X100342000Y-96628000D02*
X100342000Y-97428000D01*
D13*
%TO.C,C24*%
X101365267Y-101348000D02*
X101072733Y-101348000D01*
X101365267Y-100328000D02*
X101072733Y-100328000D01*
%TO.C,C6*%
X76071000Y-111398267D02*
X76071000Y-111105733D01*
X77091000Y-111398267D02*
X77091000Y-111105733D01*
%TO.C,C2*%
X89681267Y-88013000D02*
X89388733Y-88013000D01*
X89681267Y-86993000D02*
X89388733Y-86993000D01*
D16*
%TO.C,J3*%
X134604000Y-89411000D02*
X134604000Y-89411000D01*
X134604000Y-89411000D02*
X134604000Y-82661000D01*
X134604000Y-82661000D02*
X134604000Y-89411000D01*
X134604000Y-82661000D02*
X134604000Y-82661000D01*
X134604000Y-79411000D02*
X134604000Y-79411000D01*
X134604000Y-79411000D02*
X134604000Y-76661000D01*
X134604000Y-76661000D02*
X134604000Y-79411000D01*
X134604000Y-76661000D02*
X134604000Y-76661000D01*
X134604000Y-76661000D02*
X134604000Y-76661000D01*
X134604000Y-76661000D02*
X119904000Y-76661000D01*
D14*
X125004000Y-93011000D02*
X125004000Y-93011000D01*
X125004000Y-93011000D02*
X125004000Y-93011000D01*
X125004000Y-92911000D02*
X125004000Y-92911000D01*
D16*
X124004000Y-91161000D02*
X124004000Y-91161000D01*
X124004000Y-91161000D02*
X121754000Y-91161000D01*
X121754000Y-91161000D02*
X124004000Y-91161000D01*
X121754000Y-91161000D02*
X121754000Y-91161000D01*
X119904000Y-89411000D02*
X119904000Y-89411000D01*
X119904000Y-89411000D02*
X119904000Y-82661000D01*
X119904000Y-82661000D02*
X119904000Y-89411000D01*
X119904000Y-82661000D02*
X119904000Y-82661000D01*
X119904000Y-79411000D02*
X119904000Y-79411000D01*
X119904000Y-79411000D02*
X119904000Y-76661000D01*
X119904000Y-76661000D02*
X134604000Y-76661000D01*
X119904000Y-76661000D02*
X119904000Y-79411000D01*
X119904000Y-76661000D02*
X119904000Y-76661000D01*
X119904000Y-76661000D02*
X119904000Y-76661000D01*
D14*
X125004000Y-92911000D02*
G75*
G03*
X125004000Y-93011000I0J-50000D01*
G01*
X125004000Y-93011000D02*
G75*
G03*
X125004000Y-92911000I0J50000D01*
G01*
X125004000Y-93011000D02*
G75*
G03*
X125004000Y-92911000I0J50000D01*
G01*
D13*
%TO.C,R13*%
X126252500Y-96161776D02*
X126252500Y-96671224D01*
X125207500Y-96161776D02*
X125207500Y-96671224D01*
%TO.C,R4*%
X81787276Y-106665500D02*
X82296724Y-106665500D01*
X81787276Y-107710500D02*
X82296724Y-107710500D01*
D16*
%TO.C,S1*%
X97564000Y-87074000D02*
X97564000Y-81074000D01*
X98114000Y-87074000D02*
X97564000Y-87074000D01*
X100514000Y-87074000D02*
X101064000Y-87074000D01*
X101064000Y-87074000D02*
X101064000Y-81074000D01*
X97564000Y-81074000D02*
X98114000Y-81074000D01*
X101064000Y-81074000D02*
X100514000Y-81074000D01*
D13*
%TO.C,L3*%
X76071000Y-107472267D02*
X76071000Y-107129733D01*
X77091000Y-107472267D02*
X77091000Y-107129733D01*
%TO.C,C13*%
X107186000Y-94380267D02*
X107186000Y-94087733D01*
X108206000Y-94380267D02*
X108206000Y-94087733D01*
%TO.C,U1*%
X106396000Y-99030000D02*
X106396000Y-99980000D01*
X106396000Y-99980000D02*
X105056000Y-99980000D01*
X106396000Y-109250000D02*
X106396000Y-108300000D01*
X107346000Y-99030000D02*
X106396000Y-99030000D01*
X107346000Y-109250000D02*
X106396000Y-109250000D01*
X115666000Y-99030000D02*
X116616000Y-99030000D01*
X115666000Y-109250000D02*
X116616000Y-109250000D01*
X116616000Y-99030000D02*
X116616000Y-99980000D01*
X116616000Y-109250000D02*
X116616000Y-108300000D01*
%TO.C,C21*%
X104609020Y-88644000D02*
X104890180Y-88644000D01*
X104609020Y-89664000D02*
X104890180Y-89664000D01*
%TO.C,C15*%
X118991233Y-109490000D02*
X119283767Y-109490000D01*
X118991233Y-110510000D02*
X119283767Y-110510000D01*
%TO.C,J10*%
X109730000Y-91026000D02*
X109730000Y-89916000D01*
X110490000Y-91026000D02*
X109730000Y-91026000D01*
X111250000Y-91026000D02*
X113725000Y-91026000D01*
X111250000Y-91026000D02*
X111250000Y-90479471D01*
X113725000Y-91026000D02*
X113725000Y-90223530D01*
X113725000Y-89608470D02*
X113725000Y-88806000D01*
X111250000Y-89352529D02*
X111250000Y-88806000D01*
X111250000Y-88806000D02*
X113725000Y-88806000D01*
%TO.C,R3*%
X89789724Y-90057500D02*
X89280276Y-90057500D01*
X89789724Y-89012500D02*
X89280276Y-89012500D01*
%TO.C,R19*%
X138901700Y-87652776D02*
X138901700Y-88162224D01*
X137856700Y-87652776D02*
X137856700Y-88162224D01*
%TO.C,C5*%
X82188267Y-105666000D02*
X81895733Y-105666000D01*
X82188267Y-104646000D02*
X81895733Y-104646000D01*
%TO.C,R16*%
X121934500Y-96161776D02*
X121934500Y-96671224D01*
X120889500Y-96161776D02*
X120889500Y-96671224D01*
%TO.C,U4*%
X90460000Y-120631000D02*
X84450000Y-120631000D01*
X88210000Y-113811000D02*
X84450000Y-113811000D01*
X84450000Y-120631000D02*
X84450000Y-119371000D01*
X84450000Y-113811000D02*
X84450000Y-115071000D01*
%TO.C,C19*%
X96412267Y-106174000D02*
X96119733Y-106174000D01*
X96412267Y-105154000D02*
X96119733Y-105154000D01*
%TO.C,R12*%
X109205500Y-94488724D02*
X109205500Y-93979276D01*
X110250500Y-94488724D02*
X110250500Y-93979276D01*
%TO.C,J4*%
X132131600Y-119928000D02*
X142411600Y-119928000D01*
X132131600Y-119928000D02*
X132131600Y-117328000D01*
X142411600Y-119928000D02*
X142411600Y-114728000D01*
X132131600Y-117328000D02*
X134731600Y-117328000D01*
X134731600Y-117328000D02*
X134731600Y-114728000D01*
X132131600Y-116058000D02*
X132131600Y-114728000D01*
X132131600Y-114728000D02*
X133461600Y-114728000D01*
X134731600Y-114728000D02*
X142411600Y-114728000D01*
%TO.C,C4*%
X89681267Y-95125000D02*
X89388733Y-95125000D01*
X89681267Y-94105000D02*
X89388733Y-94105000D01*
%TO.C,R18*%
X134126500Y-96161776D02*
X134126500Y-96671224D01*
X133081500Y-96161776D02*
X133081500Y-96671224D01*
%TO.C,C3*%
X89681267Y-92331000D02*
X89388733Y-92331000D01*
X89681267Y-91311000D02*
X89388733Y-91311000D01*
%TO.C,C26*%
X77196733Y-103376000D02*
X77489267Y-103376000D01*
X77196733Y-104396000D02*
X77489267Y-104396000D01*
%TO.C,C10*%
X79705252Y-115845000D02*
X78282748Y-115845000D01*
X79705252Y-114025000D02*
X78282748Y-114025000D01*
D14*
%TO.C,J1*%
X142397000Y-104546000D02*
X144197000Y-104546000D01*
X146897000Y-104546000D02*
X147522000Y-104546000D01*
X147522000Y-104546000D02*
X147522000Y-95606000D01*
D16*
X139197000Y-103276000D02*
X139197000Y-103276000D01*
X139297000Y-103276000D02*
X139297000Y-103276000D01*
D14*
X142397000Y-95606000D02*
X144197000Y-95606000D01*
X147522000Y-95606000D02*
X146897000Y-95606000D01*
D16*
X139297000Y-103276000D02*
G75*
G03*
X139197000Y-103276000I-50000J0D01*
G01*
X139197000Y-103276000D02*
G75*
G03*
X139297000Y-103276000I50000J0D01*
G01*
D13*
%TO.C,R8*%
X101600724Y-103900500D02*
X101091276Y-103900500D01*
X101600724Y-102855500D02*
X101091276Y-102855500D01*
%TO.C,C7*%
X81895733Y-102106000D02*
X82188267Y-102106000D01*
X81895733Y-103126000D02*
X82188267Y-103126000D01*
%TO.C,C17*%
X99312000Y-108858267D02*
X99312000Y-108565733D01*
X100332000Y-108858267D02*
X100332000Y-108565733D01*
%TO.C,R11*%
X111237500Y-94488724D02*
X111237500Y-93979276D01*
X112282500Y-94488724D02*
X112282500Y-93979276D01*
%TO.C,C23*%
X100984267Y-93601000D02*
X100691733Y-93601000D01*
X100984267Y-92581000D02*
X100691733Y-92581000D01*
%TO.C,R5*%
X86628500Y-110997276D02*
X86628500Y-111506724D01*
X85583500Y-110997276D02*
X85583500Y-111506724D01*
%TO.C,J2*%
X97122000Y-94740000D02*
X96012000Y-94740000D01*
X97122000Y-93980000D02*
X97122000Y-94740000D01*
X97122000Y-93220000D02*
X97122000Y-90745000D01*
X97122000Y-93220000D02*
X96575471Y-93220000D01*
X97122000Y-90745000D02*
X96319530Y-90745000D01*
X95704470Y-90745000D02*
X94902000Y-90745000D01*
X95448529Y-93220000D02*
X94902000Y-93220000D01*
X94902000Y-93220000D02*
X94902000Y-90745000D01*
%TO.C,C11*%
X78689252Y-120036000D02*
X77266748Y-120036000D01*
X78689252Y-118216000D02*
X77266748Y-118216000D01*
%TO.C,C27*%
X77196733Y-100963000D02*
X77489267Y-100963000D01*
X77196733Y-101983000D02*
X77489267Y-101983000D01*
D12*
%TO.C,J8*%
X68116000Y-107786200D02*
X68116000Y-102286200D01*
X73616000Y-107786200D02*
X68116000Y-107786200D01*
X68116000Y-102286200D02*
X73616000Y-102286200D01*
X73616000Y-102286200D02*
X73616000Y-107786200D01*
X72566000Y-101786200D02*
X72066000Y-100786200D01*
X72066000Y-100786200D02*
X73066000Y-100786200D01*
X73066000Y-100786200D02*
X72566000Y-101786200D01*
D13*
%TO.C,C16*%
X104392000Y-97047267D02*
X104392000Y-96754733D01*
X105412000Y-97047267D02*
X105412000Y-96754733D01*
%TO.C,R21*%
X113552500Y-112775276D02*
X113552500Y-113284724D01*
X112507500Y-112775276D02*
X112507500Y-113284724D01*
%TO.C,D1*%
X88020000Y-85956000D02*
X92320000Y-85956000D01*
X88020000Y-85956000D02*
X88020000Y-80146000D01*
X92320000Y-85956000D02*
X92320000Y-80146000D01*
D14*
%TO.C,J5*%
X116055000Y-85780000D02*
X112980000Y-85780000D01*
X116055000Y-80780000D02*
X116055000Y-85780000D01*
X112980000Y-80780000D02*
X116055000Y-80780000D01*
D16*
X112320000Y-79480000D02*
X112320000Y-79480000D01*
X112320000Y-79380000D02*
X112320000Y-79380000D01*
D14*
X106580000Y-85780000D02*
X103505000Y-85780000D01*
X103505000Y-85780000D02*
X103505000Y-80780000D01*
X103505000Y-80780000D02*
X106580000Y-80780000D01*
D16*
X112320000Y-79380000D02*
G75*
G03*
X112320000Y-79480000I0J-50000D01*
G01*
X112320000Y-79480000D02*
G75*
G03*
X112320000Y-79380000I0J50000D01*
G01*
D14*
%TO.C,Q1*%
X88219000Y-107377000D02*
X89744000Y-107377000D01*
X90094000Y-107532000D02*
X93294000Y-107532000D01*
X90094000Y-112432000D02*
X90094000Y-107532000D01*
X93294000Y-107532000D02*
X93294000Y-112432000D01*
X93294000Y-112432000D02*
X90094000Y-112432000D01*
D13*
%TO.C,R9*%
X100583276Y-90663500D02*
X101092724Y-90663500D01*
X100583276Y-91708500D02*
X101092724Y-91708500D01*
%TO.C,U5*%
X132334000Y-99024000D02*
X130534000Y-99024000D01*
X132334000Y-99024000D02*
X133134000Y-99024000D01*
X132334000Y-102144000D02*
X131534000Y-102144000D01*
X132334000Y-102144000D02*
X133134000Y-102144000D01*
D12*
%TO.C,J9*%
X68116000Y-84027200D02*
X68116000Y-77277200D01*
X73616000Y-84027200D02*
X68116000Y-84027200D01*
X68116000Y-77277200D02*
X73616000Y-77277200D01*
X73616000Y-77277200D02*
X73616000Y-84027200D01*
X72566000Y-76777200D02*
X72066000Y-75777200D01*
X72066000Y-75777200D02*
X73066000Y-75777200D01*
X73066000Y-75777200D02*
X72566000Y-76777200D01*
D13*
%TO.C,C22*%
X115699000Y-112883733D02*
X115699000Y-113176267D01*
X114679000Y-112883733D02*
X114679000Y-113176267D01*
D12*
%TO.C,J7*%
X147530000Y-77145700D02*
X147530000Y-85145700D01*
X142030000Y-77145700D02*
X147530000Y-77145700D01*
X147530000Y-85145700D02*
X142030000Y-85145700D01*
X142030000Y-85145700D02*
X142030000Y-77145700D01*
X143080000Y-85645700D02*
X143580000Y-86645700D01*
X143580000Y-86645700D02*
X142580000Y-86645700D01*
X142580000Y-86645700D02*
X143080000Y-85645700D01*
D13*
%TO.C,C20*%
X95992733Y-96264000D02*
X96285267Y-96264000D01*
X95992733Y-97284000D02*
X96285267Y-97284000D01*
D12*
%TO.C,J11*%
X68116000Y-98388200D02*
X68116000Y-92888200D01*
X73616000Y-98388200D02*
X68116000Y-98388200D01*
X68116000Y-92888200D02*
X73616000Y-92888200D01*
X73616000Y-92888200D02*
X73616000Y-98388200D01*
X72566000Y-92388200D02*
X72066000Y-91388200D01*
X72066000Y-91388200D02*
X73066000Y-91388200D01*
X73066000Y-91388200D02*
X72566000Y-92388200D01*
%TD*%
M02*
