%TF.GenerationSoftware,KiCad,Pcbnew,7.0.8*%
%TF.CreationDate,2023-10-16T09:34:00+02:00*%
%TF.ProjectId,Suspension_telemetry,53757370-656e-4736-996f-6e5f74656c65,rev?*%
%TF.SameCoordinates,Original*%
%TF.FileFunction,Soldermask,Top*%
%TF.FilePolarity,Negative*%
%FSLAX46Y46*%
G04 Gerber Fmt 4.6, Leading zero omitted, Abs format (unit mm)*
G04 Created by KiCad (PCBNEW 7.0.8) date 2023-10-16 09:34:00*
%MOMM*%
%LPD*%
G01*
G04 APERTURE LIST*
G04 Aperture macros list*
%AMRoundRect*
0 Rectangle with rounded corners*
0 $1 Rounding radius*
0 $2 $3 $4 $5 $6 $7 $8 $9 X,Y pos of 4 corners*
0 Add a 4 corners polygon primitive as box body*
4,1,4,$2,$3,$4,$5,$6,$7,$8,$9,$2,$3,0*
0 Add four circle primitives for the rounded corners*
1,1,$1+$1,$2,$3*
1,1,$1+$1,$4,$5*
1,1,$1+$1,$6,$7*
1,1,$1+$1,$8,$9*
0 Add four rect primitives between the rounded corners*
20,1,$1+$1,$2,$3,$4,$5,0*
20,1,$1+$1,$4,$5,$6,$7,0*
20,1,$1+$1,$6,$7,$8,$9,0*
20,1,$1+$1,$8,$9,$2,$3,0*%
G04 Aperture macros list end*
%ADD10R,0.850000X0.850000*%
%ADD11C,0.850000*%
%ADD12RoundRect,0.237500X0.237500X-0.250000X0.237500X0.250000X-0.237500X0.250000X-0.237500X-0.250000X0*%
%ADD13RoundRect,0.250000X0.650000X-0.412500X0.650000X0.412500X-0.650000X0.412500X-0.650000X-0.412500X0*%
%ADD14RoundRect,0.237500X0.237500X-0.287500X0.237500X0.287500X-0.237500X0.287500X-0.237500X-0.287500X0*%
%ADD15RoundRect,0.250000X0.900000X-1.000000X0.900000X1.000000X-0.900000X1.000000X-0.900000X-1.000000X0*%
%ADD16RoundRect,0.237500X-0.237500X0.250000X-0.237500X-0.250000X0.237500X-0.250000X0.237500X0.250000X0*%
%ADD17RoundRect,0.237500X-0.250000X-0.237500X0.250000X-0.237500X0.250000X0.237500X-0.250000X0.237500X0*%
%ADD18RoundRect,0.237500X0.250000X0.237500X-0.250000X0.237500X-0.250000X-0.237500X0.250000X-0.237500X0*%
%ADD19R,1.400000X0.450000*%
%ADD20RoundRect,0.237500X-0.237500X0.300000X-0.237500X-0.300000X0.237500X-0.300000X0.237500X0.300000X0*%
%ADD21R,1.500000X2.000000*%
%ADD22R,3.800000X2.000000*%
%ADD23RoundRect,0.150000X0.512500X0.150000X-0.512500X0.150000X-0.512500X-0.150000X0.512500X-0.150000X0*%
%ADD24R,1.800000X2.100000*%
%ADD25R,2.260600X3.505200*%
%ADD26RoundRect,0.237500X0.237500X-0.300000X0.237500X0.300000X-0.237500X0.300000X-0.237500X-0.300000X0*%
%ADD27RoundRect,0.250000X-0.412500X-0.650000X0.412500X-0.650000X0.412500X0.650000X-0.412500X0.650000X0*%
%ADD28R,1.700000X1.700000*%
%ADD29O,1.700000X1.700000*%
%ADD30R,1.900000X1.100000*%
%ADD31RoundRect,0.237500X0.300000X0.237500X-0.300000X0.237500X-0.300000X-0.237500X0.300000X-0.237500X0*%
%ADD32C,1.000000*%
%ADD33R,0.700000X1.600000*%
%ADD34R,1.200000X1.400000*%
%ADD35R,1.600000X1.400000*%
%ADD36R,1.200000X2.200000*%
%ADD37C,1.860000*%
%ADD38RoundRect,0.075000X-0.700000X-0.075000X0.700000X-0.075000X0.700000X0.075000X-0.700000X0.075000X0*%
%ADD39RoundRect,0.075000X-0.075000X-0.700000X0.075000X-0.700000X0.075000X0.700000X-0.075000X0.700000X0*%
%ADD40RoundRect,0.225000X-0.225000X-0.250000X0.225000X-0.250000X0.225000X0.250000X-0.225000X0.250000X0*%
%ADD41RoundRect,0.237500X-0.300000X-0.237500X0.300000X-0.237500X0.300000X0.237500X-0.300000X0.237500X0*%
%ADD42R,1.000000X1.000000*%
%ADD43O,1.000000X1.000000*%
%ADD44R,2.000000X1.500000*%
%ADD45R,2.000000X3.800000*%
%ADD46RoundRect,0.250000X0.412500X0.650000X-0.412500X0.650000X-0.412500X-0.650000X0.412500X-0.650000X0*%
%ADD47R,1.100000X0.600000*%
%ADD48R,1.100000X0.300000*%
%ADD49C,2.280000*%
%ADD50C,2.850000*%
%ADD51R,0.740000X2.600000*%
%ADD52R,1.525000X0.700000*%
%ADD53RoundRect,0.150000X-0.512500X-0.150000X0.512500X-0.150000X0.512500X0.150000X-0.512500X0.150000X0*%
%ADD54O,2.604000X4.344000*%
G04 APERTURE END LIST*
D10*
%TO.C,J12*%
X72566000Y-116623200D03*
D11*
X72566000Y-117873200D03*
X72566000Y-119123200D03*
X72566000Y-120373200D03*
%TD*%
D12*
%TO.C,R22*%
X110744000Y-113942500D03*
X110744000Y-112117500D03*
%TD*%
D13*
%TO.C,C9*%
X93573600Y-118110000D03*
X93573600Y-114985000D03*
%TD*%
D14*
%TO.C,L2*%
X97790000Y-111415800D03*
X97790000Y-109665800D03*
%TD*%
D15*
%TO.C,D3*%
X89535000Y-102607000D03*
X89535000Y-98307000D03*
%TD*%
D16*
%TO.C,R15*%
X123444000Y-95504000D03*
X123444000Y-97329000D03*
%TD*%
D17*
%TO.C,R20*%
X138355700Y-91084400D03*
X140180700Y-91084400D03*
%TD*%
D18*
%TO.C,R24*%
X78890500Y-95504000D03*
X77065500Y-95504000D03*
%TD*%
D16*
%TO.C,R14*%
X129540000Y-95504000D03*
X129540000Y-97329000D03*
%TD*%
%TO.C,R10*%
X116332000Y-89257500D03*
X116332000Y-91082500D03*
%TD*%
D19*
%TO.C,IC1*%
X83480000Y-111973000D03*
X83480000Y-111323000D03*
X83480000Y-110673000D03*
X83480000Y-110023000D03*
X79080000Y-110023000D03*
X79080000Y-110673000D03*
X79080000Y-111323000D03*
X79080000Y-111973000D03*
%TD*%
D20*
%TO.C,C25*%
X127762000Y-95530500D03*
X127762000Y-97255500D03*
%TD*%
D18*
%TO.C,R1*%
X84986500Y-96139000D03*
X83161500Y-96139000D03*
%TD*%
D21*
%TO.C,U3*%
X102122000Y-114960000D03*
X99822000Y-114960000D03*
D22*
X99822000Y-121260000D03*
D21*
X97522000Y-114960000D03*
%TD*%
D23*
%TO.C,U2*%
X84195500Y-93914000D03*
X84195500Y-92964000D03*
X84195500Y-92014000D03*
X81920500Y-92014000D03*
X81920500Y-93914000D03*
%TD*%
D24*
%TO.C,Y1*%
X95243000Y-99769000D03*
X95243000Y-102669000D03*
X97543000Y-102669000D03*
X97543000Y-99769000D03*
%TD*%
D20*
%TO.C,C14*%
X108686600Y-112142100D03*
X108686600Y-113867100D03*
%TD*%
D25*
%TO.C,L1*%
X80238600Y-82804000D03*
X85877400Y-82804000D03*
%TD*%
D17*
%TO.C,R7*%
X135866500Y-101854000D03*
X137691500Y-101854000D03*
%TD*%
%TO.C,R6*%
X135993500Y-98298000D03*
X137818500Y-98298000D03*
%TD*%
D26*
%TO.C,C12*%
X118872000Y-98144500D03*
X118872000Y-96419500D03*
%TD*%
D27*
%TO.C,C8*%
X99783500Y-111760000D03*
X102908500Y-111760000D03*
%TD*%
D16*
%TO.C,R2*%
X81788000Y-88241500D03*
X81788000Y-90066500D03*
%TD*%
D28*
%TO.C,J6*%
X109982000Y-118618000D03*
D29*
X112522000Y-118618000D03*
X115062000Y-118618000D03*
X117602000Y-118618000D03*
X120142000Y-118618000D03*
X122682000Y-118618000D03*
X125222000Y-118618000D03*
X127762000Y-118618000D03*
%TD*%
D16*
%TO.C,R17*%
X131572000Y-95504000D03*
X131572000Y-97329000D03*
%TD*%
D20*
%TO.C,C1*%
X84328000Y-88291500D03*
X84328000Y-90016500D03*
%TD*%
D17*
%TO.C,R23*%
X77065500Y-98014000D03*
X78890500Y-98014000D03*
%TD*%
D26*
%TO.C,C18*%
X102451000Y-109553000D03*
X102451000Y-107828000D03*
%TD*%
D14*
%TO.C,D2*%
X86106000Y-107809000D03*
X86106000Y-106059000D03*
%TD*%
D30*
%TO.C,Y2*%
X101092000Y-95778000D03*
X101092000Y-98278000D03*
%TD*%
D31*
%TO.C,C24*%
X102081500Y-100838000D03*
X100356500Y-100838000D03*
%TD*%
D26*
%TO.C,C6*%
X76581000Y-112114500D03*
X76581000Y-110389500D03*
%TD*%
D31*
%TO.C,C2*%
X90397500Y-87503000D03*
X88672500Y-87503000D03*
%TD*%
D32*
%TO.C,J3*%
X132204000Y-80661000D03*
X124204000Y-80661000D03*
D33*
X125004000Y-91161000D03*
X126104000Y-91161000D03*
X127204000Y-91161000D03*
X128304000Y-91161000D03*
X129404000Y-91161000D03*
X130504000Y-91161000D03*
X131604000Y-91161000D03*
X132704000Y-91161000D03*
X133804000Y-91161000D03*
D34*
X135004000Y-90661000D03*
D35*
X120404000Y-90661000D03*
D36*
X119504000Y-81061000D03*
X135004000Y-81061000D03*
%TD*%
D16*
%TO.C,R13*%
X125730000Y-95504000D03*
X125730000Y-97329000D03*
%TD*%
D17*
%TO.C,R4*%
X81129500Y-107188000D03*
X82954500Y-107188000D03*
%TD*%
D37*
%TO.C,S1*%
X99314000Y-87324000D03*
X99314000Y-80824000D03*
%TD*%
D14*
%TO.C,L3*%
X76581000Y-108176000D03*
X76581000Y-106426000D03*
%TD*%
D26*
%TO.C,C13*%
X107696000Y-95096500D03*
X107696000Y-93371500D03*
%TD*%
D38*
%TO.C,U1*%
X105831000Y-100390000D03*
X105831000Y-100890000D03*
X105831000Y-101390000D03*
X105831000Y-101890000D03*
X105831000Y-102390000D03*
X105831000Y-102890000D03*
X105831000Y-103390000D03*
X105831000Y-103890000D03*
X105831000Y-104390000D03*
X105831000Y-104890000D03*
X105831000Y-105390000D03*
X105831000Y-105890000D03*
X105831000Y-106390000D03*
X105831000Y-106890000D03*
X105831000Y-107390000D03*
X105831000Y-107890000D03*
D39*
X107756000Y-109815000D03*
X108256000Y-109815000D03*
X108756000Y-109815000D03*
X109256000Y-109815000D03*
X109756000Y-109815000D03*
X110256000Y-109815000D03*
X110756000Y-109815000D03*
X111256000Y-109815000D03*
X111756000Y-109815000D03*
X112256000Y-109815000D03*
X112756000Y-109815000D03*
X113256000Y-109815000D03*
X113756000Y-109815000D03*
X114256000Y-109815000D03*
X114756000Y-109815000D03*
X115256000Y-109815000D03*
D38*
X117181000Y-107890000D03*
X117181000Y-107390000D03*
X117181000Y-106890000D03*
X117181000Y-106390000D03*
X117181000Y-105890000D03*
X117181000Y-105390000D03*
X117181000Y-104890000D03*
X117181000Y-104390000D03*
X117181000Y-103890000D03*
X117181000Y-103390000D03*
X117181000Y-102890000D03*
X117181000Y-102390000D03*
X117181000Y-101890000D03*
X117181000Y-101390000D03*
X117181000Y-100890000D03*
X117181000Y-100390000D03*
D39*
X115256000Y-98465000D03*
X114756000Y-98465000D03*
X114256000Y-98465000D03*
X113756000Y-98465000D03*
X113256000Y-98465000D03*
X112756000Y-98465000D03*
X112256000Y-98465000D03*
X111756000Y-98465000D03*
X111256000Y-98465000D03*
X110756000Y-98465000D03*
X110256000Y-98465000D03*
X109756000Y-98465000D03*
X109256000Y-98465000D03*
X108756000Y-98465000D03*
X108256000Y-98465000D03*
X107756000Y-98465000D03*
%TD*%
D40*
%TO.C,C21*%
X103974600Y-89154000D03*
X105524600Y-89154000D03*
%TD*%
D41*
%TO.C,C15*%
X118275000Y-110000000D03*
X120000000Y-110000000D03*
%TD*%
D42*
%TO.C,J10*%
X110490000Y-89916000D03*
D43*
X111760000Y-89916000D03*
X113030000Y-89916000D03*
%TD*%
D18*
%TO.C,R3*%
X90447500Y-89535000D03*
X88622500Y-89535000D03*
%TD*%
D16*
%TO.C,R19*%
X138379200Y-86995000D03*
X138379200Y-88820000D03*
%TD*%
D31*
%TO.C,C5*%
X82904500Y-105156000D03*
X81179500Y-105156000D03*
%TD*%
D16*
%TO.C,R16*%
X121412000Y-95504000D03*
X121412000Y-97329000D03*
%TD*%
D44*
%TO.C,U4*%
X89510000Y-119521000D03*
X89510000Y-117221000D03*
D45*
X83210000Y-117221000D03*
D44*
X89510000Y-114921000D03*
%TD*%
D31*
%TO.C,C19*%
X97128500Y-105664000D03*
X95403500Y-105664000D03*
%TD*%
D12*
%TO.C,R12*%
X109728000Y-95146500D03*
X109728000Y-93321500D03*
%TD*%
D28*
%TO.C,J4*%
X133461600Y-116058000D03*
D29*
X133461600Y-118598000D03*
X136001600Y-116058000D03*
X136001600Y-118598000D03*
X138541600Y-116058000D03*
X138541600Y-118598000D03*
X141081600Y-116058000D03*
X141081600Y-118598000D03*
%TD*%
D31*
%TO.C,C4*%
X90397500Y-94615000D03*
X88672500Y-94615000D03*
%TD*%
D16*
%TO.C,R18*%
X133604000Y-95504000D03*
X133604000Y-97329000D03*
%TD*%
D31*
%TO.C,C3*%
X90397500Y-91821000D03*
X88672500Y-91821000D03*
%TD*%
D41*
%TO.C,C26*%
X76480500Y-103886000D03*
X78205500Y-103886000D03*
%TD*%
D46*
%TO.C,C10*%
X80556500Y-114935000D03*
X77431500Y-114935000D03*
%TD*%
D47*
%TO.C,J1*%
X140272000Y-103276000D03*
X140272000Y-102476000D03*
D48*
X140272000Y-101326000D03*
X140272000Y-100326000D03*
X140272000Y-99826000D03*
X140272000Y-98826000D03*
D47*
X140272000Y-97676000D03*
X140272000Y-96876000D03*
D48*
X140272000Y-98326000D03*
X140272000Y-99326000D03*
X140272000Y-100826000D03*
X140272000Y-101826000D03*
D49*
X141422000Y-105696000D03*
X141422000Y-94456000D03*
D50*
X145422000Y-105696000D03*
X145422000Y-94456000D03*
%TD*%
D18*
%TO.C,R8*%
X102258500Y-103378000D03*
X100433500Y-103378000D03*
%TD*%
D41*
%TO.C,C7*%
X81179500Y-102616000D03*
X82904500Y-102616000D03*
%TD*%
D26*
%TO.C,C17*%
X99822000Y-109574500D03*
X99822000Y-107849500D03*
%TD*%
D12*
%TO.C,R11*%
X111760000Y-95146500D03*
X111760000Y-93321500D03*
%TD*%
D31*
%TO.C,C23*%
X101700500Y-93091000D03*
X99975500Y-93091000D03*
%TD*%
D16*
%TO.C,R5*%
X86106000Y-110339500D03*
X86106000Y-112164500D03*
%TD*%
D42*
%TO.C,J2*%
X96012000Y-93980000D03*
D43*
X96012000Y-92710000D03*
X96012000Y-91440000D03*
%TD*%
D46*
%TO.C,C11*%
X79540500Y-119126000D03*
X76415500Y-119126000D03*
%TD*%
D41*
%TO.C,C27*%
X76480500Y-101473000D03*
X78205500Y-101473000D03*
%TD*%
D10*
%TO.C,J8*%
X72566000Y-103786200D03*
D11*
X72566000Y-105036200D03*
X72566000Y-106286200D03*
%TD*%
D26*
%TO.C,C16*%
X104902000Y-97763500D03*
X104902000Y-96038500D03*
%TD*%
D16*
%TO.C,R21*%
X113030000Y-112117500D03*
X113030000Y-113942500D03*
%TD*%
D15*
%TO.C,D1*%
X90170000Y-84446000D03*
X90170000Y-80146000D03*
%TD*%
D51*
%TO.C,J5*%
X112320000Y-81280000D03*
X112320000Y-85280000D03*
X111050000Y-81280000D03*
X111050000Y-85280000D03*
X109780000Y-81280000D03*
X109780000Y-85280000D03*
X108510000Y-81280000D03*
X108510000Y-85280000D03*
X107240000Y-81280000D03*
X107240000Y-85280000D03*
%TD*%
D52*
%TO.C,Q1*%
X88982000Y-108077000D03*
X88982000Y-109347000D03*
X88982000Y-110617000D03*
X88982000Y-111887000D03*
X94406000Y-111887000D03*
X94406000Y-110617000D03*
X94406000Y-109347000D03*
X94406000Y-108077000D03*
%TD*%
D17*
%TO.C,R9*%
X99925500Y-91186000D03*
X101750500Y-91186000D03*
%TD*%
D53*
%TO.C,U5*%
X131196500Y-99634000D03*
X131196500Y-100584000D03*
X131196500Y-101534000D03*
X133471500Y-101534000D03*
X133471500Y-100584000D03*
X133471500Y-99634000D03*
%TD*%
D10*
%TO.C,J9*%
X72566000Y-78777200D03*
D11*
X72566000Y-80027200D03*
X72566000Y-81277200D03*
X72566000Y-82527200D03*
%TD*%
D20*
%TO.C,C22*%
X115189000Y-112167500D03*
X115189000Y-113892500D03*
%TD*%
D10*
%TO.C,J7*%
X143080000Y-83645700D03*
D11*
X143080000Y-82395700D03*
X143080000Y-81145700D03*
X143080000Y-79895700D03*
X143080000Y-78645700D03*
%TD*%
D41*
%TO.C,C20*%
X95276500Y-96774000D03*
X97001500Y-96774000D03*
%TD*%
D10*
%TO.C,J11*%
X72566000Y-94388200D03*
D11*
X72566000Y-95638200D03*
X72566000Y-96888200D03*
%TD*%
D54*
%TO.C,BT1*%
X72197000Y-111324000D03*
X143597000Y-111324000D03*
%TD*%
%TO.C,BT2*%
X143701000Y-88972000D03*
X72301000Y-88972000D03*
%TD*%
M02*
