%TF.GenerationSoftware,KiCad,Pcbnew,7.0.8*%
%TF.CreationDate,2023-10-22T12:25:57+02:00*%
%TF.ProjectId,Suspension_telemetry,53757370-656e-4736-996f-6e5f74656c65,rev?*%
%TF.SameCoordinates,Original*%
%TF.FileFunction,Copper,L2,Bot*%
%TF.FilePolarity,Positive*%
%FSLAX46Y46*%
G04 Gerber Fmt 4.6, Leading zero omitted, Abs format (unit mm)*
G04 Created by KiCad (PCBNEW 7.0.8) date 2023-10-22 12:25:57*
%MOMM*%
%LPD*%
G01*
G04 APERTURE LIST*
%ADD10C,0.300000*%
%TA.AperFunction,NonConductor*%
%ADD11C,0.300000*%
%TD*%
%TA.AperFunction,NonConductor*%
%ADD12C,0.200000*%
%TD*%
%TA.AperFunction,ComponentPad*%
%ADD13R,0.850000X0.850000*%
%TD*%
%TA.AperFunction,ComponentPad*%
%ADD14C,0.850000*%
%TD*%
%TA.AperFunction,ComponentPad*%
%ADD15R,1.700000X1.700000*%
%TD*%
%TA.AperFunction,ComponentPad*%
%ADD16O,1.700000X1.700000*%
%TD*%
%TA.AperFunction,ComponentPad*%
%ADD17C,1.860000*%
%TD*%
%TA.AperFunction,ComponentPad*%
%ADD18R,1.000000X1.000000*%
%TD*%
%TA.AperFunction,ComponentPad*%
%ADD19O,1.000000X1.000000*%
%TD*%
%TA.AperFunction,ComponentPad*%
%ADD20C,2.280000*%
%TD*%
%TA.AperFunction,ComponentPad*%
%ADD21C,2.850000*%
%TD*%
%TA.AperFunction,ComponentPad*%
%ADD22O,2.400000X4.140000*%
%TD*%
%TA.AperFunction,ViaPad*%
%ADD23C,0.800000*%
%TD*%
%TA.AperFunction,Conductor*%
%ADD24C,0.250000*%
%TD*%
%TA.AperFunction,Conductor*%
%ADD25C,0.500000*%
%TD*%
%TA.AperFunction,Conductor*%
%ADD26C,0.300000*%
%TD*%
G04 APERTURE END LIST*
D10*
D11*
X157644328Y-105782284D02*
X158644328Y-105782284D01*
X157072900Y-106139426D02*
X158144328Y-106496569D01*
X158144328Y-106496569D02*
X158144328Y-105567998D01*
X157787185Y-104782284D02*
X157715757Y-104925141D01*
X157715757Y-104925141D02*
X157644328Y-104996570D01*
X157644328Y-104996570D02*
X157501471Y-105067998D01*
X157501471Y-105067998D02*
X157430042Y-105067998D01*
X157430042Y-105067998D02*
X157287185Y-104996570D01*
X157287185Y-104996570D02*
X157215757Y-104925141D01*
X157215757Y-104925141D02*
X157144328Y-104782284D01*
X157144328Y-104782284D02*
X157144328Y-104496570D01*
X157144328Y-104496570D02*
X157215757Y-104353713D01*
X157215757Y-104353713D02*
X157287185Y-104282284D01*
X157287185Y-104282284D02*
X157430042Y-104210855D01*
X157430042Y-104210855D02*
X157501471Y-104210855D01*
X157501471Y-104210855D02*
X157644328Y-104282284D01*
X157644328Y-104282284D02*
X157715757Y-104353713D01*
X157715757Y-104353713D02*
X157787185Y-104496570D01*
X157787185Y-104496570D02*
X157787185Y-104782284D01*
X157787185Y-104782284D02*
X157858614Y-104925141D01*
X157858614Y-104925141D02*
X157930042Y-104996570D01*
X157930042Y-104996570D02*
X158072900Y-105067998D01*
X158072900Y-105067998D02*
X158358614Y-105067998D01*
X158358614Y-105067998D02*
X158501471Y-104996570D01*
X158501471Y-104996570D02*
X158572900Y-104925141D01*
X158572900Y-104925141D02*
X158644328Y-104782284D01*
X158644328Y-104782284D02*
X158644328Y-104496570D01*
X158644328Y-104496570D02*
X158572900Y-104353713D01*
X158572900Y-104353713D02*
X158501471Y-104282284D01*
X158501471Y-104282284D02*
X158358614Y-104210855D01*
X158358614Y-104210855D02*
X158072900Y-104210855D01*
X158072900Y-104210855D02*
X157930042Y-104282284D01*
X157930042Y-104282284D02*
X157858614Y-104353713D01*
X157858614Y-104353713D02*
X157787185Y-104496570D01*
X158572900Y-103496570D02*
X158644328Y-103496570D01*
X158644328Y-103496570D02*
X158787185Y-103567999D01*
X158787185Y-103567999D02*
X158858614Y-103639427D01*
X157287185Y-102925141D02*
X157215757Y-102853713D01*
X157215757Y-102853713D02*
X157144328Y-102710856D01*
X157144328Y-102710856D02*
X157144328Y-102353713D01*
X157144328Y-102353713D02*
X157215757Y-102210856D01*
X157215757Y-102210856D02*
X157287185Y-102139427D01*
X157287185Y-102139427D02*
X157430042Y-102067998D01*
X157430042Y-102067998D02*
X157572900Y-102067998D01*
X157572900Y-102067998D02*
X157787185Y-102139427D01*
X157787185Y-102139427D02*
X158644328Y-102996570D01*
X158644328Y-102996570D02*
X158644328Y-102067998D01*
X157144328Y-100782285D02*
X157144328Y-101067999D01*
X157144328Y-101067999D02*
X157215757Y-101210856D01*
X157215757Y-101210856D02*
X157287185Y-101282285D01*
X157287185Y-101282285D02*
X157501471Y-101425142D01*
X157501471Y-101425142D02*
X157787185Y-101496570D01*
X157787185Y-101496570D02*
X158358614Y-101496570D01*
X158358614Y-101496570D02*
X158501471Y-101425142D01*
X158501471Y-101425142D02*
X158572900Y-101353713D01*
X158572900Y-101353713D02*
X158644328Y-101210856D01*
X158644328Y-101210856D02*
X158644328Y-100925142D01*
X158644328Y-100925142D02*
X158572900Y-100782285D01*
X158572900Y-100782285D02*
X158501471Y-100710856D01*
X158501471Y-100710856D02*
X158358614Y-100639427D01*
X158358614Y-100639427D02*
X158001471Y-100639427D01*
X158001471Y-100639427D02*
X157858614Y-100710856D01*
X157858614Y-100710856D02*
X157787185Y-100782285D01*
X157787185Y-100782285D02*
X157715757Y-100925142D01*
X157715757Y-100925142D02*
X157715757Y-101210856D01*
X157715757Y-101210856D02*
X157787185Y-101353713D01*
X157787185Y-101353713D02*
X157858614Y-101425142D01*
X157858614Y-101425142D02*
X158001471Y-101496570D01*
X157144328Y-99710856D02*
X157144328Y-99567999D01*
X157144328Y-99567999D02*
X157215757Y-99425142D01*
X157215757Y-99425142D02*
X157287185Y-99353714D01*
X157287185Y-99353714D02*
X157430042Y-99282285D01*
X157430042Y-99282285D02*
X157715757Y-99210856D01*
X157715757Y-99210856D02*
X158072900Y-99210856D01*
X158072900Y-99210856D02*
X158358614Y-99282285D01*
X158358614Y-99282285D02*
X158501471Y-99353714D01*
X158501471Y-99353714D02*
X158572900Y-99425142D01*
X158572900Y-99425142D02*
X158644328Y-99567999D01*
X158644328Y-99567999D02*
X158644328Y-99710856D01*
X158644328Y-99710856D02*
X158572900Y-99853714D01*
X158572900Y-99853714D02*
X158501471Y-99925142D01*
X158501471Y-99925142D02*
X158358614Y-99996571D01*
X158358614Y-99996571D02*
X158072900Y-100067999D01*
X158072900Y-100067999D02*
X157715757Y-100067999D01*
X157715757Y-100067999D02*
X157430042Y-99996571D01*
X157430042Y-99996571D02*
X157287185Y-99925142D01*
X157287185Y-99925142D02*
X157215757Y-99853714D01*
X157215757Y-99853714D02*
X157144328Y-99710856D01*
X157144328Y-98282285D02*
X157144328Y-98139428D01*
X157144328Y-98139428D02*
X157215757Y-97996571D01*
X157215757Y-97996571D02*
X157287185Y-97925143D01*
X157287185Y-97925143D02*
X157430042Y-97853714D01*
X157430042Y-97853714D02*
X157715757Y-97782285D01*
X157715757Y-97782285D02*
X158072900Y-97782285D01*
X158072900Y-97782285D02*
X158358614Y-97853714D01*
X158358614Y-97853714D02*
X158501471Y-97925143D01*
X158501471Y-97925143D02*
X158572900Y-97996571D01*
X158572900Y-97996571D02*
X158644328Y-98139428D01*
X158644328Y-98139428D02*
X158644328Y-98282285D01*
X158644328Y-98282285D02*
X158572900Y-98425143D01*
X158572900Y-98425143D02*
X158501471Y-98496571D01*
X158501471Y-98496571D02*
X158358614Y-98568000D01*
X158358614Y-98568000D02*
X158072900Y-98639428D01*
X158072900Y-98639428D02*
X157715757Y-98639428D01*
X157715757Y-98639428D02*
X157430042Y-98568000D01*
X157430042Y-98568000D02*
X157287185Y-98496571D01*
X157287185Y-98496571D02*
X157215757Y-98425143D01*
X157215757Y-98425143D02*
X157144328Y-98282285D01*
X158644328Y-95996572D02*
X157644328Y-95996572D01*
X157787185Y-95996572D02*
X157715757Y-95925143D01*
X157715757Y-95925143D02*
X157644328Y-95782286D01*
X157644328Y-95782286D02*
X157644328Y-95568000D01*
X157644328Y-95568000D02*
X157715757Y-95425143D01*
X157715757Y-95425143D02*
X157858614Y-95353715D01*
X157858614Y-95353715D02*
X158644328Y-95353715D01*
X157858614Y-95353715D02*
X157715757Y-95282286D01*
X157715757Y-95282286D02*
X157644328Y-95139429D01*
X157644328Y-95139429D02*
X157644328Y-94925143D01*
X157644328Y-94925143D02*
X157715757Y-94782286D01*
X157715757Y-94782286D02*
X157858614Y-94710857D01*
X157858614Y-94710857D02*
X158644328Y-94710857D01*
X158644328Y-93996572D02*
X157644328Y-93996572D01*
X157787185Y-93996572D02*
X157715757Y-93925143D01*
X157715757Y-93925143D02*
X157644328Y-93782286D01*
X157644328Y-93782286D02*
X157644328Y-93568000D01*
X157644328Y-93568000D02*
X157715757Y-93425143D01*
X157715757Y-93425143D02*
X157858614Y-93353715D01*
X157858614Y-93353715D02*
X158644328Y-93353715D01*
X157858614Y-93353715D02*
X157715757Y-93282286D01*
X157715757Y-93282286D02*
X157644328Y-93139429D01*
X157644328Y-93139429D02*
X157644328Y-92925143D01*
X157644328Y-92925143D02*
X157715757Y-92782286D01*
X157715757Y-92782286D02*
X157858614Y-92710857D01*
X157858614Y-92710857D02*
X158644328Y-92710857D01*
D12*
X148328000Y-123698000D02*
X160352420Y-123698000D01*
X148328000Y-75438000D02*
X160352420Y-75438000D01*
X159766000Y-123698000D02*
X159766000Y-75438000D01*
X159766000Y-123698000D02*
X159766000Y-75438000D01*
X159766000Y-123698000D02*
X159179579Y-122571496D01*
X159766000Y-123698000D02*
X160352421Y-122571496D01*
X159766000Y-75438000D02*
X160352421Y-76564504D01*
X159766000Y-75438000D02*
X159179579Y-76564504D01*
D10*
D11*
X101448495Y-73051867D02*
X101306935Y-72977901D01*
X101306935Y-72977901D02*
X101236792Y-72905210D01*
X101236792Y-72905210D02*
X101167922Y-72761102D01*
X101167922Y-72761102D02*
X101169196Y-72689685D01*
X101169196Y-72689685D02*
X101243162Y-72548124D01*
X101243162Y-72548124D02*
X101315853Y-72477981D01*
X101315853Y-72477981D02*
X101459961Y-72409112D01*
X101459961Y-72409112D02*
X101745630Y-72414208D01*
X101745630Y-72414208D02*
X101887191Y-72488173D01*
X101887191Y-72488173D02*
X101957334Y-72560864D01*
X101957334Y-72560864D02*
X102026203Y-72704973D01*
X102026203Y-72704973D02*
X102024929Y-72776390D01*
X102024929Y-72776390D02*
X101950964Y-72917950D01*
X101950964Y-72917950D02*
X101878272Y-72988093D01*
X101878272Y-72988093D02*
X101734164Y-73056963D01*
X101734164Y-73056963D02*
X101448495Y-73051867D01*
X101448495Y-73051867D02*
X101304387Y-73120736D01*
X101304387Y-73120736D02*
X101231696Y-73190879D01*
X101231696Y-73190879D02*
X101157730Y-73332439D01*
X101157730Y-73332439D02*
X101152634Y-73618108D01*
X101152634Y-73618108D02*
X101221503Y-73762217D01*
X101221503Y-73762217D02*
X101291647Y-73834908D01*
X101291647Y-73834908D02*
X101433207Y-73908873D01*
X101433207Y-73908873D02*
X101718876Y-73913969D01*
X101718876Y-73913969D02*
X101862984Y-73845100D01*
X101862984Y-73845100D02*
X101935676Y-73774957D01*
X101935676Y-73774957D02*
X102009641Y-73633396D01*
X102009641Y-73633396D02*
X102014737Y-73347728D01*
X102014737Y-73347728D02*
X101945868Y-73203619D01*
X101945868Y-73203619D02*
X101875724Y-73130928D01*
X101875724Y-73130928D02*
X101734164Y-73056963D01*
X103432888Y-73944545D02*
X102575882Y-73929257D01*
X103004385Y-73936901D02*
X103031139Y-72437140D01*
X103031139Y-72437140D02*
X102884483Y-72648844D01*
X102884483Y-72648844D02*
X102739101Y-72789130D01*
X102739101Y-72789130D02*
X102594992Y-72857999D01*
X104148334Y-73885868D02*
X104147060Y-73957286D01*
X104147060Y-73957286D02*
X104073095Y-74098846D01*
X104073095Y-74098846D02*
X104000404Y-74168989D01*
X105530742Y-72481730D02*
X104816570Y-72468990D01*
X104816570Y-72468990D02*
X104732412Y-73181888D01*
X104732412Y-73181888D02*
X104805103Y-73111745D01*
X104805103Y-73111745D02*
X104949212Y-73042876D01*
X104949212Y-73042876D02*
X105306298Y-73049246D01*
X105306298Y-73049246D02*
X105447858Y-73123211D01*
X105447858Y-73123211D02*
X105518001Y-73195902D01*
X105518001Y-73195902D02*
X105586871Y-73340011D01*
X105586871Y-73340011D02*
X105580501Y-73697097D01*
X105580501Y-73697097D02*
X105506535Y-73838657D01*
X105506535Y-73838657D02*
X105433844Y-73908801D01*
X105433844Y-73908801D02*
X105289736Y-73977670D01*
X105289736Y-73977670D02*
X104932650Y-73971300D01*
X104932650Y-73971300D02*
X104791089Y-73897334D01*
X104791089Y-73897334D02*
X104720946Y-73824643D01*
X106530582Y-72499567D02*
X106673417Y-72502115D01*
X106673417Y-72502115D02*
X106814977Y-72576080D01*
X106814977Y-72576080D02*
X106885120Y-72648771D01*
X106885120Y-72648771D02*
X106953989Y-72792879D01*
X106953989Y-72792879D02*
X107020310Y-73079822D01*
X107020310Y-73079822D02*
X107013940Y-73436908D01*
X107013940Y-73436908D02*
X106937427Y-73721303D01*
X106937427Y-73721303D02*
X106863462Y-73862864D01*
X106863462Y-73862864D02*
X106790771Y-73933007D01*
X106790771Y-73933007D02*
X106646662Y-74001876D01*
X106646662Y-74001876D02*
X106503828Y-73999328D01*
X106503828Y-73999328D02*
X106362267Y-73925363D01*
X106362267Y-73925363D02*
X106292124Y-73852671D01*
X106292124Y-73852671D02*
X106223255Y-73708563D01*
X106223255Y-73708563D02*
X106156934Y-73421620D01*
X106156934Y-73421620D02*
X106163304Y-73064534D01*
X106163304Y-73064534D02*
X106239817Y-72780139D01*
X106239817Y-72780139D02*
X106313782Y-72638579D01*
X106313782Y-72638579D02*
X106386474Y-72568436D01*
X106386474Y-72568436D02*
X106530582Y-72499567D01*
X107530423Y-72517403D02*
X108458846Y-72533965D01*
X108458846Y-72533965D02*
X107948734Y-73096384D01*
X107948734Y-73096384D02*
X108162985Y-73100206D01*
X108162985Y-73100206D02*
X108304546Y-73174172D01*
X108304546Y-73174172D02*
X108374689Y-73246863D01*
X108374689Y-73246863D02*
X108443558Y-73390971D01*
X108443558Y-73390971D02*
X108437188Y-73748057D01*
X108437188Y-73748057D02*
X108363223Y-73889618D01*
X108363223Y-73889618D02*
X108290532Y-73959761D01*
X108290532Y-73959761D02*
X108146423Y-74028630D01*
X108146423Y-74028630D02*
X107717920Y-74020986D01*
X107717920Y-74020986D02*
X107576360Y-73947021D01*
X107576360Y-73947021D02*
X107506216Y-73874330D01*
X109387270Y-72550527D02*
X109530104Y-72553075D01*
X109530104Y-72553075D02*
X109671664Y-72627040D01*
X109671664Y-72627040D02*
X109741808Y-72699731D01*
X109741808Y-72699731D02*
X109810677Y-72843840D01*
X109810677Y-72843840D02*
X109876998Y-73130783D01*
X109876998Y-73130783D02*
X109870628Y-73487869D01*
X109870628Y-73487869D02*
X109794115Y-73772264D01*
X109794115Y-73772264D02*
X109720149Y-73913824D01*
X109720149Y-73913824D02*
X109647458Y-73983967D01*
X109647458Y-73983967D02*
X109503350Y-74052836D01*
X109503350Y-74052836D02*
X109360515Y-74050288D01*
X109360515Y-74050288D02*
X109218955Y-73976323D01*
X109218955Y-73976323D02*
X109148812Y-73903632D01*
X109148812Y-73903632D02*
X109079943Y-73759523D01*
X109079943Y-73759523D02*
X109013621Y-73472581D01*
X109013621Y-73472581D02*
X109019991Y-73115495D01*
X109019991Y-73115495D02*
X109096505Y-72831100D01*
X109096505Y-72831100D02*
X109170470Y-72689539D01*
X109170470Y-72689539D02*
X109243161Y-72619396D01*
X109243161Y-72619396D02*
X109387270Y-72550527D01*
X111645865Y-74091057D02*
X111663702Y-73091216D01*
X111661154Y-73234050D02*
X111733845Y-73163907D01*
X111733845Y-73163907D02*
X111877953Y-73095038D01*
X111877953Y-73095038D02*
X112092205Y-73098860D01*
X112092205Y-73098860D02*
X112233765Y-73172825D01*
X112233765Y-73172825D02*
X112302634Y-73316934D01*
X112302634Y-73316934D02*
X112288620Y-74102523D01*
X112302634Y-73316934D02*
X112376600Y-73175373D01*
X112376600Y-73175373D02*
X112520708Y-73106504D01*
X112520708Y-73106504D02*
X112734960Y-73110326D01*
X112734960Y-73110326D02*
X112876520Y-73184291D01*
X112876520Y-73184291D02*
X112945389Y-73328400D01*
X112945389Y-73328400D02*
X112931375Y-74113989D01*
X113645547Y-74126729D02*
X113663383Y-73126888D01*
X113660835Y-73269723D02*
X113733527Y-73199579D01*
X113733527Y-73199579D02*
X113877635Y-73130710D01*
X113877635Y-73130710D02*
X114091887Y-73134532D01*
X114091887Y-73134532D02*
X114233447Y-73208497D01*
X114233447Y-73208497D02*
X114302316Y-73352606D01*
X114302316Y-73352606D02*
X114288302Y-74138195D01*
X114302316Y-73352606D02*
X114376282Y-73211045D01*
X114376282Y-73211045D02*
X114520390Y-73142176D01*
X114520390Y-73142176D02*
X114734642Y-73145998D01*
X114734642Y-73145998D02*
X114876202Y-73219964D01*
X114876202Y-73219964D02*
X114945071Y-73364072D01*
X114945071Y-73364072D02*
X114931057Y-74149661D01*
D12*
X67318918Y-73922080D02*
X67320459Y-73835674D01*
X148808918Y-75375780D02*
X148810459Y-75289374D01*
X67310000Y-74422000D02*
X148800000Y-75875700D01*
X67310000Y-74422000D02*
X148800000Y-75875700D01*
X67310000Y-74422000D02*
X68446784Y-73855765D01*
X67310000Y-74422000D02*
X68425865Y-75028420D01*
X148800000Y-75875700D02*
X147663216Y-76441935D01*
X148800000Y-75875700D02*
X147684135Y-75269280D01*
D13*
%TO.P,J12,1,1*%
%TO.N,GND*%
X72566000Y-116623200D03*
D14*
%TO.P,J12,2,2*%
X72566000Y-117873200D03*
%TO.P,J12,3,3*%
%TO.N,ADC2_IN1*%
X72566000Y-119123200D03*
%TO.P,J12,4,4*%
%TO.N,+3.3VA*%
X72566000Y-120373200D03*
%TD*%
D15*
%TO.P,J6,1,Pin_1*%
%TO.N,GND*%
X109982000Y-118618000D03*
D16*
%TO.P,J6,2,Pin_2*%
%TO.N,+3.3V*%
X112522000Y-118618000D03*
%TO.P,J6,3,Pin_3*%
%TO.N,unconnected-(J6-Pin_3-Pad3)*%
X115062000Y-118618000D03*
%TO.P,J6,4,Pin_4*%
%TO.N,unconnected-(J6-Pin_4-Pad4)*%
X117602000Y-118618000D03*
%TO.P,J6,5,Pin_5*%
%TO.N,unconnected-(J6-Pin_5-Pad5)*%
X120142000Y-118618000D03*
%TO.P,J6,6,Pin_6*%
%TO.N,unconnected-(J6-Pin_6-Pad6)*%
X122682000Y-118618000D03*
%TO.P,J6,7,Pin_7*%
%TO.N,I2C1_SDA*%
X125222000Y-118618000D03*
%TO.P,J6,8,Pin_8*%
%TO.N,I2C1_SCL*%
X127762000Y-118618000D03*
%TD*%
D17*
%TO.P,S1,1,NO*%
%TO.N,NRST*%
X99314000Y-87324000D03*
%TO.P,S1,2,COM*%
%TO.N,GND*%
X99314000Y-80824000D03*
%TD*%
D18*
%TO.P,J10,1,Pin_1*%
%TO.N,+3.3VA*%
X110490000Y-89916000D03*
D19*
%TO.P,J10,2,Pin_2*%
%TO.N,Net-(J10-Pin_2)*%
X111760000Y-89916000D03*
%TO.P,J10,3,Pin_3*%
%TO.N,+5VA*%
X113030000Y-89916000D03*
%TD*%
D15*
%TO.P,J4,1,Pin_1*%
%TO.N,GND*%
X133461600Y-116058000D03*
D16*
%TO.P,J4,2,Pin_2*%
%TO.N,USART_RX*%
X133461600Y-118598000D03*
%TO.P,J4,3,Pin_3*%
%TO.N,unconnected-(J4-Pin_3-Pad3)*%
X136001600Y-116058000D03*
%TO.P,J4,4,Pin_4*%
%TO.N,ESP8266_CH_PD*%
X136001600Y-118598000D03*
%TO.P,J4,5,Pin_5*%
%TO.N,unconnected-(J4-Pin_5-Pad5)*%
X138541600Y-116058000D03*
%TO.P,J4,6,Pin_6*%
%TO.N,unconnected-(J4-Pin_6-Pad6)*%
X138541600Y-118598000D03*
%TO.P,J4,7,Pin_7*%
%TO.N,USART_TX*%
X141081600Y-116058000D03*
%TO.P,J4,8,Pin_8*%
%TO.N,+3.3V*%
X141081600Y-118598000D03*
%TD*%
D20*
%TO.P,J1,MH1,MH1*%
%TO.N,GND*%
X141422000Y-105696000D03*
%TO.P,J1,MH2,MH2*%
X141422000Y-94456000D03*
D21*
%TO.P,J1,MH3,MH3*%
X145422000Y-105696000D03*
%TO.P,J1,MH4,MH4*%
X145422000Y-94456000D03*
%TD*%
D18*
%TO.P,J2,1,Pin_1*%
%TO.N,+3.3V*%
X96012000Y-93980000D03*
D19*
%TO.P,J2,2,Pin_2*%
%TO.N,Net-(J2-Pin_2)*%
X96012000Y-92710000D03*
%TO.P,J2,3,Pin_3*%
%TO.N,GND*%
X96012000Y-91440000D03*
%TD*%
D13*
%TO.P,J8,1,1*%
%TO.N,GND*%
X72566000Y-103786200D03*
D14*
%TO.P,J8,2,2*%
%TO.N,Net-(J8-Pad2)*%
X72566000Y-105036200D03*
%TO.P,J8,3,3*%
%TO.N,+5VA*%
X72566000Y-106286200D03*
%TD*%
D13*
%TO.P,J9,1,1*%
%TO.N,GND*%
X72566000Y-78777200D03*
D14*
%TO.P,J9,2,2*%
X72566000Y-80027200D03*
%TO.P,J9,3,3*%
%TO.N,ADC2_IN4*%
X72566000Y-81277200D03*
%TO.P,J9,4,4*%
%TO.N,+3.3VA*%
X72566000Y-82527200D03*
%TD*%
D13*
%TO.P,J7,1,1*%
%TO.N,GND*%
X143080000Y-83645700D03*
D14*
%TO.P,J7,2,2*%
%TO.N,Net-(J10-Pin_2)*%
X143080000Y-82395700D03*
%TO.P,J7,3,3*%
%TO.N,I2C1_SCL*%
X143080000Y-81145700D03*
%TO.P,J7,4,4*%
%TO.N,I2C1_SDA*%
X143080000Y-79895700D03*
%TO.P,J7,5,5*%
%TO.N,Net-(J7-Pad5)*%
X143080000Y-78645700D03*
%TD*%
D13*
%TO.P,J11,1,1*%
%TO.N,GND*%
X72566000Y-94388200D03*
D14*
%TO.P,J11,2,2*%
%TO.N,Net-(J11-Pad2)*%
X72566000Y-95638200D03*
%TO.P,J11,3,3*%
%TO.N,+5VA*%
X72566000Y-96888200D03*
%TD*%
D22*
%TO.P,BT1,+*%
%TO.N,/Power_Stabilizer_3_3V/V_in_P*%
X72197000Y-111324000D03*
%TO.P,BT1,-*%
%TO.N,Net-(BT1-Pad-)*%
X143597000Y-111324000D03*
%TD*%
%TO.P,BT2,+*%
%TO.N,Net-(BT1-Pad-)*%
X143701000Y-88972000D03*
%TO.P,BT2,-*%
%TO.N,GND*%
X72301000Y-88972000D03*
%TD*%
D23*
%TO.N,SD_detection*%
X119380000Y-103124000D03*
X133604000Y-89408000D03*
%TO.N,/Power_Stabilizer_3_3V/V_in_P*%
X87858600Y-114871000D03*
X97510600Y-116814600D03*
X92760800Y-111937800D03*
X91694000Y-118110000D03*
%TO.N,GND*%
X83185000Y-89281000D03*
X103505000Y-93726000D03*
X85598000Y-92964000D03*
X135890000Y-103505000D03*
X104114600Y-111150400D03*
X135890000Y-106045000D03*
X87630000Y-93218000D03*
X122936000Y-91059000D03*
X106603800Y-111125000D03*
X78994000Y-89281000D03*
X122936000Y-88011000D03*
X105537000Y-91694000D03*
X85598000Y-98933000D03*
X98425000Y-94614200D03*
X85598000Y-101981000D03*
%TO.N,+3.3V*%
X108559600Y-87179500D03*
X103632000Y-97790000D03*
X109550200Y-91516200D03*
X98552000Y-112776000D03*
X118364000Y-111506000D03*
X117348000Y-98044000D03*
X107442000Y-112268000D03*
X112268000Y-78994000D03*
X110794800Y-94284800D03*
%TO.N,+5V*%
X79502000Y-121412000D03*
X70590023Y-108182023D03*
%TO.N,+3.3VA*%
X72644000Y-84582000D03*
X106007500Y-109601000D03*
X103936800Y-109626400D03*
%TO.N,SDIO_D2*%
X114151600Y-107173400D03*
X120314900Y-97282000D03*
%TO.N,SDIO_D3*%
X122936000Y-94616600D03*
X113759600Y-96739200D03*
%TO.N,SDIO_CK*%
X115065500Y-108137400D03*
X129540000Y-94234000D03*
%TO.N,SDIO_D0*%
X120142000Y-105156000D03*
X130643500Y-96515700D03*
%TO.N,SDIO_D1*%
X122036000Y-104394000D03*
X132540300Y-93472000D03*
%TO.N,ESP8266_CH_PD*%
X114046000Y-115824000D03*
%TO.N,SWDCLK*%
X114517300Y-90019800D03*
X114528900Y-92400000D03*
%TO.N,BOOT*%
X106121500Y-96266000D03*
X109673800Y-100336000D03*
%TO.N,I2C1_SDA*%
X110008000Y-103077800D03*
%TO.N,I2C1_SCL*%
X110576300Y-96671700D03*
%TO.N,Net-(J10-Pin_2)*%
X138991100Y-83175100D03*
%TO.N,Net-(J8-Pad2)*%
X109891900Y-111269400D03*
%TO.N,ADC2_IN4*%
X110059449Y-107125000D03*
X75946000Y-89408000D03*
%TO.N,ADC2_IN1*%
X101219000Y-108828500D03*
%TO.N,ADC3_IN0*%
X107204797Y-107153997D03*
X92837000Y-105760700D03*
%TO.N,ADC2_IN13*%
X107309700Y-104212000D03*
X92075000Y-104216200D03*
%TO.N,5V_USB*%
X142494000Y-97790000D03*
X72898000Y-92202000D03*
%TD*%
D24*
%TO.N,SD_detection*%
X133096000Y-89408000D02*
X119380000Y-103124000D01*
X133604000Y-89408000D02*
X133096000Y-89408000D01*
%TO.N,I2C1_SCL*%
X127192605Y-87827700D02*
X136398000Y-87827700D01*
X122564305Y-92456000D02*
X127192605Y-87827700D01*
X115804500Y-92456000D02*
X122564305Y-92456000D01*
X136398000Y-87827700D02*
X143080000Y-81145700D01*
X136398000Y-100076000D02*
X136398000Y-87827700D01*
X127762000Y-108712000D02*
X136398000Y-100076000D01*
X127762000Y-118618000D02*
X127762000Y-108712000D01*
%TO.N,I2C1_SDA*%
X143833700Y-80649400D02*
X143080000Y-79895700D01*
X143833700Y-84201620D02*
X143833700Y-80649400D01*
X137668000Y-100701695D02*
X137668000Y-90367320D01*
X129714000Y-108655695D02*
X137668000Y-100701695D01*
X137668000Y-90367320D02*
X143833700Y-84201620D01*
X126492000Y-119888000D02*
X129714000Y-119888000D01*
X129714000Y-119888000D02*
X129714000Y-108655695D01*
X125222000Y-118618000D02*
X126492000Y-119888000D01*
D25*
%TO.N,/Power_Stabilizer_3_3V/V_in_P*%
X87884000Y-114845600D02*
X87858600Y-114871000D01*
X90957400Y-117373400D02*
X91694000Y-118110000D01*
X91694000Y-118110000D02*
X97319700Y-118110000D01*
X90957400Y-115443000D02*
X88430600Y-115443000D01*
X97510600Y-117919100D02*
X97510600Y-116814600D01*
X87884000Y-111937800D02*
X87884000Y-114845600D01*
X88430600Y-115443000D02*
X87858600Y-114871000D01*
X90957400Y-115443000D02*
X90957400Y-117373400D01*
X97319700Y-118110000D02*
X97510600Y-117919100D01*
X92760800Y-111937800D02*
X87884000Y-111937800D01*
%TO.N,Net-(BT1-Pad-)*%
X143547000Y-89126000D02*
X143701000Y-88972000D01*
X143547000Y-111274000D02*
X143547000Y-89126000D01*
X143597000Y-111324000D02*
X143547000Y-111274000D01*
%TO.N,GND*%
X85598000Y-101981000D02*
X85598000Y-98933000D01*
X103505000Y-93726000D02*
X102616800Y-94614200D01*
X106603800Y-111125000D02*
X104140000Y-111125000D01*
X104140000Y-111125000D02*
X104114600Y-111150400D01*
X85852000Y-93218000D02*
X85598000Y-92964000D01*
D26*
X83185000Y-89281000D02*
X78994000Y-89281000D01*
D25*
X102616800Y-94614200D02*
X98425000Y-94614200D01*
X87630000Y-93218000D02*
X85852000Y-93218000D01*
X122936000Y-91059000D02*
X122936000Y-88011000D01*
D26*
X135890000Y-106045000D02*
X135890000Y-103505000D01*
D25*
X103505000Y-93726000D02*
X105537000Y-91694000D01*
%TO.N,+5V*%
X78366000Y-122548000D02*
X69850000Y-122548000D01*
X69788000Y-108984046D02*
X70590023Y-108182023D01*
X69850000Y-122548000D02*
X69788000Y-122486000D01*
X79502000Y-121412000D02*
X78366000Y-122548000D01*
X69788000Y-122486000D02*
X69788000Y-108984046D01*
D24*
%TO.N,+3.3VA*%
X100457000Y-88519000D02*
X109093000Y-88519000D01*
D26*
X103936800Y-109626400D02*
X102870000Y-110693200D01*
D24*
X76073000Y-88011000D02*
X76581000Y-88519000D01*
D26*
X70612000Y-109220000D02*
X71374000Y-108458000D01*
D24*
X98425000Y-88773000D02*
X100203000Y-88773000D01*
D26*
X82246000Y-110693200D02*
X72566000Y-120373200D01*
X74201000Y-89883000D02*
X76073000Y-88011000D01*
X71341000Y-93631829D02*
X71809629Y-93163200D01*
X71809629Y-93163200D02*
X74201000Y-93163200D01*
D24*
X76581000Y-88519000D02*
X98171000Y-88519000D01*
X72644000Y-84582000D02*
X76073000Y-88011000D01*
X98171000Y-88519000D02*
X98425000Y-88773000D01*
X109093000Y-88519000D02*
X110490000Y-89916000D01*
D26*
X104495600Y-109626400D02*
X103936800Y-109626400D01*
X106007500Y-109601000D02*
X104521000Y-109601000D01*
D24*
X100203000Y-88773000D02*
X100457000Y-88519000D01*
D26*
X102870000Y-110693200D02*
X82246000Y-110693200D01*
X71341000Y-97436451D02*
X71341000Y-93631829D01*
X74201000Y-93163200D02*
X74201000Y-89883000D01*
X72566000Y-120373200D02*
X70612000Y-118419200D01*
X71374000Y-108458000D02*
X71374000Y-97469452D01*
X104521000Y-109601000D02*
X104495600Y-109626400D01*
X71374000Y-97469452D02*
X71341000Y-97436451D01*
X70612000Y-118419200D02*
X70612000Y-109220000D01*
D24*
%TO.N,+5VA*%
X74115500Y-95338700D02*
X107607300Y-95338700D01*
X72566000Y-96888200D02*
X74115500Y-95338700D01*
X107607300Y-95338700D02*
X113030000Y-89916000D01*
%TO.N,SDIO_D2*%
X120314900Y-97282000D02*
X119585300Y-97282000D01*
X114151600Y-102715700D02*
X114151600Y-107173400D01*
X119585300Y-97282000D02*
X114151600Y-102715700D01*
%TO.N,SDIO_D3*%
X116548500Y-96739200D02*
X113759600Y-96739200D01*
X122936000Y-94616600D02*
X118671100Y-94616600D01*
X118671100Y-94616600D02*
X116548500Y-96739200D01*
%TO.N,SDIO_CK*%
X115534200Y-108137400D02*
X115065500Y-108137400D01*
X129437600Y-94234000D02*
X115534200Y-108137400D01*
X129540000Y-94234000D02*
X129437600Y-94234000D01*
%TO.N,SDIO_D0*%
X130643500Y-96828400D02*
X122315900Y-105156000D01*
X122315900Y-105156000D02*
X120142000Y-105156000D01*
X130643500Y-96515700D02*
X130643500Y-96828400D01*
%TO.N,SDIO_D1*%
X132540300Y-93591000D02*
X122036000Y-104095300D01*
X132540300Y-93472000D02*
X132540300Y-93591000D01*
X122036000Y-104095300D02*
X122036000Y-104394000D01*
%TO.N,ESP8266_CH_PD*%
X121412000Y-118186200D02*
X121412000Y-119380000D01*
X114046000Y-115824000D02*
X114401600Y-116179600D01*
X119405400Y-116179600D02*
X121412000Y-118186200D01*
X134261600Y-120338000D02*
X136001600Y-118598000D01*
X114401600Y-116179600D02*
X119405400Y-116179600D01*
X121412000Y-119380000D02*
X122370000Y-120338000D01*
X122370000Y-120338000D02*
X134261600Y-120338000D01*
%TO.N,SWDCLK*%
X114517300Y-92388400D02*
X114528900Y-92400000D01*
X114517300Y-90019800D02*
X114517300Y-92388400D01*
%TO.N,BOOT*%
X106121500Y-96266000D02*
X106121500Y-96783700D01*
X106121500Y-96783700D02*
X109673800Y-100336000D01*
%TO.N,I2C1_SDA*%
X114909200Y-109042200D02*
X125222000Y-109042200D01*
X125222000Y-109042200D02*
X125222000Y-118618000D01*
X110008000Y-103077800D02*
X110008000Y-104141000D01*
X110008000Y-104141000D02*
X114909200Y-109042200D01*
%TO.N,I2C1_SCL*%
X111588800Y-96671700D02*
X110576300Y-96671700D01*
X115804500Y-92456000D02*
X111588800Y-96671700D01*
%TO.N,Net-(J10-Pin_2)*%
X118500800Y-83175200D02*
X138991100Y-83175200D01*
X138991100Y-83175200D02*
X138991100Y-83175100D01*
X111760000Y-89916000D02*
X118500800Y-83175200D01*
%TO.N,Net-(J8-Pad2)*%
X72566000Y-105036200D02*
X107391900Y-105036200D01*
X109264100Y-106908400D02*
X109264100Y-110641600D01*
X107391900Y-105036200D02*
X109264100Y-106908400D01*
X109264100Y-110641600D02*
X109891900Y-111269400D01*
%TO.N,ADC2_IN4*%
X71816000Y-97239700D02*
X71816000Y-93828580D01*
X72705800Y-98129500D02*
X71816000Y-97239700D01*
X74509800Y-93638200D02*
X74676000Y-93472000D01*
X72006380Y-93638200D02*
X74509800Y-93638200D01*
X110059449Y-105865249D02*
X102323700Y-98129500D01*
X74676000Y-93472000D02*
X74676000Y-90678000D01*
X102323700Y-98129500D02*
X72705800Y-98129500D01*
X110059449Y-107125000D02*
X110059449Y-105865249D01*
X74676000Y-90678000D02*
X75946000Y-89408000D01*
X71816000Y-93828580D02*
X72006380Y-93638200D01*
%TO.N,ADC2_IN1*%
X81580200Y-110109000D02*
X72566000Y-119123200D01*
X99938500Y-110109000D02*
X81580200Y-110109000D01*
X101219000Y-108828500D02*
X99938500Y-110109000D01*
%TO.N,ADC3_IN0*%
X93730900Y-106654600D02*
X106705400Y-106654600D01*
X106705400Y-106654600D02*
X107204797Y-107153997D01*
X92837000Y-105760700D02*
X93730900Y-106654600D01*
%TO.N,ADC2_IN13*%
X92075000Y-104216200D02*
X92079200Y-104212000D01*
X92079200Y-104212000D02*
X107309700Y-104212000D01*
D25*
%TO.N,5V_USB*%
X139700000Y-111125000D02*
X139700000Y-104775000D01*
X146500000Y-123248000D02*
X146500000Y-117925000D01*
X139700000Y-104775000D02*
X142494000Y-101981000D01*
X69088000Y-93218000D02*
X69088000Y-123248000D01*
X142494000Y-101981000D02*
X142494000Y-97790000D01*
X72898000Y-92202000D02*
X70104000Y-92202000D01*
X70104000Y-92202000D02*
X69088000Y-93218000D01*
X146500000Y-117925000D02*
X139700000Y-111125000D01*
X69088000Y-123248000D02*
X146500000Y-123248000D01*
%TD*%
%TA.AperFunction,Conductor*%
%TO.N,+3.3V*%
G36*
X146947892Y-76443255D02*
G01*
X147014568Y-76464132D01*
X147059374Y-76517744D01*
X147069380Y-76558623D01*
X147069647Y-76562460D01*
X147121067Y-76711983D01*
X147209432Y-76843097D01*
X147209433Y-76843098D01*
X147328724Y-76946876D01*
X147470810Y-77016244D01*
X147527207Y-77027229D01*
X147589246Y-77059366D01*
X147624062Y-77119943D01*
X147627500Y-77148941D01*
X147627500Y-123373500D01*
X147607815Y-123440539D01*
X147555011Y-123486294D01*
X147503500Y-123497500D01*
X147368981Y-123497500D01*
X147301942Y-123477815D01*
X147256187Y-123425011D01*
X147246243Y-123355853D01*
X147248325Y-123344896D01*
X147250500Y-123335721D01*
X147250500Y-123271640D01*
X147250605Y-123268034D01*
X147254331Y-123204065D01*
X147252384Y-123193021D01*
X147250500Y-123171490D01*
X147250500Y-117988705D01*
X147251809Y-117970735D01*
X147255289Y-117946974D01*
X147251897Y-117908203D01*
X147250735Y-117894933D01*
X147250500Y-117889532D01*
X147250500Y-117881296D01*
X147250500Y-117881291D01*
X147246691Y-117848705D01*
X147239998Y-117772203D01*
X147239995Y-117772194D01*
X147238538Y-117765135D01*
X147238598Y-117765122D01*
X147236965Y-117757757D01*
X147236906Y-117757772D01*
X147235241Y-117750749D01*
X147235241Y-117750745D01*
X147208971Y-117678568D01*
X147202990Y-117660517D01*
X147184816Y-117605670D01*
X147181761Y-117599118D01*
X147181815Y-117599092D01*
X147178533Y-117592312D01*
X147178480Y-117592340D01*
X147175238Y-117585886D01*
X147175237Y-117585883D01*
X147133038Y-117521723D01*
X147092712Y-117456344D01*
X147092711Y-117456343D01*
X147092710Y-117456341D01*
X147088234Y-117450681D01*
X147088280Y-117450643D01*
X147083519Y-117444799D01*
X147083474Y-117444838D01*
X147078834Y-117439308D01*
X147022982Y-117386613D01*
X143733136Y-114096768D01*
X143699651Y-114035445D01*
X143704635Y-113965753D01*
X143746507Y-113909820D01*
X143797205Y-113887356D01*
X144048927Y-113838538D01*
X144048930Y-113838537D01*
X144294663Y-113750281D01*
X144294664Y-113750280D01*
X144294668Y-113750279D01*
X144524057Y-113625541D01*
X144731716Y-113467250D01*
X144912778Y-113279114D01*
X145062999Y-113065544D01*
X145178859Y-112831547D01*
X145257641Y-112582605D01*
X145297500Y-112324555D01*
X145297500Y-110388823D01*
X145282516Y-110193656D01*
X145223021Y-109939414D01*
X145223018Y-109939406D01*
X145125418Y-109697241D01*
X145125413Y-109697232D01*
X145084489Y-109628395D01*
X144991982Y-109472792D01*
X144825852Y-109271348D01*
X144825849Y-109271345D01*
X144630928Y-109097631D01*
X144630911Y-109097618D01*
X144411757Y-108955696D01*
X144406885Y-108953512D01*
X144393488Y-108947506D01*
X144370774Y-108937323D01*
X144317653Y-108891936D01*
X144297503Y-108825035D01*
X144297500Y-108824173D01*
X144297500Y-107484821D01*
X144317185Y-107417782D01*
X144369989Y-107372027D01*
X144439147Y-107362083D01*
X144480925Y-107375988D01*
X144521002Y-107397872D01*
X144620069Y-107451967D01*
X144620068Y-107451967D01*
X144620072Y-107451968D01*
X144620075Y-107451970D01*
X144878138Y-107548223D01*
X145147273Y-107606769D01*
X145402350Y-107625012D01*
X145421999Y-107626418D01*
X145422000Y-107626418D01*
X145422001Y-107626418D01*
X145440338Y-107625106D01*
X145696727Y-107606769D01*
X145965862Y-107548223D01*
X146223925Y-107451970D01*
X146465663Y-107319971D01*
X146686155Y-107154913D01*
X146880913Y-106960155D01*
X147045971Y-106739663D01*
X147177970Y-106497925D01*
X147274223Y-106239862D01*
X147332769Y-105970727D01*
X147352418Y-105696000D01*
X147332769Y-105421273D01*
X147274223Y-105152138D01*
X147177970Y-104894075D01*
X147126195Y-104799257D01*
X147045974Y-104652342D01*
X147045969Y-104652334D01*
X146880919Y-104431852D01*
X146880903Y-104431834D01*
X146686165Y-104237096D01*
X146686147Y-104237080D01*
X146465665Y-104072030D01*
X146465657Y-104072025D01*
X146223930Y-103940032D01*
X146223931Y-103940032D01*
X146155769Y-103914609D01*
X145965862Y-103843777D01*
X145965855Y-103843775D01*
X145965854Y-103843775D01*
X145696734Y-103785232D01*
X145696727Y-103785231D01*
X145422001Y-103765582D01*
X145421999Y-103765582D01*
X145147272Y-103785231D01*
X145147265Y-103785232D01*
X144878145Y-103843775D01*
X144878141Y-103843776D01*
X144878138Y-103843777D01*
X144775903Y-103881909D01*
X144620068Y-103940032D01*
X144480927Y-104016010D01*
X144412654Y-104030862D01*
X144347190Y-104006445D01*
X144305318Y-103950512D01*
X144297500Y-103907178D01*
X144297500Y-96244821D01*
X144317185Y-96177782D01*
X144369989Y-96132027D01*
X144439147Y-96122083D01*
X144480925Y-96135988D01*
X144557464Y-96177782D01*
X144620069Y-96211967D01*
X144620068Y-96211967D01*
X144620072Y-96211968D01*
X144620075Y-96211970D01*
X144878138Y-96308223D01*
X145147273Y-96366769D01*
X145402350Y-96385012D01*
X145421999Y-96386418D01*
X145422000Y-96386418D01*
X145422001Y-96386418D01*
X145440338Y-96385106D01*
X145696727Y-96366769D01*
X145965862Y-96308223D01*
X146223925Y-96211970D01*
X146465663Y-96079971D01*
X146686155Y-95914913D01*
X146880913Y-95720155D01*
X147045971Y-95499663D01*
X147177970Y-95257925D01*
X147274223Y-94999862D01*
X147332769Y-94730727D01*
X147352418Y-94456000D01*
X147332769Y-94181273D01*
X147274223Y-93912138D01*
X147177970Y-93654075D01*
X147170496Y-93640388D01*
X147045974Y-93412342D01*
X147045969Y-93412334D01*
X146880919Y-93191852D01*
X146880903Y-93191834D01*
X146686165Y-92997096D01*
X146686147Y-92997080D01*
X146465665Y-92832030D01*
X146465657Y-92832025D01*
X146223930Y-92700032D01*
X146223931Y-92700032D01*
X146139095Y-92668390D01*
X145965862Y-92603777D01*
X145965855Y-92603775D01*
X145965854Y-92603775D01*
X145696734Y-92545232D01*
X145696727Y-92545231D01*
X145422001Y-92525582D01*
X145421999Y-92525582D01*
X145147272Y-92545231D01*
X145147265Y-92545232D01*
X144878145Y-92603775D01*
X144878141Y-92603776D01*
X144878138Y-92603777D01*
X144757805Y-92648659D01*
X144620068Y-92700032D01*
X144480927Y-92776010D01*
X144412654Y-92790862D01*
X144347190Y-92766445D01*
X144305318Y-92710512D01*
X144297500Y-92667178D01*
X144297500Y-91521833D01*
X144317185Y-91454794D01*
X144369989Y-91409039D01*
X144379577Y-91405135D01*
X144398668Y-91398279D01*
X144628057Y-91273541D01*
X144835716Y-91115250D01*
X145016778Y-90927114D01*
X145166999Y-90713544D01*
X145282859Y-90479547D01*
X145361641Y-90230605D01*
X145401500Y-89972555D01*
X145401500Y-88036823D01*
X145386516Y-87841656D01*
X145327021Y-87587414D01*
X145327018Y-87587406D01*
X145229418Y-87345241D01*
X145229413Y-87345232D01*
X145197224Y-87291089D01*
X145095982Y-87120792D01*
X144929852Y-86919348D01*
X144929849Y-86919345D01*
X144734928Y-86745631D01*
X144734911Y-86745618D01*
X144515757Y-86603695D01*
X144515753Y-86603694D01*
X144277488Y-86496881D01*
X144025714Y-86427693D01*
X143852946Y-86407748D01*
X143766325Y-86397748D01*
X143766324Y-86397748D01*
X143505406Y-86407748D01*
X143249071Y-86457462D01*
X143249069Y-86457462D01*
X143003336Y-86545718D01*
X142773939Y-86670461D01*
X142566288Y-86828746D01*
X142566284Y-86828749D01*
X142566284Y-86828750D01*
X142479093Y-86919348D01*
X142385223Y-87016885D01*
X142385214Y-87016895D01*
X142235010Y-87230441D01*
X142234999Y-87230460D01*
X142119139Y-87464455D01*
X142046131Y-87695156D01*
X142040359Y-87713395D01*
X142000500Y-87971445D01*
X142000500Y-89907177D01*
X142012628Y-90065151D01*
X142015484Y-90102342D01*
X142015484Y-90102347D01*
X142074978Y-90356583D01*
X142074981Y-90356593D01*
X142172581Y-90598758D01*
X142172586Y-90598767D01*
X142227251Y-90690716D01*
X142306018Y-90823208D01*
X142469228Y-91021111D01*
X142472150Y-91024654D01*
X142667071Y-91198368D01*
X142667084Y-91198378D01*
X142739901Y-91245533D01*
X142785473Y-91298496D01*
X142796500Y-91349615D01*
X142796500Y-93203946D01*
X142776815Y-93270985D01*
X142724011Y-93316740D01*
X142654853Y-93326684D01*
X142591297Y-93297659D01*
X142586296Y-93293002D01*
X142557652Y-93268538D01*
X142389244Y-93124703D01*
X142169075Y-92989784D01*
X142169074Y-92989783D01*
X142169070Y-92989781D01*
X141930512Y-92890968D01*
X141930514Y-92890968D01*
X141930510Y-92890967D01*
X141930506Y-92890966D01*
X141930500Y-92890964D01*
X141679427Y-92830687D01*
X141422000Y-92810427D01*
X141164572Y-92830687D01*
X140913499Y-92890964D01*
X140913487Y-92890968D01*
X140674929Y-92989781D01*
X140454755Y-93124703D01*
X140258404Y-93292404D01*
X140090703Y-93488755D01*
X139955781Y-93708929D01*
X139856968Y-93947487D01*
X139856964Y-93947499D01*
X139796687Y-94198572D01*
X139776427Y-94456000D01*
X139796687Y-94713427D01*
X139856964Y-94964500D01*
X139856968Y-94964512D01*
X139955781Y-95203070D01*
X139955783Y-95203074D01*
X139955784Y-95203075D01*
X140090703Y-95423244D01*
X140258404Y-95619596D01*
X140454756Y-95787297D01*
X140674925Y-95922216D01*
X140674927Y-95922216D01*
X140674929Y-95922218D01*
X140740461Y-95949362D01*
X140913490Y-96021033D01*
X141164576Y-96081313D01*
X141422000Y-96101573D01*
X141679424Y-96081313D01*
X141930510Y-96021033D01*
X142169075Y-95922216D01*
X142389244Y-95787297D01*
X142585596Y-95619596D01*
X142585597Y-95619594D01*
X142589300Y-95616432D01*
X142590170Y-95617450D01*
X142646142Y-95586888D01*
X142715834Y-95591872D01*
X142771767Y-95633744D01*
X142796184Y-95699208D01*
X142796500Y-95708054D01*
X142796500Y-96780553D01*
X142776815Y-96847592D01*
X142724011Y-96893347D01*
X142654853Y-96903291D01*
X142646721Y-96901844D01*
X142637706Y-96899928D01*
X142588646Y-96889500D01*
X142399354Y-96889500D01*
X142366897Y-96896398D01*
X142214197Y-96928855D01*
X142214192Y-96928857D01*
X142041270Y-97005848D01*
X142041265Y-97005851D01*
X141888129Y-97117111D01*
X141761466Y-97257785D01*
X141666821Y-97421715D01*
X141666818Y-97421722D01*
X141608781Y-97600344D01*
X141608326Y-97601744D01*
X141588540Y-97790000D01*
X141608326Y-97978256D01*
X141608327Y-97978259D01*
X141666818Y-98158277D01*
X141666821Y-98158284D01*
X141726887Y-98262321D01*
X141743500Y-98324321D01*
X141743500Y-101618769D01*
X141723815Y-101685808D01*
X141707181Y-101706450D01*
X139214358Y-104199272D01*
X139200729Y-104211051D01*
X139181468Y-104225390D01*
X139147898Y-104265397D01*
X139144253Y-104269376D01*
X139138409Y-104275222D01*
X139118059Y-104300959D01*
X139068695Y-104359789D01*
X139064729Y-104365819D01*
X139064682Y-104365788D01*
X139060630Y-104372147D01*
X139060679Y-104372177D01*
X139056889Y-104378321D01*
X139024424Y-104447941D01*
X138989960Y-104516566D01*
X138987488Y-104523357D01*
X138987432Y-104523336D01*
X138984960Y-104530450D01*
X138985015Y-104530469D01*
X138982742Y-104537327D01*
X138978734Y-104556740D01*
X138967207Y-104612565D01*
X138957782Y-104652334D01*
X138949498Y-104687286D01*
X138948661Y-104694454D01*
X138948601Y-104694447D01*
X138947835Y-104701945D01*
X138947895Y-104701951D01*
X138947265Y-104709140D01*
X138949500Y-104785916D01*
X138949500Y-111061294D01*
X138948191Y-111079263D01*
X138944710Y-111103025D01*
X138949264Y-111155064D01*
X138949500Y-111160470D01*
X138949500Y-111168709D01*
X138953306Y-111201274D01*
X138960000Y-111277791D01*
X138961461Y-111284867D01*
X138961403Y-111284878D01*
X138963034Y-111292237D01*
X138963092Y-111292224D01*
X138964757Y-111299250D01*
X138991025Y-111371424D01*
X139015185Y-111444331D01*
X139018236Y-111450874D01*
X139018182Y-111450898D01*
X139021470Y-111457688D01*
X139021521Y-111457663D01*
X139024761Y-111464113D01*
X139024762Y-111464114D01*
X139024763Y-111464117D01*
X139043942Y-111493277D01*
X139066965Y-111528283D01*
X139107287Y-111593655D01*
X139111766Y-111599319D01*
X139111719Y-111599356D01*
X139116482Y-111605202D01*
X139116528Y-111605164D01*
X139121173Y-111610700D01*
X139162056Y-111649270D01*
X139177018Y-111663386D01*
X142463239Y-114949607D01*
X145713181Y-118199548D01*
X145746666Y-118260871D01*
X145749500Y-118287229D01*
X145749500Y-122373500D01*
X145729815Y-122440539D01*
X145677011Y-122486294D01*
X145625500Y-122497500D01*
X79861265Y-122497500D01*
X79794226Y-122477815D01*
X79748471Y-122425011D01*
X79738527Y-122355853D01*
X79767552Y-122292297D01*
X79810829Y-122260221D01*
X79875698Y-122231338D01*
X79954730Y-122196151D01*
X80107871Y-122084888D01*
X80234533Y-121944216D01*
X80329179Y-121780284D01*
X80387674Y-121600256D01*
X80407460Y-121412000D01*
X80387674Y-121223744D01*
X80329179Y-121043716D01*
X80234533Y-120879784D01*
X80107871Y-120739112D01*
X80100901Y-120734048D01*
X79954734Y-120627851D01*
X79954729Y-120627848D01*
X79781807Y-120550857D01*
X79781802Y-120550855D01*
X79636001Y-120519865D01*
X79596646Y-120511500D01*
X79407354Y-120511500D01*
X79374897Y-120518398D01*
X79222197Y-120550855D01*
X79222192Y-120550857D01*
X79049270Y-120627848D01*
X79049265Y-120627851D01*
X78896129Y-120739111D01*
X78769466Y-120879785D01*
X78674821Y-121043715D01*
X78674819Y-121043719D01*
X78619478Y-121214041D01*
X78589228Y-121263403D01*
X78091451Y-121761181D01*
X78030128Y-121794666D01*
X78003770Y-121797500D01*
X70662500Y-121797500D01*
X70595461Y-121777815D01*
X70549706Y-121725011D01*
X70538500Y-121673500D01*
X70538500Y-119565008D01*
X70558185Y-119497969D01*
X70610989Y-119452214D01*
X70680147Y-119442270D01*
X70743703Y-119471295D01*
X70750181Y-119477327D01*
X71603101Y-120330247D01*
X71636586Y-120391570D01*
X71638741Y-120404966D01*
X71655738Y-120566683D01*
X71715856Y-120751710D01*
X71715857Y-120751711D01*
X71779173Y-120861377D01*
X71813130Y-120920192D01*
X71854081Y-120965673D01*
X71943302Y-121064764D01*
X71943305Y-121064766D01*
X71943308Y-121064769D01*
X72061352Y-121150533D01*
X72100702Y-121179123D01*
X72168926Y-121209497D01*
X72278429Y-121258251D01*
X72468726Y-121298700D01*
X72663274Y-121298700D01*
X72853571Y-121258251D01*
X73031299Y-121179122D01*
X73188692Y-121064769D01*
X73318870Y-120920192D01*
X73416144Y-120751708D01*
X73476262Y-120566682D01*
X73493259Y-120404962D01*
X73519842Y-120340351D01*
X73528889Y-120330255D01*
X82479127Y-111380019D01*
X82540450Y-111346534D01*
X82566808Y-111343700D01*
X87141503Y-111343700D01*
X87208542Y-111363385D01*
X87254297Y-111416189D01*
X87264241Y-111485347D01*
X87252313Y-111523352D01*
X87223940Y-111579846D01*
X87222229Y-111583020D01*
X87190188Y-111638517D01*
X87190187Y-111638519D01*
X87186968Y-111649270D01*
X87178996Y-111669337D01*
X87173960Y-111679365D01*
X87173959Y-111679369D01*
X87159182Y-111741712D01*
X87158249Y-111745193D01*
X87139869Y-111806592D01*
X87139217Y-111817790D01*
X87136087Y-111839161D01*
X87133500Y-111850079D01*
X87133500Y-111914158D01*
X87133395Y-111917763D01*
X87129669Y-111981734D01*
X87129669Y-111981735D01*
X87131616Y-111992777D01*
X87133500Y-112014309D01*
X87133500Y-114292683D01*
X87116888Y-114354682D01*
X87031420Y-114502718D01*
X87031418Y-114502722D01*
X86993309Y-114620011D01*
X86972926Y-114682744D01*
X86953140Y-114871000D01*
X86972926Y-115059256D01*
X86972927Y-115059259D01*
X87031418Y-115239277D01*
X87031421Y-115239284D01*
X87126067Y-115403216D01*
X87252729Y-115543888D01*
X87405865Y-115655148D01*
X87405870Y-115655151D01*
X87578791Y-115732142D01*
X87578794Y-115732142D01*
X87578797Y-115732144D01*
X87612821Y-115739375D01*
X87643929Y-115745988D01*
X87705411Y-115779180D01*
X87705830Y-115779597D01*
X87854868Y-115928635D01*
X87866650Y-115942268D01*
X87876775Y-115955869D01*
X87880990Y-115961530D01*
X87921020Y-115995119D01*
X87924992Y-115998759D01*
X87930823Y-116004590D01*
X87930822Y-116004590D01*
X87940518Y-116012256D01*
X87956544Y-116024927D01*
X88015386Y-116074302D01*
X88015394Y-116074306D01*
X88021424Y-116078273D01*
X88021390Y-116078323D01*
X88027737Y-116082366D01*
X88027769Y-116082316D01*
X88033918Y-116086108D01*
X88033920Y-116086109D01*
X88033923Y-116086111D01*
X88103530Y-116118569D01*
X88172167Y-116153040D01*
X88172176Y-116153042D01*
X88178955Y-116155510D01*
X88178934Y-116155567D01*
X88186051Y-116158040D01*
X88186070Y-116157984D01*
X88192930Y-116160257D01*
X88268132Y-116175784D01*
X88342879Y-116193500D01*
X88342888Y-116193500D01*
X88350052Y-116194338D01*
X88350045Y-116194397D01*
X88357546Y-116195163D01*
X88357552Y-116195104D01*
X88364740Y-116195733D01*
X88364743Y-116195732D01*
X88364744Y-116195733D01*
X88441498Y-116193500D01*
X90082900Y-116193500D01*
X90149939Y-116213185D01*
X90195694Y-116265989D01*
X90206900Y-116317500D01*
X90206900Y-117309694D01*
X90205591Y-117327663D01*
X90202110Y-117351425D01*
X90206664Y-117403464D01*
X90206900Y-117408870D01*
X90206900Y-117417109D01*
X90210706Y-117449675D01*
X90211747Y-117461574D01*
X90217400Y-117526191D01*
X90218861Y-117533267D01*
X90218803Y-117533278D01*
X90220434Y-117540637D01*
X90220492Y-117540624D01*
X90222157Y-117547650D01*
X90248425Y-117619824D01*
X90272585Y-117692731D01*
X90275636Y-117699274D01*
X90275582Y-117699298D01*
X90278870Y-117706088D01*
X90278921Y-117706063D01*
X90282161Y-117712513D01*
X90282162Y-117712514D01*
X90282163Y-117712517D01*
X90311927Y-117757772D01*
X90324365Y-117776683D01*
X90364687Y-117842055D01*
X90369166Y-117847719D01*
X90369119Y-117847756D01*
X90373882Y-117853602D01*
X90373928Y-117853564D01*
X90378573Y-117859100D01*
X90434417Y-117911785D01*
X90781228Y-118258596D01*
X90811478Y-118307958D01*
X90866819Y-118478280D01*
X90866821Y-118478284D01*
X90961467Y-118642216D01*
X91011945Y-118698277D01*
X91088129Y-118782888D01*
X91241265Y-118894148D01*
X91241270Y-118894151D01*
X91414192Y-118971142D01*
X91414197Y-118971144D01*
X91599354Y-119010500D01*
X91599355Y-119010500D01*
X91788644Y-119010500D01*
X91788646Y-119010500D01*
X91973803Y-118971144D01*
X92146730Y-118894151D01*
X92148776Y-118892664D01*
X92160452Y-118884182D01*
X92226258Y-118860702D01*
X92233337Y-118860500D01*
X97255995Y-118860500D01*
X97273965Y-118861809D01*
X97297723Y-118865289D01*
X97349768Y-118860735D01*
X97355170Y-118860500D01*
X97363404Y-118860500D01*
X97363409Y-118860500D01*
X97375027Y-118859141D01*
X97395976Y-118856693D01*
X97408728Y-118855577D01*
X97472497Y-118849999D01*
X97472505Y-118849996D01*
X97479566Y-118848539D01*
X97479578Y-118848598D01*
X97486943Y-118846965D01*
X97486929Y-118846906D01*
X97493946Y-118845241D01*
X97493955Y-118845241D01*
X97566123Y-118818974D01*
X97639034Y-118794814D01*
X97639043Y-118794807D01*
X97645582Y-118791760D01*
X97645608Y-118791816D01*
X97652390Y-118788532D01*
X97652363Y-118788478D01*
X97658806Y-118785240D01*
X97658817Y-118785237D01*
X97722983Y-118743034D01*
X97788356Y-118702712D01*
X97788362Y-118702705D01*
X97794025Y-118698229D01*
X97794062Y-118698277D01*
X97799899Y-118693522D01*
X97799860Y-118693475D01*
X97805385Y-118688836D01*
X97805396Y-118688830D01*
X97858090Y-118632977D01*
X97996244Y-118494821D01*
X98009871Y-118483046D01*
X98029130Y-118468710D01*
X98062711Y-118428687D01*
X98066367Y-118424699D01*
X98072189Y-118418878D01*
X98080667Y-118408156D01*
X98092527Y-118393155D01*
X98141902Y-118334314D01*
X98141904Y-118334309D01*
X98145872Y-118328279D01*
X98145923Y-118328312D01*
X98149969Y-118321960D01*
X98149917Y-118321928D01*
X98153709Y-118315779D01*
X98153711Y-118315777D01*
X98186169Y-118246169D01*
X98220640Y-118177533D01*
X98220643Y-118177517D01*
X98223110Y-118170744D01*
X98223168Y-118170765D01*
X98225643Y-118163646D01*
X98225585Y-118163627D01*
X98227856Y-118156772D01*
X98234217Y-118125967D01*
X98243384Y-118081567D01*
X98261100Y-118006821D01*
X98261100Y-118006820D01*
X98261939Y-117999648D01*
X98261997Y-117999654D01*
X98262764Y-117992156D01*
X98262704Y-117992151D01*
X98263333Y-117984960D01*
X98262693Y-117962977D01*
X98261100Y-117908202D01*
X98261100Y-117348921D01*
X98277713Y-117286921D01*
X98280954Y-117281307D01*
X98337779Y-117182884D01*
X98396274Y-117002856D01*
X98416060Y-116814600D01*
X98396274Y-116626344D01*
X98337779Y-116446316D01*
X98243133Y-116282384D01*
X98116471Y-116141712D01*
X98116470Y-116141711D01*
X97963334Y-116030451D01*
X97963329Y-116030448D01*
X97790407Y-115953457D01*
X97790402Y-115953455D01*
X97644601Y-115922465D01*
X97605246Y-115914100D01*
X97415954Y-115914100D01*
X97383497Y-115920998D01*
X97230797Y-115953455D01*
X97230792Y-115953457D01*
X97057870Y-116030448D01*
X97057865Y-116030451D01*
X96904729Y-116141711D01*
X96778066Y-116282385D01*
X96683421Y-116446315D01*
X96683418Y-116446322D01*
X96630838Y-116608148D01*
X96624926Y-116626344D01*
X96605140Y-116814600D01*
X96624926Y-117002856D01*
X96624927Y-117002859D01*
X96683421Y-117182886D01*
X96684391Y-117185064D01*
X96684575Y-117186436D01*
X96685429Y-117189065D01*
X96684948Y-117189221D01*
X96693676Y-117254314D01*
X96664048Y-117317590D01*
X96604914Y-117354804D01*
X96571112Y-117359500D01*
X92233337Y-117359500D01*
X92166298Y-117339815D01*
X92160452Y-117335818D01*
X92146734Y-117325851D01*
X92146729Y-117325848D01*
X91973807Y-117248857D01*
X91973803Y-117248856D01*
X91908669Y-117235011D01*
X91847188Y-117201818D01*
X91846769Y-117201402D01*
X91744218Y-117098850D01*
X91710734Y-117037527D01*
X91707900Y-117011169D01*
X91707900Y-115466640D01*
X91708005Y-115463034D01*
X91711731Y-115399065D01*
X91700602Y-115335954D01*
X91700079Y-115332384D01*
X91697625Y-115311395D01*
X91692641Y-115268745D01*
X91688808Y-115258215D01*
X91683211Y-115237330D01*
X91681265Y-115226289D01*
X91666370Y-115191759D01*
X91655884Y-115167448D01*
X91654552Y-115164095D01*
X91652560Y-115158624D01*
X91632637Y-115103883D01*
X91626472Y-115094510D01*
X91616218Y-115075491D01*
X91611779Y-115065200D01*
X91611773Y-115065190D01*
X91573515Y-115013802D01*
X91571446Y-115010847D01*
X91541733Y-114965671D01*
X91536230Y-114957304D01*
X91528072Y-114949607D01*
X91513704Y-114933462D01*
X91507009Y-114924469D01*
X91485068Y-114906058D01*
X91457920Y-114883278D01*
X91455230Y-114880884D01*
X91444753Y-114871000D01*
X91408618Y-114836908D01*
X91398903Y-114831299D01*
X91381204Y-114818906D01*
X91372614Y-114811698D01*
X91372612Y-114811697D01*
X91372611Y-114811696D01*
X91315340Y-114782934D01*
X91312180Y-114781230D01*
X91282686Y-114764202D01*
X91256682Y-114749188D01*
X91252076Y-114747809D01*
X91245934Y-114745970D01*
X91225860Y-114737995D01*
X91215833Y-114732960D01*
X91215832Y-114732959D01*
X91215831Y-114732959D01*
X91153487Y-114718182D01*
X91150005Y-114717249D01*
X91088611Y-114698870D01*
X91077410Y-114698217D01*
X91056038Y-114695086D01*
X91045124Y-114692500D01*
X91045121Y-114692500D01*
X90981041Y-114692500D01*
X90977440Y-114692395D01*
X90913465Y-114688669D01*
X90913464Y-114688669D01*
X90902423Y-114690616D01*
X90880891Y-114692500D01*
X88837536Y-114692500D01*
X88770497Y-114672815D01*
X88724742Y-114620011D01*
X88719605Y-114606819D01*
X88685778Y-114502713D01*
X88651113Y-114442671D01*
X88634500Y-114380671D01*
X88634500Y-112812300D01*
X88654185Y-112745261D01*
X88706989Y-112699506D01*
X88758500Y-112688300D01*
X92221463Y-112688300D01*
X92288502Y-112707985D01*
X92294348Y-112711982D01*
X92308065Y-112721948D01*
X92308070Y-112721951D01*
X92480992Y-112798942D01*
X92480997Y-112798944D01*
X92666154Y-112838300D01*
X92666155Y-112838300D01*
X92855444Y-112838300D01*
X92855446Y-112838300D01*
X93040603Y-112798944D01*
X93213530Y-112721951D01*
X93366671Y-112610688D01*
X93493333Y-112470016D01*
X93587979Y-112306084D01*
X93646474Y-112126056D01*
X93666260Y-111937800D01*
X93646474Y-111749544D01*
X93587979Y-111569516D01*
X93564990Y-111529699D01*
X93548518Y-111461800D01*
X93571371Y-111395773D01*
X93626292Y-111352582D01*
X93672378Y-111343700D01*
X102784495Y-111343700D01*
X102800505Y-111345467D01*
X102800528Y-111345226D01*
X102808289Y-111345958D01*
X102808296Y-111345960D01*
X102880203Y-111343700D01*
X102910925Y-111343700D01*
X102918190Y-111342781D01*
X102924016Y-111342322D01*
X102972569Y-111340797D01*
X102992956Y-111334873D01*
X103011996Y-111330931D01*
X103033058Y-111328271D01*
X103070973Y-111313259D01*
X103078227Y-111310387D01*
X103083748Y-111308496D01*
X103092065Y-111306080D01*
X103161934Y-111306285D01*
X103220602Y-111344231D01*
X103244582Y-111386841D01*
X103287418Y-111518677D01*
X103287421Y-111518684D01*
X103382067Y-111682616D01*
X103493694Y-111806590D01*
X103508729Y-111823288D01*
X103661865Y-111934548D01*
X103661870Y-111934551D01*
X103834792Y-112011542D01*
X103834797Y-112011544D01*
X104019954Y-112050900D01*
X104019955Y-112050900D01*
X104209244Y-112050900D01*
X104209246Y-112050900D01*
X104394403Y-112011544D01*
X104567330Y-111934551D01*
X104595399Y-111914158D01*
X104616012Y-111899182D01*
X104681818Y-111875702D01*
X104688897Y-111875500D01*
X106064463Y-111875500D01*
X106131502Y-111895185D01*
X106137348Y-111899182D01*
X106151065Y-111909148D01*
X106151070Y-111909151D01*
X106323992Y-111986142D01*
X106323997Y-111986144D01*
X106509154Y-112025500D01*
X106509155Y-112025500D01*
X106698444Y-112025500D01*
X106698446Y-112025500D01*
X106883603Y-111986144D01*
X107056530Y-111909151D01*
X107209671Y-111797888D01*
X107336333Y-111657216D01*
X107430979Y-111493284D01*
X107489474Y-111313256D01*
X107509260Y-111125000D01*
X107489474Y-110936744D01*
X107430979Y-110756716D01*
X107336333Y-110592784D01*
X107209671Y-110452112D01*
X107149310Y-110408257D01*
X107056534Y-110340851D01*
X107056529Y-110340848D01*
X106883607Y-110263857D01*
X106883603Y-110263856D01*
X106855485Y-110257879D01*
X106794003Y-110224686D01*
X106760227Y-110163522D01*
X106764881Y-110093808D01*
X106773872Y-110074604D01*
X106834679Y-109969284D01*
X106893174Y-109789256D01*
X106912960Y-109601000D01*
X106893174Y-109412744D01*
X106834679Y-109232716D01*
X106740033Y-109068784D01*
X106613371Y-108928112D01*
X106611590Y-108926818D01*
X106460234Y-108816851D01*
X106460229Y-108816848D01*
X106287307Y-108739857D01*
X106287302Y-108739855D01*
X106141501Y-108708865D01*
X106102146Y-108700500D01*
X105912854Y-108700500D01*
X105880397Y-108707398D01*
X105727697Y-108739855D01*
X105727692Y-108739857D01*
X105554770Y-108816848D01*
X105554765Y-108816851D01*
X105403410Y-108926818D01*
X105337604Y-108950298D01*
X105330525Y-108950500D01*
X104606506Y-108950500D01*
X104590495Y-108948732D01*
X104590473Y-108948974D01*
X104582697Y-108948239D01*
X104579796Y-108948330D01*
X104577588Y-108947756D01*
X104574940Y-108947506D01*
X104574980Y-108947078D01*
X104512173Y-108930754D01*
X104503028Y-108924709D01*
X104389534Y-108842251D01*
X104389529Y-108842248D01*
X104216607Y-108765257D01*
X104216602Y-108765255D01*
X104070801Y-108734265D01*
X104031446Y-108725900D01*
X103842154Y-108725900D01*
X103809697Y-108732798D01*
X103656997Y-108765255D01*
X103656992Y-108765257D01*
X103484070Y-108842248D01*
X103484065Y-108842251D01*
X103330929Y-108953511D01*
X103204266Y-109094185D01*
X103109621Y-109258115D01*
X103109618Y-109258122D01*
X103051127Y-109438139D01*
X103051126Y-109438141D01*
X103044800Y-109498334D01*
X103038118Y-109561913D01*
X103037631Y-109566543D01*
X103011046Y-109631157D01*
X103001991Y-109641262D01*
X102636873Y-110006381D01*
X102575550Y-110039866D01*
X102549192Y-110042700D01*
X101188753Y-110042700D01*
X101121714Y-110023015D01*
X101075959Y-109970211D01*
X101066015Y-109901053D01*
X101095040Y-109837497D01*
X101101072Y-109831019D01*
X101166772Y-109765319D01*
X101228095Y-109731834D01*
X101254453Y-109729000D01*
X101313644Y-109729000D01*
X101313646Y-109729000D01*
X101498803Y-109689644D01*
X101671730Y-109612651D01*
X101824871Y-109501388D01*
X101951533Y-109360716D01*
X102046179Y-109196784D01*
X102104674Y-109016756D01*
X102124460Y-108828500D01*
X102104674Y-108640244D01*
X102046179Y-108460216D01*
X101951533Y-108296284D01*
X101824871Y-108155612D01*
X101816459Y-108149500D01*
X101671734Y-108044351D01*
X101671729Y-108044348D01*
X101498807Y-107967357D01*
X101498802Y-107967355D01*
X101353001Y-107936365D01*
X101313646Y-107928000D01*
X101124354Y-107928000D01*
X101091897Y-107934898D01*
X100939197Y-107967355D01*
X100939192Y-107967357D01*
X100766270Y-108044348D01*
X100766265Y-108044351D01*
X100613129Y-108155611D01*
X100486466Y-108296285D01*
X100391821Y-108460215D01*
X100391818Y-108460222D01*
X100334740Y-108635891D01*
X100333326Y-108640244D01*
X100318670Y-108779693D01*
X100315679Y-108808149D01*
X100289094Y-108872763D01*
X100280039Y-108882868D01*
X99715728Y-109447181D01*
X99654405Y-109480666D01*
X99628047Y-109483500D01*
X81662943Y-109483500D01*
X81647322Y-109481775D01*
X81647296Y-109482061D01*
X81639534Y-109481327D01*
X81639533Y-109481327D01*
X81570386Y-109483500D01*
X81540849Y-109483500D01*
X81533966Y-109484369D01*
X81528149Y-109484826D01*
X81481573Y-109486290D01*
X81462329Y-109491881D01*
X81443279Y-109495825D01*
X81423411Y-109498334D01*
X81380084Y-109515488D01*
X81374558Y-109517379D01*
X81329814Y-109530379D01*
X81329810Y-109530381D01*
X81312566Y-109540579D01*
X81295105Y-109549133D01*
X81276474Y-109556510D01*
X81276462Y-109556517D01*
X81238770Y-109583902D01*
X81233887Y-109587109D01*
X81193780Y-109610829D01*
X81179614Y-109624995D01*
X81164824Y-109637627D01*
X81148614Y-109649404D01*
X81148611Y-109649407D01*
X81118910Y-109685309D01*
X81114977Y-109689631D01*
X73703180Y-117101427D01*
X73641857Y-117134912D01*
X73572165Y-117129928D01*
X73516232Y-117088056D01*
X73491815Y-117022592D01*
X73491499Y-117013771D01*
X73491499Y-116150328D01*
X73485091Y-116090717D01*
X73481976Y-116082366D01*
X73434797Y-115955871D01*
X73434793Y-115955864D01*
X73348547Y-115840655D01*
X73348544Y-115840652D01*
X73233335Y-115754406D01*
X73233328Y-115754402D01*
X73098482Y-115704108D01*
X73098483Y-115704108D01*
X73038883Y-115697701D01*
X73038881Y-115697700D01*
X73038873Y-115697700D01*
X73038864Y-115697700D01*
X72093129Y-115697700D01*
X72093123Y-115697701D01*
X72033516Y-115704108D01*
X71898671Y-115754402D01*
X71898664Y-115754406D01*
X71783455Y-115840652D01*
X71783452Y-115840655D01*
X71697206Y-115955864D01*
X71697202Y-115955871D01*
X71646908Y-116090717D01*
X71643914Y-116118569D01*
X71640501Y-116150323D01*
X71640500Y-116150335D01*
X71640500Y-117096070D01*
X71640501Y-117096076D01*
X71646908Y-117155683D01*
X71697202Y-117290528D01*
X71697203Y-117290529D01*
X71697204Y-117290531D01*
X71718312Y-117318728D01*
X71725266Y-117328017D01*
X71749683Y-117393481D01*
X71734831Y-117461754D01*
X71733386Y-117464328D01*
X71715857Y-117494688D01*
X71715856Y-117494689D01*
X71655738Y-117679716D01*
X71635402Y-117873200D01*
X71655738Y-118066683D01*
X71715856Y-118251709D01*
X71724943Y-118267448D01*
X71741414Y-118335348D01*
X71718562Y-118401375D01*
X71663640Y-118444565D01*
X71594087Y-118451206D01*
X71531984Y-118419189D01*
X71529874Y-118417128D01*
X71298819Y-118186073D01*
X71265334Y-118124750D01*
X71262500Y-118098392D01*
X71262500Y-113830102D01*
X71282185Y-113763063D01*
X71334989Y-113717308D01*
X71404147Y-113707364D01*
X71437223Y-113716951D01*
X71620511Y-113799118D01*
X71872287Y-113868307D01*
X72131675Y-113898252D01*
X72392593Y-113888251D01*
X72648927Y-113838538D01*
X72648930Y-113838537D01*
X72894663Y-113750281D01*
X72894664Y-113750280D01*
X72894668Y-113750279D01*
X73124057Y-113625541D01*
X73331716Y-113467250D01*
X73512778Y-113279114D01*
X73662999Y-113065544D01*
X73778859Y-112831547D01*
X73857641Y-112582605D01*
X73897500Y-112324555D01*
X73897500Y-110388823D01*
X73882516Y-110193656D01*
X73823021Y-109939414D01*
X73823018Y-109939406D01*
X73725418Y-109697241D01*
X73725413Y-109697232D01*
X73684489Y-109628395D01*
X73591982Y-109472792D01*
X73425852Y-109271348D01*
X73425849Y-109271345D01*
X73230928Y-109097631D01*
X73230911Y-109097618D01*
X73011757Y-108955695D01*
X73011753Y-108955694D01*
X72773488Y-108848881D01*
X72521714Y-108779693D01*
X72304414Y-108754607D01*
X72262325Y-108749748D01*
X72262324Y-108749748D01*
X72135550Y-108754607D01*
X72067806Y-108737504D01*
X72020062Y-108686492D01*
X72007477Y-108617765D01*
X72008324Y-108611323D01*
X72011235Y-108592945D01*
X72012417Y-108587234D01*
X72024500Y-108540177D01*
X72024500Y-108518955D01*
X72026027Y-108499555D01*
X72026726Y-108495142D01*
X72029347Y-108478595D01*
X72024775Y-108430230D01*
X72024500Y-108424392D01*
X72024500Y-107249137D01*
X72044185Y-107182098D01*
X72096989Y-107136343D01*
X72166147Y-107126399D01*
X72198931Y-107135856D01*
X72278429Y-107171251D01*
X72468726Y-107211700D01*
X72663274Y-107211700D01*
X72853571Y-107171251D01*
X73031299Y-107092122D01*
X73188692Y-106977769D01*
X73318870Y-106833192D01*
X73416144Y-106664708D01*
X73476262Y-106479682D01*
X73496598Y-106286200D01*
X73476262Y-106092718D01*
X73416144Y-105907692D01*
X73416143Y-105907691D01*
X73416143Y-105907689D01*
X73416142Y-105907688D01*
X73381508Y-105847700D01*
X73365035Y-105779800D01*
X73387887Y-105713773D01*
X73442808Y-105670583D01*
X73488895Y-105661700D01*
X91809485Y-105661700D01*
X91876524Y-105681385D01*
X91922279Y-105734189D01*
X91932804Y-105772734D01*
X91951326Y-105948956D01*
X91951327Y-105948959D01*
X92009818Y-106128977D01*
X92009821Y-106128984D01*
X92104467Y-106292916D01*
X92212841Y-106413277D01*
X92231129Y-106433588D01*
X92384265Y-106544848D01*
X92384270Y-106544851D01*
X92557192Y-106621842D01*
X92557197Y-106621844D01*
X92742354Y-106661200D01*
X92801548Y-106661200D01*
X92868587Y-106680885D01*
X92889229Y-106697519D01*
X93230094Y-107038384D01*
X93239919Y-107050648D01*
X93240140Y-107050466D01*
X93245110Y-107056473D01*
X93245113Y-107056476D01*
X93245114Y-107056477D01*
X93295551Y-107103841D01*
X93316430Y-107124720D01*
X93321904Y-107128966D01*
X93326342Y-107132756D01*
X93360318Y-107164662D01*
X93372303Y-107171251D01*
X93377873Y-107174313D01*
X93394131Y-107184992D01*
X93409964Y-107197274D01*
X93431915Y-107206772D01*
X93452737Y-107215783D01*
X93457981Y-107218352D01*
X93498808Y-107240797D01*
X93518212Y-107245779D01*
X93536610Y-107252078D01*
X93555005Y-107260038D01*
X93601029Y-107267326D01*
X93606732Y-107268507D01*
X93651881Y-107280100D01*
X93671916Y-107280100D01*
X93691313Y-107281626D01*
X93711096Y-107284760D01*
X93757484Y-107280375D01*
X93763322Y-107280100D01*
X106208837Y-107280100D01*
X106275876Y-107299785D01*
X106321631Y-107352589D01*
X106326768Y-107365782D01*
X106377615Y-107522274D01*
X106377618Y-107522281D01*
X106472264Y-107686213D01*
X106572817Y-107797888D01*
X106598926Y-107826885D01*
X106752062Y-107938145D01*
X106752067Y-107938148D01*
X106924989Y-108015139D01*
X106924994Y-108015141D01*
X107110151Y-108054497D01*
X107110152Y-108054497D01*
X107299441Y-108054497D01*
X107299443Y-108054497D01*
X107484600Y-108015141D01*
X107657527Y-107938148D01*
X107810668Y-107826885D01*
X107937330Y-107686213D01*
X108031976Y-107522281D01*
X108090471Y-107342253D01*
X108110257Y-107153997D01*
X108090471Y-106965741D01*
X108083361Y-106943861D01*
X108081366Y-106874023D01*
X108117446Y-106814190D01*
X108180147Y-106783361D01*
X108249561Y-106791325D01*
X108288974Y-106817864D01*
X108602281Y-107131171D01*
X108635766Y-107192494D01*
X108638600Y-107218852D01*
X108638600Y-110558855D01*
X108636875Y-110574472D01*
X108637161Y-110574499D01*
X108636426Y-110582265D01*
X108638600Y-110651414D01*
X108638600Y-110680943D01*
X108638601Y-110680960D01*
X108639468Y-110687831D01*
X108639926Y-110693650D01*
X108641390Y-110740224D01*
X108641391Y-110740227D01*
X108646980Y-110759467D01*
X108650924Y-110778511D01*
X108652266Y-110789128D01*
X108653436Y-110798391D01*
X108670590Y-110841719D01*
X108672482Y-110847247D01*
X108685482Y-110891990D01*
X108690882Y-110901122D01*
X108695680Y-110909234D01*
X108704238Y-110926703D01*
X108711614Y-110945332D01*
X108738998Y-110983023D01*
X108742206Y-110987907D01*
X108765927Y-111028016D01*
X108765933Y-111028024D01*
X108780090Y-111042180D01*
X108792727Y-111056975D01*
X108804506Y-111073187D01*
X108814124Y-111081144D01*
X108840403Y-111102883D01*
X108844726Y-111106816D01*
X108952939Y-111215030D01*
X108986424Y-111276353D01*
X108988578Y-111289743D01*
X109006226Y-111457656D01*
X109006227Y-111457659D01*
X109064718Y-111637677D01*
X109064721Y-111637684D01*
X109159367Y-111801616D01*
X109225893Y-111875500D01*
X109286029Y-111942288D01*
X109439165Y-112053548D01*
X109439170Y-112053551D01*
X109612092Y-112130542D01*
X109612097Y-112130544D01*
X109797254Y-112169900D01*
X109797255Y-112169900D01*
X109986544Y-112169900D01*
X109986546Y-112169900D01*
X110171703Y-112130544D01*
X110344630Y-112053551D01*
X110497771Y-111942288D01*
X110624433Y-111801616D01*
X110719079Y-111637684D01*
X110777574Y-111457656D01*
X110797360Y-111269400D01*
X110777574Y-111081144D01*
X110719079Y-110901116D01*
X110624433Y-110737184D01*
X110497771Y-110596512D01*
X110497770Y-110596511D01*
X110344634Y-110485251D01*
X110344629Y-110485248D01*
X110171707Y-110408257D01*
X110171702Y-110408255D01*
X109987819Y-110369170D01*
X109926337Y-110335978D01*
X109892561Y-110274815D01*
X109889600Y-110247880D01*
X109889600Y-108149500D01*
X109909285Y-108082461D01*
X109962089Y-108036706D01*
X110013600Y-108025500D01*
X110154093Y-108025500D01*
X110154095Y-108025500D01*
X110339252Y-107986144D01*
X110512179Y-107909151D01*
X110665320Y-107797888D01*
X110791982Y-107657216D01*
X110886628Y-107493284D01*
X110945123Y-107313256D01*
X110964909Y-107125000D01*
X110945123Y-106936744D01*
X110886628Y-106756716D01*
X110791982Y-106592784D01*
X110791944Y-106592742D01*
X110716799Y-106509284D01*
X110686569Y-106446292D01*
X110684949Y-106426312D01*
X110684949Y-106001901D01*
X110704634Y-105934862D01*
X110757438Y-105889107D01*
X110826596Y-105879163D01*
X110890152Y-105908188D01*
X110896630Y-105914220D01*
X114408394Y-109425984D01*
X114418219Y-109438248D01*
X114418440Y-109438066D01*
X114423410Y-109444073D01*
X114423413Y-109444076D01*
X114423414Y-109444077D01*
X114473851Y-109491441D01*
X114494730Y-109512320D01*
X114500204Y-109516566D01*
X114504642Y-109520356D01*
X114538618Y-109552262D01*
X114546358Y-109556517D01*
X114556173Y-109561913D01*
X114572431Y-109572592D01*
X114588264Y-109584874D01*
X114610215Y-109594372D01*
X114631037Y-109603383D01*
X114636281Y-109605952D01*
X114677108Y-109628397D01*
X114696512Y-109633379D01*
X114714910Y-109639678D01*
X114733305Y-109647638D01*
X114779329Y-109654926D01*
X114785032Y-109656107D01*
X114830181Y-109667700D01*
X114850216Y-109667700D01*
X114869613Y-109669226D01*
X114889396Y-109672360D01*
X114935784Y-109667975D01*
X114941622Y-109667700D01*
X124472500Y-109667700D01*
X124539539Y-109687385D01*
X124585294Y-109740189D01*
X124596500Y-109791700D01*
X124596500Y-117342773D01*
X124576815Y-117409812D01*
X124543623Y-117444348D01*
X124350597Y-117579505D01*
X124183505Y-117746597D01*
X124053575Y-117932158D01*
X123998998Y-117975783D01*
X123929500Y-117982977D01*
X123867145Y-117951454D01*
X123850425Y-117932158D01*
X123720494Y-117746597D01*
X123553402Y-117579506D01*
X123553395Y-117579501D01*
X123359834Y-117443967D01*
X123359830Y-117443965D01*
X123329625Y-117429880D01*
X123145663Y-117344097D01*
X123145659Y-117344096D01*
X123145655Y-117344094D01*
X122917413Y-117282938D01*
X122917403Y-117282936D01*
X122682001Y-117262341D01*
X122681999Y-117262341D01*
X122446596Y-117282936D01*
X122446586Y-117282938D01*
X122218344Y-117344094D01*
X122218335Y-117344098D01*
X122004171Y-117443964D01*
X122004169Y-117443965D01*
X121824836Y-117569535D01*
X121758630Y-117591862D01*
X121690862Y-117574852D01*
X121666032Y-117555641D01*
X119906203Y-115795812D01*
X119896380Y-115783550D01*
X119896159Y-115783734D01*
X119891186Y-115777723D01*
X119866354Y-115754404D01*
X119840764Y-115730373D01*
X119830319Y-115719928D01*
X119819875Y-115709483D01*
X119814386Y-115705225D01*
X119809961Y-115701447D01*
X119775982Y-115669538D01*
X119775980Y-115669536D01*
X119775977Y-115669535D01*
X119758429Y-115659888D01*
X119742163Y-115649204D01*
X119726333Y-115636925D01*
X119683568Y-115618418D01*
X119678322Y-115615848D01*
X119637493Y-115593403D01*
X119637492Y-115593402D01*
X119618093Y-115588422D01*
X119599681Y-115582118D01*
X119581298Y-115574162D01*
X119581292Y-115574160D01*
X119535274Y-115566872D01*
X119529552Y-115565687D01*
X119484421Y-115554100D01*
X119484419Y-115554100D01*
X119464384Y-115554100D01*
X119444986Y-115552573D01*
X119437562Y-115551397D01*
X119425205Y-115549440D01*
X119425204Y-115549440D01*
X119378816Y-115553825D01*
X119372978Y-115554100D01*
X114995237Y-115554100D01*
X114928198Y-115534415D01*
X114882443Y-115481611D01*
X114877305Y-115468416D01*
X114876143Y-115464840D01*
X114873179Y-115455716D01*
X114778533Y-115291784D01*
X114651871Y-115151112D01*
X114582233Y-115100517D01*
X114498734Y-115039851D01*
X114498729Y-115039848D01*
X114325807Y-114962857D01*
X114325802Y-114962855D01*
X114180001Y-114931865D01*
X114140646Y-114923500D01*
X113951354Y-114923500D01*
X113918897Y-114930398D01*
X113766197Y-114962855D01*
X113766192Y-114962857D01*
X113593270Y-115039848D01*
X113593265Y-115039851D01*
X113440129Y-115151111D01*
X113313466Y-115291785D01*
X113218821Y-115455715D01*
X113218818Y-115455722D01*
X113160327Y-115635740D01*
X113160326Y-115635744D01*
X113140540Y-115824000D01*
X113160326Y-116012256D01*
X113160327Y-116012259D01*
X113218818Y-116192277D01*
X113218821Y-116192284D01*
X113313467Y-116356216D01*
X113394593Y-116446315D01*
X113440129Y-116496888D01*
X113593265Y-116608148D01*
X113593270Y-116608151D01*
X113766192Y-116685142D01*
X113766197Y-116685144D01*
X113951354Y-116724500D01*
X114060133Y-116724500D01*
X114109369Y-116734694D01*
X114123439Y-116740783D01*
X114128667Y-116743344D01*
X114169502Y-116765794D01*
X114169504Y-116765795D01*
X114169508Y-116765797D01*
X114188916Y-116770780D01*
X114207317Y-116777080D01*
X114225704Y-116785037D01*
X114269088Y-116791908D01*
X114271719Y-116792325D01*
X114277439Y-116793509D01*
X114322581Y-116805100D01*
X114342616Y-116805100D01*
X114362014Y-116806626D01*
X114381794Y-116809759D01*
X114381795Y-116809760D01*
X114381795Y-116809759D01*
X114381796Y-116809760D01*
X114428184Y-116805375D01*
X114434022Y-116805100D01*
X119094948Y-116805100D01*
X119161987Y-116824785D01*
X119182629Y-116841419D01*
X119557868Y-117216659D01*
X119591353Y-117277982D01*
X119586369Y-117347674D01*
X119544497Y-117403607D01*
X119522593Y-117416722D01*
X119464168Y-117443966D01*
X119270597Y-117579505D01*
X119103505Y-117746597D01*
X118973575Y-117932158D01*
X118918998Y-117975783D01*
X118849500Y-117982977D01*
X118787145Y-117951454D01*
X118770425Y-117932158D01*
X118640494Y-117746597D01*
X118473402Y-117579506D01*
X118473395Y-117579501D01*
X118279834Y-117443967D01*
X118279830Y-117443965D01*
X118249625Y-117429880D01*
X118065663Y-117344097D01*
X118065659Y-117344096D01*
X118065655Y-117344094D01*
X117837413Y-117282938D01*
X117837403Y-117282936D01*
X117602001Y-117262341D01*
X117601999Y-117262341D01*
X117366596Y-117282936D01*
X117366586Y-117282938D01*
X117138344Y-117344094D01*
X117138335Y-117344098D01*
X116924171Y-117443964D01*
X116924169Y-117443965D01*
X116730597Y-117579505D01*
X116563505Y-117746597D01*
X116433575Y-117932158D01*
X116378998Y-117975783D01*
X116309500Y-117982977D01*
X116247145Y-117951454D01*
X116230425Y-117932158D01*
X116100494Y-117746597D01*
X115933402Y-117579506D01*
X115933395Y-117579501D01*
X115739834Y-117443967D01*
X115739830Y-117443965D01*
X115709625Y-117429880D01*
X115525663Y-117344097D01*
X115525659Y-117344096D01*
X115525655Y-117344094D01*
X115297413Y-117282938D01*
X115297403Y-117282936D01*
X115062001Y-117262341D01*
X115061999Y-117262341D01*
X114826596Y-117282936D01*
X114826586Y-117282938D01*
X114598344Y-117344094D01*
X114598335Y-117344098D01*
X114384171Y-117443964D01*
X114384169Y-117443965D01*
X114190597Y-117579505D01*
X114023508Y-117746594D01*
X113893269Y-117932595D01*
X113838692Y-117976219D01*
X113769193Y-117983412D01*
X113706839Y-117951890D01*
X113690119Y-117932594D01*
X113560113Y-117746926D01*
X113560108Y-117746920D01*
X113393082Y-117579894D01*
X113199578Y-117444399D01*
X112985492Y-117344570D01*
X112985486Y-117344567D01*
X112772000Y-117287364D01*
X112772000Y-118182498D01*
X112664315Y-118133320D01*
X112557763Y-118118000D01*
X112486237Y-118118000D01*
X112379685Y-118133320D01*
X112272000Y-118182498D01*
X112272000Y-117287364D01*
X112271999Y-117287364D01*
X112058513Y-117344567D01*
X112058507Y-117344570D01*
X111844422Y-117444399D01*
X111844420Y-117444400D01*
X111650926Y-117579886D01*
X111528865Y-117701947D01*
X111467542Y-117735431D01*
X111397850Y-117730447D01*
X111341917Y-117688575D01*
X111325002Y-117657598D01*
X111310913Y-117619824D01*
X111283996Y-117547655D01*
X111275797Y-117525671D01*
X111275793Y-117525664D01*
X111189547Y-117410455D01*
X111189544Y-117410452D01*
X111074335Y-117324206D01*
X111074328Y-117324202D01*
X110939482Y-117273908D01*
X110939483Y-117273908D01*
X110879883Y-117267501D01*
X110879881Y-117267500D01*
X110879873Y-117267500D01*
X110879864Y-117267500D01*
X109084129Y-117267500D01*
X109084123Y-117267501D01*
X109024516Y-117273908D01*
X108889671Y-117324202D01*
X108889664Y-117324206D01*
X108774455Y-117410452D01*
X108774452Y-117410455D01*
X108688206Y-117525664D01*
X108688202Y-117525671D01*
X108637908Y-117660517D01*
X108631501Y-117720116D01*
X108631500Y-117720135D01*
X108631500Y-119515870D01*
X108631501Y-119515876D01*
X108637908Y-119575483D01*
X108688202Y-119710328D01*
X108688206Y-119710335D01*
X108774452Y-119825544D01*
X108774455Y-119825547D01*
X108889664Y-119911793D01*
X108889671Y-119911797D01*
X109024517Y-119962091D01*
X109024516Y-119962091D01*
X109031444Y-119962835D01*
X109084127Y-119968500D01*
X110879872Y-119968499D01*
X110939483Y-119962091D01*
X111074331Y-119911796D01*
X111189546Y-119825546D01*
X111275796Y-119710331D01*
X111325002Y-119578401D01*
X111366872Y-119522468D01*
X111432337Y-119498050D01*
X111500610Y-119512901D01*
X111528865Y-119534053D01*
X111650917Y-119656105D01*
X111844421Y-119791600D01*
X112058507Y-119891429D01*
X112058516Y-119891433D01*
X112272000Y-119948634D01*
X112272000Y-119053501D01*
X112379685Y-119102680D01*
X112486237Y-119118000D01*
X112557763Y-119118000D01*
X112664315Y-119102680D01*
X112772000Y-119053501D01*
X112772000Y-119948633D01*
X112985483Y-119891433D01*
X112985492Y-119891429D01*
X113199578Y-119791600D01*
X113393082Y-119656105D01*
X113560105Y-119489082D01*
X113690119Y-119303405D01*
X113744696Y-119259781D01*
X113814195Y-119252588D01*
X113876549Y-119284110D01*
X113893269Y-119303405D01*
X114023505Y-119489401D01*
X114190599Y-119656495D01*
X114270131Y-119712184D01*
X114384165Y-119792032D01*
X114384167Y-119792033D01*
X114384170Y-119792035D01*
X114598337Y-119891903D01*
X114826592Y-119953063D01*
X115003034Y-119968500D01*
X115061999Y-119973659D01*
X115062000Y-119973659D01*
X115062001Y-119973659D01*
X115120966Y-119968500D01*
X115297408Y-119953063D01*
X115525663Y-119891903D01*
X115739830Y-119792035D01*
X115933401Y-119656495D01*
X116100495Y-119489401D01*
X116230425Y-119303842D01*
X116285002Y-119260217D01*
X116354500Y-119253023D01*
X116416855Y-119284546D01*
X116433575Y-119303842D01*
X116563281Y-119489082D01*
X116563505Y-119489401D01*
X116730599Y-119656495D01*
X116810131Y-119712184D01*
X116924165Y-119792032D01*
X116924167Y-119792033D01*
X116924170Y-119792035D01*
X117138337Y-119891903D01*
X117366592Y-119953063D01*
X117543034Y-119968500D01*
X117601999Y-119973659D01*
X117602000Y-119973659D01*
X117602001Y-119973659D01*
X117660966Y-119968500D01*
X117837408Y-119953063D01*
X118065663Y-119891903D01*
X118279830Y-119792035D01*
X118473401Y-119656495D01*
X118640495Y-119489401D01*
X118770425Y-119303842D01*
X118825002Y-119260217D01*
X118894500Y-119253023D01*
X118956855Y-119284546D01*
X118973575Y-119303842D01*
X119103281Y-119489082D01*
X119103505Y-119489401D01*
X119270599Y-119656495D01*
X119350131Y-119712184D01*
X119464165Y-119792032D01*
X119464167Y-119792033D01*
X119464170Y-119792035D01*
X119678337Y-119891903D01*
X119906592Y-119953063D01*
X120083034Y-119968500D01*
X120141999Y-119973659D01*
X120142000Y-119973659D01*
X120142001Y-119973659D01*
X120200966Y-119968500D01*
X120377408Y-119953063D01*
X120605663Y-119891903D01*
X120818455Y-119792675D01*
X120887533Y-119782184D01*
X120949900Y-119809513D01*
X120952404Y-119811584D01*
X120952406Y-119811587D01*
X120988308Y-119841287D01*
X120992620Y-119845210D01*
X121477656Y-120330246D01*
X121869194Y-120721784D01*
X121879019Y-120734048D01*
X121879240Y-120733866D01*
X121884210Y-120739873D01*
X121884213Y-120739876D01*
X121884214Y-120739877D01*
X121934651Y-120787241D01*
X121955530Y-120808120D01*
X121961004Y-120812366D01*
X121965442Y-120816156D01*
X121999418Y-120848062D01*
X121999422Y-120848064D01*
X122016973Y-120857713D01*
X122033231Y-120868392D01*
X122049064Y-120880674D01*
X122071015Y-120890172D01*
X122091837Y-120899183D01*
X122097081Y-120901752D01*
X122137908Y-120924197D01*
X122157312Y-120929179D01*
X122175710Y-120935478D01*
X122194105Y-120943438D01*
X122240129Y-120950726D01*
X122245832Y-120951907D01*
X122290981Y-120963500D01*
X122311016Y-120963500D01*
X122330413Y-120965026D01*
X122350196Y-120968160D01*
X122396584Y-120963775D01*
X122402422Y-120963500D01*
X134178857Y-120963500D01*
X134194477Y-120965224D01*
X134194504Y-120964939D01*
X134202260Y-120965671D01*
X134202267Y-120965673D01*
X134271414Y-120963500D01*
X134300950Y-120963500D01*
X134307828Y-120962630D01*
X134313641Y-120962172D01*
X134360227Y-120960709D01*
X134379469Y-120955117D01*
X134398512Y-120951174D01*
X134418392Y-120948664D01*
X134461722Y-120931507D01*
X134467246Y-120929617D01*
X134470996Y-120928527D01*
X134511990Y-120916618D01*
X134529229Y-120906422D01*
X134546703Y-120897862D01*
X134565327Y-120890488D01*
X134565327Y-120890487D01*
X134565332Y-120890486D01*
X134603049Y-120863082D01*
X134607905Y-120859892D01*
X134648020Y-120836170D01*
X134662189Y-120821999D01*
X134676979Y-120809368D01*
X134693187Y-120797594D01*
X134722899Y-120761676D01*
X134726812Y-120757376D01*
X135545953Y-119938235D01*
X135607274Y-119904752D01*
X135665725Y-119906143D01*
X135700380Y-119915428D01*
X135766192Y-119933063D01*
X135954518Y-119949539D01*
X136001599Y-119953659D01*
X136001600Y-119953659D01*
X136001601Y-119953659D01*
X136040834Y-119950226D01*
X136237008Y-119933063D01*
X136465263Y-119871903D01*
X136679430Y-119772035D01*
X136873001Y-119636495D01*
X137040095Y-119469401D01*
X137170025Y-119283842D01*
X137224602Y-119240217D01*
X137294100Y-119233023D01*
X137356455Y-119264546D01*
X137373175Y-119283842D01*
X137503100Y-119469395D01*
X137503105Y-119469401D01*
X137670199Y-119636495D01*
X137743423Y-119687767D01*
X137863765Y-119772032D01*
X137863767Y-119772033D01*
X137863770Y-119772035D01*
X138077937Y-119871903D01*
X138306192Y-119933063D01*
X138494518Y-119949539D01*
X138541599Y-119953659D01*
X138541600Y-119953659D01*
X138541601Y-119953659D01*
X138580834Y-119950226D01*
X138777008Y-119933063D01*
X139005263Y-119871903D01*
X139219430Y-119772035D01*
X139413001Y-119636495D01*
X139580095Y-119469401D01*
X139710330Y-119283405D01*
X139764907Y-119239781D01*
X139834405Y-119232587D01*
X139896760Y-119264110D01*
X139913479Y-119283405D01*
X140043490Y-119469078D01*
X140210517Y-119636105D01*
X140404021Y-119771600D01*
X140618107Y-119871429D01*
X140618116Y-119871433D01*
X140831600Y-119928634D01*
X140831600Y-119033501D01*
X140939285Y-119082680D01*
X141045837Y-119098000D01*
X141117363Y-119098000D01*
X141223915Y-119082680D01*
X141331600Y-119033501D01*
X141331600Y-119928633D01*
X141545083Y-119871433D01*
X141545092Y-119871429D01*
X141759178Y-119771600D01*
X141952682Y-119636105D01*
X142119705Y-119469082D01*
X142255200Y-119275578D01*
X142355029Y-119061492D01*
X142355032Y-119061486D01*
X142412236Y-118848000D01*
X141515286Y-118848000D01*
X141541093Y-118807844D01*
X141581600Y-118669889D01*
X141581600Y-118526111D01*
X141541093Y-118388156D01*
X141515286Y-118348000D01*
X142412236Y-118348000D01*
X142412235Y-118347999D01*
X142355032Y-118134513D01*
X142355029Y-118134507D01*
X142255200Y-117920422D01*
X142255199Y-117920420D01*
X142119713Y-117726926D01*
X142119708Y-117726920D01*
X141952678Y-117559890D01*
X141767005Y-117429879D01*
X141723380Y-117375302D01*
X141716188Y-117305804D01*
X141747710Y-117243449D01*
X141767006Y-117226730D01*
X141803178Y-117201402D01*
X141953001Y-117096495D01*
X142120095Y-116929401D01*
X142255635Y-116735830D01*
X142355503Y-116521663D01*
X142416663Y-116293408D01*
X142437259Y-116058000D01*
X142416663Y-115822592D01*
X142355503Y-115594337D01*
X142255635Y-115380171D01*
X142250025Y-115372158D01*
X142120094Y-115186597D01*
X141953002Y-115019506D01*
X141952995Y-115019501D01*
X141942782Y-115012350D01*
X141876118Y-114965671D01*
X141759434Y-114883967D01*
X141759430Y-114883965D01*
X141752823Y-114880884D01*
X141545263Y-114784097D01*
X141545259Y-114784096D01*
X141545255Y-114784094D01*
X141317013Y-114722938D01*
X141317003Y-114722936D01*
X141081601Y-114702341D01*
X141081599Y-114702341D01*
X140846196Y-114722936D01*
X140846186Y-114722938D01*
X140617944Y-114784094D01*
X140617935Y-114784098D01*
X140403771Y-114883964D01*
X140403769Y-114883965D01*
X140210197Y-115019505D01*
X140043105Y-115186597D01*
X139913175Y-115372158D01*
X139858598Y-115415783D01*
X139789100Y-115422977D01*
X139726745Y-115391454D01*
X139710025Y-115372158D01*
X139580094Y-115186597D01*
X139413002Y-115019506D01*
X139412995Y-115019501D01*
X139402782Y-115012350D01*
X139336118Y-114965671D01*
X139219434Y-114883967D01*
X139219430Y-114883965D01*
X139212823Y-114880884D01*
X139005263Y-114784097D01*
X139005259Y-114784096D01*
X139005255Y-114784094D01*
X138777013Y-114722938D01*
X138777003Y-114722936D01*
X138541601Y-114702341D01*
X138541599Y-114702341D01*
X138306196Y-114722936D01*
X138306186Y-114722938D01*
X138077944Y-114784094D01*
X138077935Y-114784098D01*
X137863771Y-114883964D01*
X137863769Y-114883965D01*
X137670197Y-115019505D01*
X137503105Y-115186597D01*
X137373175Y-115372158D01*
X137318598Y-115415783D01*
X137249100Y-115422977D01*
X137186745Y-115391454D01*
X137170025Y-115372158D01*
X137040094Y-115186597D01*
X136873002Y-115019506D01*
X136872995Y-115019501D01*
X136862782Y-115012350D01*
X136796118Y-114965671D01*
X136679434Y-114883967D01*
X136679430Y-114883965D01*
X136672823Y-114880884D01*
X136465263Y-114784097D01*
X136465259Y-114784096D01*
X136465255Y-114784094D01*
X136237013Y-114722938D01*
X136237003Y-114722936D01*
X136001601Y-114702341D01*
X136001599Y-114702341D01*
X135766196Y-114722936D01*
X135766186Y-114722938D01*
X135537944Y-114784094D01*
X135537935Y-114784098D01*
X135323771Y-114883964D01*
X135323769Y-114883965D01*
X135130200Y-115019503D01*
X135008273Y-115141430D01*
X134946950Y-115174914D01*
X134877258Y-115169930D01*
X134821325Y-115128058D01*
X134804410Y-115097081D01*
X134755397Y-114965671D01*
X134755393Y-114965664D01*
X134669147Y-114850455D01*
X134669144Y-114850452D01*
X134553935Y-114764206D01*
X134553928Y-114764202D01*
X134419082Y-114713908D01*
X134419083Y-114713908D01*
X134359483Y-114707501D01*
X134359481Y-114707500D01*
X134359473Y-114707500D01*
X134359464Y-114707500D01*
X132563729Y-114707500D01*
X132563723Y-114707501D01*
X132504116Y-114713908D01*
X132369271Y-114764202D01*
X132369264Y-114764206D01*
X132254055Y-114850452D01*
X132254052Y-114850455D01*
X132167806Y-114965664D01*
X132167802Y-114965671D01*
X132117508Y-115100517D01*
X132111101Y-115160116D01*
X132111100Y-115160135D01*
X132111100Y-116955870D01*
X132111101Y-116955876D01*
X132117508Y-117015483D01*
X132167802Y-117150328D01*
X132167806Y-117150335D01*
X132254052Y-117265544D01*
X132254055Y-117265547D01*
X132369264Y-117351793D01*
X132369271Y-117351797D01*
X132500681Y-117400810D01*
X132556615Y-117442681D01*
X132581032Y-117508145D01*
X132566180Y-117576418D01*
X132545030Y-117604673D01*
X132423103Y-117726600D01*
X132287565Y-117920169D01*
X132287564Y-117920171D01*
X132187698Y-118134335D01*
X132187694Y-118134344D01*
X132126538Y-118362586D01*
X132126536Y-118362596D01*
X132105941Y-118597999D01*
X132105941Y-118598000D01*
X132126536Y-118833403D01*
X132126538Y-118833413D01*
X132187694Y-119061655D01*
X132187696Y-119061659D01*
X132187697Y-119061663D01*
X132267604Y-119233023D01*
X132287565Y-119275830D01*
X132287567Y-119275834D01*
X132306873Y-119303405D01*
X132423101Y-119469396D01*
X132423106Y-119469402D01*
X132454523Y-119500819D01*
X132488008Y-119562142D01*
X132483024Y-119631834D01*
X132441152Y-119687767D01*
X132375688Y-119712184D01*
X132366842Y-119712500D01*
X130463500Y-119712500D01*
X130396461Y-119692815D01*
X130350706Y-119640011D01*
X130339500Y-119588500D01*
X130339500Y-108966146D01*
X130359185Y-108899107D01*
X130375814Y-108878470D01*
X135027819Y-104226464D01*
X135089142Y-104192980D01*
X135158834Y-104197964D01*
X135214767Y-104239836D01*
X135239184Y-104305300D01*
X135239500Y-104314146D01*
X135239500Y-105374078D01*
X135219815Y-105441117D01*
X135207650Y-105457050D01*
X135157466Y-105512785D01*
X135062821Y-105676715D01*
X135062818Y-105676722D01*
X135004327Y-105856740D01*
X135004326Y-105856744D01*
X134984540Y-106045000D01*
X135004326Y-106233256D01*
X135004327Y-106233259D01*
X135062818Y-106413277D01*
X135062821Y-106413284D01*
X135157467Y-106577216D01*
X135236247Y-106664710D01*
X135284129Y-106717888D01*
X135437265Y-106829148D01*
X135437270Y-106829151D01*
X135610192Y-106906142D01*
X135610197Y-106906144D01*
X135795354Y-106945500D01*
X135795355Y-106945500D01*
X135984644Y-106945500D01*
X135984646Y-106945500D01*
X136169803Y-106906144D01*
X136342730Y-106829151D01*
X136495871Y-106717888D01*
X136622533Y-106577216D01*
X136717179Y-106413284D01*
X136775674Y-106233256D01*
X136795460Y-106045000D01*
X136775674Y-105856744D01*
X136717179Y-105676716D01*
X136622533Y-105512784D01*
X136572350Y-105457050D01*
X136542120Y-105394058D01*
X136540500Y-105374078D01*
X136540500Y-104175921D01*
X136560185Y-104108882D01*
X136572351Y-104092948D01*
X136622533Y-104037216D01*
X136717179Y-103873284D01*
X136775674Y-103693256D01*
X136795460Y-103505000D01*
X136775674Y-103316744D01*
X136717179Y-103136716D01*
X136622533Y-102972784D01*
X136572670Y-102917406D01*
X136539690Y-102880777D01*
X136509460Y-102817785D01*
X136518086Y-102748450D01*
X136544156Y-102710127D01*
X138051786Y-101202497D01*
X138064048Y-101192675D01*
X138063865Y-101192454D01*
X138069867Y-101187487D01*
X138069877Y-101187481D01*
X138117241Y-101137043D01*
X138138120Y-101116165D01*
X138142373Y-101110681D01*
X138146150Y-101106258D01*
X138178062Y-101072277D01*
X138187714Y-101054718D01*
X138198389Y-101038467D01*
X138210674Y-101022631D01*
X138229186Y-100979847D01*
X138231742Y-100974630D01*
X138254197Y-100933787D01*
X138259180Y-100914375D01*
X138265477Y-100895986D01*
X138273438Y-100877590D01*
X138280729Y-100831548D01*
X138281908Y-100825857D01*
X138293500Y-100780714D01*
X138293500Y-100760678D01*
X138295027Y-100741277D01*
X138298160Y-100721499D01*
X138293775Y-100675110D01*
X138293500Y-100669272D01*
X138293500Y-90677771D01*
X138313185Y-90610732D01*
X138329814Y-90590095D01*
X144217486Y-84702422D01*
X144229748Y-84692600D01*
X144229565Y-84692379D01*
X144235567Y-84687412D01*
X144235577Y-84687406D01*
X144282941Y-84636968D01*
X144303820Y-84616090D01*
X144308073Y-84610606D01*
X144311850Y-84606183D01*
X144343762Y-84572202D01*
X144353414Y-84554643D01*
X144364089Y-84538392D01*
X144376374Y-84522556D01*
X144394886Y-84479772D01*
X144397442Y-84474555D01*
X144419897Y-84433712D01*
X144424880Y-84414300D01*
X144431177Y-84395911D01*
X144439138Y-84377515D01*
X144446429Y-84331473D01*
X144447608Y-84325782D01*
X144459200Y-84280639D01*
X144459200Y-84260603D01*
X144460727Y-84241202D01*
X144463860Y-84221424D01*
X144459907Y-84179610D01*
X144459475Y-84175035D01*
X144459200Y-84169197D01*
X144459200Y-80732142D01*
X144460924Y-80716522D01*
X144460639Y-80716495D01*
X144461373Y-80708733D01*
X144459597Y-80652200D01*
X144459200Y-80639571D01*
X144459200Y-80610050D01*
X144458331Y-80603179D01*
X144457873Y-80597352D01*
X144457571Y-80587740D01*
X144456410Y-80550773D01*
X144450819Y-80531530D01*
X144446873Y-80512478D01*
X144444364Y-80492608D01*
X144427204Y-80449267D01*
X144425324Y-80443779D01*
X144412318Y-80399010D01*
X144402122Y-80381770D01*
X144393561Y-80364294D01*
X144386187Y-80345670D01*
X144386186Y-80345668D01*
X144358779Y-80307945D01*
X144355588Y-80303086D01*
X144331872Y-80262983D01*
X144331865Y-80262974D01*
X144317706Y-80248815D01*
X144305068Y-80234019D01*
X144295378Y-80220682D01*
X144293294Y-80217813D01*
X144257388Y-80188109D01*
X144253076Y-80184186D01*
X144046917Y-79978026D01*
X144013432Y-79916703D01*
X144011862Y-79902102D01*
X144011277Y-79902164D01*
X144004083Y-79833716D01*
X143990262Y-79702218D01*
X143930144Y-79517192D01*
X143930143Y-79517191D01*
X143930143Y-79517189D01*
X143930142Y-79517188D01*
X143832871Y-79348709D01*
X143829150Y-79343588D01*
X143805668Y-79277783D01*
X143821492Y-79209728D01*
X143829150Y-79197812D01*
X143832871Y-79192690D01*
X143930142Y-79024211D01*
X143930143Y-79024210D01*
X143930144Y-79024208D01*
X143990262Y-78839182D01*
X144010598Y-78645700D01*
X143990262Y-78452218D01*
X143930144Y-78267192D01*
X143930143Y-78267191D01*
X143930143Y-78267189D01*
X143930142Y-78267188D01*
X143896202Y-78208403D01*
X143832870Y-78098708D01*
X143781882Y-78042081D01*
X143702697Y-77954135D01*
X143702694Y-77954133D01*
X143702693Y-77954132D01*
X143702692Y-77954131D01*
X143623995Y-77896954D01*
X143545297Y-77839776D01*
X143408848Y-77779026D01*
X143367571Y-77760649D01*
X143367569Y-77760648D01*
X143177274Y-77720200D01*
X142982726Y-77720200D01*
X142792431Y-77760648D01*
X142614702Y-77839776D01*
X142457305Y-77954133D01*
X142457302Y-77954135D01*
X142327129Y-78098709D01*
X142229857Y-78267188D01*
X142229856Y-78267189D01*
X142169738Y-78452216D01*
X142149402Y-78645700D01*
X142169738Y-78839183D01*
X142229856Y-79024210D01*
X142229857Y-79024211D01*
X142327132Y-79192696D01*
X142330853Y-79197818D01*
X142354331Y-79263625D01*
X142338504Y-79331678D01*
X142330853Y-79343582D01*
X142327132Y-79348703D01*
X142229857Y-79517188D01*
X142229856Y-79517189D01*
X142169738Y-79702216D01*
X142149402Y-79895700D01*
X142169738Y-80089183D01*
X142229856Y-80274210D01*
X142229857Y-80274211D01*
X142327132Y-80442696D01*
X142330853Y-80447818D01*
X142354331Y-80513625D01*
X142338504Y-80581678D01*
X142330853Y-80593582D01*
X142327132Y-80598703D01*
X142229857Y-80767188D01*
X142229856Y-80767189D01*
X142169738Y-80952216D01*
X142148723Y-81152163D01*
X142146015Y-81151878D01*
X142129717Y-81207384D01*
X142113083Y-81228026D01*
X140106014Y-83235094D01*
X140044691Y-83268579D01*
X139974999Y-83263595D01*
X139919066Y-83221723D01*
X139895012Y-83160375D01*
X139876774Y-82986844D01*
X139818279Y-82806816D01*
X139723633Y-82642884D01*
X139596971Y-82502212D01*
X139596963Y-82502206D01*
X139443834Y-82390951D01*
X139443829Y-82390948D01*
X139270907Y-82313957D01*
X139270902Y-82313955D01*
X139125101Y-82282965D01*
X139085746Y-82274600D01*
X138896454Y-82274600D01*
X138863997Y-82281498D01*
X138711297Y-82313955D01*
X138711292Y-82313957D01*
X138538370Y-82390948D01*
X138538365Y-82390951D01*
X138385235Y-82502206D01*
X138385227Y-82502213D01*
X138379410Y-82508674D01*
X138319923Y-82545321D01*
X138287262Y-82549700D01*
X118583543Y-82549700D01*
X118567922Y-82547975D01*
X118567896Y-82548261D01*
X118560134Y-82547527D01*
X118560133Y-82547527D01*
X118490986Y-82549700D01*
X118461449Y-82549700D01*
X118454566Y-82550569D01*
X118448749Y-82551026D01*
X118402173Y-82552490D01*
X118382929Y-82558081D01*
X118363879Y-82562025D01*
X118344011Y-82564534D01*
X118300684Y-82581688D01*
X118295158Y-82583579D01*
X118250414Y-82596579D01*
X118250410Y-82596581D01*
X118233166Y-82606779D01*
X118215705Y-82615333D01*
X118197074Y-82622710D01*
X118197062Y-82622717D01*
X118159370Y-82650102D01*
X118154487Y-82653309D01*
X118114380Y-82677029D01*
X118100214Y-82691195D01*
X118085424Y-82703827D01*
X118069214Y-82715604D01*
X118069211Y-82715607D01*
X118039510Y-82751509D01*
X118035577Y-82755831D01*
X111911393Y-88880014D01*
X111850070Y-88913499D01*
X111811560Y-88915736D01*
X111760002Y-88910659D01*
X111760000Y-88910659D01*
X111563870Y-88929975D01*
X111434462Y-88969231D01*
X111375273Y-88987186D01*
X111375272Y-88987186D01*
X111375267Y-88987188D01*
X111373143Y-88988324D01*
X111371898Y-88988583D01*
X111369641Y-88989518D01*
X111369463Y-88989089D01*
X111304740Y-89002564D01*
X111240382Y-88978231D01*
X111232331Y-88972204D01*
X111232328Y-88972202D01*
X111097482Y-88921908D01*
X111097483Y-88921908D01*
X111037883Y-88915501D01*
X111037881Y-88915500D01*
X111037873Y-88915500D01*
X111037865Y-88915500D01*
X110425453Y-88915500D01*
X110358414Y-88895815D01*
X110337772Y-88879181D01*
X109593803Y-88135212D01*
X109583980Y-88122950D01*
X109583759Y-88123134D01*
X109578786Y-88117123D01*
X109528364Y-88069773D01*
X109517919Y-88059328D01*
X109507475Y-88048883D01*
X109501986Y-88044625D01*
X109497561Y-88040847D01*
X109463582Y-88008938D01*
X109463580Y-88008936D01*
X109463577Y-88008935D01*
X109446029Y-87999288D01*
X109429763Y-87988604D01*
X109413933Y-87976325D01*
X109371168Y-87957818D01*
X109365922Y-87955248D01*
X109325093Y-87932803D01*
X109325092Y-87932802D01*
X109305693Y-87927822D01*
X109287281Y-87921518D01*
X109268898Y-87913562D01*
X109268892Y-87913560D01*
X109222874Y-87906272D01*
X109217152Y-87905087D01*
X109172021Y-87893500D01*
X109172019Y-87893500D01*
X109151984Y-87893500D01*
X109132586Y-87891973D01*
X109125162Y-87890797D01*
X109112805Y-87888840D01*
X109112804Y-87888840D01*
X109066416Y-87893225D01*
X109060578Y-87893500D01*
X100804754Y-87893500D01*
X100737715Y-87873815D01*
X100691960Y-87821011D01*
X100682016Y-87751853D01*
X100684548Y-87739060D01*
X100695666Y-87695156D01*
X100729826Y-87560260D01*
X100745748Y-87368107D01*
X100749403Y-87324005D01*
X100749403Y-87323994D01*
X100729826Y-87087743D01*
X100729826Y-87087740D01*
X100671629Y-86857925D01*
X100622369Y-86745625D01*
X100576399Y-86640824D01*
X100446734Y-86442355D01*
X100286175Y-86267943D01*
X100286172Y-86267940D01*
X100099088Y-86122327D01*
X99890595Y-86009496D01*
X99890587Y-86009493D01*
X99666373Y-85932520D01*
X99432535Y-85893500D01*
X99195465Y-85893500D01*
X98961626Y-85932520D01*
X98737412Y-86009493D01*
X98737404Y-86009496D01*
X98528911Y-86122327D01*
X98341827Y-86267940D01*
X98341824Y-86267943D01*
X98181265Y-86442355D01*
X98051600Y-86640824D01*
X97956370Y-86857924D01*
X97898173Y-87087743D01*
X97878597Y-87323994D01*
X97878597Y-87324005D01*
X97898173Y-87560256D01*
X97943452Y-87739060D01*
X97940827Y-87808880D01*
X97900870Y-87866198D01*
X97836269Y-87892814D01*
X97823246Y-87893500D01*
X76891453Y-87893500D01*
X76824414Y-87873815D01*
X76803772Y-87857181D01*
X76659730Y-87713139D01*
X76644853Y-87695156D01*
X76564827Y-87577401D01*
X76564822Y-87577395D01*
X76441544Y-87468710D01*
X76441539Y-87468706D01*
X76405533Y-87450360D01*
X76374148Y-87427557D01*
X73582960Y-84636369D01*
X73549475Y-84575046D01*
X73547323Y-84561668D01*
X73529674Y-84393744D01*
X73471179Y-84213716D01*
X73376533Y-84049784D01*
X73249871Y-83909112D01*
X73249870Y-83909111D01*
X73096734Y-83797851D01*
X73096729Y-83797848D01*
X72923807Y-83720857D01*
X72923802Y-83720855D01*
X72733374Y-83680379D01*
X72671892Y-83647187D01*
X72638116Y-83586024D01*
X72642768Y-83516309D01*
X72684373Y-83460177D01*
X72733372Y-83437799D01*
X72826960Y-83417907D01*
X72853567Y-83412252D01*
X72853567Y-83412251D01*
X72853571Y-83412251D01*
X73031299Y-83333122D01*
X73188692Y-83218769D01*
X73318870Y-83074192D01*
X73416144Y-82905708D01*
X73476262Y-82720682D01*
X73496598Y-82527200D01*
X73476262Y-82333718D01*
X73416144Y-82148692D01*
X73416143Y-82148691D01*
X73416143Y-82148689D01*
X73416142Y-82148688D01*
X73318871Y-81980209D01*
X73315150Y-81975088D01*
X73291668Y-81909283D01*
X73307492Y-81841228D01*
X73315150Y-81829312D01*
X73318871Y-81824190D01*
X73416144Y-81655708D01*
X73476262Y-81470682D01*
X73496598Y-81277200D01*
X73476262Y-81083718D01*
X73416144Y-80898692D01*
X73416143Y-80898691D01*
X73416143Y-80898689D01*
X73416142Y-80898688D01*
X73373024Y-80824005D01*
X97878597Y-80824005D01*
X97898173Y-81060256D01*
X97956370Y-81290075D01*
X98051600Y-81507175D01*
X98181265Y-81705644D01*
X98295116Y-81829318D01*
X98341828Y-81880060D01*
X98528909Y-82025671D01*
X98737405Y-82138504D01*
X98961629Y-82215480D01*
X99195465Y-82254500D01*
X99432535Y-82254500D01*
X99666371Y-82215480D01*
X99890595Y-82138504D01*
X100099091Y-82025671D01*
X100286172Y-81880060D01*
X100446735Y-81705643D01*
X100576399Y-81507176D01*
X100671629Y-81290075D01*
X100729826Y-81060260D01*
X100749403Y-80824000D01*
X100744695Y-80767188D01*
X100742944Y-80746056D01*
X123503500Y-80746056D01*
X123522710Y-80823994D01*
X123544210Y-80911226D01*
X123623263Y-81061849D01*
X123652026Y-81094316D01*
X123736071Y-81189183D01*
X123826318Y-81251476D01*
X123876068Y-81285817D01*
X123876069Y-81285817D01*
X123876070Y-81285818D01*
X124035128Y-81346140D01*
X124111028Y-81355356D01*
X124161626Y-81361500D01*
X124161628Y-81361500D01*
X124246374Y-81361500D01*
X124288538Y-81356380D01*
X124372872Y-81346140D01*
X124531930Y-81285818D01*
X124671929Y-81189183D01*
X124784734Y-81061852D01*
X124863790Y-80911225D01*
X124904500Y-80746056D01*
X131503500Y-80746056D01*
X131522710Y-80823994D01*
X131544210Y-80911226D01*
X131623263Y-81061849D01*
X131652026Y-81094316D01*
X131736071Y-81189183D01*
X131826318Y-81251476D01*
X131876068Y-81285817D01*
X131876069Y-81285817D01*
X131876070Y-81285818D01*
X132035128Y-81346140D01*
X132111028Y-81355356D01*
X132161626Y-81361500D01*
X132161628Y-81361500D01*
X132246374Y-81361500D01*
X132288538Y-81356380D01*
X132372872Y-81346140D01*
X132531930Y-81285818D01*
X132671929Y-81189183D01*
X132784734Y-81061852D01*
X132863790Y-80911225D01*
X132904500Y-80746056D01*
X132904500Y-80575944D01*
X132863790Y-80410775D01*
X132857613Y-80399006D01*
X132784736Y-80260150D01*
X132749770Y-80220682D01*
X132671929Y-80132817D01*
X132608713Y-80089182D01*
X132531931Y-80036182D01*
X132372874Y-79975860D01*
X132372868Y-79975859D01*
X132246374Y-79960500D01*
X132246372Y-79960500D01*
X132161628Y-79960500D01*
X132161626Y-79960500D01*
X132035131Y-79975859D01*
X132035125Y-79975860D01*
X131876068Y-80036182D01*
X131736072Y-80132816D01*
X131623263Y-80260150D01*
X131544210Y-80410773D01*
X131519145Y-80512469D01*
X131503500Y-80575944D01*
X131503500Y-80746056D01*
X124904500Y-80746056D01*
X124904500Y-80575944D01*
X124863790Y-80410775D01*
X124857613Y-80399006D01*
X124784736Y-80260150D01*
X124749770Y-80220682D01*
X124671929Y-80132817D01*
X124608713Y-80089182D01*
X124531931Y-80036182D01*
X124372874Y-79975860D01*
X124372868Y-79975859D01*
X124246374Y-79960500D01*
X124246372Y-79960500D01*
X124161628Y-79960500D01*
X124161626Y-79960500D01*
X124035131Y-79975859D01*
X124035125Y-79975860D01*
X123876068Y-80036182D01*
X123736072Y-80132816D01*
X123623263Y-80260150D01*
X123544210Y-80410773D01*
X123519145Y-80512469D01*
X123503500Y-80575944D01*
X123503500Y-80746056D01*
X100742944Y-80746056D01*
X100731675Y-80610056D01*
X100729826Y-80587740D01*
X100677668Y-80381771D01*
X100671629Y-80357924D01*
X100576399Y-80140824D01*
X100446734Y-79942355D01*
X100286175Y-79767943D01*
X100286172Y-79767940D01*
X100099088Y-79622327D01*
X99890595Y-79509496D01*
X99890587Y-79509493D01*
X99666373Y-79432520D01*
X99432535Y-79393500D01*
X99195465Y-79393500D01*
X98961626Y-79432520D01*
X98737412Y-79509493D01*
X98737404Y-79509496D01*
X98528911Y-79622327D01*
X98341827Y-79767940D01*
X98341824Y-79767943D01*
X98181265Y-79942355D01*
X98051600Y-80140824D01*
X97956370Y-80357924D01*
X97898173Y-80587743D01*
X97878597Y-80823994D01*
X97878597Y-80824005D01*
X73373024Y-80824005D01*
X73318871Y-80730209D01*
X73315150Y-80725088D01*
X73291668Y-80659283D01*
X73307492Y-80591228D01*
X73315150Y-80579312D01*
X73318871Y-80574190D01*
X73332391Y-80550773D01*
X73416144Y-80405708D01*
X73476262Y-80220682D01*
X73496598Y-80027200D01*
X73476262Y-79833718D01*
X73416144Y-79648692D01*
X73398612Y-79618327D01*
X73382140Y-79550428D01*
X73404993Y-79484401D01*
X73406718Y-79482037D01*
X73434796Y-79444531D01*
X73485091Y-79309683D01*
X73491500Y-79250073D01*
X73491499Y-78304328D01*
X73485091Y-78244717D01*
X73434796Y-78109869D01*
X73434795Y-78109868D01*
X73434793Y-78109864D01*
X73348547Y-77994655D01*
X73348544Y-77994652D01*
X73233335Y-77908406D01*
X73233328Y-77908402D01*
X73098482Y-77858108D01*
X73098483Y-77858108D01*
X73038883Y-77851701D01*
X73038881Y-77851700D01*
X73038873Y-77851700D01*
X73038864Y-77851700D01*
X72093129Y-77851700D01*
X72093123Y-77851701D01*
X72033516Y-77858108D01*
X71898671Y-77908402D01*
X71898664Y-77908406D01*
X71783455Y-77994652D01*
X71783452Y-77994655D01*
X71697206Y-78109864D01*
X71697202Y-78109871D01*
X71646908Y-78244717D01*
X71640501Y-78304316D01*
X71640501Y-78304323D01*
X71640500Y-78304335D01*
X71640500Y-79250070D01*
X71640501Y-79250076D01*
X71646908Y-79309683D01*
X71697202Y-79444528D01*
X71697203Y-79444529D01*
X71697204Y-79444531D01*
X71725265Y-79482016D01*
X71725266Y-79482017D01*
X71749683Y-79547481D01*
X71734831Y-79615754D01*
X71733386Y-79618328D01*
X71715857Y-79648688D01*
X71715856Y-79648689D01*
X71655738Y-79833716D01*
X71635402Y-80027200D01*
X71655738Y-80220683D01*
X71715856Y-80405710D01*
X71715857Y-80405711D01*
X71813132Y-80574196D01*
X71816853Y-80579318D01*
X71840331Y-80645125D01*
X71824504Y-80713178D01*
X71816853Y-80725082D01*
X71813132Y-80730203D01*
X71715857Y-80898688D01*
X71715856Y-80898689D01*
X71655738Y-81083716D01*
X71635402Y-81277200D01*
X71655738Y-81470683D01*
X71715856Y-81655710D01*
X71715857Y-81655711D01*
X71813132Y-81824196D01*
X71816853Y-81829318D01*
X71840331Y-81895125D01*
X71824504Y-81963178D01*
X71816853Y-81975082D01*
X71813132Y-81980203D01*
X71715857Y-82148688D01*
X71715856Y-82148689D01*
X71655738Y-82333716D01*
X71635402Y-82527200D01*
X71655738Y-82720683D01*
X71715856Y-82905710D01*
X71715857Y-82905711D01*
X71796159Y-83044797D01*
X71813130Y-83074192D01*
X71858476Y-83124554D01*
X71943302Y-83218764D01*
X71943305Y-83218766D01*
X71943308Y-83218769D01*
X72061352Y-83304533D01*
X72100702Y-83333123D01*
X72168608Y-83363356D01*
X72278429Y-83412251D01*
X72468726Y-83452700D01*
X72475082Y-83454051D01*
X72474571Y-83456452D01*
X72528944Y-83478824D01*
X72568927Y-83536123D01*
X72571585Y-83605942D01*
X72536074Y-83666114D01*
X72477146Y-83696848D01*
X72364197Y-83720855D01*
X72364192Y-83720857D01*
X72191270Y-83797848D01*
X72191265Y-83797851D01*
X72038129Y-83909111D01*
X71911466Y-84049785D01*
X71816821Y-84213715D01*
X71816821Y-84213716D01*
X71814317Y-84221424D01*
X71758326Y-84393744D01*
X71738540Y-84582000D01*
X71758326Y-84770256D01*
X71758327Y-84770259D01*
X71816818Y-84950277D01*
X71816821Y-84950284D01*
X71911467Y-85114216D01*
X72038129Y-85254888D01*
X72191265Y-85366148D01*
X72191270Y-85366151D01*
X72364192Y-85443142D01*
X72364197Y-85443144D01*
X72549354Y-85482500D01*
X72608548Y-85482500D01*
X72675587Y-85502185D01*
X72696229Y-85518819D01*
X75083050Y-87905641D01*
X75116535Y-87966964D01*
X75111551Y-88036656D01*
X75083050Y-88081003D01*
X74213181Y-88950872D01*
X74151858Y-88984357D01*
X74082166Y-88979373D01*
X74026233Y-88937501D01*
X74001816Y-88872037D01*
X74001500Y-88863191D01*
X74001500Y-88036823D01*
X73996481Y-87971449D01*
X73986516Y-87841656D01*
X73927021Y-87587414D01*
X73927018Y-87587406D01*
X73829418Y-87345241D01*
X73829413Y-87345232D01*
X73797224Y-87291089D01*
X73695982Y-87120792D01*
X73529852Y-86919348D01*
X73529849Y-86919345D01*
X73334928Y-86745631D01*
X73334911Y-86745618D01*
X73115757Y-86603695D01*
X73115753Y-86603694D01*
X72877488Y-86496881D01*
X72625714Y-86427693D01*
X72452946Y-86407748D01*
X72366325Y-86397748D01*
X72366324Y-86397748D01*
X72105406Y-86407748D01*
X71849071Y-86457462D01*
X71849069Y-86457462D01*
X71603336Y-86545718D01*
X71373939Y-86670461D01*
X71166288Y-86828746D01*
X71166284Y-86828749D01*
X71166284Y-86828750D01*
X71079093Y-86919348D01*
X70985223Y-87016885D01*
X70985214Y-87016895D01*
X70835010Y-87230441D01*
X70834999Y-87230460D01*
X70719139Y-87464455D01*
X70646131Y-87695156D01*
X70640359Y-87713395D01*
X70600500Y-87971445D01*
X70600500Y-89907177D01*
X70612628Y-90065151D01*
X70615484Y-90102342D01*
X70615484Y-90102347D01*
X70674978Y-90356583D01*
X70674981Y-90356593D01*
X70772581Y-90598758D01*
X70772586Y-90598767D01*
X70827251Y-90690716D01*
X70906018Y-90823208D01*
X71069228Y-91021111D01*
X71072150Y-91024654D01*
X71267071Y-91198368D01*
X71267088Y-91198381D01*
X71305751Y-91223419D01*
X71351322Y-91276382D01*
X71361025Y-91345574D01*
X71331779Y-91409029D01*
X71272869Y-91446598D01*
X71238349Y-91451500D01*
X70167705Y-91451500D01*
X70149735Y-91450191D01*
X70125972Y-91446710D01*
X70080533Y-91450686D01*
X70073931Y-91451264D01*
X70068530Y-91451500D01*
X70060289Y-91451500D01*
X70038579Y-91454037D01*
X70027724Y-91455306D01*
X70012419Y-91456645D01*
X69951199Y-91462001D01*
X69944132Y-91463460D01*
X69944120Y-91463404D01*
X69936763Y-91465035D01*
X69936777Y-91465092D01*
X69929743Y-91466759D01*
X69857575Y-91493025D01*
X69784665Y-91517185D01*
X69778126Y-91520235D01*
X69778101Y-91520183D01*
X69771308Y-91523471D01*
X69771334Y-91523522D01*
X69764884Y-91526761D01*
X69700716Y-91568964D01*
X69635347Y-91609285D01*
X69629677Y-91613769D01*
X69629641Y-91613723D01*
X69623798Y-91618484D01*
X69623835Y-91618528D01*
X69618310Y-91623164D01*
X69618304Y-91623169D01*
X69618304Y-91623170D01*
X69606078Y-91636129D01*
X69565614Y-91679017D01*
X68602358Y-92642272D01*
X68588729Y-92654051D01*
X68569468Y-92668390D01*
X68535898Y-92708397D01*
X68532253Y-92712376D01*
X68526409Y-92718222D01*
X68506059Y-92743959D01*
X68456695Y-92802789D01*
X68452729Y-92808819D01*
X68452682Y-92808788D01*
X68448630Y-92815147D01*
X68448679Y-92815177D01*
X68444889Y-92821321D01*
X68412424Y-92890941D01*
X68377960Y-92959566D01*
X68375488Y-92966357D01*
X68375432Y-92966336D01*
X68372960Y-92973450D01*
X68373015Y-92973469D01*
X68370742Y-92980327D01*
X68367282Y-92997087D01*
X68355207Y-93055565D01*
X68343796Y-93103715D01*
X68337498Y-93130286D01*
X68336661Y-93137454D01*
X68336601Y-93137447D01*
X68335835Y-93144945D01*
X68335895Y-93144951D01*
X68335265Y-93152140D01*
X68337500Y-93228916D01*
X68337500Y-123224358D01*
X68337395Y-123227963D01*
X68333669Y-123291933D01*
X68344255Y-123351967D01*
X68336511Y-123421406D01*
X68292455Y-123475635D01*
X68226074Y-123497438D01*
X68222139Y-123497500D01*
X68142500Y-123497500D01*
X68075461Y-123477815D01*
X68029706Y-123425011D01*
X68018500Y-123373500D01*
X68018500Y-75762500D01*
X68038185Y-75695461D01*
X68090989Y-75649706D01*
X68142500Y-75638500D01*
X101835733Y-75638500D01*
X146947892Y-76443255D01*
G37*
%TD.AperFunction*%
%TA.AperFunction,Conductor*%
G36*
X133071554Y-88472885D02*
G01*
X133117309Y-88525689D01*
X133127253Y-88594847D01*
X133098228Y-88658403D01*
X133077400Y-88677518D01*
X132998132Y-88735109D01*
X132963165Y-88773943D01*
X132916662Y-88806262D01*
X132895884Y-88814488D01*
X132890357Y-88816380D01*
X132845610Y-88829381D01*
X132845609Y-88829382D01*
X132828367Y-88839579D01*
X132810899Y-88848137D01*
X132792269Y-88855513D01*
X132792267Y-88855514D01*
X132754576Y-88882898D01*
X132749694Y-88886105D01*
X132709579Y-88909830D01*
X132695408Y-88924000D01*
X132680623Y-88936628D01*
X132664412Y-88948407D01*
X132634709Y-88984310D01*
X132630776Y-88988631D01*
X126027537Y-95591872D01*
X119432228Y-102187181D01*
X119370905Y-102220666D01*
X119344547Y-102223500D01*
X119285354Y-102223500D01*
X119278575Y-102224941D01*
X119100197Y-102262855D01*
X119100192Y-102262857D01*
X118927270Y-102339848D01*
X118927265Y-102339851D01*
X118774129Y-102451111D01*
X118647466Y-102591785D01*
X118552821Y-102755715D01*
X118552818Y-102755722D01*
X118494327Y-102935740D01*
X118494326Y-102935744D01*
X118474540Y-103124000D01*
X118494326Y-103312256D01*
X118494327Y-103312259D01*
X118552818Y-103492277D01*
X118552821Y-103492284D01*
X118647467Y-103656216D01*
X118774129Y-103796888D01*
X118781773Y-103802442D01*
X118824438Y-103857770D01*
X118830417Y-103927383D01*
X118797812Y-103989179D01*
X118796568Y-103990440D01*
X115520044Y-107266963D01*
X115458721Y-107300448D01*
X115389029Y-107295464D01*
X115381928Y-107292562D01*
X115345302Y-107276255D01*
X115178480Y-107240797D01*
X115160146Y-107236900D01*
X115160145Y-107236900D01*
X115153789Y-107235549D01*
X115154177Y-107233719D01*
X115097900Y-107210561D01*
X115057918Y-107153262D01*
X115052162Y-107126800D01*
X115037274Y-106985144D01*
X114978779Y-106805116D01*
X114884133Y-106641184D01*
X114866719Y-106621844D01*
X114808950Y-106557684D01*
X114778720Y-106494692D01*
X114777100Y-106474712D01*
X114777100Y-103026152D01*
X114796785Y-102959113D01*
X114813419Y-102938471D01*
X117240526Y-100511364D01*
X119685097Y-98066792D01*
X119746418Y-98033309D01*
X119816110Y-98038293D01*
X119845659Y-98054155D01*
X119862166Y-98066148D01*
X119862170Y-98066151D01*
X120035092Y-98143142D01*
X120035097Y-98143144D01*
X120220254Y-98182500D01*
X120220255Y-98182500D01*
X120409544Y-98182500D01*
X120409546Y-98182500D01*
X120594703Y-98143144D01*
X120767630Y-98066151D01*
X120920771Y-97954888D01*
X121047433Y-97814216D01*
X121142079Y-97650284D01*
X121200574Y-97470256D01*
X121220360Y-97282000D01*
X121200574Y-97093744D01*
X121142079Y-96913716D01*
X121047433Y-96749784D01*
X120920771Y-96609112D01*
X120920770Y-96609111D01*
X120767634Y-96497851D01*
X120767629Y-96497848D01*
X120594707Y-96420857D01*
X120594702Y-96420855D01*
X120448901Y-96389865D01*
X120409546Y-96381500D01*
X120220254Y-96381500D01*
X120187797Y-96388398D01*
X120035097Y-96420855D01*
X120035092Y-96420857D01*
X119862170Y-96497848D01*
X119862165Y-96497851D01*
X119709031Y-96609110D01*
X119704396Y-96614258D01*
X119644909Y-96650905D01*
X119616142Y-96655223D01*
X119575503Y-96656500D01*
X119545950Y-96656500D01*
X119545229Y-96656590D01*
X119539057Y-96657369D01*
X119533245Y-96657826D01*
X119486673Y-96659290D01*
X119486672Y-96659290D01*
X119467429Y-96664881D01*
X119448379Y-96668825D01*
X119428511Y-96671334D01*
X119428509Y-96671335D01*
X119385184Y-96688488D01*
X119379657Y-96690380D01*
X119334910Y-96703381D01*
X119334909Y-96703382D01*
X119317667Y-96713579D01*
X119300199Y-96722137D01*
X119281569Y-96729513D01*
X119281567Y-96729514D01*
X119243876Y-96756898D01*
X119238994Y-96760105D01*
X119198879Y-96783830D01*
X119184708Y-96798000D01*
X119169923Y-96810628D01*
X119153712Y-96822407D01*
X119124009Y-96858310D01*
X119120077Y-96862631D01*
X113767808Y-102214899D01*
X113755551Y-102224720D01*
X113755734Y-102224941D01*
X113749723Y-102229913D01*
X113702372Y-102280336D01*
X113681489Y-102301219D01*
X113681477Y-102301232D01*
X113677221Y-102306717D01*
X113673437Y-102311147D01*
X113641537Y-102345118D01*
X113641536Y-102345120D01*
X113631884Y-102362676D01*
X113621210Y-102378926D01*
X113608929Y-102394761D01*
X113608924Y-102394768D01*
X113590415Y-102437538D01*
X113587845Y-102442784D01*
X113565403Y-102483606D01*
X113560422Y-102503007D01*
X113554121Y-102521410D01*
X113546162Y-102539802D01*
X113546161Y-102539805D01*
X113538871Y-102585827D01*
X113537687Y-102591546D01*
X113526101Y-102636672D01*
X113526100Y-102636682D01*
X113526100Y-102656716D01*
X113524573Y-102676115D01*
X113521440Y-102695894D01*
X113521440Y-102695895D01*
X113525825Y-102742283D01*
X113526100Y-102748121D01*
X113526100Y-106474712D01*
X113506415Y-106541751D01*
X113494288Y-106557641D01*
X113494082Y-106557870D01*
X113434613Y-106594546D01*
X113364755Y-106593249D01*
X113314213Y-106562622D01*
X110669819Y-103918228D01*
X110636334Y-103856905D01*
X110633500Y-103830547D01*
X110633500Y-103776487D01*
X110653185Y-103709448D01*
X110665350Y-103693515D01*
X110683891Y-103672922D01*
X110740533Y-103610016D01*
X110835179Y-103446084D01*
X110893674Y-103266056D01*
X110913460Y-103077800D01*
X110893674Y-102889544D01*
X110835179Y-102709516D01*
X110740533Y-102545584D01*
X110613871Y-102404912D01*
X110599909Y-102394768D01*
X110460734Y-102293651D01*
X110460729Y-102293648D01*
X110287807Y-102216657D01*
X110287802Y-102216655D01*
X110142001Y-102185665D01*
X110102646Y-102177300D01*
X109913354Y-102177300D01*
X109880897Y-102184198D01*
X109728197Y-102216655D01*
X109728192Y-102216657D01*
X109555270Y-102293648D01*
X109555265Y-102293651D01*
X109402129Y-102404911D01*
X109275466Y-102545585D01*
X109180821Y-102709515D01*
X109180818Y-102709522D01*
X109122327Y-102889540D01*
X109122326Y-102889544D01*
X109102540Y-103077800D01*
X109122326Y-103266056D01*
X109122327Y-103266059D01*
X109180818Y-103446077D01*
X109180821Y-103446084D01*
X109275467Y-103610016D01*
X109317064Y-103656214D01*
X109350650Y-103693515D01*
X109380880Y-103756506D01*
X109382500Y-103776487D01*
X109382500Y-104004347D01*
X109362815Y-104071386D01*
X109310011Y-104117141D01*
X109240853Y-104127085D01*
X109177297Y-104098060D01*
X109170819Y-104092028D01*
X102824503Y-97745712D01*
X102814680Y-97733450D01*
X102814459Y-97733634D01*
X102809486Y-97727623D01*
X102759064Y-97680273D01*
X102746333Y-97667542D01*
X102738175Y-97659383D01*
X102732686Y-97655125D01*
X102728261Y-97651347D01*
X102694282Y-97619438D01*
X102694280Y-97619436D01*
X102694277Y-97619435D01*
X102676729Y-97609788D01*
X102660463Y-97599104D01*
X102644633Y-97586825D01*
X102601868Y-97568318D01*
X102596622Y-97565748D01*
X102555793Y-97543303D01*
X102555792Y-97543302D01*
X102536393Y-97538322D01*
X102517981Y-97532018D01*
X102499598Y-97524062D01*
X102499592Y-97524060D01*
X102453574Y-97516772D01*
X102447852Y-97515587D01*
X102402721Y-97504000D01*
X102402719Y-97504000D01*
X102382684Y-97504000D01*
X102363286Y-97502473D01*
X102355862Y-97501297D01*
X102343505Y-97499340D01*
X102343504Y-97499340D01*
X102297116Y-97503725D01*
X102291278Y-97504000D01*
X73493918Y-97504000D01*
X73426879Y-97484315D01*
X73381124Y-97431511D01*
X73371180Y-97362353D01*
X73386531Y-97318000D01*
X73416142Y-97266711D01*
X73416143Y-97266710D01*
X73416144Y-97266708D01*
X73476262Y-97081682D01*
X73496598Y-96888200D01*
X73496597Y-96888198D01*
X73497277Y-96881736D01*
X73499984Y-96882020D01*
X73516283Y-96826515D01*
X73532917Y-96805873D01*
X74338272Y-96000519D01*
X74399595Y-95967034D01*
X74425953Y-95964200D01*
X105110044Y-95964200D01*
X105177083Y-95983885D01*
X105222838Y-96036689D01*
X105233364Y-96101160D01*
X105216040Y-96266000D01*
X105235826Y-96454256D01*
X105235827Y-96454259D01*
X105294318Y-96634277D01*
X105294321Y-96634284D01*
X105388967Y-96798216D01*
X105446967Y-96862631D01*
X105491011Y-96911547D01*
X105514154Y-96948873D01*
X105527989Y-96983818D01*
X105529882Y-96989346D01*
X105534676Y-97005848D01*
X105542882Y-97034090D01*
X105551058Y-97047916D01*
X105553080Y-97051334D01*
X105561638Y-97068803D01*
X105569014Y-97087432D01*
X105596398Y-97125123D01*
X105599606Y-97130007D01*
X105623327Y-97170116D01*
X105623333Y-97170124D01*
X105637490Y-97184280D01*
X105650128Y-97199076D01*
X105661905Y-97215286D01*
X105661906Y-97215287D01*
X105697809Y-97244988D01*
X105702120Y-97248910D01*
X108005057Y-99551848D01*
X108734838Y-100281629D01*
X108768323Y-100342952D01*
X108770478Y-100356348D01*
X108774744Y-100396936D01*
X108788126Y-100524256D01*
X108788127Y-100524259D01*
X108846618Y-100704277D01*
X108846621Y-100704284D01*
X108941267Y-100868216D01*
X109067929Y-101008888D01*
X109221065Y-101120148D01*
X109221070Y-101120151D01*
X109393992Y-101197142D01*
X109393997Y-101197144D01*
X109579154Y-101236500D01*
X109579155Y-101236500D01*
X109768444Y-101236500D01*
X109768446Y-101236500D01*
X109953603Y-101197144D01*
X110126530Y-101120151D01*
X110279671Y-101008888D01*
X110406333Y-100868216D01*
X110500979Y-100704284D01*
X110559474Y-100524256D01*
X110579260Y-100336000D01*
X110559474Y-100147744D01*
X110500979Y-99967716D01*
X110406333Y-99803784D01*
X110279671Y-99663112D01*
X110279670Y-99663111D01*
X110126534Y-99551851D01*
X110126529Y-99551848D01*
X109953607Y-99474857D01*
X109953602Y-99474855D01*
X109807801Y-99443865D01*
X109768446Y-99435500D01*
X109768445Y-99435500D01*
X109709252Y-99435500D01*
X109642213Y-99415815D01*
X109621571Y-99399181D01*
X106979847Y-96757456D01*
X106946362Y-96696133D01*
X106949596Y-96631459D01*
X107007174Y-96454256D01*
X107026960Y-96266000D01*
X107009635Y-96101160D01*
X107022205Y-96032431D01*
X107069937Y-95981408D01*
X107132956Y-95964200D01*
X107524557Y-95964200D01*
X107540177Y-95965924D01*
X107540204Y-95965639D01*
X107547960Y-95966371D01*
X107547967Y-95966373D01*
X107617114Y-95964200D01*
X107646650Y-95964200D01*
X107653528Y-95963330D01*
X107659341Y-95962872D01*
X107705927Y-95961409D01*
X107725169Y-95955817D01*
X107744212Y-95951874D01*
X107764092Y-95949364D01*
X107807422Y-95932207D01*
X107812946Y-95930317D01*
X107816696Y-95929227D01*
X107857690Y-95917318D01*
X107874929Y-95907122D01*
X107892403Y-95898562D01*
X107911027Y-95891188D01*
X107911027Y-95891187D01*
X107911032Y-95891186D01*
X107948749Y-95863782D01*
X107953605Y-95860592D01*
X107993720Y-95836870D01*
X108007889Y-95822699D01*
X108022679Y-95810068D01*
X108038887Y-95798294D01*
X108068599Y-95762376D01*
X108072512Y-95758076D01*
X112878607Y-90951982D01*
X112939928Y-90918499D01*
X112978437Y-90916262D01*
X113030000Y-90921341D01*
X113226132Y-90902024D01*
X113414727Y-90844814D01*
X113588538Y-90751910D01*
X113689137Y-90669349D01*
X113753444Y-90642038D01*
X113822312Y-90653829D01*
X113873872Y-90700980D01*
X113891800Y-90765204D01*
X113891800Y-91714195D01*
X113872115Y-91781234D01*
X113859950Y-91797167D01*
X113796366Y-91867784D01*
X113701721Y-92031715D01*
X113701718Y-92031722D01*
X113643227Y-92211740D01*
X113643226Y-92211744D01*
X113623440Y-92400000D01*
X113643226Y-92588256D01*
X113643227Y-92588259D01*
X113701718Y-92768277D01*
X113701721Y-92768284D01*
X113796367Y-92932216D01*
X113900275Y-93047617D01*
X113923029Y-93072888D01*
X114025659Y-93147453D01*
X114068325Y-93202783D01*
X114074304Y-93272396D01*
X114041698Y-93334191D01*
X114040455Y-93335452D01*
X111366922Y-96008986D01*
X111305599Y-96042471D01*
X111235907Y-96037487D01*
X111187088Y-96004273D01*
X111182172Y-95998813D01*
X111182169Y-95998810D01*
X111029034Y-95887551D01*
X111029029Y-95887548D01*
X110856107Y-95810557D01*
X110856102Y-95810555D01*
X110710301Y-95779565D01*
X110670946Y-95771200D01*
X110481654Y-95771200D01*
X110449197Y-95778098D01*
X110296497Y-95810555D01*
X110296492Y-95810557D01*
X110123570Y-95887548D01*
X110123565Y-95887551D01*
X109970429Y-95998811D01*
X109843766Y-96139485D01*
X109749121Y-96303415D01*
X109749118Y-96303422D01*
X109690627Y-96483440D01*
X109690626Y-96483444D01*
X109670840Y-96671700D01*
X109690626Y-96859956D01*
X109690627Y-96859959D01*
X109749118Y-97039977D01*
X109749121Y-97039984D01*
X109843767Y-97203916D01*
X109937148Y-97307626D01*
X109970429Y-97344588D01*
X110123565Y-97455848D01*
X110123570Y-97455851D01*
X110296492Y-97532842D01*
X110296497Y-97532844D01*
X110481654Y-97572200D01*
X110481655Y-97572200D01*
X110670944Y-97572200D01*
X110670946Y-97572200D01*
X110856103Y-97532844D01*
X111029030Y-97455851D01*
X111182171Y-97344588D01*
X111185088Y-97341347D01*
X111187900Y-97338226D01*
X111247387Y-97301579D01*
X111280048Y-97297200D01*
X111506057Y-97297200D01*
X111521677Y-97298924D01*
X111521704Y-97298639D01*
X111529460Y-97299371D01*
X111529467Y-97299373D01*
X111598614Y-97297200D01*
X111628150Y-97297200D01*
X111635028Y-97296330D01*
X111640841Y-97295872D01*
X111687427Y-97294409D01*
X111706669Y-97288817D01*
X111725712Y-97284874D01*
X111745592Y-97282364D01*
X111788922Y-97265207D01*
X111794446Y-97263317D01*
X111802118Y-97261088D01*
X111839190Y-97250318D01*
X111856429Y-97240122D01*
X111873903Y-97231562D01*
X111892527Y-97224188D01*
X111892527Y-97224187D01*
X111892532Y-97224186D01*
X111930249Y-97196782D01*
X111935105Y-97193592D01*
X111975220Y-97169870D01*
X111989389Y-97155699D01*
X112004179Y-97143068D01*
X112020387Y-97131294D01*
X112050099Y-97095376D01*
X112054012Y-97091076D01*
X112659184Y-96485904D01*
X112720505Y-96452421D01*
X112790197Y-96457405D01*
X112846130Y-96499277D01*
X112870547Y-96564741D01*
X112870184Y-96586548D01*
X112857905Y-96703382D01*
X112854140Y-96739200D01*
X112873926Y-96927456D01*
X112873927Y-96927459D01*
X112932418Y-97107477D01*
X112932421Y-97107484D01*
X113027067Y-97271416D01*
X113120099Y-97374738D01*
X113153729Y-97412088D01*
X113306865Y-97523348D01*
X113306870Y-97523351D01*
X113479792Y-97600342D01*
X113479797Y-97600344D01*
X113664954Y-97639700D01*
X113664955Y-97639700D01*
X113854244Y-97639700D01*
X113854246Y-97639700D01*
X114039403Y-97600344D01*
X114212330Y-97523351D01*
X114365471Y-97412088D01*
X114368388Y-97408847D01*
X114371200Y-97405726D01*
X114430687Y-97369079D01*
X114463348Y-97364700D01*
X116465757Y-97364700D01*
X116481377Y-97366424D01*
X116481404Y-97366139D01*
X116489160Y-97366871D01*
X116489167Y-97366873D01*
X116558314Y-97364700D01*
X116587850Y-97364700D01*
X116594728Y-97363830D01*
X116600541Y-97363372D01*
X116647127Y-97361909D01*
X116666369Y-97356317D01*
X116685412Y-97352374D01*
X116705292Y-97349864D01*
X116748622Y-97332707D01*
X116754146Y-97330817D01*
X116757896Y-97329727D01*
X116798890Y-97317818D01*
X116816129Y-97307622D01*
X116833603Y-97299062D01*
X116852227Y-97291688D01*
X116852227Y-97291687D01*
X116852232Y-97291686D01*
X116889949Y-97264282D01*
X116894805Y-97261092D01*
X116934920Y-97237370D01*
X116949089Y-97223199D01*
X116963879Y-97210568D01*
X116980087Y-97198794D01*
X117009799Y-97162876D01*
X117013712Y-97158576D01*
X118893871Y-95278419D01*
X118955194Y-95244934D01*
X118981552Y-95242100D01*
X122232252Y-95242100D01*
X122299291Y-95261785D01*
X122324400Y-95283126D01*
X122330126Y-95289485D01*
X122330130Y-95289489D01*
X122483265Y-95400748D01*
X122483270Y-95400751D01*
X122656192Y-95477742D01*
X122656197Y-95477744D01*
X122841354Y-95517100D01*
X122841355Y-95517100D01*
X123030644Y-95517100D01*
X123030646Y-95517100D01*
X123215803Y-95477744D01*
X123388730Y-95400751D01*
X123541871Y-95289488D01*
X123668533Y-95148816D01*
X123763179Y-94984884D01*
X123821674Y-94804856D01*
X123841460Y-94616600D01*
X123821674Y-94428344D01*
X123763179Y-94248316D01*
X123668533Y-94084384D01*
X123541871Y-93943712D01*
X123541870Y-93943711D01*
X123388734Y-93832451D01*
X123388729Y-93832448D01*
X123215807Y-93755457D01*
X123215802Y-93755455D01*
X123070001Y-93724465D01*
X123030646Y-93716100D01*
X122841354Y-93716100D01*
X122808897Y-93722998D01*
X122656197Y-93755455D01*
X122656192Y-93755457D01*
X122483270Y-93832448D01*
X122483265Y-93832451D01*
X122330130Y-93943710D01*
X122330126Y-93943714D01*
X122324400Y-93950074D01*
X122264913Y-93986721D01*
X122232252Y-93991100D01*
X118753843Y-93991100D01*
X118738222Y-93989375D01*
X118738195Y-93989661D01*
X118730433Y-93988926D01*
X118661272Y-93991100D01*
X118631749Y-93991100D01*
X118624878Y-93991967D01*
X118619059Y-93992425D01*
X118572474Y-93993889D01*
X118572468Y-93993890D01*
X118553226Y-93999480D01*
X118534187Y-94003423D01*
X118514317Y-94005934D01*
X118514303Y-94005937D01*
X118470983Y-94023088D01*
X118465458Y-94024980D01*
X118420713Y-94037980D01*
X118420710Y-94037981D01*
X118403466Y-94048179D01*
X118386005Y-94056733D01*
X118367374Y-94064110D01*
X118367362Y-94064117D01*
X118329670Y-94091502D01*
X118324787Y-94094709D01*
X118284680Y-94118429D01*
X118270514Y-94132595D01*
X118255724Y-94145227D01*
X118239514Y-94157004D01*
X118239511Y-94157007D01*
X118209810Y-94192909D01*
X118205877Y-94197231D01*
X116325728Y-96077381D01*
X116264405Y-96110866D01*
X116238047Y-96113700D01*
X114463348Y-96113700D01*
X114396309Y-96094015D01*
X114371200Y-96072674D01*
X114365473Y-96066314D01*
X114365469Y-96066310D01*
X114212334Y-95955051D01*
X114212329Y-95955048D01*
X114039407Y-95878057D01*
X114039402Y-95878055D01*
X113893601Y-95847065D01*
X113854246Y-95838700D01*
X113664954Y-95838700D01*
X113664952Y-95838700D01*
X113619068Y-95848453D01*
X113549401Y-95843137D01*
X113493668Y-95800999D01*
X113469563Y-95735419D01*
X113484740Y-95667218D01*
X113505604Y-95639484D01*
X116027272Y-93117819D01*
X116088595Y-93084334D01*
X116114953Y-93081500D01*
X122481562Y-93081500D01*
X122497182Y-93083224D01*
X122497209Y-93082939D01*
X122504965Y-93083671D01*
X122504972Y-93083673D01*
X122574119Y-93081500D01*
X122603655Y-93081500D01*
X122610533Y-93080630D01*
X122616346Y-93080172D01*
X122662932Y-93078709D01*
X122682174Y-93073117D01*
X122701217Y-93069174D01*
X122721097Y-93066664D01*
X122764427Y-93049507D01*
X122769951Y-93047617D01*
X122773701Y-93046527D01*
X122814695Y-93034618D01*
X122831934Y-93024422D01*
X122849408Y-93015862D01*
X122868032Y-93008488D01*
X122868032Y-93008487D01*
X122868037Y-93008486D01*
X122905754Y-92981082D01*
X122910610Y-92977892D01*
X122950725Y-92954170D01*
X122964894Y-92939999D01*
X122979684Y-92927368D01*
X122995892Y-92915594D01*
X123025604Y-92879676D01*
X123029517Y-92875376D01*
X127415376Y-88489519D01*
X127476699Y-88456034D01*
X127503057Y-88453200D01*
X133004515Y-88453200D01*
X133071554Y-88472885D01*
G37*
%TD.AperFunction*%
%TA.AperFunction,Conductor*%
G36*
X78032210Y-89164185D02*
G01*
X78077965Y-89216989D01*
X78087354Y-89274502D01*
X78088540Y-89274502D01*
X78088540Y-89280997D01*
X78088540Y-89281000D01*
X78108326Y-89469256D01*
X78108327Y-89469259D01*
X78166818Y-89649277D01*
X78166821Y-89649284D01*
X78261467Y-89813216D01*
X78375817Y-89940214D01*
X78388129Y-89953888D01*
X78541265Y-90065148D01*
X78541270Y-90065151D01*
X78714192Y-90142142D01*
X78714197Y-90142144D01*
X78899354Y-90181500D01*
X78899355Y-90181500D01*
X79088644Y-90181500D01*
X79088646Y-90181500D01*
X79273803Y-90142144D01*
X79446730Y-90065151D01*
X79598090Y-89955182D01*
X79663896Y-89931702D01*
X79670975Y-89931500D01*
X82508025Y-89931500D01*
X82575064Y-89951185D01*
X82580910Y-89955182D01*
X82732265Y-90065148D01*
X82732270Y-90065151D01*
X82905192Y-90142142D01*
X82905197Y-90142144D01*
X83090354Y-90181500D01*
X83090355Y-90181500D01*
X83279644Y-90181500D01*
X83279646Y-90181500D01*
X83464803Y-90142144D01*
X83637730Y-90065151D01*
X83790871Y-89953888D01*
X83917533Y-89813216D01*
X84012179Y-89649284D01*
X84070674Y-89469256D01*
X84090460Y-89281000D01*
X84090460Y-89280997D01*
X84090460Y-89274502D01*
X84091782Y-89274502D01*
X84103076Y-89212735D01*
X84150807Y-89161710D01*
X84213829Y-89144500D01*
X97857771Y-89144500D01*
X97924810Y-89164185D01*
X97942652Y-89178106D01*
X97989636Y-89222227D01*
X98010529Y-89243120D01*
X98016011Y-89247373D01*
X98020443Y-89251157D01*
X98054418Y-89283062D01*
X98071976Y-89292714D01*
X98088235Y-89303395D01*
X98104064Y-89315673D01*
X98146838Y-89334182D01*
X98152056Y-89336738D01*
X98192908Y-89359197D01*
X98212316Y-89364180D01*
X98230717Y-89370480D01*
X98249104Y-89378437D01*
X98292488Y-89385308D01*
X98295119Y-89385725D01*
X98300839Y-89386909D01*
X98345981Y-89398500D01*
X98366016Y-89398500D01*
X98385414Y-89400026D01*
X98405194Y-89403159D01*
X98405195Y-89403160D01*
X98405195Y-89403159D01*
X98405196Y-89403160D01*
X98451584Y-89398775D01*
X98457422Y-89398500D01*
X100120257Y-89398500D01*
X100135877Y-89400224D01*
X100135904Y-89399939D01*
X100143660Y-89400671D01*
X100143667Y-89400673D01*
X100212814Y-89398500D01*
X100242350Y-89398500D01*
X100249228Y-89397630D01*
X100255041Y-89397172D01*
X100301627Y-89395709D01*
X100320869Y-89390117D01*
X100339912Y-89386174D01*
X100359792Y-89383664D01*
X100403122Y-89366507D01*
X100408646Y-89364617D01*
X100412396Y-89363527D01*
X100453390Y-89351618D01*
X100470629Y-89341422D01*
X100488103Y-89332862D01*
X100506727Y-89325488D01*
X100506727Y-89325487D01*
X100506732Y-89325486D01*
X100544449Y-89298082D01*
X100549305Y-89294892D01*
X100589420Y-89271170D01*
X100603589Y-89256999D01*
X100618379Y-89244368D01*
X100634587Y-89232594D01*
X100664297Y-89196678D01*
X100668204Y-89192384D01*
X100679776Y-89180812D01*
X100741099Y-89147332D01*
X100767451Y-89144500D01*
X108782548Y-89144500D01*
X108849587Y-89164185D01*
X108870229Y-89180819D01*
X109453181Y-89763771D01*
X109486666Y-89825094D01*
X109489500Y-89851452D01*
X109489500Y-90463870D01*
X109489501Y-90463876D01*
X109495908Y-90523483D01*
X109546202Y-90658328D01*
X109546206Y-90658335D01*
X109632452Y-90773544D01*
X109632455Y-90773547D01*
X109747664Y-90859793D01*
X109747671Y-90859797D01*
X109882517Y-90910091D01*
X109882516Y-90910091D01*
X109886451Y-90910514D01*
X109942127Y-90916500D01*
X110845547Y-90916499D01*
X110912586Y-90936183D01*
X110958341Y-90988987D01*
X110968285Y-91058146D01*
X110939260Y-91121702D01*
X110933228Y-91128180D01*
X107384528Y-94676881D01*
X107323205Y-94710366D01*
X107296847Y-94713200D01*
X104059890Y-94713200D01*
X103992851Y-94693515D01*
X103947096Y-94640711D01*
X103937152Y-94571553D01*
X103966177Y-94507997D01*
X103987005Y-94488882D01*
X104070328Y-94428344D01*
X104110871Y-94398888D01*
X104237533Y-94258216D01*
X104332179Y-94094284D01*
X104387522Y-93923955D01*
X104417769Y-93874597D01*
X105689771Y-92602595D01*
X105751092Y-92569112D01*
X105751448Y-92569034D01*
X105816803Y-92555144D01*
X105989730Y-92478151D01*
X106142871Y-92366888D01*
X106269533Y-92226216D01*
X106364179Y-92062284D01*
X106422674Y-91882256D01*
X106442460Y-91694000D01*
X106422674Y-91505744D01*
X106364179Y-91325716D01*
X106269533Y-91161784D01*
X106142871Y-91021112D01*
X106142870Y-91021111D01*
X105989734Y-90909851D01*
X105989729Y-90909848D01*
X105816807Y-90832857D01*
X105816802Y-90832855D01*
X105671001Y-90801865D01*
X105631646Y-90793500D01*
X105442354Y-90793500D01*
X105409897Y-90800398D01*
X105257197Y-90832855D01*
X105257192Y-90832857D01*
X105084270Y-90909848D01*
X105084265Y-90909851D01*
X104931129Y-91021111D01*
X104804466Y-91161785D01*
X104709821Y-91325715D01*
X104709819Y-91325719D01*
X104654478Y-91496041D01*
X104624228Y-91545403D01*
X103352228Y-92817402D01*
X103290905Y-92850887D01*
X103290329Y-92851011D01*
X103225196Y-92864856D01*
X103225192Y-92864857D01*
X103052270Y-92941848D01*
X103052265Y-92941851D01*
X102899129Y-93053111D01*
X102772466Y-93193785D01*
X102677821Y-93357715D01*
X102677818Y-93357722D01*
X102622479Y-93528039D01*
X102592228Y-93577402D01*
X102465537Y-93704095D01*
X102342251Y-93827381D01*
X102280928Y-93860866D01*
X102254570Y-93863700D01*
X98964337Y-93863700D01*
X98897298Y-93844015D01*
X98891452Y-93840018D01*
X98877734Y-93830051D01*
X98877729Y-93830048D01*
X98704807Y-93753057D01*
X98704802Y-93753055D01*
X98559001Y-93722065D01*
X98519646Y-93713700D01*
X98330354Y-93713700D01*
X98322634Y-93715341D01*
X98145197Y-93753055D01*
X98145192Y-93753057D01*
X97972270Y-93830048D01*
X97972265Y-93830051D01*
X97819129Y-93941311D01*
X97692466Y-94081985D01*
X97597821Y-94245915D01*
X97597818Y-94245922D01*
X97551752Y-94387700D01*
X97539326Y-94425944D01*
X97520805Y-94602163D01*
X97494222Y-94666776D01*
X97436924Y-94706761D01*
X97397485Y-94713200D01*
X97130116Y-94713200D01*
X97063077Y-94693515D01*
X97017322Y-94640711D01*
X97006827Y-94575943D01*
X97011999Y-94527841D01*
X97012000Y-94527827D01*
X97012000Y-94230000D01*
X96226483Y-94230000D01*
X96297801Y-94145007D01*
X96337000Y-94037306D01*
X96337000Y-93922694D01*
X96297801Y-93814993D01*
X96226483Y-93730000D01*
X97012000Y-93730000D01*
X97012000Y-93432172D01*
X97011999Y-93432155D01*
X97005598Y-93372627D01*
X97005597Y-93372623D01*
X96955351Y-93237908D01*
X96949510Y-93230106D01*
X96925091Y-93164642D01*
X96938752Y-93100466D01*
X96938483Y-93100355D01*
X96939086Y-93098899D01*
X96939418Y-93097338D01*
X96940814Y-93094727D01*
X96998024Y-92906132D01*
X97017341Y-92710000D01*
X96998024Y-92513868D01*
X96940814Y-92325273D01*
X96847910Y-92151462D01*
X96847907Y-92151458D01*
X96844523Y-92146393D01*
X96846164Y-92145296D01*
X96822405Y-92089361D01*
X96834194Y-92020493D01*
X96844888Y-92003851D01*
X96844523Y-92003607D01*
X96847904Y-91998544D01*
X96847910Y-91998538D01*
X96940814Y-91824727D01*
X96998024Y-91636132D01*
X97017341Y-91440000D01*
X96998024Y-91243868D01*
X96940814Y-91055273D01*
X96940811Y-91055269D01*
X96940811Y-91055266D01*
X96847913Y-90881467D01*
X96847909Y-90881460D01*
X96722883Y-90729116D01*
X96570539Y-90604090D01*
X96570532Y-90604086D01*
X96396733Y-90511188D01*
X96396727Y-90511186D01*
X96208132Y-90453976D01*
X96208129Y-90453975D01*
X96012000Y-90434659D01*
X95815870Y-90453975D01*
X95627266Y-90511188D01*
X95453467Y-90604086D01*
X95453460Y-90604090D01*
X95301116Y-90729116D01*
X95176090Y-90881460D01*
X95176086Y-90881467D01*
X95083188Y-91055266D01*
X95025975Y-91243870D01*
X95006659Y-91440000D01*
X95025975Y-91636129D01*
X95025976Y-91636132D01*
X95069992Y-91781234D01*
X95083188Y-91824733D01*
X95176086Y-91998532D01*
X95179473Y-92003601D01*
X95177836Y-92004694D01*
X95201596Y-92060663D01*
X95189795Y-92129529D01*
X95179109Y-92146156D01*
X95179473Y-92146399D01*
X95176086Y-92151467D01*
X95083188Y-92325266D01*
X95025975Y-92513870D01*
X95006659Y-92710000D01*
X95025975Y-92906129D01*
X95025976Y-92906132D01*
X95083186Y-93094727D01*
X95083187Y-93094730D01*
X95083188Y-93094731D01*
X95084583Y-93097341D01*
X95084901Y-93098870D01*
X95085518Y-93100359D01*
X95085235Y-93100475D01*
X95098824Y-93165743D01*
X95074492Y-93230102D01*
X95068648Y-93237907D01*
X95068645Y-93237913D01*
X95018403Y-93372620D01*
X95018401Y-93372627D01*
X95012000Y-93432155D01*
X95012000Y-93730000D01*
X95797517Y-93730000D01*
X95726199Y-93814993D01*
X95687000Y-93922694D01*
X95687000Y-94037306D01*
X95726199Y-94145007D01*
X95797517Y-94230000D01*
X95012000Y-94230000D01*
X95012000Y-94527841D01*
X95017173Y-94575943D01*
X95004769Y-94644703D01*
X94957159Y-94695841D01*
X94893884Y-94713200D01*
X74198243Y-94713200D01*
X74182622Y-94711475D01*
X74182596Y-94711761D01*
X74174834Y-94711027D01*
X74174833Y-94711027D01*
X74105686Y-94713200D01*
X74076149Y-94713200D01*
X74069266Y-94714069D01*
X74063449Y-94714526D01*
X74016873Y-94715990D01*
X73997629Y-94721581D01*
X73978579Y-94725525D01*
X73958711Y-94728034D01*
X73915384Y-94745188D01*
X73909858Y-94747079D01*
X73865114Y-94760079D01*
X73865110Y-94760081D01*
X73847866Y-94770279D01*
X73830405Y-94778833D01*
X73811774Y-94786210D01*
X73811762Y-94786217D01*
X73774070Y-94813602D01*
X73769187Y-94816809D01*
X73729080Y-94840529D01*
X73714914Y-94854695D01*
X73700116Y-94867333D01*
X73688380Y-94875859D01*
X73622573Y-94899336D01*
X73554520Y-94883508D01*
X73505827Y-94833400D01*
X73491499Y-94775541D01*
X73491499Y-94387699D01*
X73511184Y-94320661D01*
X73563988Y-94274906D01*
X73615499Y-94263700D01*
X74427057Y-94263700D01*
X74442677Y-94265424D01*
X74442704Y-94265139D01*
X74450460Y-94265871D01*
X74450467Y-94265873D01*
X74519614Y-94263700D01*
X74549150Y-94263700D01*
X74556028Y-94262830D01*
X74561841Y-94262372D01*
X74608427Y-94260909D01*
X74627669Y-94255317D01*
X74646712Y-94251374D01*
X74666592Y-94248864D01*
X74709922Y-94231707D01*
X74715446Y-94229817D01*
X74719196Y-94228727D01*
X74760190Y-94216818D01*
X74777429Y-94206622D01*
X74794903Y-94198062D01*
X74813527Y-94190688D01*
X74813527Y-94190687D01*
X74813532Y-94190686D01*
X74851249Y-94163282D01*
X74856105Y-94160092D01*
X74896220Y-94136370D01*
X74910389Y-94122199D01*
X74925179Y-94109568D01*
X74941387Y-94097794D01*
X74971085Y-94061893D01*
X74975017Y-94057572D01*
X75009501Y-94023088D01*
X75059791Y-93972798D01*
X75072050Y-93962979D01*
X75071867Y-93962758D01*
X75077876Y-93957787D01*
X75087546Y-93947490D01*
X75125227Y-93907363D01*
X75146120Y-93886471D01*
X75150379Y-93880978D01*
X75154152Y-93876561D01*
X75186062Y-93842582D01*
X75195713Y-93825024D01*
X75206396Y-93808761D01*
X75218673Y-93792936D01*
X75237185Y-93750153D01*
X75239738Y-93744941D01*
X75262197Y-93704092D01*
X75267180Y-93684680D01*
X75273481Y-93666280D01*
X75281437Y-93647896D01*
X75288729Y-93601852D01*
X75289906Y-93596171D01*
X75301500Y-93551019D01*
X75301500Y-93530983D01*
X75303027Y-93511582D01*
X75304899Y-93499763D01*
X75306160Y-93491804D01*
X75301775Y-93445415D01*
X75301500Y-93439577D01*
X75301500Y-92964000D01*
X84692540Y-92964000D01*
X84712326Y-93152256D01*
X84712327Y-93152259D01*
X84770818Y-93332277D01*
X84770821Y-93332284D01*
X84865467Y-93496216D01*
X84957625Y-93598567D01*
X84992129Y-93636888D01*
X85145265Y-93748148D01*
X85145270Y-93748151D01*
X85318192Y-93825142D01*
X85318197Y-93825144D01*
X85417428Y-93846236D01*
X85448489Y-93858678D01*
X85448779Y-93858059D01*
X85455321Y-93861109D01*
X85455323Y-93861111D01*
X85524930Y-93893569D01*
X85593567Y-93928040D01*
X85593576Y-93928042D01*
X85600355Y-93930510D01*
X85600334Y-93930567D01*
X85607451Y-93933040D01*
X85607470Y-93932984D01*
X85614330Y-93935257D01*
X85673622Y-93947499D01*
X85689532Y-93950784D01*
X85764279Y-93968500D01*
X85764288Y-93968500D01*
X85771452Y-93969338D01*
X85771445Y-93969397D01*
X85778946Y-93970163D01*
X85778952Y-93970104D01*
X85786140Y-93970733D01*
X85786143Y-93970732D01*
X85786144Y-93970733D01*
X85862898Y-93968500D01*
X87090663Y-93968500D01*
X87157702Y-93988185D01*
X87163548Y-93992182D01*
X87177265Y-94002148D01*
X87177270Y-94002151D01*
X87350192Y-94079142D01*
X87350197Y-94079144D01*
X87535354Y-94118500D01*
X87535355Y-94118500D01*
X87724644Y-94118500D01*
X87724646Y-94118500D01*
X87909803Y-94079144D01*
X88082730Y-94002151D01*
X88235871Y-93890888D01*
X88362533Y-93750216D01*
X88457179Y-93586284D01*
X88515674Y-93406256D01*
X88535460Y-93218000D01*
X88515674Y-93029744D01*
X88457600Y-92851011D01*
X88457181Y-92849722D01*
X88457180Y-92849721D01*
X88457179Y-92849716D01*
X88362533Y-92685784D01*
X88235871Y-92545112D01*
X88235870Y-92545111D01*
X88082734Y-92433851D01*
X88082729Y-92433848D01*
X87909807Y-92356857D01*
X87909802Y-92356855D01*
X87761182Y-92325266D01*
X87724646Y-92317500D01*
X87535354Y-92317500D01*
X87502897Y-92324398D01*
X87350197Y-92356855D01*
X87350192Y-92356857D01*
X87177270Y-92433848D01*
X87177265Y-92433851D01*
X87163548Y-92443818D01*
X87097742Y-92467298D01*
X87090663Y-92467500D01*
X86417900Y-92467500D01*
X86350861Y-92447815D01*
X86325750Y-92426472D01*
X86203870Y-92291111D01*
X86050734Y-92179851D01*
X86050729Y-92179848D01*
X85877807Y-92102857D01*
X85877802Y-92102855D01*
X85732001Y-92071865D01*
X85692646Y-92063500D01*
X85503354Y-92063500D01*
X85470897Y-92070398D01*
X85318197Y-92102855D01*
X85318192Y-92102857D01*
X85145270Y-92179848D01*
X85145265Y-92179851D01*
X84992129Y-92291111D01*
X84865466Y-92431785D01*
X84770821Y-92595715D01*
X84770818Y-92595722D01*
X84715347Y-92766445D01*
X84712326Y-92775744D01*
X84692540Y-92964000D01*
X75301500Y-92964000D01*
X75301500Y-90988452D01*
X75321185Y-90921413D01*
X75337819Y-90900771D01*
X75893772Y-90344819D01*
X75955095Y-90311334D01*
X75981453Y-90308500D01*
X76040644Y-90308500D01*
X76040646Y-90308500D01*
X76225803Y-90269144D01*
X76398730Y-90192151D01*
X76551871Y-90080888D01*
X76678533Y-89940216D01*
X76773179Y-89776284D01*
X76831674Y-89596256D01*
X76851460Y-89408000D01*
X76838160Y-89281459D01*
X76850730Y-89212732D01*
X76898462Y-89161708D01*
X76961481Y-89144500D01*
X77965171Y-89144500D01*
X78032210Y-89164185D01*
G37*
%TD.AperFunction*%
%TD*%
M02*
