%TF.GenerationSoftware,KiCad,Pcbnew,7.0.8*%
%TF.CreationDate,2023-11-09T12:13:35+01:00*%
%TF.ProjectId,travel_pressure_pcb,74726176-656c-45f7-9072-657373757265,rev?*%
%TF.SameCoordinates,Original*%
%TF.FileFunction,Legend,Bot*%
%TF.FilePolarity,Positive*%
%FSLAX46Y46*%
G04 Gerber Fmt 4.6, Leading zero omitted, Abs format (unit mm)*
G04 Created by KiCad (PCBNEW 7.0.8) date 2023-11-09 12:13:35*
%MOMM*%
%LPD*%
G01*
G04 APERTURE LIST*
%ADD10C,0.210000*%
%ADD11C,0.254000*%
%ADD12C,0.127000*%
G04 APERTURE END LIST*
D10*
X108845300Y-79665557D02*
X108845300Y-80141747D01*
X108845300Y-80141747D02*
X109845300Y-80141747D01*
X109369110Y-78998890D02*
X109321491Y-78856033D01*
X109321491Y-78856033D02*
X109273872Y-78808414D01*
X109273872Y-78808414D02*
X109178634Y-78760795D01*
X109178634Y-78760795D02*
X109035777Y-78760795D01*
X109035777Y-78760795D02*
X108940539Y-78808414D01*
X108940539Y-78808414D02*
X108892920Y-78856033D01*
X108892920Y-78856033D02*
X108845300Y-78951271D01*
X108845300Y-78951271D02*
X108845300Y-79332223D01*
X108845300Y-79332223D02*
X109845300Y-79332223D01*
X109845300Y-79332223D02*
X109845300Y-78998890D01*
X109845300Y-78998890D02*
X109797681Y-78903652D01*
X109797681Y-78903652D02*
X109750062Y-78856033D01*
X109750062Y-78856033D02*
X109654824Y-78808414D01*
X109654824Y-78808414D02*
X109559586Y-78808414D01*
X109559586Y-78808414D02*
X109464348Y-78856033D01*
X109464348Y-78856033D02*
X109416729Y-78903652D01*
X109416729Y-78903652D02*
X109369110Y-78998890D01*
X109369110Y-78998890D02*
X109369110Y-79332223D01*
X105924300Y-79570319D02*
X106400491Y-79903652D01*
X105924300Y-80141747D02*
X106924300Y-80141747D01*
X106924300Y-80141747D02*
X106924300Y-79760795D01*
X106924300Y-79760795D02*
X106876681Y-79665557D01*
X106876681Y-79665557D02*
X106829062Y-79617938D01*
X106829062Y-79617938D02*
X106733824Y-79570319D01*
X106733824Y-79570319D02*
X106590967Y-79570319D01*
X106590967Y-79570319D02*
X106495729Y-79617938D01*
X106495729Y-79617938D02*
X106448110Y-79665557D01*
X106448110Y-79665557D02*
X106400491Y-79760795D01*
X106400491Y-79760795D02*
X106400491Y-80141747D01*
X106448110Y-78808414D02*
X106448110Y-79141747D01*
X105924300Y-79141747D02*
X106924300Y-79141747D01*
X106924300Y-79141747D02*
X106924300Y-78665557D01*
X113988681Y-80633938D02*
X114036300Y-80729176D01*
X114036300Y-80729176D02*
X114036300Y-80872033D01*
X114036300Y-80872033D02*
X113988681Y-81014890D01*
X113988681Y-81014890D02*
X113893443Y-81110128D01*
X113893443Y-81110128D02*
X113798205Y-81157747D01*
X113798205Y-81157747D02*
X113607729Y-81205366D01*
X113607729Y-81205366D02*
X113464872Y-81205366D01*
X113464872Y-81205366D02*
X113274396Y-81157747D01*
X113274396Y-81157747D02*
X113179158Y-81110128D01*
X113179158Y-81110128D02*
X113083920Y-81014890D01*
X113083920Y-81014890D02*
X113036300Y-80872033D01*
X113036300Y-80872033D02*
X113036300Y-80776795D01*
X113036300Y-80776795D02*
X113083920Y-80633938D01*
X113083920Y-80633938D02*
X113131539Y-80586319D01*
X113131539Y-80586319D02*
X113464872Y-80586319D01*
X113464872Y-80586319D02*
X113464872Y-80776795D01*
X113036300Y-80157747D02*
X114036300Y-80157747D01*
X114036300Y-80157747D02*
X113036300Y-79586319D01*
X113036300Y-79586319D02*
X114036300Y-79586319D01*
X113036300Y-79110128D02*
X114036300Y-79110128D01*
X114036300Y-79110128D02*
X114036300Y-78872033D01*
X114036300Y-78872033D02*
X113988681Y-78729176D01*
X113988681Y-78729176D02*
X113893443Y-78633938D01*
X113893443Y-78633938D02*
X113798205Y-78586319D01*
X113798205Y-78586319D02*
X113607729Y-78538700D01*
X113607729Y-78538700D02*
X113464872Y-78538700D01*
X113464872Y-78538700D02*
X113274396Y-78586319D01*
X113274396Y-78586319D02*
X113179158Y-78633938D01*
X113179158Y-78633938D02*
X113083920Y-78729176D01*
X113083920Y-78729176D02*
X113036300Y-78872033D01*
X113036300Y-78872033D02*
X113036300Y-79110128D01*
X101860300Y-80141747D02*
X102860300Y-80141747D01*
X102860300Y-80141747D02*
X102860300Y-79760795D01*
X102860300Y-79760795D02*
X102812681Y-79665557D01*
X102812681Y-79665557D02*
X102765062Y-79617938D01*
X102765062Y-79617938D02*
X102669824Y-79570319D01*
X102669824Y-79570319D02*
X102526967Y-79570319D01*
X102526967Y-79570319D02*
X102431729Y-79617938D01*
X102431729Y-79617938D02*
X102384110Y-79665557D01*
X102384110Y-79665557D02*
X102336491Y-79760795D01*
X102336491Y-79760795D02*
X102336491Y-80141747D01*
X101860300Y-78570319D02*
X102336491Y-78903652D01*
X101860300Y-79141747D02*
X102860300Y-79141747D01*
X102860300Y-79141747D02*
X102860300Y-78760795D01*
X102860300Y-78760795D02*
X102812681Y-78665557D01*
X102812681Y-78665557D02*
X102765062Y-78617938D01*
X102765062Y-78617938D02*
X102669824Y-78570319D01*
X102669824Y-78570319D02*
X102526967Y-78570319D01*
X102526967Y-78570319D02*
X102431729Y-78617938D01*
X102431729Y-78617938D02*
X102384110Y-78665557D01*
X102384110Y-78665557D02*
X102336491Y-78760795D01*
X102336491Y-78760795D02*
X102336491Y-79141747D01*
X105527300Y-80490985D02*
X105527300Y-79871938D01*
X105527300Y-79871938D02*
X105146348Y-80205271D01*
X105146348Y-80205271D02*
X105146348Y-80062414D01*
X105146348Y-80062414D02*
X105098729Y-79967176D01*
X105098729Y-79967176D02*
X105051110Y-79919557D01*
X105051110Y-79919557D02*
X104955872Y-79871938D01*
X104955872Y-79871938D02*
X104717777Y-79871938D01*
X104717777Y-79871938D02*
X104622539Y-79919557D01*
X104622539Y-79919557D02*
X104574920Y-79967176D01*
X104574920Y-79967176D02*
X104527300Y-80062414D01*
X104527300Y-80062414D02*
X104527300Y-80348128D01*
X104527300Y-80348128D02*
X104574920Y-80443366D01*
X104574920Y-80443366D02*
X104622539Y-80490985D01*
X104622539Y-79443366D02*
X104574920Y-79395747D01*
X104574920Y-79395747D02*
X104527300Y-79443366D01*
X104527300Y-79443366D02*
X104574920Y-79490985D01*
X104574920Y-79490985D02*
X104622539Y-79443366D01*
X104622539Y-79443366D02*
X104527300Y-79443366D01*
X105527300Y-79062414D02*
X105527300Y-78443367D01*
X105527300Y-78443367D02*
X105146348Y-78776700D01*
X105146348Y-78776700D02*
X105146348Y-78633843D01*
X105146348Y-78633843D02*
X105098729Y-78538605D01*
X105098729Y-78538605D02*
X105051110Y-78490986D01*
X105051110Y-78490986D02*
X104955872Y-78443367D01*
X104955872Y-78443367D02*
X104717777Y-78443367D01*
X104717777Y-78443367D02*
X104622539Y-78490986D01*
X104622539Y-78490986D02*
X104574920Y-78538605D01*
X104574920Y-78538605D02*
X104527300Y-78633843D01*
X104527300Y-78633843D02*
X104527300Y-78919557D01*
X104527300Y-78919557D02*
X104574920Y-79014795D01*
X104574920Y-79014795D02*
X104622539Y-79062414D01*
X105527300Y-78157652D02*
X104527300Y-77824319D01*
X104527300Y-77824319D02*
X105527300Y-77490986D01*
X104082681Y-80506938D02*
X104130300Y-80602176D01*
X104130300Y-80602176D02*
X104130300Y-80745033D01*
X104130300Y-80745033D02*
X104082681Y-80887890D01*
X104082681Y-80887890D02*
X103987443Y-80983128D01*
X103987443Y-80983128D02*
X103892205Y-81030747D01*
X103892205Y-81030747D02*
X103701729Y-81078366D01*
X103701729Y-81078366D02*
X103558872Y-81078366D01*
X103558872Y-81078366D02*
X103368396Y-81030747D01*
X103368396Y-81030747D02*
X103273158Y-80983128D01*
X103273158Y-80983128D02*
X103177920Y-80887890D01*
X103177920Y-80887890D02*
X103130300Y-80745033D01*
X103130300Y-80745033D02*
X103130300Y-80649795D01*
X103130300Y-80649795D02*
X103177920Y-80506938D01*
X103177920Y-80506938D02*
X103225539Y-80459319D01*
X103225539Y-80459319D02*
X103558872Y-80459319D01*
X103558872Y-80459319D02*
X103558872Y-80649795D01*
X103130300Y-80030747D02*
X104130300Y-80030747D01*
X104130300Y-80030747D02*
X103130300Y-79459319D01*
X103130300Y-79459319D02*
X104130300Y-79459319D01*
X103130300Y-78983128D02*
X104130300Y-78983128D01*
X104130300Y-78983128D02*
X104130300Y-78745033D01*
X104130300Y-78745033D02*
X104082681Y-78602176D01*
X104082681Y-78602176D02*
X103987443Y-78506938D01*
X103987443Y-78506938D02*
X103892205Y-78459319D01*
X103892205Y-78459319D02*
X103701729Y-78411700D01*
X103701729Y-78411700D02*
X103558872Y-78411700D01*
X103558872Y-78411700D02*
X103368396Y-78459319D01*
X103368396Y-78459319D02*
X103273158Y-78506938D01*
X103273158Y-78506938D02*
X103177920Y-78602176D01*
X103177920Y-78602176D02*
X103130300Y-78745033D01*
X103130300Y-78745033D02*
X103130300Y-78983128D01*
X110242300Y-79570319D02*
X110718491Y-79903652D01*
X110242300Y-80141747D02*
X111242300Y-80141747D01*
X111242300Y-80141747D02*
X111242300Y-79760795D01*
X111242300Y-79760795D02*
X111194681Y-79665557D01*
X111194681Y-79665557D02*
X111147062Y-79617938D01*
X111147062Y-79617938D02*
X111051824Y-79570319D01*
X111051824Y-79570319D02*
X110908967Y-79570319D01*
X110908967Y-79570319D02*
X110813729Y-79617938D01*
X110813729Y-79617938D02*
X110766110Y-79665557D01*
X110766110Y-79665557D02*
X110718491Y-79760795D01*
X110718491Y-79760795D02*
X110718491Y-80141747D01*
X110766110Y-78808414D02*
X110718491Y-78665557D01*
X110718491Y-78665557D02*
X110670872Y-78617938D01*
X110670872Y-78617938D02*
X110575634Y-78570319D01*
X110575634Y-78570319D02*
X110432777Y-78570319D01*
X110432777Y-78570319D02*
X110337539Y-78617938D01*
X110337539Y-78617938D02*
X110289920Y-78665557D01*
X110289920Y-78665557D02*
X110242300Y-78760795D01*
X110242300Y-78760795D02*
X110242300Y-79141747D01*
X110242300Y-79141747D02*
X111242300Y-79141747D01*
X111242300Y-79141747D02*
X111242300Y-78808414D01*
X111242300Y-78808414D02*
X111194681Y-78713176D01*
X111194681Y-78713176D02*
X111147062Y-78665557D01*
X111147062Y-78665557D02*
X111051824Y-78617938D01*
X111051824Y-78617938D02*
X110956586Y-78617938D01*
X110956586Y-78617938D02*
X110861348Y-78665557D01*
X110861348Y-78665557D02*
X110813729Y-78713176D01*
X110813729Y-78713176D02*
X110766110Y-78808414D01*
X110766110Y-78808414D02*
X110766110Y-79141747D01*
X100590300Y-80141747D02*
X101590300Y-80141747D01*
X101590300Y-80141747D02*
X101590300Y-79760795D01*
X101590300Y-79760795D02*
X101542681Y-79665557D01*
X101542681Y-79665557D02*
X101495062Y-79617938D01*
X101495062Y-79617938D02*
X101399824Y-79570319D01*
X101399824Y-79570319D02*
X101256967Y-79570319D01*
X101256967Y-79570319D02*
X101161729Y-79617938D01*
X101161729Y-79617938D02*
X101114110Y-79665557D01*
X101114110Y-79665557D02*
X101066491Y-79760795D01*
X101066491Y-79760795D02*
X101066491Y-80141747D01*
X101114110Y-78808414D02*
X101114110Y-79141747D01*
X100590300Y-79141747D02*
X101590300Y-79141747D01*
X101590300Y-79141747D02*
X101590300Y-78665557D01*
X112639300Y-79665557D02*
X112639300Y-80141747D01*
X112639300Y-80141747D02*
X112163110Y-80189366D01*
X112163110Y-80189366D02*
X112210729Y-80141747D01*
X112210729Y-80141747D02*
X112258348Y-80046509D01*
X112258348Y-80046509D02*
X112258348Y-79808414D01*
X112258348Y-79808414D02*
X112210729Y-79713176D01*
X112210729Y-79713176D02*
X112163110Y-79665557D01*
X112163110Y-79665557D02*
X112067872Y-79617938D01*
X112067872Y-79617938D02*
X111829777Y-79617938D01*
X111829777Y-79617938D02*
X111734539Y-79665557D01*
X111734539Y-79665557D02*
X111686920Y-79713176D01*
X111686920Y-79713176D02*
X111639300Y-79808414D01*
X111639300Y-79808414D02*
X111639300Y-80046509D01*
X111639300Y-80046509D02*
X111686920Y-80141747D01*
X111686920Y-80141747D02*
X111734539Y-80189366D01*
X112639300Y-79332223D02*
X111639300Y-78998890D01*
X111639300Y-78998890D02*
X112639300Y-78665557D01*
X108321300Y-80284604D02*
X108321300Y-79713176D01*
X107321300Y-79998890D02*
X108321300Y-79998890D01*
X107845110Y-79046509D02*
X107845110Y-79379842D01*
X107321300Y-79379842D02*
X108321300Y-79379842D01*
X108321300Y-79379842D02*
X108321300Y-78903652D01*
D11*
X112818332Y-76393318D02*
X112818332Y-77300461D01*
X112818332Y-77300461D02*
X112878809Y-77481889D01*
X112878809Y-77481889D02*
X112999761Y-77602842D01*
X112999761Y-77602842D02*
X113181190Y-77663318D01*
X113181190Y-77663318D02*
X113302142Y-77663318D01*
X111669285Y-76816651D02*
X111669285Y-77663318D01*
X111971666Y-76332842D02*
X112274047Y-77239984D01*
X112274047Y-77239984D02*
X111487856Y-77239984D01*
D12*
%TO.C,J4*%
X100436750Y-72679000D02*
X100436750Y-78179000D01*
X100436750Y-78179000D02*
X114686750Y-78179000D01*
X114686750Y-72679000D02*
X100436750Y-72679000D01*
X114686750Y-78179000D02*
X114686750Y-72679000D01*
X115186750Y-73729000D02*
X116186750Y-74229000D01*
X116186750Y-73229000D02*
X115186750Y-73729000D01*
X116186750Y-74229000D02*
X116186750Y-73229000D01*
%TD*%
M02*
