%TF.GenerationSoftware,KiCad,Pcbnew,7.0.8*%
%TF.CreationDate,2023-11-09T12:13:35+01:00*%
%TF.ProjectId,travel_pressure_pcb,74726176-656c-45f7-9072-657373757265,rev?*%
%TF.SameCoordinates,Original*%
%TF.FileFunction,Legend,Top*%
%TF.FilePolarity,Positive*%
%FSLAX46Y46*%
G04 Gerber Fmt 4.6, Leading zero omitted, Abs format (unit mm)*
G04 Created by KiCad (PCBNEW 7.0.8) date 2023-11-09 12:13:35*
%MOMM*%
%LPD*%
G01*
G04 APERTURE LIST*
%ADD10C,0.254000*%
%ADD11C,0.100000*%
%ADD12C,0.200000*%
G04 APERTURE END LIST*
D10*
X102428318Y-89763332D02*
X103335461Y-89763332D01*
X103335461Y-89763332D02*
X103516889Y-89823809D01*
X103516889Y-89823809D02*
X103637842Y-89944761D01*
X103637842Y-89944761D02*
X103698318Y-90126190D01*
X103698318Y-90126190D02*
X103698318Y-90247142D01*
X102549270Y-89219047D02*
X102488794Y-89158571D01*
X102488794Y-89158571D02*
X102428318Y-89037618D01*
X102428318Y-89037618D02*
X102428318Y-88735237D01*
X102428318Y-88735237D02*
X102488794Y-88614285D01*
X102488794Y-88614285D02*
X102549270Y-88553809D01*
X102549270Y-88553809D02*
X102670222Y-88493332D01*
X102670222Y-88493332D02*
X102791175Y-88493332D01*
X102791175Y-88493332D02*
X102972603Y-88553809D01*
X102972603Y-88553809D02*
X103698318Y-89279523D01*
X103698318Y-89279523D02*
X103698318Y-88493332D01*
X124417667Y-97475318D02*
X124417667Y-98382461D01*
X124417667Y-98382461D02*
X124357190Y-98563889D01*
X124357190Y-98563889D02*
X124236238Y-98684842D01*
X124236238Y-98684842D02*
X124054809Y-98745318D01*
X124054809Y-98745318D02*
X123933857Y-98745318D01*
X125687667Y-98745318D02*
X124961952Y-98745318D01*
X125324809Y-98745318D02*
X125324809Y-97475318D01*
X125324809Y-97475318D02*
X125203857Y-97656746D01*
X125203857Y-97656746D02*
X125082905Y-97777699D01*
X125082905Y-97777699D02*
X124961952Y-97838175D01*
X122707667Y-75758318D02*
X122707667Y-76665461D01*
X122707667Y-76665461D02*
X122647190Y-76846889D01*
X122647190Y-76846889D02*
X122526238Y-76967842D01*
X122526238Y-76967842D02*
X122344809Y-77028318D01*
X122344809Y-77028318D02*
X122223857Y-77028318D01*
X123191476Y-75758318D02*
X123977667Y-75758318D01*
X123977667Y-75758318D02*
X123554333Y-76242127D01*
X123554333Y-76242127D02*
X123735762Y-76242127D01*
X123735762Y-76242127D02*
X123856714Y-76302603D01*
X123856714Y-76302603D02*
X123917190Y-76363080D01*
X123917190Y-76363080D02*
X123977667Y-76484032D01*
X123977667Y-76484032D02*
X123977667Y-76786413D01*
X123977667Y-76786413D02*
X123917190Y-76907365D01*
X123917190Y-76907365D02*
X123856714Y-76967842D01*
X123856714Y-76967842D02*
X123735762Y-77028318D01*
X123735762Y-77028318D02*
X123372905Y-77028318D01*
X123372905Y-77028318D02*
X123251952Y-76967842D01*
X123251952Y-76967842D02*
X123191476Y-76907365D01*
D11*
%TO.C,J2*%
X100354000Y-95740000D02*
X100354000Y-82940000D01*
X103754000Y-95740000D02*
X100354000Y-95740000D01*
X109754000Y-95740000D02*
X113154000Y-95740000D01*
X113154000Y-95740000D02*
X113154000Y-82940000D01*
D12*
X99554000Y-91040000D02*
X99554000Y-91040000D01*
X99554000Y-91040000D02*
X99554000Y-91040000D01*
X99654000Y-91040000D02*
X99654000Y-91040000D01*
D11*
X100354000Y-82940000D02*
X103754000Y-82940000D01*
X113154000Y-82940000D02*
X109754000Y-82940000D01*
D12*
X99654000Y-91040000D02*
G75*
G03*
X99554000Y-91040000I-50000J0D01*
G01*
X99554000Y-91040000D02*
G75*
G03*
X99654000Y-91040000I50000J0D01*
G01*
X99554000Y-91040000D02*
G75*
G03*
X99654000Y-91040000I50000J0D01*
G01*
D11*
%TO.C,J1*%
X129531000Y-100879000D02*
X116731000Y-100879000D01*
X129531000Y-97479000D02*
X129531000Y-100879000D01*
X129531000Y-91479000D02*
X129531000Y-88079000D01*
X129531000Y-88079000D02*
X116731000Y-88079000D01*
D12*
X124831000Y-101679000D02*
X124831000Y-101679000D01*
X124831000Y-101679000D02*
X124831000Y-101679000D01*
X124831000Y-101579000D02*
X124831000Y-101579000D01*
D11*
X116731000Y-100879000D02*
X116731000Y-97479000D01*
X116731000Y-88079000D02*
X116731000Y-91479000D01*
D12*
X124831000Y-101579000D02*
G75*
G03*
X124831000Y-101679000I0J-50000D01*
G01*
X124831000Y-101679000D02*
G75*
G03*
X124831000Y-101579000I0J50000D01*
G01*
X124831000Y-101679000D02*
G75*
G03*
X124831000Y-101579000I0J50000D01*
G01*
D11*
%TO.C,J3*%
X116731000Y-73167000D02*
X129531000Y-73167000D01*
X116731000Y-76567000D02*
X116731000Y-73167000D01*
X116731000Y-82567000D02*
X116731000Y-85967000D01*
X116731000Y-85967000D02*
X129531000Y-85967000D01*
D12*
X121431000Y-72367000D02*
X121431000Y-72367000D01*
X121431000Y-72367000D02*
X121431000Y-72367000D01*
X121431000Y-72467000D02*
X121431000Y-72467000D01*
D11*
X129531000Y-73167000D02*
X129531000Y-76567000D01*
X129531000Y-85967000D02*
X129531000Y-82567000D01*
D12*
X121431000Y-72467000D02*
G75*
G03*
X121431000Y-72367000I0J50000D01*
G01*
X121431000Y-72367000D02*
G75*
G03*
X121431000Y-72467000I0J-50000D01*
G01*
X121431000Y-72367000D02*
G75*
G03*
X121431000Y-72467000I0J-50000D01*
G01*
%TD*%
M02*
